<?xml version="1.0" encoding="utf-8"?>
<!-- Generator: Adobe Illustrator 16.0.0, SVG Export Plug-In . SVG Version: 6.00 Build 0)  -->
<!DOCTYPE svg PUBLIC "-//W3C//DTD SVG 1.1//EN" "http://www.w3.org/Graphics/SVG/1.1/DTD/svg11.dtd">
<svg version="1.1" id="Layer_1" xmlns="http://www.w3.org/2000/svg" xmlns:xlink="http://www.w3.org/1999/xlink" x="0px" y="0px"
	 width="96px" height="96px" viewBox="0 0 96 96" enable-background="new 0 0 96 96" xml:space="preserve">
<path fill-rule="evenodd" clip-rule="evenodd" fill="none" d="M41.784,189.121c0.592,1.584,1.64,2.711,3.264,3.264
	c-1.088,0-2.176,0-3.264,0C41.784,191.296,41.784,190.208,41.784,189.121z"/>
<rect fill-rule="evenodd" clip-rule="evenodd" fill="none" width="96" height="96"/>
<g>
	<path fill="#D8C441" d="M14,70.505c0-20.49,0-40.981,0-61.472c0.594-1.583,1.699-2.653,3.264-3.264c20.49,0,40.981,0,61.472,0
		C80.303,6.379,81.459,7.398,82,9.034c0,20.49,0,40.981,0,61.472c-0.537,1.639-1.65,2.703-3.264,3.264c-5.893,0-11.787,0-17.681,0
		c0-8.687,0-17.374,0-26.163c0.675-0.037,1.162-0.085,1.65-0.087c1.993-0.01,3.988-0.044,5.98,0.013
		c0.91,0.025,1.286-0.285,1.39-1.196c0.304-2.698,0.649-5.393,1.048-8.079c0.153-1.032-0.268-1.25-1.179-1.236
		c-2.446,0.036-4.893,0.016-7.34,0.007c-0.477-0.002-0.953-0.055-1.465-0.086c0-2.605-0.083-5.052,0.024-7.491
		c0.096-2.166,1.208-3.307,3.406-3.514c1.888-0.177,3.798-0.191,5.696-0.16c1.001,0.017,1.377-0.286,1.347-1.3
		c-0.053-1.856-0.012-3.715-0.012-5.573c0.001-0.834,0-1.668,0-2.834c-3.604,0-6.916-0.206-10.192,0.046
		c-5.637,0.433-9.646,4.113-10.771,9.688c-0.347,1.715-0.382,3.503-0.447,5.261c-0.073,1.932-0.017,3.867-0.017,5.895
		c-0.664,0.029-1.151,0.067-1.638,0.069c-2.04,0.008-4.08-0.029-6.117,0.039c-0.361,0.012-1.013,0.437-1.019,0.682
		c-0.069,3.2-0.046,6.402-0.046,9.779c2.997,0,5.828,0,8.82,0c0,8.865,0,17.553,0,26.24c-10.971,0-21.941,0-32.912,0
		C15.64,73.216,14.592,72.089,14,70.505z"/>
	<g>
		<path fill-rule="evenodd" clip-rule="evenodd" fill="#D8C441" d="M46.097,90.011c0-4.1,0-8.036,0-12.05
			c0.847-0.111,1.654-0.216,2.542-0.333c0.149,1.64,0.011,3.217,0.092,4.882c0.231-0.135,0.409-0.231,0.581-0.339
			c1.55-0.965,3.842-0.237,4.478,1.463c0.526,1.407,0.604,2.851,0.126,4.296c-0.711,2.151-3.013,2.929-4.904,1.662
			c-0.059-0.04-0.122-0.074-0.244-0.146c-0.038,0.467-0.313,0.621-0.729,0.605C47.417,90.028,46.792,90.024,46.097,90.011z
			 M51.495,85.966c-0.029-0.345-0.025-0.763-0.108-1.162c-0.117-0.56-0.452-0.819-1.013-0.885c-0.686-0.081-1.244,0.108-1.426,0.616
			c-0.345,0.96-0.411,1.952,0.068,2.896c0.269,0.53,0.74,0.687,1.442,0.573c0.526-0.086,0.849-0.384,0.956-0.956
			C51.475,86.717,51.467,86.373,51.495,85.966z"/>
		<path fill-rule="evenodd" clip-rule="evenodd" fill="#D8C441" d="M72.296,77.958c0.755-0.1,1.543-0.205,2.302-0.305
			c0.372,0.245,0.272,0.59,0.273,0.891c0.009,1.926,0.004,3.852,0.004,5.777c0,0.241,0,0.481,0,0.722
			c0.048,0.021,0.095,0.041,0.142,0.061c0.668-1.025,1.336-2.05,2.006-3.079c0.914,0,1.783,0,2.76,0
			c-0.707,1.422-1.703,2.593-2.422,3.999c0.806,1.28,1.616,2.569,2.52,4.003c-0.611,0.015-1.08,0.04-1.549,0.034
			c-1.402-0.017-1.147,0.199-1.954-1.082c-0.45-0.714-0.912-1.42-1.447-2.251c-0.14,1.176,0.052,2.22-0.138,3.276
			c-0.896,0-1.708,0-2.499,0C72.052,89.335,72.051,78.647,72.296,77.958z"/>
		<path fill-rule="evenodd" clip-rule="evenodd" fill="#D8C441" d="M27.698,82.62c0.052-0.235,0.097-0.436,0.155-0.694
			c0.773,0,1.535,0,2.286,0c0.186,0.628,0.196,7.374,0.009,8.08c-0.727,0-1.47,0-2.253,0c-0.065-0.171-0.131-0.346-0.213-0.564
			c-0.105,0.055-0.213,0.097-0.305,0.163c-1.087,0.781-2.215,0.75-3.383,0.199c-0.762-0.36-1.195-1.002-1.447-1.757
			c-0.461-1.38-0.48-2.787,0-4.164c0.552-1.578,2.38-2.728,4.282-1.867C27.129,82.15,27.38,82.395,27.698,82.62z M27.6,85.909
			c-0.004,0-0.009,0-0.013,0c0-0.34,0.038-0.686-0.008-1.019c-0.086-0.628-0.549-0.971-1.247-0.981
			c-0.706-0.011-1.198,0.306-1.296,0.923c-0.117,0.739-0.214,1.488-0.025,2.238c0.167,0.662,0.661,0.998,1.434,0.948
			c0.671-0.043,1.087-0.421,1.149-1.088C27.625,86.592,27.6,86.25,27.6,85.909z"/>
		<path fill-rule="evenodd" clip-rule="evenodd" fill="#D8C441" d="M45.258,86.925c-1.628,0.13-3.229-0.021-4.816,0.089
			c0.065,0.761,0.356,1.073,1.043,1.13c0.855,0.071,1.704,0.012,2.536-0.219c0.183-0.051,0.371-0.08,0.624-0.132
			c0.156,0.565,0.303,1.092,0.453,1.636c-0.196,0.133-0.32,0.254-0.469,0.312c-1.688,0.659-3.4,0.638-5.076,0.019
			c-1.199-0.443-1.725-1.468-1.83-2.689c-0.062-0.726-0.044-1.463-0.004-2.192c0.077-1.406,0.894-2.437,2.224-2.869
			c0.973-0.316,1.958-0.365,2.953-0.104c1.13,0.295,1.89,0.979,2.205,2.118C45.356,84.946,45.399,85.881,45.258,86.925z
			 M42.776,85.028c0.116-0.548,0.047-0.947-0.414-1.199c-0.513-0.28-1.038-0.299-1.522,0.033c-0.387,0.266-0.566,0.643-0.396,1.166
			C41.219,85.028,41.963,85.028,42.776,85.028z"/>
		<path fill-rule="evenodd" clip-rule="evenodd" fill="#D8C441" d="M67.298,90.208c-0.835-0.073-1.808-0.211-2.627-0.892
			c-1.031-0.858-1.33-2.006-1.319-3.263c0.004-0.553,0.129-1.108,0.221-1.658c0.15-0.902,0.694-1.563,1.432-2.029
			c1.399-0.881,3.574-0.872,4.921,0.076c0.595,0.418,1.024,0.961,1.261,1.654c0.373,1.087,0.439,2.182,0.138,3.3
			C70.839,89.194,69.452,90.214,67.298,90.208z M65.964,85.88c0.062,0.43,0.093,0.87,0.196,1.292
			c0.143,0.586,0.623,0.864,1.358,0.848c0.617-0.013,1.073-0.311,1.168-0.882c0.114-0.688,0.257-1.376,0.072-2.092
			c-0.207-0.8-0.564-1.143-1.354-1.137c-0.784,0.005-1.151,0.333-1.308,1.174C66.047,85.345,66.009,85.608,65.964,85.88z"/>
		<path fill-rule="evenodd" clip-rule="evenodd" fill="#D8C441" d="M58.668,90.209c-0.833-0.073-1.807-0.208-2.626-0.888
			c-1.033-0.855-1.338-2.002-1.324-3.26c0.007-0.578,0.126-1.159,0.237-1.729c0.189-0.979,0.805-1.672,1.664-2.099
			c1.438-0.715,2.915-0.704,4.354,0.022c0.744,0.375,1.265,0.976,1.551,1.769c0.409,1.131,0.476,2.273,0.146,3.438
			C62.17,89.222,60.798,90.212,58.668,90.209z M57.326,85.931c0.052,0.372,0.092,0.734,0.155,1.093
			c0.115,0.658,0.513,0.975,1.229,0.996c0.766,0.023,1.252-0.273,1.353-0.929c0.102-0.666,0.243-1.332,0.064-2.025
			c-0.209-0.813-0.555-1.156-1.341-1.157c-0.788-0.001-1.166,0.328-1.321,1.163C57.412,85.358,57.372,85.647,57.326,85.931z"/>
		<path fill-rule="evenodd" clip-rule="evenodd" fill="#D8C441" d="M22.32,77.837c0,0.652,0,1.251,0,1.904
			c-0.317,0.062-0.622,0.112-0.922,0.179c-0.9,0.203-1.085,0.439-1.067,1.358c0.003,0.145,0.026,0.289,0.048,0.521
			c0.62,0.033,1.237,0.065,1.907,0.101c0.149,0.768-0.114,1.455-0.138,2.229c-0.614,0.042-1.162,0.079-1.812,0.123
			c0,1.875,0,3.712,0,5.599c-0.913,0.147-1.722,0.071-2.646,0.063c0-1.921,0-3.758,0-5.637c-0.579-0.062-1.048-0.114-1.569-0.17
			c0-0.754,0-1.443,0-2.197c0.498-0.036,0.95-0.068,1.483-0.107c0.019-0.294,0.065-0.577,0.051-0.856
			c-0.136-2.76,2.012-3.476,3.939-3.283C21.808,77.685,22.017,77.763,22.32,77.837z"/>
		<path fill-rule="evenodd" clip-rule="evenodd" fill="#D8C441" d="M37.6,82.325c-0.205,0.667-0.374,1.219-0.549,1.791
			c-0.57-0.075-1.07-0.181-1.573-0.201c-1.332-0.053-1.842,0.423-1.839,1.75c0.001,0.499,0.067,1.023,0.233,1.49
			c0.202,0.57,0.685,0.889,1.315,0.86c0.579-0.026,1.154-0.102,1.761-0.159c0.288,0.405,0.428,0.826,0.56,1.769
			c-0.962,0.486-1.996,0.704-3.076,0.542c-0.57-0.085-1.149-0.256-1.67-0.503c-1.03-0.489-1.544-1.413-1.713-2.491
			c-0.167-1.061-0.194-2.137,0.212-3.171c0.377-0.961,1.029-1.643,2.022-1.968c1.141-0.374,2.293-0.44,3.448-0.075
			C37.001,82.044,37.255,82.178,37.6,82.325z"/>
	</g>
</g>
</svg>
