<?xml version="1.0" encoding="utf-8"?>
<!-- Generator: Adobe Illustrator 16.0.0, SVG Export Plug-In . SVG Version: 6.00 Build 0)  -->
<!DOCTYPE svg PUBLIC "-//W3C//DTD SVG 1.1//EN" "http://www.w3.org/Graphics/SVG/1.1/DTD/svg11.dtd">
<svg version="1.1" id="Layer_1" xmlns="http://www.w3.org/2000/svg" xmlns:xlink="http://www.w3.org/1999/xlink" x="0px" y="0px"
	 width="95.155px" height="86.781px" viewBox="0 0 95.155 86.781" enable-background="new 0 0 95.155 86.781" xml:space="preserve">
<g>
	<path fill-rule="evenodd" clip-rule="evenodd" fill="#D8C441" d="M76.532,70.381c0.093,1.492,0.184,2.983,0.276,4.476
		c0.01,0.141,0.014,0.286,0.051,0.42c0.106,0.368,0.114,0.819,0.641,0.879c0.344,0.039,0.845-0.347,0.965-0.813
		c0.137-0.545,0.252-1.105,0.289-1.665c0.09-1.41,0.103-2.823,0.196-4.232c0.073-1.068,0.197-2.134,0.347-3.195
		c0.082-0.592,0.201-0.657,0.802-0.515c2.027,0.484,1.788-0.098,1.949,2.28c0.021,0.31,0.027,0.621,0.041,0.931
		c0.118-0.299,0.226-0.604,0.361-0.896c0.258-0.562,0.478-1.155,0.816-1.665c0.519-0.778,1.24-0.93,2.077-0.54
		c0.762,0.354,1.287,0.855,1.277,1.797c-0.01,0.845,0.086,1.691,0.144,2.536c0.008,0.107,0.058,0.212,0.088,0.318
		c0.025-0.103,0.048-0.206,0.078-0.307c0.22-0.788,0.397-1.591,0.679-2.356c0.201-0.548,0.483-1.093,0.84-1.555
		c0.728-0.939,1.997-0.885,2.648,0.116c0.301,0.462,0.563,1.016,0.625,1.553c0.224,1.932,0.354,3.874,0.519,5.812
		c0.048,0.562,0.089,1.124,0.133,1.686c0.024,0.302,0.104,0.524,0.474,0.583c0.417,0.066,0.465-0.22,0.568-0.477
		c0.167-0.419,0.299-0.858,0.512-1.252c0.169-0.316,0.407-0.612,0.671-0.855c0.242-0.226,0.507-0.144,0.53,0.212
		c0.076,1.141,0.021,2.26-0.653,3.258c-0.545,0.807-1.395,1.006-2.267,1.156c-0.124,0.022-0.287-0.031-0.396-0.104
		c-1.243-0.83-2.254-1.807-2.207-3.467c0.024-0.933,0.054-1.867,0.015-2.797c-0.024-0.586-0.171-1.168-0.272-1.749
		c-0.018-0.104-0.081-0.197-0.123-0.295c-0.054,0.096-0.134,0.187-0.153,0.289c-0.248,1.245-0.466,2.497-0.733,3.737
		c-0.185,0.854-0.412,1.701-0.666,2.537c-0.306,1.005-1.372,1.236-2.159,0.504c-0.729-0.677-1.022-1.57-1.116-2.5
		c-0.132-1.317-0.15-2.646-0.213-3.971c-0.011-0.225,0.004-0.453-0.011-0.678c-0.004-0.064-0.075-0.124-0.116-0.187
		c-0.049,0.06-0.13,0.112-0.144,0.179c-0.167,0.743-0.339,1.484-0.479,2.231c-0.34,1.801-0.685,3.602-0.982,5.41
		c-0.099,0.599-0.419,0.855-0.961,0.833c-0.826-0.035-1.73,0.085-2.218-0.861c-0.028-0.057-0.241-0.08-0.324-0.034
		c-0.244,0.136-0.464,0.32-0.7,0.477c-1.176,0.783-2.703,0.422-3.406-0.802c-0.434-0.751-0.434-0.751-0.935-0.046
		c-0.663,0.934-1.522,1.291-2.652,0.991c-0.788-0.209-1.546-0.531-2.312-0.815c-0.508-0.19-0.871-0.22-1.3,0.305
		c-0.975,1.19-3.213,0.927-4.161-0.493c-0.394-0.59-0.709-1.331-0.766-2.027c-0.11-1.314-0.021-2.646,0.015-3.97
		c0.013-0.505,0.086-1.012,0.164-1.514c0.052-0.322-0.016-0.453-0.37-0.481c-0.982-0.079-1.053-0.054-1.38,0.895
		c-0.489,1.411-1.347,2.602-2.214,3.791c-0.582,0.798-1.148,1.608-1.696,2.43c-0.303,0.455-0.38,0.944-0.332,1.521
		c0.16,1.945,0.166,3.896-0.279,5.817c-0.071,0.302-0.163,0.599-0.26,0.894c-0.778,2.361-2.667,3.047-4.934,2.461
		c-2.075-0.535-2.996-2.821-1.858-4.65c0.511-0.824,1.272-1.497,1.949-2.212c0.792-0.84,1.619-1.647,2.421-2.48
		c0.078-0.081,0.079-0.238,0.117-0.359c-0.084,0.073-0.171,0.144-0.255,0.219c-1.461,1.333-3.516,1.273-4.827-0.189
		c-0.332-0.37-0.516-0.324-0.787-0.009c-0.11,0.129-0.238,0.242-0.363,0.356c-1.466,1.318-3.318,0.966-4.201-0.796
		c-0.228-0.453-0.259-0.465-0.579,0.005c-0.572,0.846-1.379,1.29-2.351,1.533c-0.723,0.181-1.324,0.087-1.868-0.442
		c-0.546-0.532-1.135-1.02-1.682-1.551c-0.291-0.284-0.491-0.31-0.727,0.057c-0.229,0.355-0.496,0.688-0.762,1.017
		c-0.406,0.502-0.951,0.782-1.567,0.95c-0.473,0.128-0.933,0.106-1.251-0.273c-0.484-0.577-0.933-1.189-1.348-1.817
		c-0.325-0.492-0.576-1.031-0.86-1.55c-0.367,0.403-0.704,0.838-1.107,1.201c-0.711,0.64-1.401,1.333-2.208,1.828
		c-1.63,1-3.32,0.906-4.997,0.009c-0.491-0.263-0.633-0.615-0.495-1.109c0.067-0.242,0.168-0.482,0.297-0.697
		c0.422-0.707,0.625-0.777,1.384-0.481c0.287,0.112,0.591,0.231,0.824,0.423c0.525,0.435,1.016,0.259,1.473-0.054
		c0.177-0.121,0.354-0.411,0.343-0.613c-0.083-1.49-0.813-2.617-2.062-3.405c-0.091-0.057-0.374,0.025-0.443,0.127
		c-0.457,0.678-0.884,1.376-1.312,2.074c-0.545,0.89-1.041,1.814-1.635,2.67c-0.559,0.805-1.315,1.399-2.327,1.571
		c-1.048,0.18-1.437-0.015-1.883-0.973c-0.489-1.05-0.608-2.184-0.594-3.31c0.019-1.636,0.152-3.271,0.23-4.906
		c0.005-0.125-0.045-0.252-0.07-0.377c-0.117,0.064-0.284,0.101-0.344,0.201c-0.157,0.263-0.287,0.547-0.397,0.835
		c-0.977,2.558-1.942,5.121-2.923,7.679c-0.314,0.823-1.075,1.137-1.864,0.771c-0.369-0.172-0.629-0.427-0.627-0.91
		C9.91,73.383,9.91,69.821,9.897,66.26c-0.002-0.474,0.178-0.71,0.642-0.623c0.521,0.097,1.048,0.213,1.537,0.409
		c0.162,0.064,0.284,0.4,0.3,0.62c0.076,1.07,0.109,2.144,0.158,3.216c0.003,0.084,0.012,0.169,0.018,0.252
		c0.056-0.081,0.136-0.155,0.163-0.245c0.314-1.072,0.778-2.064,1.554-2.882c1.119-1.178,2.524-1.416,3.938-0.719
		c0.428,0.21,0.629,0.472,0.635,0.976c0.026,2.26,0.093,4.519,0.144,6.779c0.004,0.198-0.006,0.397,0.007,0.593
		c0.035,0.544,0.132,0.603,0.622,0.316c0.782-0.459,1.396-1.109,1.638-1.979c0.301-1.083,0.479-2.198,0.705-3.3
		c0.165-0.8,0.245-1.627,0.502-2.396c0.383-1.147,0.947-1.807,2.296-1.654c0.196,0.022,0.396-0.001,0.593,0.005
		c0.75,0.026,1.069,0.438,0.835,1.173c-0.196,0.617-0.444,1.223-0.724,1.807c-0.251,0.526-0.154,0.904,0.307,1.237
		c0.389,0.281,0.749,0.604,1.138,0.883c1.032,0.739,1.767,1.666,1.905,2.97c0.039,0.358,0.206,0.402,0.408,0.169
		c0.214-0.245,0.435-0.538,0.505-0.844c0.256-1.127,0.514-2.259,0.651-3.404c0.145-1.203,0.145-2.424,0.222-3.635
		c0.027-0.432-0.126-0.596-0.574-0.601c-0.618-0.008-1.235-0.086-1.85-0.155c-0.488-0.054-0.708-0.311-0.544-0.816
		c0.043-0.134,0.08-0.275,0.087-0.414c0.031-0.56,0.303-0.797,0.874-0.753c0.478,0.037,0.961,0.012,1.441,0.005
		c0.72-0.01,0.713-0.013,0.747-0.767c0.035-0.79,0.106-1.579,0.12-2.369c0.009-0.51,0.279-0.772,0.724-0.719
		c0.634,0.075,1.263,0.239,1.875,0.432c0.129,0.042,0.231,0.365,0.24,0.563c0.03,0.677,0.01,1.356,0.014,2.035
		c0.005,0.787,0.007,0.786,0.755,0.856c0.703,0.065,1.405,0.13,2.107,0.202c0.433,0.044,0.727,0.177,0.711,0.726
		c-0.023,0.774-0.134,1.107-0.67,1.175c-0.754,0.096-1.519,0.12-2.28,0.158c-0.782,0.037-0.792,0.028-0.796,0.808
		c-0.011,2.176-0.029,4.353-0.008,6.529c0.006,0.674,0.102,1.352,0.212,2.017c0.061,0.365,0.069,0.819,0.609,0.896
		s0.697-0.323,0.813-0.69c0.408-1.289,0.78-2.589,1.165-3.887c0.29-0.973,0.536-1.961,0.883-2.914
		c0.2-0.548,0.515-1.072,0.861-1.546c0.56-0.771,1.311-1.23,2.319-1.14c1.46,0.131,2.921,0.25,4.383,0.371
		c0.505,0.042,0.756,0.317,0.794,0.816c0.053,0.674,0.158,1.348,0.166,2.022c0.024,1.782-0.003,3.562,0.016,5.342
		c0.004,0.448,0.051,0.908,0.171,1.338c0.065,0.235,0.288,0.507,0.505,0.589c0.146,0.055,0.464-0.144,0.606-0.313
		c0.652-0.777,0.754-1.74,0.837-2.702c0.116-1.349,0.182-2.704,0.36-4.046c0.136-1.023,0.572-1.944,1.36-2.665
		c1.181-1.082,2.613-1.238,3.964-0.37c0.374,0.242,0.617,0.333,1.024,0.022c0.532-0.405,1.879-0.112,2.233,0.439
		c0.122,0.193,0.129,0.483,0.129,0.728c0.011,1.922,0.005,3.844,0.007,5.767c0,0.197-0.007,0.396,0.004,0.592
		c0.004,0.074,0.045,0.146,0.068,0.219c0.066-0.04,0.154-0.064,0.195-0.121c0.96-1.274,1.785-2.629,2.117-4.204
		c0.088-0.417-0.107-0.935-0.285-1.358c-0.237-0.564-0.43-1.091-0.188-1.706c0.292-0.752,0.935-1.23,1.744-1.238
		c0.745-0.008,0.932,0.145,1.084,0.876c0.041,0.193,0.052,0.408,0.148,0.57c0.075,0.129,0.262,0.273,0.399,0.272
		c0.394-0.001,0.784-0.101,1.178-0.112c0.503-0.014,1.019-0.038,1.51,0.048c1.004,0.174,1.109,0.348,0.969,1.378
		c-0.179,1.285-0.436,2.562-0.541,3.854c-0.071,0.888,0.023,1.795,0.108,2.688c0.031,0.319,0.22,0.641,0.396,0.924
		c0.427,0.682,0.726,0.676,1.169-0.014c0.556-0.867,0.604-1.863,0.685-2.849c0.112-1.376,0.163-2.761,0.364-4.125
		c0.154-1.061,0.72-1.949,1.641-2.571c1.384-0.933,2.379-0.938,3.745,0.013c0.251,0.175,0.449,0.444,0.695-0.036
		c0.072-0.145,0.398-0.263,0.58-0.231c0.55,0.093,1.103,0.227,1.617,0.434c0.149,0.06,0.25,0.417,0.256,0.639
		c0.024,1.159,0.013,2.318,0.013,3.478C76.615,70.377,76.573,70.379,76.532,70.381z M43.006,71.686
		c-0.116-1.195-0.28-2.335-0.769-3.407c-0.229-0.501-0.738-0.769-1.156-0.549c-0.57,0.3-1.13,0.638-1.233,1.39
		c-0.145,1.061-0.391,2.111-0.475,3.175c-0.091,1.134,0.054,2.261,0.668,3.266c0.354,0.579,0.581,0.625,1.185,0.305
		c0.605-0.32,1.03-0.834,1.208-1.468C42.682,73.509,42.82,72.591,43.006,71.686z M50.484,72.871
		c-0.045,1.11,0.152,2.114,1.007,2.933c0.343,0.329,0.634,0.315,0.967,0.113c0.594-0.364,1.006-0.89,1.237-1.553
		c0.688-1.993,0.609-3.979-0.075-5.953c-0.118-0.343-0.273-0.643-0.732-0.717c-0.486-0.078-0.668,0.237-0.868,0.523
		C51.047,69.614,50.532,71.168,50.484,72.871z M73.932,71.645c-0.042-1.208-0.226-2.372-0.736-3.463
		c-0.295-0.627-1.118-0.723-1.489-0.145c-1.331,2.073-1.73,4.322-1.084,6.712c0.144,0.535,0.398,1.199,0.989,1.272
		c0.69,0.086,1.191-0.457,1.515-1.048c0.228-0.417,0.43-0.866,0.532-1.326C73.804,72.992,73.846,72.313,73.932,71.645z
		 M51.452,83.75c0.103,0.473,0.131,0.786,0.24,1.068c0.251,0.653,1.061,0.807,1.463,0.253c1.119-1.536,1.678-3.236,1.36-5.158
		c-0.055-0.34-0.187-0.501-0.465-0.168c-0.667,0.8-1.372,1.575-1.958,2.431C51.76,82.666,51.629,83.295,51.452,83.75z"/>
	<path fill-rule="evenodd" clip-rule="evenodd" fill="#D8C441" d="M8.32,66.636c-0.127,3.96-0.235,7.098-1.212,10.114
		c-0.275,0.848-0.723,1.647-1.162,2.43c-0.184,0.329-0.523,0.592-0.843,0.812c-0.21,0.146-0.511,0.161-0.772,0.233
		c-0.055-0.26-0.166-0.523-0.152-0.78c0.032-0.589,0.14-1.176,0.191-1.767c0.216-2.444,0.456-4.888,0.622-7.337
		c0.11-1.633,0.154-3.274,0.146-4.911c-0.005-0.983-0.157-1.967-0.268-2.947c-0.023-0.203-0.16-0.393-0.245-0.587
		c-0.179,0.13-0.38,0.239-0.534,0.396c-0.812,0.825-1.154,1.85-1.233,2.983c-0.108,1.544,0.221,3.032,0.547,4.523
		c0.054,0.243,0.035,0.709-0.059,0.74c-0.266,0.087-0.629,0.089-0.881-0.031c-1.92-0.92-2.916-3.323-2.271-5.396
		c0.405-1.299,1.175-2.379,2.091-3.351c0.639-0.676,1.339-1.299,2.049-1.9c0.825-0.697,2.341-0.647,3.109,0.098
		c0.183,0.176,0.294,0.489,0.32,0.752C7.991,62.955,8.19,65.203,8.32,66.636z"/>
</g>
<g>
	<path fill-rule="evenodd" clip-rule="evenodd" fill="#D8C441" d="M48.169,56.235c-4.081-0.181-8.168-0.289-12.243-0.569
		c-2.86-0.197-5.634-0.883-8.229-2.175c-3.169-1.579-5.477-3.979-6.356-7.424c-0.758-2.969-1.317-6.009-1.692-9.05
		c-0.604-4.907-0.469-9.845-0.017-14.762c0.426-4.628,1.042-9.224,2.611-13.646c1.18-3.323,3.39-5.426,6.795-6.375
		c4.758-1.326,9.528-2.39,14.528-2.214c3.862,0.137,7.743-0.137,11.596,0.092c3.11,0.185,6.234,0.663,9.279,1.343
		c4.606,1.028,7.713,3.846,9.151,8.455c1.04,3.333,1.657,6.73,1.994,10.191c0.438,4.529,0.43,9.06-0.006,13.588
		c-0.46,4.804-1.255,9.529-3.015,14.064c-1.548,3.984-4.281,6.558-8.511,7.262c-2.97,0.495-5.982,0.786-8.988,0.99
		c-2.287,0.156-4.592,0.031-6.89,0.031C48.174,56.102,48.172,56.168,48.169,56.235z M47.566,50.621
		c4.485-0.163,8.526-0.152,12.537-0.496c5.223-0.446,6.133-1.813,7.596-5.812c0.44-1.204,0.734-2.466,1.016-3.719
		c1.528-6.782,1.663-13.671,1.25-20.556c-0.167-2.761-0.906-5.504-1.557-8.214c-0.535-2.227-2.149-3.623-4.223-4.475
		c-0.772-0.318-1.574-0.638-2.394-0.763c-2.539-0.388-5.089-0.925-7.642-0.961c-5.036-0.072-10.079,0.292-15.115,0.205
		c-2.957-0.052-5.614,0.831-8.301,1.758c-1.92,0.663-3.232,1.97-3.72,4c-0.288,1.196-0.655,2.382-0.828,3.595
		c-1.088,7.678-1.352,15.389-0.667,23.117c0.152,1.721,0.512,3.427,0.833,5.13c0.5,2.65,2.123,4.456,4.576,5.382
		c1.658,0.625,3.426,1.151,5.179,1.292C40.065,50.424,44.043,50.477,47.566,50.621z"/>
	<path fill-rule="evenodd" clip-rule="evenodd" fill="#D8C441" d="M46.827,13.797c8.889,0.129,15.116,6.307,14.983,14.866
		c-0.123,7.929-6.955,14.377-15.068,14.224c-7.659-0.146-13.73-6.975-13.717-15.157C33.039,19.749,40.734,14.22,46.827,13.797z
		 M39.501,27.66c-0.106,6.19,2.26,9.061,6.616,9.538c0.925,0.102,1.903-0.02,2.826-0.201c3.003-0.59,5.213-2.239,6.362-5.132
		c2.498-6.284-2.157-12.791-8.921-12.467c-0.477,0.023-1.007,0.179-1.404,0.44C41.591,22.062,39.566,25.104,39.501,27.66z"/>
	<path fill-rule="evenodd" clip-rule="evenodd" fill="#D8C441" d="M65.753,12.829c-0.447,1.045-0.732,2.142-1.336,3.02
		c-1.026,1.491-2.987,1.608-4.36,0.434c-1.627-1.391-1.87-3.302-0.593-4.701c0.148-0.166,0.314-0.318,0.472-0.477
		c1.603-1.612,3.308-1.703,4.94-0.134C65.301,11.379,65.424,12.102,65.753,12.829z"/>
</g>
<rect x="-1.105" y="-5.007" fill-rule="evenodd" clip-rule="evenodd" fill="none" width="96.001" height="96"/>
</svg>
