<?xml version="1.0" encoding="utf-8"?>
<!-- Generator: Adobe Illustrator 16.0.0, SVG Export Plug-In . SVG Version: 6.00 Build 0)  -->
<!DOCTYPE svg PUBLIC "-//W3C//DTD SVG 1.1//EN" "http://www.w3.org/Graphics/SVG/1.1/DTD/svg11.dtd">
<svg version="1.1" id="Layer_1" xmlns="http://www.w3.org/2000/svg" xmlns:xlink="http://www.w3.org/1999/xlink" x="0px" y="0px"
	 width="96px" height="96px" viewBox="0 0 96 96" enable-background="new 0 0 96 96" xml:space="preserve">
<g>
	<path fill-rule="evenodd" clip-rule="evenodd" fill="#D8C441" d="M95.921,52.536c-0.279,0.824-0.529,1.659-0.842,2.469
		c-1.765,4.568-6.456,7.374-10.817,7.375c-10.621,0.003-21.242-0.001-31.863-0.001c-0.28-0.001-0.563,0.019-0.839-0.019
		c-0.924-0.121-1.388-0.646-1.433-1.598c-0.013-0.279-0.004-0.559-0.004-0.838c0.004-11.859,0.007-23.719,0.012-35.578
		c0-0.24,0.012-0.48,0-0.72c-0.039-0.782,0.313-1.326,1.047-1.553c1.33-0.413,2.653-0.895,4.017-1.138
		c3.138-0.561,6.277-0.462,9.351,0.452c4.121,1.224,7.608,3.433,10.351,6.777c2.461,3,4.045,6.384,4.563,10.247
		c0.021,0.157,0.105,0.306,0.119,0.462c0.039,0.468,0.191,0.545,0.688,0.429c1.233-0.289,2.491-0.615,3.747-0.649
		c5.33-0.143,10.572,3.718,11.705,9.388c0.029,0.147,0.131,0.281,0.199,0.421C95.921,49.821,95.921,51.179,95.921,52.536z"/>
	<path fill-rule="evenodd" clip-rule="evenodd" fill="#D8C441" d="M0.079,49.661c0.157-0.93,0.315-1.858,0.469-2.788
		c0.081-0.488-0.025-1.217,0.639-1.215c0.553,0.001,0.518,0.686,0.589,1.151c0.138,0.902,0.233,1.817,0.447,2.702
		c0.429,1.766-0.07,3.465-0.276,5.187c-0.048,0.394-0.076,0.802-0.205,1.17c-0.121,0.343-0.354,0.903-0.559,0.911
		c-0.566,0.024-0.559-0.56-0.617-0.975c-0.114-0.826-0.18-1.658-0.287-2.486c-0.024-0.186-0.131-0.362-0.201-0.542
		C0.079,51.738,0.079,50.7,0.079,49.661z"/>
	<path fill-rule="evenodd" clip-rule="evenodd" fill="#D8C441" d="M49.763,48.92c-0.11,2.803-0.211,5.592-0.334,8.378
		c-0.049,1.113-0.146,2.225-0.226,3.336c-0.014,0.198-0.027,0.402-0.091,0.587c-0.186,0.551-0.842,1.09-1.336,1.057
		c-0.609-0.041-1.042-0.386-1.267-0.95c-0.102-0.254-0.177-0.538-0.182-0.81c-0.081-4.303-0.615-8.586-0.484-12.899
		c0.125-4.146,0.167-8.293,0.255-12.439c0.068-3.188,0.156-6.376,0.221-9.564c0.013-0.651,0.043-1.276,0.521-1.788
		c0.613-0.659,1.26-0.686,1.83,0.008c0.241,0.294,0.365,0.693,0.498,1.062c0.065,0.178,0.028,0.396,0.033,0.593
		c0.093,5.664,0.169,11.328,0.286,16.991C49.529,44.632,49.668,46.781,49.763,48.92z"/>
	<path fill-rule="evenodd" clip-rule="evenodd" fill="#D8C441" d="M42.036,49.062c0.074-5.459,0.139-10.919,0.231-16.379
		c0.03-1.829,0.134-3.659,0.204-5.488c0.005-0.12,0.001-0.241,0.021-0.358c0.119-0.698,0.532-1.095,1.182-1.142
		c0.585-0.043,1.06,0.24,1.268,0.878c0.133,0.406,0.167,0.858,0.171,1.29c0.029,2.673,0.015,5.346,0.057,8.018
		c0.061,3.784,0.151,7.568,0.247,11.354c0.022,0.873,0.199,1.748,0.167,2.616c-0.095,2.544-0.267,5.085-0.392,7.627
		c-0.044,0.916-0.033,1.834-0.063,2.751c-0.012,0.356-0.019,0.724-0.111,1.064c-0.18,0.666-0.831,1.125-1.413,1.058
		c-0.528-0.061-1.054-0.61-1.126-1.234c-0.092-0.79-0.183-1.583-0.213-2.376c-0.12-3.224-0.217-6.449-0.322-9.674
		C41.974,49.063,42.005,49.063,42.036,49.062z"/>
	<path fill-rule="evenodd" clip-rule="evenodd" fill="#D8C441" d="M38.02,50.355c0.055-3.544,0.098-7.089,0.17-10.634
		c0.056-2.708,0.145-5.414,0.232-8.121c0.012-0.393,0.044-0.802,0.167-1.17c0.187-0.558,0.725-0.895,1.188-0.787
		c0.537,0.126,0.966,0.424,1.042,1.018c0.097,0.788,0.164,1.582,0.219,2.375c0.031,0.437,0.008,0.877,0.018,1.315
		c0.091,4.502,0.177,9.003,0.284,13.506c0.021,0.873,0.205,1.748,0.171,2.617c-0.082,2.065-0.262,4.125-0.377,6.19
		c-0.056,0.994-0.036,1.994-0.086,2.988c-0.027,0.555-0.126,1.105-0.192,1.657c-0.073,0.613-0.48,0.904-1.029,1.003
		c-0.516,0.093-1.075-0.29-1.268-0.885c-0.108-0.333-0.135-0.701-0.15-1.056c-0.1-2.347-0.171-4.695-0.283-7.042
		c-0.047-0.992-0.169-1.98-0.257-2.969C37.92,50.359,37.97,50.357,38.02,50.355z"/>
	<path fill-rule="evenodd" clip-rule="evenodd" fill="#D8C441" d="M37.536,50.413c-0.16,2.204-0.33,4.466-0.483,6.729
		c-0.045,0.676-0.025,1.356-0.069,2.032c-0.044,0.674-0.107,1.349-0.21,2.016c-0.112,0.728-0.577,1.158-1.143,1.132
		c-0.57-0.026-0.988-0.5-1.064-1.245c-0.085-0.831-0.198-1.664-0.215-2.497c-0.096-4.623-0.217-9.245-0.229-13.869
		c-0.006-3.266,0.139-6.534,0.235-9.799c0.045-1.512,0.136-3.022,0.206-4.533c0.006-0.12-0.003-0.242,0.015-0.359
		c0.098-0.609,0.585-1.079,1.104-1.07c0.52,0.009,1.007,0.476,1.069,1.099c0.096,0.951,0.172,1.904,0.212,2.857
		c0.038,0.917,0.009,1.835,0.03,2.753c0.085,3.785,0.166,7.57,0.279,11.355C37.305,48.126,37.441,49.235,37.536,50.413z"/>
	<path fill-rule="evenodd" clip-rule="evenodd" fill="#D8C441" d="M33.502,50.105c-0.162,2.3-0.357,4.956-0.533,7.614
		c-0.048,0.715-0.017,1.436-0.067,2.15c-0.04,0.554-0.123,1.107-0.236,1.651c-0.097,0.475-0.423,0.789-0.914,0.808
		c-0.551,0.021-0.907-0.312-1.01-0.835c-0.115-0.584-0.192-1.178-0.231-1.771c-0.167-2.501-0.363-5-0.449-7.502
		c-0.053-1.548,0.072-3.101,0.119-4.652c0.008-0.238,0.041-0.476,0.046-0.715c0.096-4.699,0.18-9.399,0.29-14.099
		c0.024-1.073,0.124-2.144,0.205-3.214c0.052-0.689,0.456-1.122,0.999-1.111c0.546,0.011,0.94,0.434,0.971,1.141
		c0.094,2.187,0.169,4.375,0.238,6.563c0.094,2.985,0.157,5.97,0.267,8.955C33.252,46.638,33.382,48.186,33.502,50.105z"/>
	<path fill-rule="evenodd" clip-rule="evenodd" fill="#D8C441" d="M29.454,51.157c-0.207,3.177-0.406,6.354-0.633,9.529
		c-0.027,0.386-0.127,0.802-0.32,1.13c-0.399,0.68-1.119,0.662-1.515-0.028c-0.171-0.299-0.276-0.673-0.292-1.018
		c-0.184-4.019-0.427-8.037-0.484-12.058c-0.044-3.225,0.142-6.454,0.235-9.682c0.071-2.51,0.148-5.019,0.245-7.527
		c0.02-0.514,0.124-1.026,0.209-1.536c0.067-0.399,0.315-0.633,0.725-0.676c0.441-0.047,0.788,0.104,0.979,0.521
		c0.081,0.179,0.146,0.372,0.183,0.565c0.036,0.194,0.031,0.397,0.037,0.596c0.095,3.866,0.164,7.732,0.293,11.597
		c0.093,2.744,0.267,5.486,0.402,8.23c0.006,0.119,0.001,0.239,0.001,0.358C29.498,51.16,29.476,51.159,29.454,51.157z"/>
	<path fill-rule="evenodd" clip-rule="evenodd" fill="#D8C441" d="M22.322,49.71c0.096-3.504,0.186-7.009,0.292-10.514
		c0.066-2.148,0.15-4.297,0.24-6.445c0.017-0.392,0.024-0.826,0.194-1.16c0.136-0.268,0.513-0.572,0.781-0.569
		c0.278,0.001,0.6,0.313,0.812,0.565c0.13,0.156,0.11,0.453,0.123,0.689c0.08,1.43,0.17,2.86,0.219,4.291
		c0.107,3.145,0.181,6.291,0.29,9.437c0.042,1.192,0.233,2.385,0.195,3.573c-0.077,2.383-0.26,4.763-0.408,7.144
		c-0.086,1.39-0.194,2.778-0.277,4.168c-0.057,0.94-0.366,1.445-0.92,1.434c-0.573-0.011-0.963-0.525-1.013-1.401
		c-0.106-1.868-0.187-3.737-0.29-5.605c-0.104-1.867-0.222-3.733-0.334-5.6C22.257,49.714,22.29,49.711,22.322,49.71z"/>
	<path fill-rule="evenodd" clip-rule="evenodd" fill="#D8C441" d="M18.443,50.774c0.126-3.386,0.223-6.173,0.336-8.958
		c0.065-1.63,0.141-3.259,0.242-4.888c0.033-0.554,0.099-1.12,0.263-1.645c0.078-0.25,0.459-0.613,0.634-0.578
		c0.281,0.057,0.658,0.362,0.724,0.629c0.172,0.689,0.239,1.413,0.272,2.126c0.115,2.426,0.171,4.855,0.299,7.28
		c0.1,1.906,0.349,3.805,0.39,5.711c0.033,1.466-0.135,2.938-0.246,4.405c-0.122,1.625-0.27,3.248-0.424,4.87
		c-0.06,0.632-0.104,1.28-0.282,1.882c-0.081,0.271-0.475,0.624-0.725,0.622c-0.249-0.001-0.575-0.361-0.718-0.639
		c-0.156-0.302-0.164-0.69-0.195-1.045c-0.089-1.03-0.175-2.061-0.23-3.093C18.65,55.029,18.535,52.603,18.443,50.774z"/>
	<path fill-rule="evenodd" clip-rule="evenodd" fill="#D8C441" d="M17.734,51.149c-0.303,3.484-0.584,6.731-0.869,9.978
		c-0.012,0.159,0.018,0.368-0.07,0.462c-0.199,0.211-0.463,0.507-0.695,0.502c-0.228-0.005-0.571-0.297-0.649-0.534
		c-0.162-0.483-0.208-1.012-0.25-1.526c-0.109-1.348-0.199-2.697-0.282-4.048c-0.098-1.627-0.281-3.259-0.244-4.884
		c0.047-2.024,0.279-4.044,0.437-6.065c0.084-1.07,0.179-2.139,0.272-3.208c0.013-0.159-0.012-0.361,0.075-0.463
		c0.169-0.195,0.388-0.421,0.619-0.467c0.167-0.034,0.442,0.162,0.57,0.331c0.133,0.176,0.186,0.438,0.207,0.667
		c0.178,1.94,0.334,3.881,0.51,5.821c0.092,1.029,0.206,2.056,0.314,3.084C17.701,50.997,17.741,51.189,17.734,51.149z"/>
	<path fill-rule="evenodd" clip-rule="evenodd" fill="#D8C441" d="M32.423,70.81c0-1.116-0.01-2.23,0.004-3.346
		c0.006-0.458-0.129-0.995,0.491-1.211c0.652-0.228,1.352-0.009,1.762,0.583c0.611,0.883,1.187,1.793,1.807,2.669
		c0.421,0.595,0.896,1.151,1.346,1.724c0.023-0.713,0.056-1.426,0.067-2.14c0.013-0.717,0.018-1.435,0.003-2.151
		c-0.011-0.593,0.321-0.751,0.835-0.735c0.485,0.014,0.995-0.028,1.089,0.64c0.017,0.118,0.021,0.238,0.021,0.357
		c0.001,2.351,0.003,4.7-0.001,7.051c0,0.399,0.016,0.817-0.457,1.003c-0.523,0.206-1.276,0.033-1.598-0.431
		c-0.885-1.276-1.736-2.574-2.612-3.856c-0.218-0.32-0.48-0.611-0.722-0.915c-0.028,0.384-0.078,0.767-0.082,1.15
		c-0.011,1.076,0.014,2.151-0.009,3.227c-0.017,0.787-0.123,0.863-0.927,0.876c-0.867,0.013-0.996-0.082-1.012-0.912
		C32.407,73.201,32.423,72.005,32.423,70.81z"/>
	<path fill-rule="evenodd" clip-rule="evenodd" fill="#D8C441" d="M13.864,51.346c-0.165,1.651-0.349,3.428-0.517,5.206
		c-0.115,1.227-0.208,2.455-0.311,3.682c-0.026,0.317-0.009,0.644-0.081,0.949c-0.088,0.381-0.191,0.855-0.699,0.827
		c-0.466-0.026-0.634-0.434-0.676-0.856c-0.091-0.909-0.169-1.819-0.249-2.729c-0.15-1.701-0.367-3.4-0.424-5.104
		c-0.055-1.585,0.035-3.177,0.11-4.763c0.055-1.15,0.199-2.295,0.287-3.444c0.097-1.268,0.175-2.537,0.263-3.805
		c0.011-0.158-0.022-0.353,0.058-0.466c0.169-0.246,0.382-0.593,0.613-0.624c0.187-0.025,0.461,0.327,0.632,0.56
		c0.108,0.146,0.12,0.377,0.136,0.572c0.176,2.097,0.341,4.196,0.518,6.294C13.625,48.831,13.742,50.018,13.864,51.346z"/>
	<path fill-rule="evenodd" clip-rule="evenodd" fill="#D8C441" d="M83.94,70.751c0-1.195-0.018-2.391,0.007-3.586
		c0.017-0.78,0.156-0.958,0.901-0.945c1.15,0.02,2.312,0.051,3.442,0.233c1.159,0.186,2.042,0.886,2.537,1.978
		c0.697,1.538,0.704,3.108-0.051,4.61c-0.777,1.546-2.25,2.061-3.847,2.247c-0.708,0.082-1.433,0.038-2.149,0.013
		c-0.743-0.024-0.817-0.091-0.833-0.844C83.922,73.222,83.939,71.986,83.94,70.751z M85.897,70.65c0,0.676,0.014,1.352-0.004,2.026
		c-0.014,0.526,0.247,0.679,0.731,0.686c1.322,0.017,2.616-0.623,2.626-2.661c0.013-2.079-1.248-2.54-2.667-2.561
		c-0.52-0.007-0.707,0.227-0.691,0.721C85.911,69.458,85.897,70.054,85.897,70.65z"/>
	<path fill-rule="evenodd" clip-rule="evenodd" fill="#D8C441" d="M41.782,70.628c0-1.115-0.015-2.231,0.005-3.347
		c0.017-0.92,0.141-1.068,1.028-1.067c0.911,0.001,1.824,0.067,2.733,0.142c2.892,0.239,3.978,2.886,3.58,5.196
		c-0.435,2.518-2.077,3.494-4.298,3.74c-0.63,0.071-1.274,0.027-1.912,0.013c-0.993-0.021-1.113-0.126-1.131-1.091
		C41.766,73.019,41.782,71.824,41.782,70.628z M43.746,70.686c0,0.673,0.006,1.349-0.003,2.022c-0.006,0.443,0.191,0.624,0.64,0.655
		c1.042,0.072,1.923-0.242,2.438-1.155c0.588-1.041,0.536-2.18-0.093-3.168c-0.544-0.854-1.525-0.893-2.457-0.887
		c-0.426,0.003-0.527,0.271-0.527,0.628C43.745,69.416,43.744,70.05,43.746,70.686z"/>
	<path fill-rule="evenodd" clip-rule="evenodd" fill="#D8C441" d="M6.998,51.267c0.128-1.41,0.262-2.833,0.388-4.258
		c0.119-1.347,0.221-2.695,0.351-4.04c0.06-0.632,0.126-1.27,0.275-1.884c0.049-0.2,0.369-0.334,0.564-0.498
		c0.136,0.176,0.364,0.337,0.393,0.53c0.179,1.177,0.339,2.359,0.455,3.544c0.198,2.018,0.383,4.037,0.524,6.058
		c0.055,0.786,0.021,1.586-0.05,2.373c-0.22,2.413-0.468,4.825-0.728,7.235c-0.053,0.494-0.043,1.188-0.701,1.213
		c-0.639,0.024-0.578-0.691-0.649-1.112c-0.139-0.821-0.153-1.661-0.226-2.493C7.397,55.718,7.197,53.501,6.998,51.267z"/>
	<path fill-rule="evenodd" clip-rule="evenodd" fill="#D8C441" d="M69.11,75.341c-1.724-0.015-2.909-0.911-3.485-2.558
		c-0.497-1.42-0.473-2.812,0.058-4.208c0.597-1.572,1.893-2.436,3.618-2.409c1.634,0.025,2.884,0.93,3.45,2.477
		c0.468,1.278,0.503,2.548,0.138,3.87C72.337,74.505,70.676,75.513,69.11,75.341z M69.201,68.127
		c-0.792-0.07-1.297,0.363-1.574,1.026c-0.459,1.105-0.43,2.232,0.052,3.338c0.293,0.674,0.832,0.898,1.53,0.899
		c0.701,0,1.233-0.235,1.526-0.907c0.48-1.107,0.504-2.233,0.045-3.337C70.503,68.481,69.991,68.058,69.201,68.127z"/>
	<path fill-rule="evenodd" clip-rule="evenodd" fill="#D8C441" d="M17.607,75.343c-1.557,0.155-3.083-1.151-3.498-2.521
		c-0.433-1.433-0.478-2.811,0.046-4.213c0.574-1.531,1.836-2.427,3.474-2.443c1.667-0.018,2.955,0.826,3.559,2.327
		c0.662,1.648,0.603,3.295-0.158,4.874C20.362,74.754,19.187,75.408,17.607,75.343z M19.618,70.747
		c-0.059-0.345-0.098-0.865-0.242-1.354c-0.255-0.863-0.907-1.298-1.774-1.27c-0.775,0.026-1.383,0.504-1.622,1.323
		c-0.248,0.852-0.246,1.719-0.012,2.574c0.265,0.968,0.76,1.353,1.69,1.364c0.98,0.011,1.508-0.402,1.766-1.418
		C19.513,71.622,19.539,71.263,19.618,70.747z"/>
	<path fill-rule="evenodd" clip-rule="evenodd" fill="#D8C441" d="M9.277,75.337c-1.208,0.048-2.235-0.185-3.083-0.958
		c-0.619-0.564-0.618-0.667-0.044-1.22c0.607-0.586,0.644-0.613,1.404-0.142c0.774,0.48,1.605,0.422,2.432,0.307
		c0.212-0.029,0.528-0.318,0.542-0.507c0.02-0.262-0.13-0.632-0.335-0.79c-0.266-0.205-0.658-0.251-0.997-0.36
		c-0.567-0.184-1.137-0.356-1.703-0.545c-1.089-0.365-1.586-1.212-1.611-2.28c-0.024-1.046,0.614-1.795,1.484-2.298
		c1.205-0.697,3.366-0.462,4.409,0.448c0.281,0.245,0.695,0.467,0.323,0.972c-0.493,0.669-0.952,0.912-1.42,0.597
		c-0.527-0.355-1.082-0.484-1.696-0.451c-0.404,0.022-0.831,0.022-0.944,0.535c-0.124,0.56,0.323,0.668,0.693,0.789
		c0.53,0.174,1.075,0.295,1.608,0.455c1.769,0.53,2.422,1.46,2.223,3.145c-0.159,1.338-1.294,2.239-2.903,2.302
		C9.501,75.342,9.342,75.337,9.277,75.337z"/>
	<path fill-rule="evenodd" clip-rule="evenodd" fill="#D8C441" d="M30.606,69.397c-0.106,1.105-0.127,2.227-0.338,3.311
		c-0.283,1.453-1.389,2.798-3.829,2.638c-1.668-0.108-2.93-1.111-3.125-2.883c-0.199-1.812-0.184-3.649-0.206-5.476
		c-0.007-0.646,0.281-0.8,1.065-0.783c0.714,0.016,0.847,0.113,0.862,0.823c0.025,1.195-0.014,2.392,0.019,3.586
		c0.015,0.551,0.085,1.113,0.223,1.647c0.202,0.777,0.692,1.115,1.473,1.131c0.799,0.016,1.299-0.277,1.558-1.032
		c0.152-0.442,0.225-0.929,0.238-1.399c0.031-1.274-0.001-2.55,0.018-3.825c0.012-0.82,0.126-0.919,0.873-0.931
		c0.818-0.013,1.037,0.153,1.067,0.914c0.031,0.756,0.007,1.514,0.007,2.271C30.542,69.391,30.574,69.395,30.606,69.397z"/>
	<path fill-rule="evenodd" clip-rule="evenodd" fill="#D8C441" d="M82.115,69.413c-0.099,1.066-0.136,2.143-0.312,3.195
		c-0.257,1.533-1.448,2.872-3.747,2.742c-1.75-0.098-3.026-1.077-3.229-2.903c-0.201-1.811-0.183-3.65-0.203-5.476
		c-0.007-0.63,0.296-0.788,1.079-0.767c0.708,0.021,0.83,0.114,0.844,0.842c0.025,1.195-0.014,2.392,0.02,3.585
		c0.016,0.552,0.089,1.113,0.228,1.646c0.189,0.729,0.657,1.066,1.367,1.111c0.801,0.051,1.364-0.225,1.625-0.934
		c0.173-0.475,0.255-1.004,0.27-1.512c0.038-1.274,0-2.55,0.019-3.824c0.013-0.802,0.138-0.908,0.891-0.915
		c0.816-0.006,1.021,0.153,1.05,0.931c0.029,0.756,0.006,1.514,0.006,2.271C82.055,69.408,82.085,69.411,82.115,69.413z"/>
	<path fill-rule="evenodd" clip-rule="evenodd" fill="#D8C441" d="M3.362,50.563c0.263-2.492,0.523-4.986,0.792-7.478
		c0.021-0.192,0.068-0.397,0.162-0.564c0.188-0.337,0.585-0.343,0.752-0.007c0.122,0.247,0.21,0.525,0.244,0.797
		c0.267,2.132,0.459,4.274,0.789,6.396c0.301,1.934-0.184,3.795-0.333,5.687c-0.083,1.069-0.262,2.131-0.413,3.195
		c-0.051,0.354-0.106,0.716-0.236,1.045c-0.073,0.185-0.303,0.306-0.462,0.455c-0.146-0.17-0.38-0.321-0.423-0.514
		c-0.134-0.62-0.214-1.254-0.283-1.886c-0.224-2.058-0.439-4.116-0.639-6.177c-0.031-0.31,0.041-0.631,0.066-0.947
		C3.372,50.565,3.367,50.564,3.362,50.563z"/>
	<path fill-rule="evenodd" clip-rule="evenodd" fill="#D8C441" d="M50.623,70.959c-0.1-1.143,0.144-2.018,0.587-2.843
		c1.052-1.955,3.631-2.584,5.473-1.341c0.1,0.068,0.23,0.114,0.292,0.206c0.259,0.384,0.497,0.783,0.742,1.175
		c-0.442,0.252-0.869,0.542-1.337,0.729c-0.139,0.056-0.414-0.15-0.592-0.284c-1.226-0.922-2.546-0.572-3.037,0.873
		c-0.328,0.967-0.325,1.968,0.151,2.908c0.558,1.103,1.851,1.355,2.821,0.584c0.232-0.184,0.557-0.475,0.764-0.422
		c0.407,0.104,0.78,0.392,1.124,0.658c0.084,0.065,0.068,0.391-0.018,0.518c-0.22,0.324-0.471,0.646-0.772,0.893
		c-1.176,0.963-2.538,0.975-3.845,0.455c-1.399-0.558-2.135-1.744-2.344-3.229C50.58,71.486,50.623,71.122,50.623,70.959z"/>
	<path fill-rule="evenodd" clip-rule="evenodd" fill="#D8C441" d="M59.229,70.775c0-1.234-0.016-2.467,0.006-3.701
		c0.012-0.745,0.129-0.841,0.812-0.869c0.83-0.033,1.109,0.139,1.123,0.85c0.033,1.67,0.011,3.342,0.017,5.013
		c0.004,1.279,0.007,1.279,1.332,1.285c0.477,0.002,0.957-0.021,1.432,0.012c0.621,0.043,0.788,0.257,0.802,0.928
		c0.015,0.686-0.153,0.979-0.73,0.993c-1.392,0.035-2.785,0.015-4.177,0.008c-0.552-0.002-0.617-0.386-0.617-0.82
		C59.23,73.241,59.229,72.008,59.229,70.775z"/>
</g>
<rect fill-rule="evenodd" clip-rule="evenodd" fill="none" width="96" height="96"/>
</svg>
