<?xml version="1.0" encoding="utf-8"?>
<!-- Generator: Adobe Illustrator 16.0.0, SVG Export Plug-In . SVG Version: 6.00 Build 0)  -->
<!DOCTYPE svg PUBLIC "-//W3C//DTD SVG 1.1//EN" "http://www.w3.org/Graphics/SVG/1.1/DTD/svg11.dtd">
<svg version="1.1" id="Layer_1" xmlns="http://www.w3.org/2000/svg" xmlns:xlink="http://www.w3.org/1999/xlink" x="0px" y="0px"
	 width="300px" height="300px" viewBox="0 0 300 300" enable-background="new 0 0 300 300" xml:space="preserve">
<g id="Ea78Vn.tif">
	<path fill-rule="evenodd" clip-rule="evenodd" fill="#D7C656" d="M181.856,126.31c1.196-0.183,1.194-0.182,1.725,0.868
		c4.345,8.607,8.775,17.169,13.722,25.452c0.16,0.27,0.327,0.535,0.547,0.897c0.192-0.332,0.346-0.592,0.492-0.858
		c4.701-8.556,9.408-17.108,14.084-25.677c0.368-0.676,0.788-0.898,1.488-0.683c1.393,11.854,2.785,23.707,4.179,35.569
		c-1.516,0-3.12,0-4.758,0c-0.854-8.828-1.712-17.69-2.569-26.555c-0.07-0.005-0.139-0.012-0.21-0.019
		c-0.121,0.194-0.252,0.383-0.362,0.583c-4.574,8.209-9.162,16.414-12.998,25.004c-0.089,0.199-0.386,0.477-0.514,0.445
		c-0.221-0.06-0.451-0.3-0.563-0.52c-4.255-8.324-8.495-16.656-12.735-24.985c-0.076-0.147-0.169-0.284-0.338-0.424
		c-1.027,8.814-2.351,17.589-2.624,26.466c-1.218,0-2.409,0-3.598,0C178.497,150.04,180.176,138.185,181.856,126.31z"/>
	<path fill-rule="evenodd" clip-rule="evenodd" fill="#D7C656" d="M296.462,126.336c0.998,0,1.906,0,2.875,0
		c0,11.812,0,23.676,0,35.551c-0.939,0.217-1.589-0.016-2.288-0.809c-4.506-5.122-9.089-10.176-13.654-15.244
		c-3.464-3.844-6.938-7.681-10.418-11.513c-0.197-0.217-0.481-0.355-0.876-0.638c0,9.557,0,18.868,0,28.192
		c-0.999,0-1.947,0-2.935,0c0-11.839,0-23.705,0-35.624c0.606,0,1.169-0.058,1.71,0.024c0.289,0.044,0.591,0.284,0.804,0.513
		c4.371,4.721,8.729,9.454,13.09,14.184c3.591,3.894,7.181,7.789,10.779,11.674c0.203,0.22,0.484,0.365,0.729,0.547
		c0.06-0.046,0.123-0.087,0.184-0.13C296.462,144.148,296.462,135.235,296.462,126.336z"/>
	<path fill-rule="evenodd" clip-rule="evenodd" fill="#D7C656" d="M26.701,161.953c-0.359-0.02-0.718-0.045-1.079-0.055
		c-0.917-0.027-1.873-0.219-2.745-0.029c-1.534,0.328-2.249-0.394-3.137-1.521c-2.978-3.775-6.127-7.418-9.222-11.104
		c-1.399-1.667-2.816-3.319-4.246-4.961c-0.25-0.286-0.609-0.479-0.918-0.714c-0.06,0.041-0.119,0.082-0.179,0.123
		c0,6.052,0,12.103,0,18.185c-1.587,0-3.087,0-4.625,0c0-11.835,0-23.682,0-35.547c1.5,0,2.983,0,4.562,0c0,5.343,0,10.722,0,16.353
		c0.577-0.298,1.05-0.429,1.37-0.727c1.504-1.399,2.999-2.812,4.435-4.279c3.553-3.629,7.076-7.287,10.598-10.947
		c0.355-0.37,0.698-0.45,1.205-0.417c1.079,0.071,2.166,0.022,3.329,0.022c-5.403,5.239-10.789,10.461-16.214,15.721
		c5.711,6.643,11.738,12.85,16.979,19.727C26.775,161.84,26.739,161.896,26.701,161.953z"/>
	<path fill-rule="evenodd" clip-rule="evenodd" fill="#D7C656" d="M101.473,126.338c1.009,0,1.921,0,2.917,0
		c0.011,0.221,0.034,0.475,0.034,0.729c0.002,6.752,0.013,13.506-0.003,20.259c-0.005,2.336-0.345,4.623-1.204,6.815
		c-1.332,3.399-3.647,5.885-7.056,7.183c-4.746,1.803-9.589,1.779-14.338,0.051c-4.346-1.582-6.765-4.854-7.367-9.415
		c-0.236-1.793-0.356-3.613-0.368-5.422c-0.043-6.486-0.016-12.973-0.016-19.46c0-0.255,0-0.512,0-0.747c1.573,0,3.04,0,4.601,0
		c0.015,0.256,0.046,0.555,0.046,0.854c0.002,6.536-0.046,13.072,0.031,19.605c0.022,1.944,0.216,3.924,0.636,5.82
		c1.027,4.631,3.967,7.113,8.695,7.416c1.698,0.108,3.457,0.104,5.118-0.214c3.97-0.76,6.233-3.437,7.377-7.183
		c0.714-2.337,0.896-4.742,0.896-7.17c0-6.1,0-12.199,0-18.298C101.473,126.88,101.473,126.599,101.473,126.338z"/>
	<path fill-rule="evenodd" clip-rule="evenodd" fill="#D7C656" d="M258.933,161.949c-1.788,0-3.477,0.017-5.163-0.023
		c-0.182-0.004-0.438-0.307-0.521-0.525c-1.138-2.978-2.238-5.968-3.379-8.943c-0.519-1.353-1.118-2.672-1.656-4.018
		c-0.163-0.404-0.358-0.589-0.837-0.585c-4.018,0.022-8.032,0.019-12.05,0.002c-0.43-0.001-0.645,0.125-0.792,0.533
		c-1.572,4.31-3.173,8.608-4.729,12.922c-0.181,0.508-0.372,0.656-0.907,0.622c-1-0.062-2.008-0.016-3.093-0.016
		c0.688-1.553,1.345-3.051,2.013-4.547c4.637-10.387,9.277-20.771,13.908-31.162c0.21-0.476,0.403-0.771,1.028-0.762
		c0.607,0.008,0.697,0.376,0.867,0.769c5.007,11.674,10.015,23.347,15.024,35.02C258.729,161.432,258.807,161.631,258.933,161.949z
		 M247.147,145.636c-1.927-4.441-3.811-8.784-5.747-13.247c-1.912,4.496-3.76,8.841-5.633,13.247
		C239.593,145.636,243.31,145.636,247.147,145.636z"/>
	<path fill-rule="evenodd" clip-rule="evenodd" fill="#D7C656" d="M32.617,161.939c1.135-2.545,2.227-4.989,3.319-7.434
		c4.223-9.463,8.449-18.926,12.66-28.395c0.202-0.454,0.423-0.651,0.953-0.659c0.537-0.007,0.69,0.264,0.862,0.666
		c5.034,11.744,10.076,23.484,15.115,35.224c0.074,0.173,0.126,0.355,0.189,0.537c-1.815,0-3.592,0-5.468,0
		c-0.481-1.32-0.959-2.73-1.503-4.115c-1.227-3.122-2.496-6.23-3.72-9.356c-0.173-0.441-0.402-0.553-0.85-0.551
		c-3.993,0.018-7.986,0.018-11.979,0c-0.455-0.002-0.685,0.122-0.845,0.564c-1.578,4.33-3.18,8.654-4.766,12.984
		c-0.111,0.304-0.145,0.567-0.598,0.549C34.904,161.91,33.82,161.939,32.617,161.939z M42.592,145.636c3.839,0,7.558,0,11.382,0
		c-1.914-4.417-3.802-8.772-5.742-13.248C46.332,136.852,44.483,141.194,42.592,145.636z"/>
	<path fill-rule="evenodd" clip-rule="evenodd" fill="#D7C656" d="M153.48,128.701c0,4.39,0,8.686,0,12.969
		c4.194,0,8.383,0,12.595,0c0,0.827,0,1.71,0,2.577c-4.136,0-8.325,0-12.608,0c0,5.817,0,11.727,0,17.632c-1.579,0-3.065,0-4.602,0
		c0-11.815,0-23.662,0-35.569c6.154,0,12.305,0,18.419,0c0,1.031,0,2.035,0,3.077C162.734,128.581,158.123,128.82,153.48,128.701z"
		/>
	<path fill-rule="evenodd" clip-rule="evenodd" fill="#D7C656" d="M123.225,161.879c-1.591,0-3.061,0-4.585,0
		c0-11.815,0-23.679,0-35.585c6.124,0,12.235,0,18.386,0c0,1.018,0,2.037,0,3.093c-4.542-0.813-9.135-0.553-13.766-0.69
		c0,4.384,0,8.679,0,12.976c4.175,0,8.362,0,12.554,0c0,0.832,0,1.714,0,2.574c-4.14,0-8.325,0-12.59,0
		C123.225,150.078,123.225,155.968,123.225,161.879z"/>
	<path fill-rule="evenodd" clip-rule="evenodd" fill="#D7C656" d="M210.223,172.739c0.93,0,1.718,0,2.549,0
		c0,7.828,0,15.624,0,23.468c-0.83,0-1.636,0-2.519,0c0-0.854,0-1.687,0-2.718c-0.297,0.374-0.474,0.584-0.638,0.805
		c-2.496,3.377-8.645,3.041-10.329-1.473c-0.999-2.669-1.006-5.355,0.195-7.969c1.341-2.913,4.416-4.382,7.372-3.589
		c1.178,0.315,1.845,0.819,3.369,2.583C210.223,180.091,210.223,176.441,210.223,172.739z M210.253,188.521
		c0.063-0.017,0.126-0.032,0.189-0.048c-0.288-1.21-0.453-2.466-0.896-3.615c-0.6-1.565-1.795-2.469-3.567-2.455
		c-1.805,0.012-3.168,0.794-3.824,2.463c-0.995,2.523-1.104,5.135-0.2,7.717c0.569,1.626,1.679,2.691,3.508,2.775
		c1.878,0.087,3.102-0.872,3.888-2.481C210.021,191.505,210.244,190.032,210.253,188.521z"/>
	<path fill-rule="evenodd" clip-rule="evenodd" fill="#D7C656" d="M296.852,196.215c0-0.312,0.002-0.599,0-0.884
		c-0.019-2.976-0.037-5.95-0.062-8.928c-0.001-0.215-0.036-0.434-0.076-0.647c-0.384-2.02-1.325-2.929-3.119-3.023
		c-2.011-0.103-3.421,0.828-3.879,2.756c-0.267,1.115-0.363,2.289-0.396,3.442c-0.06,2.151-0.017,4.307-0.017,6.462
		c0,0.262,0,0.523,0,0.82c-0.864,0-1.654,0-2.495,0c0-4.938,0-9.906,0-14.905c0.812,0,1.599,0,2.468,0c0,0.787,0,1.574,0,2.361
		c0.058,0.026,0.114,0.054,0.171,0.079c0.136-0.167,0.274-0.333,0.406-0.506c1.79-2.362,4.821-2.598,7.01-1.715
		c1.481,0.597,2.054,1.896,2.36,3.347c0.073,0.353,0.141,0.716,0.142,1.078c0.01,3.409,0.006,6.818,0.006,10.263
		C298.55,196.215,297.74,196.215,296.852,196.215z"/>
	<path fill-rule="evenodd" clip-rule="evenodd" fill="#D7C656" d="M181.254,196.223c-0.878,0-1.67,0-2.504,0
		c0-4.948,0-9.896,0-14.896c0.799,0,1.604,0,2.493,0c0,0.775,0,1.564,0,2.35c0.054,0.024,0.106,0.048,0.158,0.069
		c0.153-0.191,0.306-0.384,0.458-0.577c1.858-2.396,5.005-2.478,7.037-1.605c1.017,0.435,1.675,1.254,1.977,2.289
		c0.242,0.828,0.437,1.702,0.45,2.559c0.052,3.169,0.021,6.338,0.02,9.509c0,0.092-0.017,0.187-0.027,0.303
		c-0.813,0-1.601,0-2.475,0c-0.014-0.285-0.035-0.562-0.038-0.843c-0.021-2.974-0.04-5.949-0.065-8.924
		c-0.003-0.238-0.044-0.482-0.089-0.718c-0.39-2.016-1.34-2.927-3.134-3.008c-1.984-0.089-3.364,0.814-3.842,2.708
		c-0.27,1.067-0.372,2.192-0.402,3.297c-0.059,2.225-0.017,4.454-0.017,6.679C181.254,195.676,181.254,195.936,181.254,196.223z"/>
	<path fill-rule="evenodd" clip-rule="evenodd" fill="#D7C656" d="M157.241,181.308c0.895,0,1.685,0,2.564,0
		c0,0.277,0,0.535,0,0.793c0,2.638-0.024,5.276,0.016,7.914c0.013,0.837,0.118,1.695,0.333,2.502
		c0.394,1.49,1.466,2.326,2.908,2.419c1.914,0.124,3.209-0.49,3.773-2.035c0.347-0.955,0.517-2.016,0.545-3.035
		c0.075-2.564,0.025-5.129,0.025-7.695c0-0.263,0-0.526,0-0.841c0.851,0,1.656,0,2.517,0c0,4.935,0,9.883,0,14.872
		c-0.819,0-1.626,0-2.52,0c0-0.744,0-1.477,0-2.382c-0.181,0.211-0.244,0.27-0.292,0.341c-1.639,2.466-4.646,2.811-6.992,2.012
		c-1.799-0.612-2.511-2.112-2.736-3.862c-0.128-0.978-0.13-1.976-0.137-2.966C157.229,186.685,157.241,184.025,157.241,181.308z"/>
	<path fill-rule="evenodd" clip-rule="evenodd" fill="#D7C656" d="M121.4,185.626c0,3.568,0,7.071,0,10.599
		c-0.932,0-1.796,0-2.727,0c0-7.105,0-14.203,0-21.359c3.667,0,7.354,0,11.058,0c0,0.593,0,1.163,0,1.667
		c-2.749-0.099-5.485-0.196-8.27-0.295c0,2.706,0,5.259,0,7.842c2.514,0,4.994,0,7.524,0c0,0.476,0,0.993,0,1.547
		C126.512,185.626,124.015,185.626,121.4,185.626z"/>
	<path fill-rule="evenodd" clip-rule="evenodd" fill="#D7C656" d="M272.144,181.065c4.277-0.126,7.251,2.894,7.373,7.491
		c0.117,4.363-2.991,7.771-7.136,7.975c-5.157,0.254-8.077-3.231-8.16-7.093C264.111,184.396,267.099,181.213,272.144,181.065z
		 M267.022,189.026c-0.066,0.021-0.132,0.036-0.198,0.058c0.331,1.273,0.531,2.598,1.025,3.807c0.67,1.649,2.006,2.557,3.834,2.632
		c1.837,0.074,3.093-0.853,3.9-2.399c1.372-2.626,1.526-5.363,0.489-8.133c-0.645-1.723-1.833-2.853-3.77-2.903
		c-1.937-0.052-3.4,0.781-4.311,2.521C267.27,185.994,267.07,187.493,267.022,189.026z"/>
	<path fill-rule="evenodd" clip-rule="evenodd" fill="#D7C656" d="M134.973,188.96c-0.183-4.46,3.066-7.896,8-7.893
		c4.424,0.004,7.272,3.061,7.276,7.712c0.002,4.121-2.875,7.866-8.068,7.754C138.244,196.449,134.771,193.499,134.973,188.96z
		 M137.728,188.359c0.067,2.384,0.321,4.023,1.356,5.427c1.748,2.37,5.251,2.388,6.847-0.079c1.944-3.005,2.058-6.228,0.518-9.459
		c-0.57-1.195-1.57-1.953-2.93-2.116c-2.302-0.277-4.171,0.754-4.998,2.965C138.055,186.344,137.881,187.702,137.728,188.359z"/>
	<path fill-rule="evenodd" clip-rule="evenodd" fill="#D7C656" d="M96.062,110.922c-0.708,0-1.352,0-2.056,0
		c-0.169-1.875-0.329-3.724-0.503-5.573c-0.17-1.825-0.354-3.647-0.534-5.47c-0.082-0.025-0.165-0.051-0.247-0.076
		c-1.915,3.701-3.83,7.403-5.785,11.182c-1.894-3.739-3.772-7.45-5.653-11.162c-0.06,0.001-0.121,0.002-0.182,0.002
		c-0.368,3.675-0.736,7.35-1.109,11.081c-0.419,0-0.914,0-1.413,0c0.721-5.137,1.441-10.27,2.194-15.632
		c0.248,0.302,0.453,0.479,0.569,0.702c1.869,3.574,3.727,7.154,5.589,10.731c0.132,0.254,0.277,0.503,0.477,0.864
		c2.23-4.133,4.412-8.171,6.593-12.211c0.093,0.027,0.187,0.055,0.28,0.083C94.875,100.582,95.465,105.721,96.062,110.922z"/>
	<path fill-rule="evenodd" clip-rule="evenodd" fill="#D7C656" d="M221.53,184.527c0-0.482-0.021-0.963,0.013-1.438
		c0.011-0.164,0.125-0.372,0.26-0.463c1.9-1.271,3.981-1.855,6.258-1.421c2.312,0.442,3.556,2.018,3.622,4.645
		c0.066,2.61,0.03,5.225,0.036,7.832c0.003,1.508,0.128,1.618,1.659,1.411c0.188,0.455,0.12,0.795-0.431,0.88
		c-0.614,0.093-1.24,0.23-1.856,0.201c-0.961-0.044-1.291-0.404-1.915-1.77c-1.025,1.049-2.199,1.834-3.664,2.043
		c-1.788,0.256-3.449,0.021-4.634-1.531c-1.463-1.913-0.774-4.937,1.461-5.805c1.487-0.58,3.116-0.818,4.695-1.136
		c2.225-0.446,2.818-1.52,1.925-3.633c-0.608-1.434-2.267-2.191-4.089-1.862c-1.195,0.217-2.184,0.762-2.827,1.828
		c-0.085,0.14-0.087,0.331-0.127,0.498C221.788,184.713,221.659,184.62,221.53,184.527z M229.125,188.47
		c-1.33,0.287-2.547,0.492-3.725,0.829c-0.61,0.171-1.22,0.491-1.715,0.892c-0.949,0.766-1.072,1.836-0.819,2.97
		c0.214,0.957,0.811,1.574,1.736,1.866c1.487,0.468,3.646-0.396,4.417-1.762c0.057-0.099,0.1-0.223,0.102-0.337
		C229.127,191.481,229.125,190.034,229.125,188.47z"/>
	<path fill-rule="evenodd" clip-rule="evenodd" fill="#D7C656" d="M66.231,100.298c0,0.337,0,0.593,0,0.906
		c-0.73-0.045-1.433-0.088-2.352-0.144c0.877,0.766,1.324,1.546,1.403,2.495c0.163,1.987-1.011,3.492-2.994,3.782
		c-0.712,0.103-1.443,0.063-2.166,0.084c-0.768,0.022-1.193,0.342-1.236,0.938c-0.049,0.666,0.299,1.053,1.124,1.114
		c1.157,0.085,2.326,0.035,3.475,0.176c2.726,0.335,3.745,2.356,2.39,4.759c-0.332,0.588-0.837,1.168-1.405,1.517
		c-2.127,1.301-4.359,1.277-6.558,0.161c-1.021-0.518-1.463-1.455-1.389-2.591c0.076-1.16,0.683-1.987,1.722-2.499
		c0.15-0.074,0.308-0.131,0.477-0.202c-1.763-1.203-1.696-2.661,0.197-3.681c-0.879-0.532-1.626-1.155-1.898-2.183
		c-0.648-2.464,0.825-4.518,3.428-4.688c0.937-0.062,1.884,0.042,2.826,0.053C64.238,100.308,65.203,100.298,66.231,100.298z
		 M61.502,110.987c-0.002-0.028-0.004-0.059-0.007-0.088c-0.572,0.07-1.153,0.101-1.714,0.22c-0.945,0.199-1.632,0.699-1.769,1.744
		c-0.153,1.158,0.07,2.178,1.121,2.847c1.286,0.817,3.552,0.608,4.698-0.409c0.899-0.796,1.053-1.801,0.753-2.906
		c-0.286-1.048-1.161-1.27-2.069-1.4C62.183,110.947,61.84,110.987,61.502,110.987z M58.679,103.991
		c0.008,0.091,0.02,0.381,0.061,0.667c0.2,1.37,0.994,2.119,2.291,2.169c1.146,0.045,2.105-0.69,2.329-1.96
		c0.13-0.744,0.144-1.551,0-2.289c-0.246-1.267-1.434-1.941-2.705-1.681C59.368,101.161,58.691,102.154,58.679,103.991z"/>
	<path fill-rule="evenodd" clip-rule="evenodd" fill="#D7C656" d="M243.108,182.484c-0.071,0.165-0.107,0.209-0.107,0.25
		c0.012,3.409,0.022,6.818,0.044,10.227c0.001,0.189,0.055,0.38,0.102,0.569c0.359,1.444,1.084,1.964,2.568,1.83
		c0.289-0.025,0.571-0.09,0.89-0.142c0.216,0.488,0.142,0.853-0.435,0.939c-0.949,0.138-1.912,0.363-2.856,0.32
		c-1.791-0.083-2.839-1.388-2.869-3.535c-0.045-3.194-0.012-6.387-0.012-9.579c0-0.26,0-0.521,0-0.86c-0.668,0-1.261,0-1.879,0
		c0-0.437,0-0.793,0-1.216c0.596,0,1.191,0,1.879,0c0-0.926,0.021-1.787-0.01-2.647c-0.013-0.378,0.121-0.565,0.469-0.684
		c0.659-0.228,1.303-0.489,2.061-0.779c0,1.384,0,2.696,0,4.088c1.143,0,2.195,0,3.267,0c0,0.436,0,0.792,0,1.219
		C245.171,182.484,244.139,182.484,243.108,182.484z"/>
	<path fill-rule="evenodd" clip-rule="evenodd" fill="#D7C656" d="M20.564,103.018c-0.937,2.63-1.874,5.26-2.818,7.914
		c-0.396,0-0.803,0-1.21,0c-1.276-3.48-2.551-6.956-3.835-10.459c0.666,0,1.287,0,1.953,0c0.9,2.696,1.819,5.448,2.737,8.2
		c0.092-0.001,0.183-0.004,0.274-0.005c0.933-2.725,1.864-5.448,2.801-8.188c0.404,0,0.824,0,1.218,0
		c0.926,2.742,1.852,5.479,2.776,8.217c0.056,0.003,0.11,0.007,0.166,0.01c1.016-2.746,2.031-5.492,3.043-8.229
		c0.454,0,0.875,0,1.374,0c-0.582,1.308-1.159,2.549-1.685,3.811c-0.79,1.894-1.594,3.783-2.286,5.714
		c-0.292,0.812-0.669,1.156-1.528,0.896c-0.908-2.608-1.83-5.257-2.751-7.904C20.717,103.002,20.64,103.01,20.564,103.018z"/>
	<path fill-rule="evenodd" clip-rule="evenodd" fill="#D7C656" d="M7.855,103.534c-1.777,0-3.489,0-5.289,0c0,2.089,0,4.22,0,6.482
		c1.979-0.076,3.921-0.151,5.885-0.227c0,0.324,0,0.705,0,1.165c-1.321,0-2.642,0-3.964,0c-1.301,0-2.601,0-3.91,0
		c0-5.072,0-10.094,0-15.165c2.539,0,5.109,0,7.728,0c0,0.366,0,0.761,0,1.249c-1.872-0.1-3.76-0.202-5.739-0.308
		c0,1.953,0,3.797,0,5.652c1.774,0,3.52,0,5.291,0C7.855,102.739,7.855,103.141,7.855,103.534z"/>
	<path fill-rule="evenodd" clip-rule="evenodd" fill="#D7C656" d="M157.773,110.927c-0.648,0-1.22,0-1.702,0
		c0-1.372,0.019-2.716-0.006-4.06c-0.023-1.18-0.004-2.373-0.172-3.536c-0.165-1.165-0.962-1.839-1.957-1.933
		c-1.295-0.122-2.376,0.387-2.791,1.489c-0.268,0.706-0.398,1.497-0.421,2.255c-0.057,1.905-0.018,3.814-0.018,5.767
		c-0.482,0-1.099,0-1.756,0c0-3.438,0-6.902,0-10.411c0.563,0,1.154,0,1.843,0c-0.026,0.46-0.053,0.951-0.083,1.442
		c0.068,0.058,0.134,0.115,0.201,0.172c0.063-0.149,0.099-0.325,0.199-0.443c1.148-1.354,2.832-1.827,4.524-1.286
		c1.236,0.396,2.114,1.478,2.156,2.887c0.055,1.761-0.007,3.525-0.017,5.288C157.771,109.33,157.773,110.1,157.773,110.927z"/>
	<path fill-rule="evenodd" clip-rule="evenodd" fill="#D7C656" d="M44.396,101.93c1.019-1.123,2.151-1.769,3.66-1.732
		c2.095,0.052,3.415,1.283,3.447,3.388c0.03,2.03-0.021,4.062-0.036,6.093c-0.002,0.404,0,0.809,0,1.244c-0.612,0-1.184,0-1.839,0
		c0-0.386-0.006-0.785,0.001-1.184c0.038-1.74,0.089-3.478,0.112-5.218c0.005-0.382-0.057-0.771-0.136-1.146
		c-0.242-1.147-0.957-1.86-1.94-1.972c-1.249-0.143-2.34,0.334-2.777,1.385c-0.28,0.673-0.45,1.439-0.464,2.167
		c-0.035,1.738,0.052,3.479,0.086,5.218c0.004,0.237,0,0.474,0,0.746c-0.663,0-1.303,0-1.878,0c0-3.487,0-6.937,0-10.427
		c0.57,0,1.179,0,1.838,0C44.443,100.983,44.42,101.456,44.396,101.93z"/>
	<path fill-rule="evenodd" clip-rule="evenodd" fill="#D7C656" d="M138.358,111.148c-3.364-0.005-5.384-2.06-5.37-5.457
		c0.015-3.391,2.117-5.497,5.472-5.484c3.274,0.013,5.33,2.155,5.324,5.548C143.778,109.147,141.761,111.153,138.358,111.148z
		 M141.962,105.686c-0.257-1.016-0.409-2.079-0.8-3.043c-0.481-1.179-1.502-1.716-2.784-1.707c-1.311,0.011-2.311,0.575-2.814,1.79
		c-0.819,1.982-0.825,4.01-0.002,5.991c0.504,1.208,1.496,1.795,2.808,1.8c1.341,0.005,2.376-0.579,2.855-1.829
		C141.58,107.758,141.712,106.741,141.962,105.686z"/>
	<path fill-rule="evenodd" clip-rule="evenodd" fill="#D7C656" d="M101.737,102.733c-0.241-0.858-0.139-1.368,0.576-1.764
		c1.338-0.74,2.726-0.982,4.193-0.593c1.433,0.38,2.322,1.553,2.319,3.046c-0.004,1.837-0.073,3.674-0.084,5.512
		c-0.007,1.031,0.252,1.28,1.526,1.363c-0.3,0.268-0.439,0.487-0.628,0.546c-1.262,0.396-2.011,0.094-2.683-1.094
		c-1.008,1.026-2.214,1.511-3.659,1.406c-1.22-0.089-2.257-0.833-2.546-1.919c-0.345-1.293,0.105-2.594,1.272-3.167
		c0.763-0.375,1.643-0.522,2.478-0.745c0.629-0.167,1.271-0.284,1.904-0.438c0.496-0.121,0.684-0.457,0.689-0.964
		c0.015-1.252-0.528-2.253-1.458-2.615c-1.075-0.417-2.613-0.035-3.399,0.846C102.098,102.307,101.965,102.467,101.737,102.733z
		 M106.976,105.455c-1.071,0.29-2.188,0.499-3.231,0.899c-1.056,0.405-1.409,1.354-1.137,2.519c0.192,0.824,0.912,1.393,1.788,1.411
		c1.006,0.022,2.485-0.801,2.557-1.563C107.049,107.675,106.976,106.613,106.976,105.455z"/>
	<path fill-rule="evenodd" clip-rule="evenodd" fill="#D7C656" d="M257.494,196.223c-0.833,0-1.623,0-2.465,0
		c0-4.958,0-9.902,0-14.896c0.801,0,1.604,0,2.465,0C257.494,186.256,257.494,191.198,257.494,196.223z"/>
	<path fill-rule="evenodd" clip-rule="evenodd" fill="#D7C656" d="M116.868,110.919c-0.539,0-1.107,0-1.716,0
		c0-3.482,0-6.953,0-10.435c0.567,0,1.136,0,1.742,0c0,0.608,0,1.216,0,1.831c0.501-0.549,0.952-1.137,1.499-1.615
		c0.571-0.501,1.28-0.627,2.08-0.391c-0.045,0.637-0.089,1.254-0.137,1.935c-0.313-0.102-0.568-0.216-0.835-0.265
		c-1.174-0.215-2.187,0.548-2.483,1.896c-0.098,0.444-0.138,0.91-0.142,1.366C116.859,107.122,116.868,109.002,116.868,110.919z"/>
	<path fill-rule="evenodd" clip-rule="evenodd" fill="#D7C656" d="M34.225,100.485c0.609,0,1.204,0,1.82,0c0,3.435,0,6.897,0,10.415
		c-0.562,0-1.174,0-1.82,0C34.225,107.449,34.225,103.97,34.225,100.485z"/>
	<path fill-rule="evenodd" clip-rule="evenodd" fill="#D7C656" d="M125.94,110.925c0-3.51,0-6.977,0-10.445c0.597,0,1.214,0,1.845,0
		c0,3.447,0,6.931,0,10.445C127.193,110.925,126.573,110.925,125.94,110.925z"/>
	<path fill-rule="evenodd" clip-rule="evenodd" fill="#D7C656" d="M256.251,177.517c-0.905-0.004-1.597-0.705-1.594-1.618
		c0.002-0.901,0.713-1.607,1.614-1.6c0.896,0.008,1.61,0.728,1.606,1.621C257.873,176.813,257.154,177.519,256.251,177.517z"/>
	<path fill-rule="evenodd" clip-rule="evenodd" fill="#D7C656" d="M36.265,96.529c0.016,0.667-0.445,1.149-1.108,1.157
		c-0.622,0.008-1.117-0.448-1.149-1.059c-0.034-0.64,0.451-1.168,1.087-1.187C35.772,95.419,36.247,95.862,36.265,96.529z"/>
	<path fill-rule="evenodd" clip-rule="evenodd" fill="#D7C656" d="M126.883,97.684c-0.652,0.008-1.157-0.484-1.156-1.127
		c0.001-0.647,0.496-1.125,1.154-1.117c0.625,0.006,1.099,0.462,1.12,1.079C128.021,97.161,127.528,97.677,126.883,97.684z"/>
</g>
</svg>
