<?xml version="1.0" encoding="utf-8"?>
<!-- Generator: Adobe Illustrator 16.0.0, SVG Export Plug-In . SVG Version: 6.00 Build 0)  -->
<!DOCTYPE svg PUBLIC "-//W3C//DTD SVG 1.1//EN" "http://www.w3.org/Graphics/SVG/1.1/DTD/svg11.dtd">
<svg version="1.1" id="Layer_1" xmlns="http://www.w3.org/2000/svg" xmlns:xlink="http://www.w3.org/1999/xlink" x="0px" y="0px"
	 width="300px" height="300px" viewBox="0 0 300 300" enable-background="new 0 0 300 300" xml:space="preserve">
<g>
	<path fill-rule="evenodd" clip-rule="evenodd" fill="#D7C656" d="M100.024,142.945c-0.85-1.815-1.656-3.65-2.559-5.44
		c-3.306-6.551-1.021-12.367,5.104-15.692c1.249-0.678,2.58-1.279,4.179-1.354c-0.197,0.885-0.912,0.943-1.463,1.126
		c-2.029,0.67-3.854,1.663-5.367,3.148c-2.69,2.644-3.625,5.809-2.371,9.327c1.801,5.051,5.067,9.046,9.855,11.752
		c0.641,0.362,1.497,0.578,2.231,0.531c2.506-0.156,4.965-0.468,7.33-1.498c2.313-1.007,3.172-2.81,3.616-4.977
		c0.296-1.441,0.651-2.894,0.719-4.353c0.142-3.06-0.268-5.984-3.077-8.004c-0.235-0.169-0.4-0.43-0.598-0.648
		c0.042-0.098,0.085-0.195,0.127-0.293c0.384,0.09,0.814,0.1,1.145,0.283c2.899,1.597,6.077,2.479,9.235,3.388
		c1.479,0.425,3.039,0.588,4.645,0.885c0.729-1.87,2.288-3.293,2.207-5.442c-0.282,0.41-0.563,0.818-0.846,1.228
		c-0.096-0.012-0.193-0.024-0.29-0.037c-0.013-2.001,0.708-4.031-0.199-6.082c-0.375,0.843-0.75,1.687-1.125,2.53
		c-0.104-0.02-0.208-0.039-0.31-0.058c0-0.698,0-1.395,0-2.092c-0.098-0.029-0.196-0.059-0.293-0.087
		c-0.405,0.733-0.811,1.467-1.214,2.2c-0.104-0.03-0.206-0.06-0.31-0.089c-0.021-0.356-0.04-0.713-0.061-1.071
		c-0.067-0.033-0.133-0.066-0.201-0.1c-0.466,0.988-0.937,1.973-1.396,2.963c-0.451,0.97-0.832,1.978-1.36,2.906
		c-0.253,0.444-0.775,0.742-1.176,1.106c-0.097-0.073-0.192-0.145-0.288-0.217c0.07-0.224,0.115-0.459,0.215-0.671
		c0.658-1.412,1.349-2.809,1.987-4.231c0.928-2.071,2.066-3.869,4.706-4.089c0.524-0.044,1.026-0.332,1.603-0.528
		c1.275,1.236,0.587,2.8,0.829,4.275c0.306,0.131,0.661,0.28,1.083,0.46c0.158,2.646-1.201,4.8-2.381,7.193
		c1.771,0.319,3.43,0.394,5.048-0.164c0.989-0.34,1.979-0.758,2.847-1.318c0.614-0.396,1.201-1.012,1.495-1.661
		c0.697-1.546,1.273-3.152,1.786-4.767c0.658-2.081,1.913-3.685,3.62-5.068c2.977-2.412,6.5-3.416,10.208-3.927
		c1.877-0.259,3.51-0.864,4.918-2.124c2.938-2.622,5.887-5.232,8.886-7.785c1.687-1.433,3.436-2.81,5.248-4.088
		c2.016-1.423,4.005-2.875,5.362-4.93c0.985-1.495,1.702-3.158,2.633-4.69c1.537-2.525,2.125-5.389,3.147-8.096
		c1.01-2.672,2.813-4.803,4.954-6.642c3.159-2.714,6.458-5.275,9.627-7.979c0.771-0.657,1.442-1.545,1.838-2.458
		c0.308-0.71,0.425-1.776,0.092-2.422c-1.503-2.914,0.458-5.542,2.974-6.653c1.053-0.465,2.281-0.623,3.452-0.749
		c1.552-0.167,2.936-0.713,4.209-1.52c1.304-0.826,2.535-1.759,3.802-2.642c1.098-0.766,2.198-1.529,3.761-2.616
		c0.562-2.072,2.946-2.594,5.198-3.169c1.088-0.278,2.294-0.187,3.469,0.864c-0.095,0.513-0.105,1.218-0.354,1.834
		c-1.064,2.648-2.856,4.87-4.577,7.122c-1.01,1.32-2.064,2.609-3.15,3.868c-2.123,2.458-4.264,4.899-6.431,7.319
		c-4.527,5.051-8.729,10.327-12.004,16.253c-0.131,0.236-0.28,0.464-0.383,0.711c-1.502,3.559-3.679,6.771-5.466,10.179
		c-0.86,1.637-1.305,3.482-1.901,5.245c-0.601,1.772-1.107,3.576-1.756,5.33c-0.225,0.607-0.764,1.1-1.145,1.654
		c-3.415,4.964-6.805,9.945-10.245,14.892c-1.562,2.243-3.121,4.5-4.864,6.607c-1.314,1.589-2.915,2.956-4.397,4.413
		c-2.093,2.055-4.235,4.024-6.689,5.714c-1.954,1.346-3.502,3.239-5.305,4.81c-1.253,1.093-2.608,2.078-3.955,3.063
		c-2.981,2.183-6.273,3.847-9.667,5.326c-0.707,0.309-1.434,0.588-2.173,0.813c-4.499,1.365-9.025,2.631-13.342,4.526
		c-1.779,0.782-3.709,1.299-5.623,1.706c-1.027,0.219-2.177,0.043-3.245-0.119c-2.18-0.332-4.351-0.721-6.541-0.168
		c-3.047,0.771-5.67-0.326-8.217-1.727c-2.235-1.23-3.817-3.162-5.491-4.996c-1.85-2.027-3.784-3.984-5.645-6.002
		c-0.884-0.958-1.57-2.111-2.542-2.964c-2.887-2.536-5.802-5.052-8.842-7.408c-1.807-1.4-3.972-2.128-6.369-2.097
		c-0.733,0.009-1.555-0.194-2.19-0.547c-1.553-0.863-1.741-1.743-0.923-3.3c0.081-0.157,0.13-0.332,0.221-0.569
		c-0.275-0.929-0.563-1.908-0.833-2.82c0.163-0.586,0.303-1.092,0.445-1.606c-0.566-0.6-1.08-1.146-1.766-1.872
		c1.547-1.564,3.031-3.063,4.69-4.74c0.269,0.125,0.814,0.38,1.362,0.634c0.042-0.053,0.083-0.106,0.126-0.161
		c-0.276-0.198-0.555-0.393-0.828-0.595c-0.999-0.738-1.11-1.511-0.51-2.545c2.23-3.844,5.645-6.24,9.971-7.167
		c3.253-0.697,6.63-1.003,9.856,0.426c0.243,0.107,0.516,0.191,0.778,0.203c1.82,0.078,1.843,0.086,2.592,1.856
		c1.84,1.169,2.586,2.936,2.612,5.088c0.013,1.066,0.212,2.129,0.251,3.196c0.014,0.372-0.199,0.753-0.532,1.134
		c-0.045-3.067-0.424-5.977-2.541-8.489c-1.04,1.489-1.996,2.855-2.938,4.203c0.748,0.049,1.511,0.099,2.48,0.163
		c0.161-0.089,0.497-0.276,0.976-0.542c0.597,1.696,1.045,3.292,0.896,5.041c-0.806,0.824-1.804,1.096-3.027,1.249
		c0.215-2.084-0.492-3.656-2.203-4.899c-0.365,0.232-0.69,0.438-1.175,0.747c0.508,0.664,0.943,1.259,1.407,1.83
		c0.248,0.305,0.655,0.527,0.802,0.863c0.434,0.993-0.108,1.775-1.193,2.025c-0.963,1.101-1.847,2.106-2.855,3.255
		c-0.227,0-0.598,0.074-0.923-0.014c-0.958-0.257-1.817-0.046-2.639,0.412c-3.065,1.714-4.895,4.606-7.432,7.057
		c1.064,0.738,1.958,1.266,2.739,1.919c2.085,1.746,4.138,3.528,6.173,5.329c1.349,1.194,2.645,2.447,3.964,3.674
		c0.176,0.363,0.352,0.726,0.529,1.089c0.098-0.063,0.196-0.126,0.294-0.19C100.588,143.532,100.306,143.238,100.024,142.945z
		 M151.194,139.708c0.033-0.047,0.065-0.095,0.101-0.142c-0.028,0.053-0.055,0.107-0.082,0.159
		c-0.099,0.095-0.197,0.188-0.294,0.283c-2.515,2.475-4.897,3.549-6.755,2.875c0.363-0.255,0.596-0.497,0.885-0.613
		c2.817-1.138,4.844-3.096,6.325-5.655c0.493-0.852,1.054-1.669,1.632-2.469c0.171-0.238,0.505-0.367,0.764-0.544
		c0.088,0.077,0.177,0.155,0.266,0.233c-0.354,0.692-0.72,1.377-1.06,2.078c-0.325,0.672-0.623,1.357-0.933,2.036
		c0.242-0.003,0.317-0.06,0.363-0.134c0.141-0.229,0.291-0.455,0.398-0.7c2.093-4.748,5.497-8.478,9.556-11.706
		c0.348-0.275,0.624-0.635,0.935-0.956c0.279-0.175,0.558-0.351,0.836-0.525l0.035-0.045l-0.039,0.053
		c-0.274,0.176-0.549,0.353-0.823,0.528c-0.349,0.198-0.749,0.341-1.039,0.604c-1.739,1.577-3.451,3.185-5.181,4.775
		c-0.367,0.339-0.766,0.649-1.275,1.076c-0.307-0.937,0.21-1.324,0.578-1.721c2.058-2.214,4.12-4.423,6.216-6.602
		c1.131-1.175,1.265-1.508,0.432-2.927c-0.633-1.077-1.421-2.068-2.129-3.103c-0.548-0.798-1.312-1.012-2.261-0.935
		c-3.79,0.311-7.117,1.702-9.851,4.244c-0.927,0.861-1.58,2.062-2.158,3.203c-0.605,1.191-1.051,2.474-1.422,3.757
		c-0.735,2.542-2.473,4.042-4.915,5.009c-1.861,0.736-3.744,0.756-5.667,0.567c-3.386-0.332-6.668-1.115-9.879-2.2
		c-0.54-0.182-1.115-0.264-1.577-0.37c0.531,1.911,1.088,3.724,1.524,5.564c0.236,0.992,0.229,2.038,0.406,3.047
		c0.069,0.401,0.342,0.769,0.521,1.152c0.146-0.032,0.292-0.063,0.438-0.095c0.038-0.744,0.075-1.487,0.127-2.521
		c0.692,0.381,1.223,0.597,1.659,0.931c0.535,0.413,0.977,0.939,1.483,1.391c2.363,2.114,5.035,3.388,8.355,2.887
		c0.406-0.062,0.822-0.057,1.234-0.075c0.687-0.031,1.136,0.231,1.232,0.973c-0.954,1.292-2.311,1.832-3.863,2.025
		c-1.181,0.146-2.358,0.358-3.543,0.425c-3.85,0.215-7.702,0.371-11.313-1.35c-0.153-0.073-0.355-0.044-0.535-0.063
		c1.938,1.21,3.934,2.127,6.284,2.032c0.813-0.034,1.637,0.156,2.458,0.233c0.315,0.029,0.641,0.079,0.949,0.036
		c3.254-0.447,6.504-0.928,9.76-1.368c2.738-0.37,5.375-1.057,7.873-2.225c1.291-0.604,2.303-1.44,2.679-2.853
		C150.999,139.896,151.097,139.802,151.194,139.708z M186.155,93.144c0.267-0.366,0.533-0.73,0.799-1.095
		c0.099-0.088,0.241-0.159,0.29-0.269c0.915-2.034,1.802-4.08,2.728-6.109c0.668-1.466,1.362-2.922,2.088-4.361
		c0.264-0.521,0.534-1.133,1.597-1.073c-0.238,0.542-0.402,0.96-0.601,1.363c-1.149,2.325-2.33,4.629-2.798,7.216
		c-0.204,1.134-0.613,2.222-1.49,3.101c-2.259,2.265-4.414,4.632-6.748,6.82c-1.343,1.258-3.009,2.182-4.428,3.372
		c-3.292,2.763-6.562,5.552-9.76,8.416c-1.791,1.604-3.508,3.267-5.791,4.22c-0.104,0.043-0.157,0.205-0.228,0.304
		c1.55,2.797,3.118,5.559,4.618,8.357c1.523,2.848,1.783,6.089,2.759,9.221c0.278-0.205,0.426-0.299,0.559-0.413
		c3.863-3.3,7.349-6.931,10.447-10.94c2.621-3.39,5.131-6.838,7.163-10.596c0.478-0.881,0.796-1.844,1.187-2.77
		c0.36-0.631,0.695-1.49,1.718-1.386l-0.021-0.02c-0.779,1.991-1.38,4.072-2.376,5.955c-1.804,3.407-3.935,6.615-6.352,9.677
		c-3.423,4.343-7.094,8.4-11.548,11.756c-0.471,0.355-0.775,0.739-0.329,1.462c0.447-0.294,0.89-0.516,1.245-0.83
		c1.856-1.649,3.69-3.322,5.537-4.984c4.254-3.829,7.381-8.518,10.45-13.222c2.334-3.572,4.277-7.38,7.135-10.627
		c0.702-0.798,1.294-1.766,1.655-2.753c0.752-2.054,1.377-4.159,1.94-6.271c0.479-1.79,1.137-3.468,2.212-5.006
		c0.873-1.252,1.743-2.525,2.446-3.873c2.077-3.977,4.306-7.854,6.744-11.642c2.573-3.997,5.55-7.631,8.789-11.108
		c1.241-1.332,2.194-2.919,3.422-4.584c-0.621-0.122-0.976-0.193-1.07-0.211c-0.701,1.081-1.219,2.003-1.858,2.839
		c-1.065,1.395-2.207,2.737-3.319,4.097c-0.972,1.186-1.887,2.422-2.938,3.536c-2.619,2.778-4.822,5.855-6.683,9.137
		c-1.858,3.275-3.469,6.682-5.211,10.02c-0.397,0.758-0.891,1.467-1.34,2.199c-0.132-0.049-0.265-0.099-0.397-0.147
		c0.074-0.729,0.149-1.458,0.224-2.187c-0.108-0.058-0.218-0.116-0.327-0.174c-0.81,0.635-1.619,1.271-2.429,1.906
		c-0.071-0.072-0.145-0.145-0.217-0.217c0.566-1.672,1.643-2.915,3.386-3.467c3.372-7.067,7.701-13.372,13.124-18.972
		c1.021-1.058,1.795-2.348,2.727-3.496c0.506-0.621,1.06-1.223,1.675-1.74c1.121-0.943,2.107-1.954,2.512-3.397
		c-2.544-0.791-2.544-0.791-2.832-1.697c0.3,0.035,0.568,0.039,0.821,0.1c1.771,0.436,3.401,0.116,4.767-1.037
		c1.519-1.283,2.941-2.674,4.397-4.025c0.032-0.028-0.028-0.147-0.101-0.467c-0.765,0.351-1.488,0.672-2.201,1.012
		c-1.35,0.643-2.687,1.315-4.05,1.927c-0.233,0.105-0.58-0.03-0.873-0.056c0-0.085,0-0.17,0.001-0.255
		c1.725-0.906,3.448-1.811,5.132-2.695c0.112-0.449,0.196-0.782,0.29-1.154c0.452-0.137,0.883-0.267,1.294-0.391
		c0.826,0.375,1.597,0.723,2.463,1.116c1.593-1.42,2.294-3.323,2.664-5.405c-0.311,0.38-0.622,0.761-1.086,1.327
		c-0.169-0.708-0.271-1.148-0.377-1.587c-0.095-0.024-0.189-0.049-0.286-0.074c-0.314,0.58-0.629,1.16-1.054,1.943
		c-0.314-0.585-0.48-0.894-0.655-1.217c-0.888,0.739-0.184,2.133-1.521,2.798c0-0.798,0-1.435,0-2.073
		c-0.102-0.02-0.204-0.04-0.305-0.061c-0.378,0.729-0.756,1.46-1.145,2.213c-1.547,0.106-2.616,1.024-3.677,1.946
		c-2.866,2.492-6.024,4.271-10.016,4.472c-2.787,0.14-4.579,2.979-3.758,5.57c0.341,1.074,0.45,2.074-0.092,3.218
		c-1.159,2.444-3.027,4.188-5.131,5.824c-2.859,2.227-5.658,4.534-8.405,6.892c-1.419,1.219-2.392,2.778-3.044,4.545
		c-0.932,2.514-2.003,4.978-2.976,7.478c-0.207,0.53-0.25,1.12-0.368,1.683c-0.288,0.348-0.574,0.695-0.861,1.042
		c-0.057,0.085-0.112,0.169-0.169,0.254c0.032,0.018,0.065,0.038,0.097,0.056C186.063,93.314,186.111,93.229,186.155,93.144z
		 M102.775,146.689l-0.017,0.013c-0.359-0.625-0.718-1.252-1.077-1.878c-0.101,0.067-0.201,0.133-0.302,0.199
		C101.845,145.579,102.31,146.134,102.775,146.689z M86.004,131.677c0.331-0.298,0.709-0.56,0.986-0.9
		c2.134-2.622,4.39-5.119,7.235-6.91c-0.821-0.916-1.613-1.799-2.466-2.748c0.423,1.455-0.164,2.65-0.968,3.77
		c-1.282,1.786-2.6,3.546-3.882,5.332c-0.335,0.464-0.594,0.98-0.889,1.472l-0.062,0.046L86.004,131.677z M80.605,127.983
		c-0.127,0.248-0.252,0.48-0.368,0.717c-0.702,1.431-0.002,2.598,1.629,2.693c0.686,0.04,1.388,0.13,2.057,0.031
		c0.499-0.074,1.123-0.291,1.406-0.655c1.494-1.917,2.962-3.858,4.307-5.874c0.808-1.21,1.07-2.596,0.836-4.096
		c-0.523-3.363-2.477-5.773-5.167-7.736c-0.211-0.154-0.477-0.236-0.856-0.418c-0.602,0.863-1.183,1.695-1.792,2.57
		c0.944,1.06,1.826,2.049,2.906,3.262c-1.238,0.624-2.233,1.125-3.456,1.741c-0.082-0.697-0.149-1.275-0.215-1.845
		c-1.165,1.131-2.271,2.206-3.47,3.371c0.831,0.45,1.469,0.796,2.036,1.104c-0.297,0.774-0.527,1.38-0.716,1.875
		c0.446,0.735,1.627,0.469,1.54,1.542c-0.433,0.088-0.846,0.172-1.354,0.276C80.186,127.088,80.388,127.521,80.605,127.983z
		 M102.278,109.161c-1.662-1.125-2.893-1.455-4.733-1.351c-0.776,0.045-1.554,0.15-2.329,0.137c-3.364-0.058-6.226,1.237-8.885,3.08
		c-0.309,0.214-0.542,0.532-0.941,0.934c2.995,2.056,4.701,4.896,6.325,8.096c0.101-1.669-1.223-2.718-1.01-4.497
		c0.665,0.723,1.122,1.218,1.58,1.716c1.71-1.901,1.945-1.999,5.702-2.336C99.339,113.117,100.782,111.176,102.278,109.161z
		 M122.002,131.573c0.172,1.738,0.344,3.475,0.516,5.212C123.093,134.975,122.761,133.253,122.002,131.573z M158.722,138.61
		c-0.006-0.042-0.015-0.083-0.022-0.125c-0.09,0.018-0.179,0.036-0.268,0.052c0.008,0.04,0.02,0.113,0.022,0.112
		C158.544,138.641,158.635,138.625,158.722,138.61z"/>
	<path fill-rule="evenodd" clip-rule="evenodd" fill="#D7C656" d="M169.181,173.501c1.584,0,2.997-0.058,4.401,0.011
		c4.022,0.198,8.055,0.349,12.062,0.705c5.009,0.447,7.666,3.447,7.458,8.327c-0.138,3.249-0.446,6.492-0.704,9.737
		c-0.202,2.531-0.366,5.07-0.694,7.588c-0.532,4.125-3.402,6.804-7.672,6.754c-5.255-0.059-10.503-0.481-15.978-0.759
		C168.429,195.055,168.804,184.305,169.181,173.501z M182.939,198.122c0.332-5.266,0.652-10.338,0.981-15.561
		c-2.03-0.099-3.836-0.186-5.842-0.283c-0.268,5.262-0.525,10.332-0.788,15.479C179.269,197.885,180.989,197.995,182.939,198.122z"
		/>
	<path fill-rule="evenodd" clip-rule="evenodd" fill="#D7C656" d="M44.198,216.154c-2.904,0.613-5.655,1.195-8.611,1.82
		c-0.951-4.057-1.881-8.024-2.853-12.171c-2.366,0.533-4.615,1.042-7.02,1.584c0.985,4.059,1.939,7.991,2.944,12.132
		c-2.843,0.693-5.605,1.367-8.567,2.09c-2.783-10.549-5.531-20.964-8.319-31.533c3.083-0.748,5.992-1.453,9.106-2.209
		c1.013,4.063,1.999,8.019,3.026,12.143c2.402-0.54,4.687-1.056,7.122-1.604c-0.932-4.111-1.834-8.088-2.767-12.199
		c3.088-0.647,6.019-1.264,9.159-1.921C39.691,194.966,41.931,205.494,44.198,216.154z"/>
	<path fill-rule="evenodd" clip-rule="evenodd" fill="#D7C656" d="M108.566,174.559c3.19-0.21,6.175-0.407,9.302-0.613
		c0.27,4.234,0.526,8.258,0.792,12.444c2.448-0.109,4.719-0.213,7.247-0.328c-0.176-4.149-0.347-8.178-0.516-12.173
		c0.944-0.413,7.802-0.737,9.312-0.424c0.309,10.687,0.619,21.415,0.934,32.33c-2.97,0.104-5.778,0.203-8.782,0.308
		c-0.196-4.187-0.389-8.263-0.586-12.459c-2.417,0.117-4.685,0.227-7.155,0.345c0.235,4.159,0.462,8.221,0.701,12.451
		c-2.931,0.198-5.736,0.389-8.75,0.593C110.231,196.191,109.407,185.494,108.566,174.559z"/>
	<path fill-rule="evenodd" clip-rule="evenodd" fill="#D7C656" d="M93.21,175.83c0.312,2.894,0.601,5.577,0.911,8.464
		c-4.098,0.469-8.067,0.922-12.224,1.396c0.661,5.121,1.309,10.14,1.974,15.3c2.394,0.069,4.647-0.456,7.089-0.667
		c-0.164-1.473-0.314-2.826-0.48-4.313c-1.067,0.05-2.007,0.095-3.156,0.151c-0.267-2.111-0.532-4.203-0.824-6.512
		c3.597-0.382,7.075-0.751,10.806-1.146c0.66,6.503,1.31,12.902,1.978,19.482c-1.927,0.212-3.728,0.405-5.529,0.608
		c-2.818,0.318-5.633,0.689-8.458,0.94c-1.403,0.124-2.874,0.261-4.232-0.007c-3.334-0.657-5.182-2.909-5.803-6.059
		c-0.554-2.799-0.915-5.634-1.333-8.457c-0.424-2.868-0.818-5.741-1.217-8.612c-0.642-4.622,1.839-8.13,6.602-8.879
		C83.825,176.812,88.387,176.404,93.21,175.83z"/>
	<path fill-rule="evenodd" clip-rule="evenodd" fill="#D7C656" d="M259.991,216.939c2.351-10.624,4.669-21.104,7.044-31.838
		c7.157,1.643,14.163,3.251,21.379,4.906c-0.748,2.831-1.445,5.475-2.179,8.252c-4.054-0.954-7.947-1.872-12.001-2.826
		c-0.356,1.47-0.688,2.835-1.049,4.32c3.657,0.883,7.192,1.735,10.928,2.638c-0.561,2.154-1.094,4.199-1.663,6.389
		c-3.654-0.849-7.188-1.669-10.813-2.512c-0.36,1.49-0.684,2.82-1.043,4.295c3.863,0.939,7.657,1.86,11.649,2.832
		c-0.729,2.771-1.425,5.415-2.146,8.155C273.363,220.006,266.789,218.498,259.991,216.939z"/>
	<path fill-rule="evenodd" clip-rule="evenodd" fill="#D7C656" d="M238.187,201.276c2.817-6.616,5.64-13.233,8.516-19.985
		c3.134,0.562,6.169,1.104,9.362,1.676c-5.114,10.182-10.15,20.206-15.25,30.358c-3.069-0.495-6.166-0.994-9.334-1.506
		c-1.427-11.157-2.842-22.231-4.287-33.539c3.148,0.451,6.195,0.889,9.45,1.355c0.452,7.258,0.899,14.436,1.349,21.616
		C238.055,201.259,238.121,201.268,238.187,201.276z"/>
	<path fill-rule="evenodd" clip-rule="evenodd" fill="#D7C656" d="M64.54,212.466c-2.974,0.508-5.71,0.978-8.684,1.486
		c-2.006-10.647-4-21.226-6.033-32.016c3.083-0.535,6.028-1.044,9.226-1.597C60.881,191.056,62.694,201.667,64.54,212.466z"/>
	<path fill-rule="evenodd" clip-rule="evenodd" fill="#D7C656" d="M202.951,208.221c1.137-10.874,2.254-21.545,3.389-32.397
		c3.132,0.334,6.109,0.651,9.292,0.989c-1.313,10.786-2.607,21.429-3.933,32.323C208.805,208.834,205.98,208.537,202.951,208.221z"
		/>
	<path fill-rule="evenodd" clip-rule="evenodd" fill="#D7C656" d="M124.246,96.069c-0.278,0.502-0.54,1.015-0.838,1.506
		c-1.071,1.76-2.031,3.6-3.262,5.247c-1.96,2.623-3.439,5.468-4.652,8.461c-0.803,1.982-1.997,3.685-3.521,5.217
		c-1.239,1.245-2.321,2.637-3.488,3.952c-0.392,0.442-0.832,0.846-1.25,1.267c-0.103-0.076-0.206-0.151-0.307-0.227
		c0.141-0.28,0.237-0.595,0.432-0.834c1.418-1.746,2.78-3.544,4.312-5.191c1.324-1.423,2.256-3.018,2.928-4.79
		c1.311-3.458,3.168-6.586,5.527-9.494c1.165-1.437,1.821-3.27,2.677-4.938c0.41-0.796,0.791-1.611,1.108-2.445
		c0.331-0.87,0.717-1.756,0.824-2.665c0.362-3.056,1.432-5.881,2.67-8.677c0.519-1.17,0.819-2.431,1.281-3.628
		c0.143-0.371,0.487-0.666,0.719-0.969c2.24,0.643,1.617,2.451,1.956,4.153c0.559-0.528,0.977-0.872,1.33-1.269
		c1.824-2.057,3.44-4.301,5.728-5.933c1.128-0.805,2.661-0.754,3.877,0.137c0.351,1.537,0.702,3.073,1.136,4.975
		c-0.563,2.139-1.773,4.428-3.091,6.675c-0.612,1.042-1.187,2.107-1.776,3.163c-0.917,1.641-2.168,3.028-3.773,4.007
		c-2.407,1.468-3.984,3.341-4.617,6.144c-0.517,2.283-1.574,4.454-2.424,6.662c-0.158,0.409-0.519,0.74-0.701,1.145
		c-0.842,1.873-1.641,3.765-2.48,5.639c-0.708,1.582-1.44,3.154-2.185,4.721c-0.192,0.402-0.511,0.747-0.7,1.15
		c-1.527,3.237-3.811,5.986-6.044,8.752c-0.829,1.026-1.99,1.798-2.895,2.894c0.862-0.514,1.724-1.028,2.716-1.62
		c0.799,1.29,1.035,2.604,0.743,3.917c-0.415,1.87-0.543,3.684,0.057,5.538c0.143,0.441-0.034,0.981-0.271,1.498
		c-0.79-1.004-0.92-2.201-1.052-3.326c-0.137-1.168,0.066-2.376,0.12-3.546c-0.712-0.861-1.564-0.673-2.403-0.371
		c-2.229,0.805-3.759,3.467-3.368,5.801c0.034,0.209,0.005,0.429,0.005,0.657c-0.687,0.387-1.088-0.024-1.122-0.514
		c-0.165-2.489-0.145-4.98,1.503-7.094c0.577-0.739,1.328-1.354,2.026-1.998c2.204-2.042,4.062-4.354,5.744-6.812
		c0.836-1.222,1.762-2.387,2.627-3.592c0.227-0.317,0.375-0.688,0.628-1.161c-0.562-0.077-0.967-0.132-1.657-0.228
		c0.441-0.367,0.657-0.651,0.945-0.771c1.444-0.605,2.251-1.704,2.841-3.079c1.852-4.317,3.821-8.586,5.628-12.92
		c0.716-1.717,1.125-3.555,1.646-5.246c-0.585-0.745-1.061-1.351-1.657-2.109c1.257-0.252,2.266,0.751,3.242-0.106
		c0.767-0.673,1.627-1.247,2.624-2c0.089,0.023,0.424,0.111,0.94,0.246c0.615-0.714,1.397-1.424,1.93-2.281
		c1.158-1.859,2.21-3.782,3.259-5.703c0.449-0.824,0.862-1.684,1.144-2.572c0.196-0.614,0.169-1.304,0.181-1.96
		c0.007-0.513-0.082-1.027-0.118-1.435c-0.284-0.776-0.54-1.472-0.845-2.302c-0.348-0.068-0.826-0.161-1.518-0.295
		c-1.113,1.05-2.287,2.161-3.46,3.271c-1.499,1.42-2.591,3.201-4.368,4.397c-0.732,0.494-1.116,1.478-1.701,2.296
		c-0.727,0.025-0.881-0.404-0.688-1.025c0.227-0.725,0.543-1.423,0.756-2.15c0.216-0.746,0.354-1.514,0.536-2.324
		c-0.324,0-0.463-0.025-0.476,0.003c-0.789,1.845-1.567,3.693-2.344,5.541c-0.261,0.619-0.523,1.235-0.775,1.857
		c-0.849,2.106-0.907,4.159,0.391,6.144c0.181,0.277,0.212,0.647,0.312,0.975c-0.118,0.072-0.234,0.145-0.351,0.217
		c-0.447-0.389-0.895-0.777-1.618-1.404c0.759,1.151,0.435,2.029,0.186,2.934c-0.801,2.916-2.176,5.558-3.838,8.092
		c-1.448,2.208-3,4.363-3.764,6.949c-0.374,1.268-1.048,2.454-2.449,3.108c-0.074-0.204-0.18-0.344-0.145-0.428
		c0.553-1.317,1.049-2.663,1.707-3.93c1.091-2.102,2.205-4.201,3.46-6.212c1.528-2.445,3.06-4.864,3.578-7.741
		c0.065-0.071,0.13-0.141,0.019-0.021C124.301,95.882,124.273,95.976,124.246,96.069z"/>
	<path fill-rule="evenodd" clip-rule="evenodd" fill="#D7C656" d="M159.794,179.709c0.322-0.393,0.65-0.789,0.978-1.188
		c0.112,0.036,0.224,0.071,0.335,0.107c-0.077,0.365-0.081,0.768-0.242,1.093c-0.738,1.485-1.516,2.949-2.284,4.419
		c-2.805,5.361-5.61,10.723-8.422,16.081c-0.238,0.452-0.533,0.88-0.896,1.474c-0.803-1.175,0.49-1.749,0.349-2.676
		c-1.636,0-3.294,0-5,0c-0.508,0.847-1.016,1.692-1.523,2.537c-0.153-0.068-0.307-0.138-0.46-0.206
		c0.15-0.447,0.242-0.923,0.457-1.337c2.416-4.654,4.85-9.3,7.279-13.946c1.1-2.105,2.191-4.215,3.303-6.313
		c0.234-0.446,0.544-0.854,0.818-1.281c0.109,0.028,0.218,0.059,0.325,0.087c0.039,0.351,0.078,0.703,0.126,1.149
		C156.534,179.709,158.157,179.709,159.794,179.709z M145.107,197.997c1.864,0,3.526,0,5.26,0c0.446-0.866,0.885-1.723,1.393-2.711
		c-1.858,0-3.522,0-5.264,0C146.052,196.151,145.615,197.006,145.107,197.997z M147.029,194.312c1.909,0,3.54,0,5.268,0
		c0.443-0.859,0.879-1.707,1.39-2.696c-1.88,0-3.542,0-5.271,0C147.974,192.474,147.553,193.295,147.029,194.312z M152.235,184.308
		c-0.433,0.851-0.864,1.704-1.371,2.703c1.865,0,3.525,0,5.265,0c0.436-0.856,0.874-1.718,1.375-2.703
		C155.668,184.308,154.006,184.308,152.235,184.308z M152.804,183.316c1.87,0,3.53,0,5.255,0c0.441-0.883,0.863-1.729,1.331-2.663
		c-1.88,0-3.547,0-5.251,0C153.697,181.535,153.286,182.352,152.804,183.316z M155.498,188.021c-1.788,0-3.448,0-5.204,0
		c-0.428,0.85-0.856,1.692-1.357,2.686c1.871,0,3.497,0,5.205,0c0.296-0.535,0.605-1.071,0.892-1.621
		C155.193,188.778,155.312,188.453,155.498,188.021z"/>
	<path fill-rule="evenodd" clip-rule="evenodd" fill="#D7C656" d="M298.128,209.027c-0.007,2.393-2.022,4.354-4.455,4.335
		c-2.393-0.019-4.445-2.075-4.412-4.414c0.034-2.312,2.021-4.21,4.423-4.222C296.187,204.714,298.134,206.597,298.128,209.027z"/>
	<path fill-rule="evenodd" clip-rule="evenodd" fill="#D7C656" d="M2,208.978c0.018-2.442,1.957-4.286,4.475-4.253
		c2.459,0.03,4.422,2.01,4.367,4.4c-0.054,2.298-2.097,4.244-4.446,4.233C3.956,213.348,1.982,211.381,2,208.978z"/>
	<path fill-rule="evenodd" clip-rule="evenodd" fill="#D7C656" d="M145.855,225.741c0.007-2.56,2.104-4.568,4.743-4.543
		c2.673,0.024,4.758,2.024,4.75,4.55c-0.007,2.529-2.112,4.525-4.77,4.529C147.89,230.281,145.848,228.32,145.855,225.741z
		 M153.118,225.697c-0.021-1.478-1.11-2.581-2.555-2.58c-1.392,0.001-2.558,1.186-2.563,2.603c-0.004,1.49,1.185,2.661,2.668,2.626
		C152.121,228.312,153.139,227.213,153.118,225.697z"/>
	<path fill-rule="evenodd" clip-rule="evenodd" fill="#D7C656" d="M109.638,227.11c0.63,0.927,1.225,1.803,1.941,2.858
		c-0.897,0-1.584,0-2.383,0c-0.581-0.806-1.206-1.673-1.838-2.549c-0.431,0-0.832,0-1.33,0c-0.066,0.865-0.128,1.686-0.197,2.582
		c-0.654,0-1.217,0-1.879,0c0-2.86,0-5.635,0-8.534c1.726,0,3.405-0.102,5.063,0.034c1.098,0.092,1.95,0.792,2.23,1.908
		c0.288,1.143,0.146,2.215-0.826,3.054C110.187,226.664,109.945,226.855,109.638,227.11z M106,225.383c1.044,0,1.926,0,2.71,0
		c0.687-0.764,0.681-1.369-0.069-2.012c-0.817,0-1.699,0-2.642,0C106,224.069,106,224.671,106,225.383z"/>
	<path fill-rule="evenodd" clip-rule="evenodd" fill="#D7C656" d="M167.847,227.083c0.627,0.927,1.222,1.81,1.938,2.874
		c-0.845,0-1.521,0-2.37,0c-0.544-0.754-1.171-1.621-1.828-2.531c-0.394,0-0.795,0-1.318,0c-0.061,0.824-0.118,1.644-0.184,2.559
		c-0.629,0-1.191,0-1.864,0c0-2.818,0-5.597,0-8.477c1.731,0,3.452-0.105,5.151,0.038c1.119,0.095,1.866,0.892,2.138,1.999
		c0.275,1.126,0.041,2.12-0.869,2.912C168.408,226.658,168.157,226.839,167.847,227.083z M164.279,223.246c0,0.894,0,1.493,0,2.125
		c1.073,0.161,2.046,0.345,3.025-0.332c0-0.442,0-0.899,0-1.596C166.269,223.375,165.32,223.314,164.279,223.246z"/>
	<path fill-rule="evenodd" clip-rule="evenodd" fill="#D7C656" d="M176.491,230.029c0-2.933,0-5.704,0-8.731
		c1.727,0.107,3.384,0.023,4.948,0.353c2.158,0.452,3.304,2.232,3.17,4.382c-0.127,2.054-1.637,3.749-3.747,3.97
		C179.471,230.146,178.051,230.029,176.491,230.029z M178.575,223.403c0,1.633,0,3.197,0,4.847c1.404,0.055,2.703,0.142,3.497-1.144
		c0.593-0.96,0.561-1.979-0.123-2.887C181.086,223.067,179.861,223.188,178.575,223.403z"/>
	<path fill-rule="evenodd" clip-rule="evenodd" fill="#D7C656" d="M124.831,221.493c0,0.57,0,1.043,0,1.697
		c-1.509,0-2.953,0-4.532,0c-0.038,0.588-0.064,1.003-0.102,1.587c1.374,0,2.633,0,4.012,0c0,0.653,0,1.147,0,1.817
		c-1.304,0-2.563,0-3.915,0c0,0.631,0,1.09,0,1.71c1.547,0,3.036,0,4.608,0c0,0.658,0,1.157,0,1.717c-2.257,0-4.395,0-6.646,0
		c0-2.85,0-5.633,0-8.528C120.405,221.493,122.53,221.493,124.831,221.493z"/>
	<path fill-rule="evenodd" clip-rule="evenodd" fill="#D7C656" d="M195.854,227.346c-0.478-0.218-0.828-0.406-1.196-0.537
		c-0.428-0.152-0.879-0.242-1.312-0.381c-1.657-0.529-2.385-1.448-2.214-2.774c0.178-1.365,1.237-2.249,2.868-2.386
		c1.353-0.114,2.439,0.253,3.562,1.245c-0.29,0.416-0.587,0.846-0.756,1.086c-1.182-0.139-2.182-0.282-3.187-0.34
		c-0.113-0.006-0.256,0.471-0.43,0.813c0.434,0.213,0.735,0.398,1.063,0.516c0.513,0.184,1.051,0.3,1.567,0.48
		c1.527,0.535,2.191,1.366,2.107,2.6c-0.09,1.326-1.026,2.234-2.59,2.519c-1.521,0.276-3.187-0.245-4.402-1.397
		c0.073-0.14,0.127-0.312,0.234-0.441c0.226-0.275,0.479-0.529,0.771-0.847c1.121,0.434,2.177,1.275,3.461,0.699
		C195.608,228.108,195.67,227.715,195.854,227.346z"/>
	<path fill-rule="evenodd" clip-rule="evenodd" fill="#D7C656" d="M139.488,222.699c-0.357,0.411-0.726,0.837-0.935,1.079
		c-1.176-0.225-2.127-0.521-3.083-0.538c-0.444-0.008-0.993,0.444-1.331,0.825c-0.81,0.913-0.729,2.556,0.073,3.466
		c0.941,1.07,2.06,1.075,4.201-0.048c0.352,0.321,0.737,0.672,1.111,1.015c-0.958,1.459-2.747,2.081-4.585,1.654
		c-2.004-0.466-3.392-1.993-3.567-3.926c-0.184-2.023,0.92-3.87,2.774-4.64C135.996,220.818,138.11,221.229,139.488,222.699z"/>
	<path fill-rule="evenodd" clip-rule="evenodd" fill="#D7C656" d="M153.221,243.112c-0.338,0.083-0.509,0.16-0.679,0.157
		c-0.218-0.001-0.434-0.068-0.725-0.12c0-1.898,0-3.744,0-5.685c0.516,0,0.99,0,1.519,0c0.439,0.656,0.888,1.321,1.453,2.164
		c0.553-0.789,1.048-1.494,1.582-2.256c0.449,0.022,0.889,0.042,1.405,0.067c0,1.939,0,3.79,0,5.742c-0.421,0-0.801,0-1.311,0
		c0-1.009,0-1.97,0-2.93c-0.082-0.034-0.161-0.069-0.243-0.102c-0.453,0.549-0.905,1.099-1.446,1.753
		c-0.487-0.642-0.908-1.199-1.331-1.756c-0.075,0.007-0.149,0.016-0.225,0.023C153.221,241.151,153.221,242.13,153.221,243.112z"/>
	<path fill-rule="evenodd" clip-rule="evenodd" fill="#D7C656" d="M100.999,133.17c-1.068-0.81-1.181-1.724-1.055-2.661
		c0.259-1.928,1.107-3.612,2.692-4.8c1.371-1.026,2.905-1.842,4.329-2.802c0.703-0.475,1.374-1.02,1.967-1.618
		c1.205-1.217,2.335-2.502,3.522-3.737c0.273-0.285,0.648-0.478,0.977-0.712c0.098,0.103,0.197,0.205,0.295,0.307
		c-0.262,0.315-0.517,0.637-0.785,0.946c-0.942,1.085-1.935,2.133-2.824,3.257c-1.367,1.726-3.066,3.067-4.993,4.11
		c-2.744,1.486-4.119,3.666-3.969,6.738C101.165,132.445,101.078,132.696,100.999,133.17z"/>
	<path fill-rule="evenodd" clip-rule="evenodd" fill="#D7C656" d="M168.827,240.339c-0.018,1.715-1.498,3.091-3.297,3.061
		c-1.815-0.029-3.187-1.413-3.14-3.175c0.043-1.683,1.449-2.998,3.2-2.993C167.411,237.237,168.844,238.612,168.827,240.339z
		 M165.616,242.019c0.944-0.006,1.706-0.779,1.7-1.727c-0.008-0.908-0.823-1.696-1.752-1.689c-0.947,0.005-1.684,0.771-1.669,1.734
		C163.909,241.315,164.635,242.025,165.616,242.019z"/>
	<path fill-rule="evenodd" clip-rule="evenodd" fill="#D7C656" d="M133.921,239.591c0.835-0.856,1.458-1.495,2.056-2.107
		c0.531,0,0.999,0,1.706,0c-0.821,0.887-1.483,1.603-2.226,2.405c0.765,1.057,1.515,2.092,2.392,3.302c-0.679,0-1.146,0-1.662,0
		c-0.573-0.706-1.159-1.429-1.747-2.151c-0.113,0.004-0.226,0.006-0.339,0.01c-0.147,0.683-0.296,1.364-0.465,2.144
		c-0.36,0-0.741,0-1.233,0c0-1.93,0-3.813,0-5.751c0.483,0,0.871,0,1.327,0C133.79,238.116,133.844,238.725,133.921,239.591z"/>
	<path fill-rule="evenodd" clip-rule="evenodd" fill="#D7C656" d="M107.1,131.389c0.159-0.43,0.172-0.765,0.343-0.882
		c4.426-3.059,7.387-7.545,11.253-11.146C118.594,122.213,110.709,130.372,107.1,131.389z"/>
	<path fill-rule="evenodd" clip-rule="evenodd" fill="#D7C656" d="M147.252,238.224c-0.234,0.292-0.472,0.588-0.69,0.862
		c-1.703-0.655-2.337-0.612-2.924,0.155c-0.503,0.655-0.477,1.6,0.06,2.228c0.593,0.697,1.333,0.715,2.809,0.03
		c0.236,0.199,0.497,0.421,0.789,0.669c-0.366,0.786-1.055,1.013-1.76,1.164c-1.454,0.31-2.903-0.418-3.495-1.72
		c-0.625-1.374-0.193-2.969,1.031-3.803C144.371,236.923,145.903,237.051,147.252,238.224z"/>
	<path fill-rule="evenodd" clip-rule="evenodd" fill="#D7C656" d="M131.97,85.021c2.628-0.455,3.484-0.199,3.668,1.083
		c-0.86-0.245-1.679-0.477-2.693-0.766c-0.087,1.215-0.04,2.233-0.263,3.192c-0.226,0.972-0.694,1.901-1.608,2.474
		c-0.115-0.042-0.23-0.083-0.347-0.124c0.296-0.949,0.662-1.885,0.867-2.853C131.802,87.046,131.851,86.034,131.97,85.021z"/>
	<path fill-rule="evenodd" clip-rule="evenodd" fill="#D7C656" d="M92.973,132.261c-0.352-0.962-0.352-0.962,1.549-4.289
		c-0.546,0-1.047,0-1.547,0c-0.025-0.104-0.05-0.208-0.074-0.313c1.017-0.721,2.199-1.005,3.429-1.165
		c0.08,0.085,0.159,0.168,0.238,0.253C95.415,128.517,94.261,130.286,92.973,132.261z"/>
	<path fill-rule="evenodd" clip-rule="evenodd" fill="#D7C656" d="M136.17,83.699c1.593-2.057,3.027-3.909,4.461-5.761
		c0.125,0.054,0.248,0.107,0.371,0.161c-0.101,0.364-0.132,0.768-0.317,1.084c-0.499,0.851-1.06,1.667-1.606,2.491
		c-0.616,0.926-1.244,1.844-1.961,2.907C136.773,84.26,136.44,83.951,136.17,83.699z"/>
	<path fill-rule="evenodd" clip-rule="evenodd" fill="#D7C656" d="M139.783,76.673c-1.376,2.049-2.753,4.098-4.266,6.352
		c-0.25-0.032-0.739-0.096-1.272-0.165c0.416-1.055,4.641-6.052,5.298-6.364C139.624,76.555,139.704,76.614,139.783,76.673z"/>
	<path fill-rule="evenodd" clip-rule="evenodd" fill="#D7C656" d="M133.906,123.095c-0.1,2.337-0.772,4.544-1.831,6.645
		c-0.163,0.324-0.615,0.509-0.933,0.759c-0.113-0.075-0.227-0.15-0.342-0.224c0.471-1.192,0.97-2.373,1.403-3.577
		c0.439-1.227,0.812-2.477,1.214-3.715C133.581,123.02,133.744,123.058,133.906,123.095z"/>
	<path fill-rule="evenodd" clip-rule="evenodd" fill="#D7C656" d="M138.074,86.657c-0.408-0.427-0.643-0.676-0.857-0.901
		c0.663-1.509,2.976-4.78,3.771-5.17C140.488,82.862,139.486,84.726,138.074,86.657z"/>
	<path fill-rule="evenodd" clip-rule="evenodd" fill="#D7C656" d="M114.66,116.049c1.259-1.476,2.819-1.767,4.243-0.772
		c-0.419,0.233-0.841,0.647-1.07,0.563c-0.917-0.336-1.696-0.023-2.512,0.253C115.178,116.143,114.993,116.077,114.66,116.049z"/>
	<path fill-rule="evenodd" clip-rule="evenodd" fill="#D7C656" d="M128.927,92.397c-1.607-0.538-1.892-1.521-0.989-2.954
		C128.724,90.277,128.377,91.347,128.927,92.397z"/>
	<path fill-rule="evenodd" clip-rule="evenodd" fill="#D7C656" d="M130.718,126.435c0.293-0.526,0.586-1.053,0.952-1.711
		c0.436,1.149,0.328,1.383-0.691,1.891C130.892,126.555,130.805,126.495,130.718,126.435z"/>
	<path fill-rule="evenodd" clip-rule="evenodd" fill="#D7C656" d="M130.458,125.256c-0.293,0.506-0.586,1.012-0.879,1.517
		c-0.638-0.96,0.057-1.27,0.507-1.696C130.21,125.137,130.333,125.197,130.458,125.256z"/>
	<path fill-rule="evenodd" clip-rule="evenodd" fill="#D7C656" d="M190.264,106.52c0.024-0.171,0.004-0.366,0.08-0.511
		c1.405-2.636,2.806-5.272,4.243-7.889c0.298-0.542,0.742-1.006,1.118-1.506c0.118,0.064,0.236,0.128,0.352,0.192
		c-0.06,0.266-0.093,0.542-0.186,0.797c-0.645,1.789-1.278,3.582-1.961,5.358c-0.66,1.717-1.611,3.179-3.667,3.538L190.264,106.52z"
		/>
	<path fill-rule="evenodd" clip-rule="evenodd" fill="#D7C656" d="M171.037,122.898c1.451-2.572,3.908-4.342,5.837-6.535
		c0.179-0.206,0.583-0.227,1.082-0.404c-0.101,0.472-0.076,0.737-0.2,0.871c-1.924,2.094-3.861,4.176-5.815,6.242
		c-0.121,0.128-0.4,0.115-0.607,0.167C171.236,123.126,171.136,123.012,171.037,122.898z"/>
	<path fill-rule="evenodd" clip-rule="evenodd" fill="#D7C656" d="M192.783,96.586c0.762,0.777,0.248,1.325-0.18,1.9
		c-1.259,1.685-2.505,3.375-3.749,5.068c-0.277,0.374-0.532,0.764-0.796,1.146c-0.123-0.031-0.244-0.062-0.367-0.092
		c0-0.283-0.11-0.631,0.019-0.839c0.728-1.173,1.447-2.36,2.292-3.451c0.817-1.055,1.915-1.91,2.295-3.264
		C192.346,96.881,192.594,96.761,192.783,96.586z"/>
	<path fill-rule="evenodd" clip-rule="evenodd" fill="#D7C656" d="M192.531,95.927c-0.091-1.205,0.435-1.733,2.254-2.445
		c1.3-0.509,1.621-0.459,2.428,0.479c-0.889,0.204-1.753,0.29-2.514,0.609C193.944,94.886,193.293,95.438,192.531,95.927z"/>
	<path fill-rule="evenodd" clip-rule="evenodd" fill="#D7C656" d="M209.977,62.769c1.304-1.291,2.971-0.848,3.89,0.72
		c-0.061,0.118-0.114,0.289-0.225,0.412c-0.078,0.089-0.231,0.114-0.471,0.221C212.671,62.823,211.428,62.838,209.977,62.769z"/>
	<path fill-rule="evenodd" clip-rule="evenodd" fill="#D7C656" d="M211.165,58.53c0.256,0.535,0.468,0.979,0.741,1.552
		c0.276,0.294,0.654,0.695,1.186,1.259c-1.302,0.232-1.907-0.418-2.392-1.041C210.302,59.789,210.373,59.137,211.165,58.53z"/>
	<path fill-rule="evenodd" clip-rule="evenodd" fill="#D7C656" d="M228.361,50.23c0.361-0.444,0.636-0.783,0.967-1.188
		C229.809,50.11,229.67,50.29,228.361,50.23z"/>
	<path fill-rule="evenodd" clip-rule="evenodd" fill="#D7C656" d="M228.079,49.358c0.275,0.607-0.05,0.842-1.017,0.994
		c0.296-0.535,0.473-0.853,0.648-1.171C227.834,49.24,227.957,49.299,228.079,49.358z"/>
	<path fill-rule="evenodd" clip-rule="evenodd" fill="#D7C656" d="M87.962,121.043c-0.375-1.134,0.222-1.532,2.006-1.267
		C89.169,120.282,88.587,120.648,87.962,121.043z"/>
	<path fill-rule="evenodd" clip-rule="evenodd" fill="#D7C656" d="M80.769,122.888c0.102-0.162,0.204-0.324,0.426-0.675
		c0.103,0.365,0.209,0.545,0.177,0.699c-0.018,0.087-0.256,0.134-0.395,0.198C80.907,123.037,80.837,122.962,80.769,122.888z"/>
</g>
</svg>
