<?xml version="1.0" encoding="utf-8"?>
<!-- Generator: Adobe Illustrator 16.0.0, SVG Export Plug-In . SVG Version: 6.00 Build 0)  -->
<!DOCTYPE svg PUBLIC "-//W3C//DTD SVG 1.1//EN" "http://www.w3.org/Graphics/SVG/1.1/DTD/svg11.dtd">
<svg version="1.1" id="Layer_1" xmlns="http://www.w3.org/2000/svg" xmlns:xlink="http://www.w3.org/1999/xlink" x="0px" y="0px"
	 width="300px" height="300px" viewBox="0 0 300 300" enable-background="new 0 0 300 300" xml:space="preserve">
<path fill-rule="evenodd" clip-rule="evenodd" fill="#D7C656" d="M150.366,211.829c-2.833,0-5.67,0.08-8.499-0.017
	c-5.35-0.183-10.701-0.386-16.042-0.732c-4.826-0.313-9.652-0.708-14.452-1.287c-5.824-0.701-11.645-1.492-17.422-2.503
	c-6.911-1.207-13.811-2.534-20.652-4.086c-10.157-2.303-20.08-5.414-29.698-9.437c-8.497-3.556-16.775-7.538-24.243-13.007
	c-6.075-4.448-11.396-9.628-15.229-16.188c-2.713-4.643-3.943-9.663-3.578-15.042c0.388-5.726,2.565-10.772,5.881-15.392
	c4.368-6.083,9.963-10.828,16.197-14.86c8.81-5.697,18.278-10.047,28.152-13.542c10.192-3.607,20.592-6.495,31.175-8.677
	c5.921-1.221,11.892-2.241,17.873-3.131c5.32-0.792,10.683-1.316,16.034-1.886c3.053-0.325,6.122-0.496,9.182-0.754
	c7.59-0.64,15.195-0.791,22.808-0.764c3.224,0.011,6.454-0.194,9.675-0.107c5.2,0.14,10.402,0.347,15.592,0.698
	c5.581,0.378,11.16,0.842,16.718,1.474c5.858,0.666,11.71,1.458,17.529,2.403c10.39,1.688,20.654,3.967,30.754,6.959
	c8.237,2.44,16.293,5.364,24.1,8.951c7.653,3.519,15.038,7.505,21.619,12.829c5.328,4.31,9.999,9.192,13.077,15.413
	c1.569,3.17,2.508,6.519,2.754,10.056c0.512,7.318-1.948,13.685-6.23,19.464c-4.4,5.938-10.08,10.457-16.18,14.496
	c-8.659,5.732-18.085,9.876-27.829,13.354c-7.482,2.673-15.067,5.014-22.81,6.784c-6.281,1.438-12.587,2.801-18.934,3.9
	c-5.927,1.027-11.913,1.753-17.891,2.45c-4.831,0.564-9.687,0.925-14.538,1.307c-3.151,0.249-6.312,0.421-9.473,0.543
	c-5.138,0.199-10.278,0.328-15.417,0.487C150.368,211.937,150.367,211.884,150.366,211.829z M152.188,209.359
	c4.554-0.137,10.304-0.278,16.053-0.493c2.979-0.111,5.958-0.29,8.929-0.544c4.485-0.383,8.972-0.775,13.439-1.317
	c4.918-0.596,9.828-1.284,14.718-2.082c4.587-0.749,9.162-1.604,13.707-2.575c4.844-1.035,9.673-2.158,14.461-3.426
	c7.503-1.986,14.843-4.492,22.028-7.434c8.591-3.516,16.836-7.652,24.308-13.239c5.115-3.824,9.742-8.088,13.165-13.544
	c3.969-6.326,5.354-13.062,3.136-20.331c-1.874-6.146-5.535-11.124-10.253-15.388c-6.557-5.929-13.939-10.612-21.853-14.491
	c-6.02-2.951-12.228-5.466-18.619-7.466c-6.208-1.942-12.458-3.765-18.745-5.426c-4.344-1.148-8.769-2.002-13.183-2.857
	c-4.267-0.826-8.555-1.551-12.854-2.196c-3.666-0.55-7.355-0.957-11.043-1.365c-4.021-0.445-8.046-0.875-12.077-1.207
	c-3.941-0.326-7.89-0.587-11.841-0.753c-4.47-0.188-8.947-0.325-13.422-0.326c-5.113,0-10.228,0.145-15.342,0.282
	c-2.888,0.078-5.777,0.209-8.659,0.414c-4.825,0.342-9.655,0.665-14.463,1.176c-5.26,0.56-10.518,1.196-15.74,2.031
	c-6.27,1.003-12.543,2.062-18.737,3.442c-6.135,1.367-12.211,3.037-18.247,4.8c-9.125,2.666-18.022,5.974-26.513,10.288
	c-7.663,3.893-14.865,8.475-21.071,14.488c-3.53,3.421-6.511,7.249-8.37,11.85c-2.202,5.452-2.687,11.013-0.91,16.687
	c1.671,5.335,4.837,9.737,8.744,13.619c6.354,6.312,13.834,11.035,21.781,15.051c9.072,4.586,18.583,8.054,28.357,10.79
	c5.471,1.532,10.979,2.953,16.518,4.213c4.798,1.092,9.652,1.953,14.503,2.789c4.133,0.712,8.288,1.326,12.452,1.832
	c4.558,0.552,9.131,0.99,13.708,1.368c4.85,0.4,9.706,0.772,14.567,0.975C140.205,209.215,145.598,209.229,152.188,209.359z"/>
<path fill-rule="evenodd" clip-rule="evenodd" fill="#D7C656" d="M160.282,162.806c1.177,0.681,2.001,0.239,2.754-0.275
	c2.319-1.587,4.146-3.663,5.722-5.966c0.566-0.828,1.046-1.714,1.598-2.552c1.044-1.587,2.059-1.69,3.401-0.378
	c0.085,0.083,0.181,0.154,0.352,0.299c0.5-1.346,0.978-2.634,1.49-4.016c-0.626-0.156-1.159-0.242-1.657-0.427
	c-0.535-0.2-1.095-0.416-1.54-0.758c-1.192-0.92-0.872-2.589,0.682-3.16c1.13-0.415,2.357-0.564,3.543-0.825
	c0.207-0.045,0.421-0.057,0.753-0.101c0.344-0.953,0.712-1.942,1.057-2.939c2.507-7.247,5.498-14.261,9.967-20.553
	c2.205-3.105,4.705-5.933,8.165-7.684c0.95-0.48,2.061-0.713,3.126-0.878c1.249-0.194,2.089,0.561,2.822,1.511
	c0.811,1.051,1.721,2.024,2.579,3.04c0.489,0.58,1.054,1.125,1.405,1.782c0.231,0.432,0.32,1.092,0.168,1.548
	c-0.598,1.8-3.42,2.342-4.712,0.954c-0.248-0.267-0.461-0.567-0.69-0.851c-0.844-1.052-1.825-1.319-2.852-0.447
	c-1.335,1.133-2.727,2.328-3.662,3.775c-1.831,2.827-3.497,5.782-4.986,8.804c-1.761,3.573-3.263,7.271-4.872,10.916
	c-0.072,0.164-0.106,0.344-0.201,0.662c0.513,0.07,0.972,0.158,1.435,0.191c0.938,0.068,1.883,0.073,2.818,0.167
	c0.901,0.09,1.586,0.569,2.066,1.445c0.136-0.183,0.262-0.308,0.338-0.458c1.472-2.856,4.042-3.384,6.898-3.189
	c1.513,0.104,2.215,1.251,1.649,2.644c-1.089,2.676-2.325,5.294-3.355,7.992c-0.976,2.553-1.795,5.166-2.616,7.774
	c-0.223,0.703-0.432,1.585,0.26,2.138c0.721,0.576,1.472,0.039,2.111-0.325c1.753-0.997,3.045-2.506,4.314-4.031
	c0.039-0.048,0.066-0.104,0.109-0.146c1.523-1.442,2.286-3.262,2.966-5.23c1.437-4.149,3.682-7.881,6.659-11.137
	c1.762-1.926,3.857-3.257,6.545-3.401c0.568-0.031,1.185-0.031,1.713,0.149c1.716,0.586,3.475,1.119,5.076,1.947
	c1.405,0.727,1.829,2.264,1.913,3.754c0.199,3.521-1.071,6.582-3.308,9.223c-1.295,1.529-3.273,1.678-4.96,0.592
	c-1.263-0.812-1.672-2.074-1.104-3.885c0.538-1.71,1.199-3.38,1.799-5.071c0.1-0.281,0.169-0.573,0.277-0.944
	c-1.092,0.219-1.686,0.971-2.262,1.686c-3.247,4.026-5.752,8.469-7.08,13.485c-0.38,1.437-0.385,3.012-0.323,4.513
	c0.06,1.474,0.936,2.12,2.414,2.184c1.552,0.067,2.928-0.48,4.255-1.192c3.914-2.1,6.776-5.309,9.321-8.854
	c0.53-0.741,1.072-1.478,1.651-2.184c0.689-0.841,1.271-0.953,2.155-0.5c1.067,0.546,1.596,1.411,1.365,2.324
	c-0.111,0.439-0.258,0.89-0.485,1.276c-2.585,4.385-5.685,8.312-10.246,10.797c-3.707,2.021-7.647,2.558-11.727,1.255
	c-2.435-0.777-4.135-2.383-4.998-4.824c-0.04-0.113-0.096-0.224-0.157-0.326c-0.028-0.046-0.092-0.067-0.171-0.123
	c-0.881,0.774-1.737,1.591-2.659,2.322c-1.542,1.225-3.283,1.961-5.29,1.96c-3.347-0.001-5.617-2.085-6.184-5.408
	c-0.677-3.969,0.179-7.74,1.185-11.513c0.142-0.528,0.324-1.046,0.482-1.57c0.017-0.055,0.002-0.12,0.002-0.197
	c-2.315,0.142-4.633,0.284-7.132,0.437c-0.592,1.76-1.278,3.513-1.768,5.32c-0.779,2.873-1.41,5.786-2.143,8.671
	c-0.179,0.7-0.462,1.386-0.782,2.036c-1.012,2.053-3.208,2.947-5.381,2.234c-1.093-0.358-1.607-1.024-1.58-2.157
	c0.053-2.249,0.709-4.369,1.437-6.473c0.136-0.392,0.264-0.785,0.218-1.264c-0.82,1.188-1.627,2.385-2.463,3.561
	c-1.549,2.177-3.262,4.22-5.727,5.392c-2.517,1.195-5.136,1.577-7.486-0.316c-0.855-0.689-1.354-1.827-1.995-2.773
	c-0.145-0.214-0.204-0.485-0.318-0.77c-1.131,0.952-2.165,1.893-3.269,2.743c-3.103,2.396-6.583,3.808-10.55,3.706
	c-3.019-0.078-5.812-0.854-7.735-3.408c-0.646-0.856-1.049-1.897-1.612-2.941c-0.14,0.141-0.339,0.339-0.536,0.539
	c-1.309,1.332-2.682,2.573-4.468,3.251c-3.016,1.146-6.057-0.13-6.96-2.934c-0.165-0.512-0.244-1.051-0.401-1.748
	c-0.64,0.689-1.199,1.271-1.737,1.873c-1.7,1.895-3.693,3.332-6.14,4.128c-2.78,0.904-5.417,0.282-6.953-1.756
	c-1.283-1.701-1.31-3.651-1.099-5.672c0.488-4.679,2.805-8.553,5.271-12.388c1.954-3.04,4.304-5.671,7.353-7.638
	c2.628-1.697,6.255-1.756,8.529,0.709c0.401,0.435,0.854,0.455,1.414,0.332c1.712-0.375,3.38-0.275,4.937,0.643
	c1.372,0.808,1.742,1.758,1.142,3.217c-0.264,0.642-0.625,1.253-1.004,1.838c-2.318,3.571-4.043,7.426-5.42,11.439
	c-0.294,0.856-0.351,1.796-0.518,2.696c0.11,0.066,0.22,0.132,0.329,0.199c0.432-0.283,0.946-0.494,1.281-0.865
	c2.057-2.285,4.088-4.595,6.091-6.929c0.366-0.427,0.616-0.979,0.823-1.511c1.516-3.894,3.618-7.437,6.299-10.637
	c1.68-2.006,3.683-3.437,6.403-3.632c1.519-0.108,2.965,0.03,4.311,0.824c0.437,0.258,0.915,0.485,1.403,0.621
	c2.015,0.562,3.245,1.875,3.417,4.002c0.307,3.797-0.984,7.081-3.599,9.797c-1.466,1.524-3.5,1.468-5.104,0.073
	c-1.179-1.023-1.1-2.324-0.693-3.607c0.55-1.738,1.229-3.434,1.846-5.151c0.08-0.222,0.116-0.458,0.194-0.778
	c-0.861,0.109-1.353,0.642-1.815,1.179c-2.502,2.909-4.419,6.186-6.009,9.664c-0.98,2.141-1.791,4.34-1.889,6.721
	c-0.035,0.841,0.013,1.712,0.197,2.531c0.276,1.227,0.905,1.658,2.151,1.697c1.931,0.062,3.672-0.556,5.231-1.629
	c3.209-2.207,5.964-4.901,8.355-7.981c0.934-1.202,0.896-2.68,1.315-4.026c0.814-2.61,1.429-5.303,2.95-7.63
	c1.594-2.435,4.53-2.928,6.791-2.526c1.118,0.199,2.082,1.045,1.446,2.566c-0.914,2.189-1.896,4.352-2.746,6.564
	c-1.092,2.837-2.127,5.698-3.09,8.581C160.293,161.039,160.365,161.952,160.282,162.806z M122.178,146.428
	c-0.093-0.098-0.188-0.197-0.281-0.295c-0.521,0.065-1.108,0-1.55,0.223c-0.885,0.447-1.839,0.911-2.504,1.614
	c-3.783,3.993-6.353,8.722-8.105,13.907c-0.218,0.645-0.188,1.374-0.273,2.064c0.122,0.073,0.245,0.146,0.367,0.219
	c0.921-0.657,1.939-1.214,2.749-1.989c3.978-3.805,6.655-8.498,8.939-13.437C121.851,148.017,121.964,147.199,122.178,146.428z"/>
<path fill-rule="evenodd" clip-rule="evenodd" fill="#D7C656" d="M81.962,150.173c-0.628,2.327-1.315,4.688-1.898,7.074
	c-0.915,3.749-1.832,7.5-2.61,11.278c-0.658,3.195-2.791,3.738-5.569,2.971c-0.349-0.098-0.686-0.252-1.013-0.411
	c-1.531-0.74-2.059-1.675-1.689-3.318c1.072-4.773,2.123-9.553,3.324-14.293c1.202-4.743,2.51-9.461,3.886-14.157
	c2.113-7.206,4.33-14.38,6.488-21.572c0.217-0.723,0.38-1.468,0.487-2.216c0.328-2.289,1.185-3.398,3.485-3.66
	c2.346-0.266,4.741-0.345,7.097-0.206c3.072,0.18,6.085,0.865,8.956,2.015c2.949,1.182,5.61,2.81,7.574,5.388
	c2.271,2.98,2.774,6.33,2.07,9.941c-1,5.126-4.148,8.776-8.125,11.844c-5.189,4.002-11.024,6.644-17.391,8.139
	C85.38,149.378,83.725,149.762,81.962,150.173z M91.147,120.154c-2.708,7.672-5.305,15.298-7.279,23.28
	c0.848-0.184,1.471-0.307,2.088-0.453c6.48-1.542,11.927-4.803,16.279-9.853c1.563-1.814,2.848-3.793,3.356-6.192
	c0.485-2.291-0.176-4.101-1.989-5.258c-0.51-0.326-1.049-0.625-1.607-0.857c-2.827-1.176-5.793-1.305-8.792-1.073
	C92.517,119.8,91.843,120.012,91.147,120.154z"/>
<path fill-rule="evenodd" clip-rule="evenodd" fill="#D7C656" d="M274.345,148.807c-0.479-1.77-0.958-3.54-1.438-5.31
	c-0.07,0.004-0.143,0.007-0.214,0.011c-0.154,0.785-0.306,1.57-0.46,2.355c-0.081-0.001-0.163-0.001-0.244-0.002
	c-0.553-1.859-1.105-3.718-1.658-5.578c-0.098,0.01-0.194,0.019-0.293,0.028c-0.075,0.505-0.15,1.009-0.226,1.515
	c-0.062,0.018-0.122,0.035-0.183,0.054c-0.688-1.667-1.374-3.334-2.062-5.001c-0.08,0.025-0.16,0.05-0.241,0.075
	c-0.026,0.484-0.054,0.969-0.08,1.454c-0.073,0.02-0.147,0.041-0.221,0.061c-0.969-1.271-1.331-3.014-2.932-3.933
	c-0.186,0.283-0.357,0.546-0.553,0.843c0.105,0.168,0.179,0.335,0.295,0.466c2.719,3.106,4.056,6.836,4.719,10.819
	c0.374,2.242,0.649,4.525,0.687,6.794c0.08,5.035-0.369,10.027-1.869,14.746c0.853,0.751,1.651,1.454,2.764,2.433
	c0.899,0.077,1.52,0.902,1.726,2.211c0.053,0.339,0.478,0.661,0.797,0.908c0.815,0.633,1.703,1.173,2.49,1.835
	c0.706,0.594,1.036,1.446,1.032,2.36c-0.007,1.87-1.599,2.969-3.357,2.244c-0.904-0.374-1.637-0.36-2.504,0.066
	c-1.347,0.661-2.66,0.479-3.829-0.508c-0.184-0.155-0.374-0.302-0.533-0.213c-1.27,0.343-2.521,0.796-3.812,0.997
	c-1.368,0.214-2.629-0.307-3.803-1.174c-1.815,1.901-3.645,1.746-5.428-0.012c-1.733,0.839-3.405,1.831-5.347,0.845
	c-0.21-0.888,0.305-2.094,1.001-2.571c0.315-0.217,0.646-0.487,0.823-0.812c1.147-2.109,2.315-2.663,4.725-2.079
	c0.482-0.51,0.938-1.195,1.57-1.6c0.638-0.406,1.453-0.534,2.524-0.898c0.584-0.542,0.945-1.582,1.002-2.685
	c0.318-6.098-1.381-11.602-4.992-16.515c-0.354-0.48-0.797-0.894-1.287-1.436c-0.113,0.866-0.12,1.647-1.233,1.85
	c0.509,0.729,0.961,1.378,1.577,2.261c-0.719-0.102-1.196-0.169-1.827-0.258c0.579,1.754,1.843,2.864,3.277,3.846
	c-0.026,0.098-0.051,0.195-0.076,0.294c-0.647,0.083-1.296,0.167-2.039,0.264c0.613,1.18,1.802,1.512,2.925,1.985
	c-1.222,0.674-3.082,0.266-5.537-1.197c0.078,0.238,0.13,0.397,0.182,0.556c0.047,0.141,0.092,0.279,0.016,0.584
	c-0.272-0.17-0.589-0.295-0.809-0.518c-1.485-1.513-2.07-3.422-2.219-5.463c-0.1-1.383-0.019-2.778-0.019-3.983
	c-0.185,0.457-0.45,1.117-0.717,1.776c-0.101-0.014-0.199-0.027-0.299-0.041c0-0.83,0-1.66,0-2.489
	c-0.07-0.015-0.143-0.028-0.214-0.043c-0.357,0.8-0.715,1.601-1.072,2.401c-0.085-0.014-0.171-0.027-0.256-0.041
	c-0.104-0.449-0.206-0.898-0.309-1.348c-0.067-0.027-0.135-0.053-0.201-0.079c-0.416,0.861-0.831,1.724-1.347,2.795
	c-0.199-0.47-0.317-0.749-0.435-1.026c-0.062-0.019-0.123-0.037-0.183-0.056c-0.305,1.043-0.608,2.087-0.926,3.173
	c-0.738-1.185-0.137-5.044,1.005-7.011c1.325-2.284,3.406-3.396,5.999-3.875c0.169-0.5,0.336-1.014,0.514-1.523
	c0.726-2.072,1.83-3.9,3.433-5.423c2.209-2.099,5.536-1.455,7.217,0.789c0.048,0.064,0.049,0.164,0.107,0.381
	c-0.66,0-1.271,0-2.014,0c0.525,0.771,0.951,1.396,1.433,2.099c-1.233-0.054-2.31-0.102-3.385-0.149
	c-0.017,0.087-0.033,0.174-0.05,0.261c0.278,0.221,0.558,0.442,0.971,0.769c-1.331,0.331-2.604,0.261-3.542,1.367
	c0.392,0,0.784,0,1.175,0c4.52,0.004,7.643,2.348,8.891,6.674c0.04,0.14,0.047,0.291,0.069,0.436
	c-0.059,0.071-0.117,0.143-0.176,0.214c-0.499-0.379-0.997-0.757-1.64-1.246c0.195,1.309,0.369,2.473,0.543,3.638
	c-0.095,0.044-0.188,0.086-0.283,0.13c-0.936-1.352-1.873-2.704-2.811-4.056c-0.095,0.045-0.19,0.091-0.285,0.136
	c0.13,0.831,0.26,1.663,0.425,2.717c-1.729-1.02-1.911-3.061-3.46-4.103c0.059,0.276,0.099,0.466,0.201,0.947
	c-0.725-0.414-1.249-0.713-1.772-1.012c-0.051,0.036-0.101,0.072-0.151,0.108c0.164,0.23,0.301,0.485,0.494,0.686
	c2.509,2.605,4.706,5.431,6.192,8.756c1.29,2.887,2.084,5.897,2.263,9.064c0.018,0.322,0.114,0.64,0.169,0.937
	c0.832,0.307,1.012-0.317,1.152-0.751c0.404-1.242,0.744-2.506,1.062-3.773c0.94-3.76,1.639-7.561,1.389-11.458
	c-0.294-4.593-0.76-9.169-2.85-13.377c-0.531-1.071-1.257-2.044-1.96-3.169c-0.664,0.913-1.242,1.74-2.266,1.254
	c-1.479-0.701-1.145-2.1-1.012-3.404c-1.142-0.219-1.557,1.022-2.735,1.188c0.352-0.848,0.639-1.54,0.955-2.302
	c-1.001,0.28-1.567,1.014-2.084,1.783c-0.504,0.748-0.964,1.525-1.553,2.465c-0.648-1.536,0.033-2.834,0.164-4.275
	c-3.06,0.414-4.115,2.933-5.669,4.915c-0.044-1.875,0.994-3.302,1.856-4.795c-0.052-0.064-0.104-0.127-0.156-0.191
	c-0.821,0.56-1.642,1.119-2.575,1.755c-0.025-1.102,0.754-1.726,1.343-2.69c-1.852,0.511-2.843,1.856-4.116,2.829
	c0.805-2.839,2.338-5.137,4.952-6.525c3.893-2.066,7.404-1.024,10.645,1.58c0.651-0.669,1.282-1.318,1.912-1.967
	c0.09,0.056,0.181,0.112,0.27,0.169c-0.118,0.716-0.234,1.432-0.353,2.148c0.06,0.028,0.119,0.057,0.177,0.084
	c0.17-0.147,0.373-0.269,0.499-0.446c1.123-1.592,2.72-2.625,4.373-3.528c3.426-1.872,7.846-0.087,9.414,3.864
	c0.039,0.098,0.005,0.225,0.005,0.522c-1.062-0.568-2.017-1.078-3.117-1.666c0.217,0.995,0.39,1.788,0.561,2.582
	c-0.085,0.051-0.171,0.102-0.257,0.152c-1.11-0.839-1.953-2.135-3.554-2.289c0.264,0.798,0.504,1.521,0.742,2.244
	c-0.052,0.062-0.105,0.124-0.156,0.185c-2-1.687-4.103-2.054-6.332-0.824c-0.015,0.091-0.029,0.182-0.044,0.273
	c0.244,0.077,0.482,0.187,0.731,0.224c5.116,0.753,8.382,3.697,9.872,8.563c0.852,2.779,1.169,5.655,0.636,8.566
	c-0.022,0.114-0.071,0.223-0.108,0.333C274.475,148.803,274.41,148.805,274.345,148.807z"/>
<path fill-rule="evenodd" clip-rule="evenodd" fill="#D7C656" d="M37.675,135.725c-1.262,1.232-2.057,2.691-2.683,4.244
	c-1.474,3.658-2.126,7.483-2.107,11.41c0.012,2.523,0.033,5.061,0.295,7.566c0.331,3.146,1.044,6.231,2.367,9.239
	c0.229,0.014,0.478,0.028,0.805,0.047c0.3-3.769,1.037-7.348,2.643-10.714c1.596-3.344,3.927-6.149,6.567-8.739
	c-0.089-0.092-0.179-0.184-0.268-0.275c-0.506,0.312-1.012,0.624-1.631,1.006c0-0.384,0-0.6,0-0.816
	c-0.064-0.029-0.129-0.058-0.194-0.086c-0.931,1.344-1.862,2.688-2.793,4.03c-0.115-0.047-0.23-0.096-0.346-0.144
	c0.1-0.811,0.201-1.622,0.302-2.432c-0.069-0.046-0.137-0.092-0.206-0.139c-0.485,0.615-1.008,1.205-1.444,1.852
	c-0.446,0.663-0.807,1.383-1.313,2.268c-0.443-1.474-0.004-2.623,0.309-4.021c-0.668,0.532-1.176,0.936-1.734,1.381
	c-0.646-3.857,4.335-7.464,9.972-7.378c0.035-0.067,0.07-0.134,0.104-0.202c-0.535-0.247-1.05-0.553-1.608-0.723
	c-0.599-0.182-1.237-0.235-2.06-0.381c0.407-0.365,0.664-0.595,1.037-0.928c-1.178,0-2.24,0-3.466,0
	c0.438-0.645,0.874-1.286,1.357-1.999c-0.693-0.039-1.334-0.075-2.23-0.125c1.159-1.329,2.275-2.219,3.842-2.403
	c1.979-0.232,3.388,0.754,4.559,2.187c1.279,1.566,2.387,3.232,2.829,5.256c0.051,0.232,0.186,0.446,0.322,0.761
	c2.568,0.493,4.799,1.621,6.078,4.101c1.089,2.114,1.298,4.382,1.149,6.7c-0.076,0.022-0.151,0.046-0.228,0.068
	c-0.336-1.08-0.673-2.16-1.009-3.241c-0.076,0.012-0.152,0.023-0.229,0.034c-0.06,0.303-0.12,0.604-0.179,0.908
	c-0.065,0.023-0.131,0.047-0.196,0.071c-0.451-0.884-0.901-1.769-1.436-2.816c-0.167,0.653-0.282,1.105-0.397,1.558
	c-0.079,0.02-0.158,0.039-0.237,0.058c-0.385-0.819-0.769-1.638-1.263-2.688c-0.075,1.108,0.543,2.04-0.281,2.971
	c-0.257-0.604-0.475-1.118-0.694-1.631c0.117,3.591,0.113,7.12-2.856,9.726c-0.101-0.023-0.201-0.047-0.302-0.072
	c0.045-0.323,0.091-0.647,0.149-1.058c-1.667,1.284-3.466,1.759-5.499,1.376c1.086-0.626,2.309-1.023,3.107-2.224
	c-0.792-0.038-1.487-0.072-2.182-0.105c-0.032-0.074-0.064-0.148-0.096-0.222c1.282-1.179,2.785-2.186,3.329-4.085
	c-0.347,0.094-0.619,0.2-0.899,0.234c-0.245,0.029-0.5-0.021-0.897-0.046c0.55-0.74,0.994-1.337,1.534-2.063
	c-1.075-0.28-1.208-0.98-1.171-1.783c-0.092-0.02-0.183-0.04-0.275-0.06c-0.821,1.107-1.735,2.16-2.445,3.336
	c-1.91,3.163-3.051,6.606-3.536,10.277c-0.225,1.703-0.393,3.394,0.071,5.068c0.207,0.743,0.556,1.445,0.853,2.194
	c1.84-0.182,2.937,0.781,3.82,2.026c0.701,0,1.337-0.03,1.97,0.006c1.314,0.076,2.3,0.636,2.885,1.89
	c0.214,0.457,0.654,0.818,1.025,1.188c0.676,0.675,1.093,1.435,0.987,2.491c-1.917,0.965-3.59,0.152-5.297-0.713
	c-1.818,1.319-3.667,2.078-5.539-0.118c-2.455,1.786-4.913,1.826-7.354-0.092c-0.376,0.258-0.71,0.514-1.069,0.729
	c-1.387,0.832-2.785,0.892-4.251,0.146c-0.382-0.195-0.905-0.135-1.364-0.151c-0.172-0.006-0.349,0.098-0.521,0.159
	c-2.477,0.865-3.169-0.571-3.202-2.486c-0.014-0.831,0.306-1.547,0.993-2.059c1.045-0.779,2.095-1.553,3.232-2.393
	c0.062-1.281,0.547-2.384,1.823-2.534c0.959-0.891,1.716-1.594,2.617-2.431c-0.223-0.947-0.548-2.172-0.797-3.411
	c-1.029-5.104-1.283-10.241-0.731-15.43c0.348-3.266,1.014-6.44,2.478-9.381c0.792-1.593,1.863-3.047,2.883-4.683
	c-0.076-0.114-0.27-0.404-0.493-0.739c-1.609,0.875-2.024,2.605-2.874,3.999c-0.093-0.024-0.187-0.048-0.279-0.072
	c-0.04-0.478-0.08-0.955-0.139-1.648c-1.12,1.617-1.501,3.384-2.109,5.044c-0.105,0.001-0.212,0.003-0.317,0.005
	c-0.084-0.55-0.169-1.101-0.271-1.772c-1.019,1.851-1.317,3.852-1.788,5.792c-0.117,0.003-0.235,0.006-0.353,0.009
	c-0.156-0.809-0.313-1.619-0.47-2.427c-0.045-0.021-0.091-0.041-0.137-0.061c-0.273,0.875-0.58,1.742-0.812,2.627
	c-0.235,0.896-0.397,1.812-0.632,2.909c-0.218-0.292-0.382-0.411-0.397-0.546c-0.464-4.145-0.136-8.163,2.156-11.788
	c1.933-3.058,4.742-4.821,8.334-5.32c0.234-0.032,0.463-0.102,0.855-0.19c-1.027-0.911-2.112-1.302-3.271-0.989
	c-1.087,0.294-2.101,0.861-3.333,1.386c0.25-0.794,0.482-1.529,0.741-2.349c-1.547,0.284-2.383,1.504-3.504,2.269
	c-0.087-0.025-0.174-0.052-0.26-0.078c0.156-0.786,0.312-1.571,0.512-2.572c-1.044,0.557-2,1.066-3.123,1.664
	c0.087-0.416,0.095-0.655,0.185-0.858c1.725-3.92,6.039-5.247,9.347-3.429c1.6,0.879,3.153,1.855,4.231,3.406
	c0.146,0.21,0.373,0.364,0.725,0.462c-0.135-0.719-0.27-1.438-0.421-2.244c1.159,0.143,1.506,1.155,2.155,1.866
	c3.199-2.542,6.637-3.638,10.519-1.752c2.34,1.137,4.96,4.496,5.253,6.761c-1.406-1.014-2.376-2.457-4.124-2.921
	c0.506,0.875,0.967,1.671,1.429,2.469c-0.08,0.058-0.16,0.116-0.239,0.175c-0.792-0.546-1.583-1.094-2.375-1.641
	c-0.063,0.06-0.125,0.119-0.188,0.179c0.653,1.534,1.784,2.9,1.905,4.622c-0.075,0.037-0.149,0.072-0.224,0.109
	c-0.746-1.014-1.458-2.054-2.245-3.034c-0.818-1.018-1.848-1.738-3.326-1.96c0.192,1.41,0.372,2.727,0.552,4.045
	c-0.113,0.051-0.226,0.103-0.339,0.155c-1.318-1.282-1.758-3.406-3.735-4.176c0.331,0.784,0.632,1.497,0.933,2.209
	c-0.079,0.06-0.159,0.12-0.238,0.179c-0.719-0.458-1.438-0.916-2.355-1.5c-0.028,0.444-0.052,0.679-0.056,0.915
	c-0.008,0.482,0.042,0.969-0.018,1.444c-0.085,0.679-0.431,1.232-1.132,1.4c-0.724,0.173-1.314-0.097-1.724-0.734
	C37.903,135.991,37.802,135.884,37.675,135.725z"/>
<path fill-rule="evenodd" clip-rule="evenodd" fill="#D7C656" d="M200.172,133.92c1.265-0.039,2.453,0.151,3.229,1.29
	c0.768,1.125,0.403,2.242-0.214,3.26c-1.288,2.126-4.419,3.293-6.797,2.601c-1.268-0.369-2.172-1.129-2.403-2.468
	c-0.24-1.378,0.399-2.426,1.469-3.222C196.703,134.455,198.493,133.923,200.172,133.92z"/>
<path fill-rule="evenodd" clip-rule="evenodd" fill="#D7C656" d="M164.406,141.416c-0.77-0.245-1.577-0.409-2.303-0.748
	c-2.215-1.038-1.996-3.66-0.711-4.804c1.969-1.753,4.352-2.287,6.886-1.827c1.869,0.339,2.511,2.472,1.449,4.327
	C168.753,140.068,166.571,141.268,164.406,141.416z"/>
<path fill-rule="evenodd" clip-rule="evenodd" fill="#D7C656" d="M149.993,184.984c-2.406,0.156-5.187-1.689-5.198-5.407
	c-0.011-3.494,2.481-5.299,5.404-5.27c3.001,0.029,5.399,2.357,5.403,5.278C155.605,182.552,152.852,185.221,149.993,184.984z
	 M150.07,183.33c2.233-0.001,3.813-1.506,3.831-3.651c0.017-2.109-1.611-3.695-3.792-3.693c-2.278,0.002-3.667,1.295-3.649,3.523
	C146.478,181.748,147.928,183.474,150.07,183.33z"/>
<path fill-rule="evenodd" clip-rule="evenodd" fill="#D7C656" d="M198.368,184.962c0-3.545,0-6.899,0-10.239
	c2.545-0.701,6.788-0.081,8.002,2.273c1.668,3.228-0.027,7.878-4.411,7.962C200.785,184.981,199.611,184.962,198.368,184.962z
	 M199.99,183.176c2.057,0.473,4.015-0.136,4.883-1.519c0.764-1.213,0.627-3.066-0.229-4.202c-0.677-0.896-3.021-1.634-4.653-0.994
	C199.99,178.642,199.99,180.875,199.99,183.176z"/>
<path fill-rule="evenodd" clip-rule="evenodd" fill="#D7C656" d="M68.888,174.411c1.676,0.136,3.26,0.139,4.792,0.425
	c1.379,0.256,2.084,1.277,2.17,2.585c0.093,1.42-0.6,2.616-1.846,3.176c-0.275,0.122-0.56,0.225-0.991,0.396
	c0.884,1.211,1.737,2.382,2.619,3.589c-1.283,0.467-1.71,0.373-2.367-0.493c-0.84-1.109-1.655-2.237-2.479-3.357
	c-0.082,0.013-0.163,0.026-0.245,0.039c0,1.302,0,2.602,0,3.979c-0.643,0-1.107,0-1.652,0
	C68.888,181.367,68.888,178.038,68.888,174.411z M70.606,179.879c0.912-0.167,1.735-0.229,2.493-0.481
	c0.754-0.251,1.127-0.863,1.061-1.718c-0.062-0.802-0.535-1.25-1.238-1.377c-0.728-0.133-1.485-0.098-2.316-0.141
	C70.606,177.418,70.606,178.524,70.606,179.879z"/>
<path fill-rule="evenodd" clip-rule="evenodd" fill="#D7C656" d="M175.042,180.723c0,1.355,0,2.71,0,4.164
	c-0.533,0.027-0.968,0.051-1.518,0.079c0-3.474,0-6.856,0-10.376c1.858-0.035,3.756-0.4,5.511,0.54
	c1.905,1.021,1.821,4.239-0.105,5.381c-0.36,0.213-0.763,0.356-1.269,0.588c0.474,0.643,0.922,1.243,1.36,1.852
	c0.415,0.577,0.82,1.163,1.36,1.929c-0.798,0-1.322,0-2.002,0c-0.468-0.642-1.001-1.374-1.536-2.106
	c-0.518-0.71-1.038-1.418-1.559-2.127C175.204,180.671,175.123,180.697,175.042,180.723z M175.129,179.554
	c2.188,0.478,3.362-0.056,3.74-1.644c-0.536-1.521-2.016-2.149-3.74-1.555C175.129,177.393,175.129,178.448,175.129,179.554z"/>
<path fill-rule="evenodd" clip-rule="evenodd" fill="#D7C656" d="M126.912,177.173c-0.788,0.463-1.42,0.138-2.046-0.374
	c-1.297-1.06-3.011-1.217-4.327-0.419c-1.844,1.117-2.387,3.458-1.217,5.248c1.187,1.815,3.677,2.271,5.442,0.893
	c0.698-0.545,1.36-0.539,2.118-0.432c-0.067,1.54-2.074,2.806-4.262,2.914c-3.125,0.154-5.354-2.328-5.576-5.024
	c-0.237-2.867,1.86-5.324,4.701-5.635C124.384,174.056,126.604,175.255,126.912,177.173z"/>
<path fill-rule="evenodd" clip-rule="evenodd" fill="#D7C656" d="M93.741,174.603c1.827,0,3.572,0,5.403,0c0,0.534,0,0.994,0,1.58
	c-1.269,0-2.469,0-3.751,0c0,0.86,0,1.6,0,2.511c1.2,0,2.423,0,3.739,0c0,0.655,0,1.14,0,1.755c-1.273,0-2.474,0-3.747,0
	c0,0.927,0,1.727,0,2.703c1.232,0,2.445,0,3.749,0c0,0.663,0,1.153,0,1.729c-1.793,0-3.536,0-5.392,0
	C93.741,181.483,93.741,178.106,93.741,174.603z"/>
<path fill-rule="evenodd" clip-rule="evenodd" fill="#D7C656" d="M224.364,181.711c0.485,0,0.924,0,1.433,0
	c0.197,0.878,0.505,1.664,1.626,1.59c0.783-0.055,1.359-0.522,1.475-1.244c0.126-0.792-0.269-1.4-1.078-1.667
	c-0.577-0.188-1.177-0.329-1.726-0.581c-1.263-0.58-1.87-1.916-1.502-3.178c0.452-1.548,1.875-2.62,3.229-2.434
	c1.565,0.215,2.375,1.128,2.46,2.921c-0.413,0.04-0.836,0.083-1.281,0.126c-0.188-0.294-0.361-0.506-0.471-0.747
	c-0.253-0.553-0.667-0.781-1.249-0.66c-0.586,0.121-0.985,0.467-1.084,1.085c-0.099,0.617,0.129,1.094,0.702,1.34
	c0.444,0.19,0.919,0.312,1.384,0.453c1.944,0.587,2.824,2.356,2.051,4.248c-0.829,2.029-2.734,2.435-4.466,1.761
	C224.847,184.328,224.28,183.121,224.364,181.711z"/>
</svg>
