<?xml version="1.0" encoding="utf-8"?>
<!-- Generator: Adobe Illustrator 16.0.0, SVG Export Plug-In . SVG Version: 6.00 Build 0)  -->
<!DOCTYPE svg PUBLIC "-//W3C//DTD SVG 1.1//EN" "http://www.w3.org/Graphics/SVG/1.1/DTD/svg11.dtd">
<svg version="1.1" id="Layer_1" xmlns="http://www.w3.org/2000/svg" xmlns:xlink="http://www.w3.org/1999/xlink" x="0px" y="0px"
	 width="300px" height="300px" viewBox="0 0 300 300" enable-background="new 0 0 300 300" xml:space="preserve">
<path fill-rule="evenodd" clip-rule="evenodd" fill="#D7C656" d="M46.771,70.227c0-1.692,0.005-2.857-0.001-4.022
	c-0.009-1.921-0.017-1.935,1.862-2.571c3.678-1.243,7.363-2.468,11.044-3.704c2.999-1.007,5.989-2.036,8.997-3.017
	c1.055-0.344,1.667-1.004,1.947-2.067c0.817-3.111,1.688-6.208,2.487-9.324c0.274-1.071,0.799-1.661,1.926-1.983
	c5.92-1.691,11.8-3.524,17.723-5.205c1.656-0.47,2.625-1.318,3.177-2.969c1.18-3.524,2.576-6.975,3.791-10.488
	c0.39-1.128,1.058-1.74,2.16-2.042c6.688-1.828,13.365-3.692,20.056-5.507c6.316-1.713,12.639-3.403,18.971-5.058
	c2.682-0.701,5.373-1.416,8.103-1.86c1.254-0.204,2.652,0.07,3.914,0.397c8,2.071,15.988,4.191,23.966,6.348
	c6.746,1.824,13.467,3.745,20.216,5.561c1.41,0.379,2.3,1.061,2.789,2.483c1.154,3.357,2.532,6.64,3.625,10.016
	c0.581,1.794,1.622,2.67,3.397,3.17c5.927,1.67,11.808,3.501,17.722,5.215c0.999,0.29,1.436,0.844,1.682,1.802
	c0.799,3.116,1.687,6.209,2.506,9.32c0.312,1.185,0.996,1.862,2.182,2.253c6.532,2.153,13.044,4.37,19.564,6.562
	c2.096,0.705,2.215,0.708,2.067,2.931c-0.47,7.085-0.803,14.192-1.63,21.239c-0.749,6.379-1.86,12.736-3.2,19.021
	c-2.095,9.83-5.009,19.445-8.471,28.887c-8.389,22.881-19.898,44.09-34.309,63.723c-13.615,18.55-29.388,35.041-47.479,49.287
	c-2.225,1.752-4.552,3.373-6.767,5.136c-0.916,0.729-1.57,0.65-2.479-0.018c-7.348-5.401-14.373-11.194-21.056-17.391
	c-10.775-9.99-20.64-20.821-29.548-32.512c-12.368-16.231-22.794-33.619-31.112-52.267c-5.37-12.038-9.77-24.418-13.087-37.171
	c-2.292-8.809-4.147-17.717-5.092-26.786C47.792,81.657,47.283,75.685,46.771,70.227z M98.893,146.038
	c-0.498-0.763-0.788-1.163-1.034-1.59c-3.718-6.47-6.668-13.287-9.153-20.312c-3.021-8.542-5.354-17.271-7.012-26.175
	c-0.741-3.98-1.406-7.979-1.927-11.994c-0.506-3.905-0.776-7.841-1.169-11.762c-0.046-0.465-0.208-0.918-0.379-1.646
	c-0.76,0.505-1.318,0.829-1.824,1.22c-2.853,2.212-5.64,4.513-8.56,6.63c-1.314,0.953-1.69,2.012-1.505,3.543
	c0.566,4.681,0.881,9.397,1.604,14.052c0.901,5.803,1.919,11.602,3.231,17.323c2.125,9.264,5.169,18.255,8.855,27.018
	c4.231,10.058,9.262,19.687,15.573,28.615c0.434,0.612,0.964,1.156,1.598,1.909c3.98-4.666,7.81-9.157,11.83-13.87
	c0.379,0.855,0.667,1.381,0.85,1.94c1.032,3.164,1.996,6.352,3.06,9.506c4.823,14.302,10.828,28.078,18.836,40.896
	c2.904,4.647,6.339,8.964,9.562,13.409c0.312,0.43,0.846,0.698,1.277,1.042c0.148-0.067,0.296-0.134,0.444-0.201
	c0-1.256,0-2.512,0-3.769c0-61.656,0-123.313,0-184.97c0-1.389,0.026-2.778-0.01-4.166c-0.044-1.703-0.396-1.948-1.872-1.252
	c-4.217,1.988-8.392,4.068-12.637,5.992c-1.764,0.799-2.391,1.907-2.345,3.861c0.208,8.717,0.287,17.437,0.364,26.157
	c0.123,13.94,0.194,27.882,0.31,41.823c0.135,16.273,0.295,32.546,0.443,48.819c0.008,0.923,0.001,1.846,0.001,2.77
	c-1.292-4.097-2.521-8.179-3.523-12.316c-1.944-8.031-3.987-16.048-5.566-24.154c-1.558-7.996-2.658-16.084-3.841-24.148
	c-1.394-9.507-2.202-19.08-2.692-28.67c-0.377-7.375-0.473-14.764-0.709-22.146c-0.023-0.736-0.148-1.468-0.261-2.535
	c-0.951,0.631-1.593,1.04-2.217,1.475c-3.78,2.636-7.515,5.342-11.356,7.886c-1.388,0.919-1.878,1.958-1.803,3.578
	c0.317,6.822,0.456,13.653,0.82,20.472c0.302,5.652,0.738,11.301,1.282,16.936c0.458,4.747,1.077,9.483,1.77,14.204
	c0.812,5.542,1.731,11.069,2.7,16.585c0.653,3.713,1.49,7.394,2.195,11.099c0.095,0.497,0.088,1.22-0.2,1.55
	C102.345,142.452,100.681,144.144,98.893,146.038z M156.489,226.147c0.696-0.626,1.207-1.027,1.65-1.493
	c6.239-6.559,12.597-13.009,18.671-19.717c10.526-11.623,20.285-23.864,28.523-37.246c5.729-9.307,10.745-18.938,12.661-29.864
	c1.113-6.349,0.262-12.399-3.128-17.956c-2.707-4.437-6.786-7.248-11.467-9.283c-0.73-0.317-1.455-0.647-2.505-1.116
	c0.846-0.541,1.345-0.862,1.846-1.18c2.297-1.456,4.658-2.82,6.878-4.387c4.479-3.162,8.479-6.83,11.306-11.61
	c2.854-4.826,3.699-9.965,2.044-15.364c-1.256-4.096-3.583-7.619-6.375-10.835c-4.216-4.857-9.139-8.912-14.424-12.534
	c-13.175-9.03-27.531-15.75-42.345-21.565c-1.066-0.419-2.154-0.782-3.56-1.289c-0.074,1.329-0.187,2.402-0.187,3.476
	c-0.009,62.826-0.008,125.651-0.007,188.477c0,0.667-0.021,1.337,0.034,1.999C156.141,225.061,156.304,225.451,156.489,226.147z"/>
<path fill-rule="evenodd" clip-rule="evenodd" fill="#D7C656" d="M185.869,291.599c-2.142,0.207-2.201,0.183-2.979-1.412
	c-0.681-1.395-1.36-2.789-2.009-4.198c-0.416-0.905-1.051-1.368-2.077-1.327c-1.053,0.041-2.107-0.01-3.161,0.005
	c-1.953,0.028-2.103,0.171-2.122,2.07c-0.017,1.6-0.004,3.199-0.004,4.745c-1.854,0.524-2.101,0.397-2.11-1.205
	c-0.026-4.382-0.024-8.765,0.003-13.146c0.009-1.435,0.222-1.637,1.657-1.651c2.662-0.027,5.324-0.019,7.986,0.016
	c0.659,0.009,1.324,0.139,1.973,0.275c2.314,0.487,3.433,1.725,3.599,3.933c0.176,2.33-0.812,4.076-2.928,4.841
	c-0.985,0.357-1.038,0.835-0.624,1.617c0.649,1.225,1.302,2.447,1.941,3.678C185.289,290.368,185.537,290.913,185.869,291.599z
	 M178.509,277.308c0-0.003,0-0.006,0-0.01c-1.218,0-2.436,0.004-3.653-0.001c-0.874-0.004-1.344,0.381-1.329,1.297
	c0.016,0.996,0.021,1.993-0.002,2.989c-0.023,1.052,0.471,1.499,1.512,1.484c2.104-0.028,4.208,0.015,6.311-0.038
	c0.531-0.014,1.096-0.196,1.576-0.439c1.196-0.604,1.807-1.843,1.58-3.015c-0.268-1.384-1.151-2.172-2.673-2.256
	C180.727,277.259,179.616,277.308,178.509,277.308z"/>
<path fill-rule="evenodd" clip-rule="evenodd" fill="#D7C656" d="M74.125,291.578c-1.125,0.493-1.847,0.198-2.366-0.825
	c-0.778-1.533-1.634-3.028-2.394-4.571c-0.527-1.069-1.289-1.589-2.501-1.524c-1.107,0.059-2.221-0.012-3.331,0.023
	c-1.481,0.048-1.694,0.259-1.759,1.79c-0.05,1.164-0.009,2.332-0.045,3.497c-0.013,0.436-0.047,0.909-0.231,1.287
	c-0.109,0.225-0.545,0.429-0.806,0.398c-0.235-0.026-0.537-0.35-0.621-0.604c-0.117-0.354-0.073-0.768-0.074-1.155
	c-0.003-4.165-0.01-8.329,0.003-12.494c0.006-1.88,0.026-1.906,1.824-1.922c2.554-0.022,5.108-0.008,7.663,0
	c0.387,0.001,0.779,0.025,1.161,0.085c3.717,0.58,5.42,3.775,3.71,7.156c-0.367,0.726-1.132,1.429-1.88,1.74
	c-1.131,0.471-1.092,1.072-0.675,1.943c0.696,1.45,1.396,2.898,2.08,4.354C73.996,290.996,74.037,291.269,74.125,291.578z
	 M66.863,277.308c0-0.005,0-0.009,0-0.013c-1.222,0-2.444,0.02-3.665-0.006c-0.985-0.021-1.428,0.451-1.424,1.406
	c0.004,0.943,0.009,1.888,0.003,2.831c-0.008,1.124,0.545,1.572,1.659,1.55c2.109-0.043,4.221,0.008,6.33-0.032
	c0.541-0.01,1.108-0.139,1.611-0.341c1.388-0.557,1.939-1.657,1.705-3.232c-0.19-1.275-1.081-2.073-2.555-2.15
	C69.309,277.257,68.085,277.308,66.863,277.308z"/>
<path fill-rule="evenodd" clip-rule="evenodd" fill="#D7C656" d="M158.624,283.713c-0.049,4.596-3.272,8.05-8.105,8.515
	c-3.815,0.366-8.52-1.617-9.771-6.29c-1-3.733,0.339-7.565,3.747-9.411c3.533-1.914,7.158-1.859,10.579,0.297
	C157.547,278.382,158.75,280.742,158.624,283.713z M149.545,290.45c3.842,0.037,7.009-3.002,7.024-6.739
	c0.016-3.726-3.107-6.824-6.939-6.885c-3.667-0.057-7.275,3.236-7.173,6.716C142.567,287.316,145.48,290.521,149.545,290.45z"/>
<path fill-rule="evenodd" clip-rule="evenodd" fill="#D7C656" d="M199.157,283.635c0-2.161-0.018-4.323,0.006-6.484
	c0.017-1.603,0.082-1.693,1.729-1.666c2.6,0.044,5.218-0.01,7.792,0.29c5.216,0.608,6.905,6.055,6.078,9.599
	c-0.972,4.163-3.842,6.39-7.589,6.416c-2.16,0.015-4.321,0.016-6.481,0.064c-1.118,0.026-1.593-0.396-1.557-1.568
	c0.066-2.215,0.019-4.434,0.019-6.65C199.155,283.635,199.156,283.635,199.157,283.635z M201.022,283.694
	c0,1.663-0.011,3.326,0.005,4.988c0.007,0.688,0.095,1.462,0.964,1.497c2.479,0.099,5,0.461,7.39-0.553
	c2.641-1.122,4.252-4.37,3.683-7.315c-0.562-2.915-2.967-4.951-5.979-5.017c-1.551-0.034-3.104,0.015-4.655-0.003
	c-0.98-0.012-1.414,0.454-1.407,1.415C201.033,280.369,201.025,282.032,201.022,283.694z"/>
<path fill-rule="evenodd" clip-rule="evenodd" fill="#D7C656" d="M88.32,283.63c0-2.221,0.018-4.44-0.008-6.66
	c-0.013-1.055,0.45-1.506,1.501-1.501c3.663,0.018,7.326,0.001,10.99,0.006c0.612,0.001,1.269-0.053,1.284,0.879
	c0.015,0.925-0.617,0.915-1.245,0.917c-2.775,0.009-5.551,0-8.326,0.019c-1.991,0.013-2.159,0.195-2.179,2.207
	c-0.004,0.443,0.02,0.888,0.025,1.332c0.013,1.028,0.545,1.514,1.561,1.52c1.054,0.006,2.119-0.055,3.158,0.08
	c0.428,0.056,1.046,0.483,1.144,0.855c0.199,0.762-0.422,1.049-1.114,1.07c-1.109,0.034-2.219,0.052-3.329,0.071
	c-0.953,0.017-1.407,0.495-1.427,1.448c-0.104,4.931-0.183,4.373,3.867,4.398c2.109,0.014,4.218-0.002,6.328,0.009
	c0.441,0.003,0.913-0.016,1.313,0.131c0.233,0.086,0.451,0.468,0.487,0.741c0.023,0.176-0.261,0.501-0.472,0.574
	c-0.355,0.123-0.761,0.131-1.146,0.132c-3.497,0.008-6.993,0.019-10.49-0.003c-1.784-0.011-1.909-0.142-1.928-1.898
	c-0.022-2.108-0.005-4.218-0.005-6.327C88.312,283.63,88.316,283.63,88.32,283.63z"/>
<path fill-rule="evenodd" clip-rule="evenodd" fill="#D7C656" d="M232.429,275.282c1.574-0.094,3.34,0.308,4.994,1.189
	c0.509,0.271,1.018,0.586,0.664,1.283c-0.331,0.653-0.808,0.788-1.513,0.447c-0.943-0.456-1.917-0.904-2.927-1.156
	c-2.021-0.502-3.98-0.247-5.732,0.957c-0.819,0.564-1.359,1.345-1.136,2.406c0.208,0.983,0.918,1.53,1.864,1.667
	c1.092,0.157,2.207,0.156,3.304,0.292c1.694,0.209,3.43,0.306,5.059,0.768c1.675,0.475,2.59,1.767,2.701,3.605
	c0.115,1.903-0.429,3.482-2.203,4.287c-4.174,1.895-8.287,1.759-12.228-0.718c-0.323-0.203-0.662-0.46-0.849-0.777
	c-0.13-0.22-0.118-0.662,0.026-0.867c0.153-0.22,0.562-0.415,0.816-0.372c0.359,0.062,0.693,0.33,1.013,0.549
	c2.449,1.677,5.186,1.847,7.993,1.448c0.74-0.104,1.504-0.446,2.133-0.866c1.882-1.257,1.668-3.939-0.396-4.847
	c-0.791-0.348-1.702-0.511-2.571-0.57c-1.438-0.1-2.887-0.016-4.329-0.067c-1.996-0.071-3.57-1.157-4.007-2.695
	c-0.526-1.857,0.26-3.694,2.072-4.838C228.554,275.538,229.792,275.256,232.429,275.282z"/>
<path fill-rule="evenodd" clip-rule="evenodd" fill="#D7C656" d="M129.536,278.129c-0.533,1.025-1.059,1.099-1.956,0.643
	c-1.417-0.72-2.891-1.458-4.426-1.792c-4.011-0.872-7.656,1.878-8.162,6.061c-0.446,3.685,2.354,7.188,6.412,7.395
	c2.407,0.122,4.648-0.182,6.531-1.853c0.428-0.38,0.896-0.725,1.432-0.132c0.565,0.624,0.256,1.123-0.247,1.562
	c-0.375,0.327-0.758,0.668-1.192,0.899c-3.269,1.735-8.409,2.06-11.845-0.566c-2.799-2.14-3.835-5.501-2.752-9.224
	c0.935-3.215,3.859-5.557,7.168-5.812c2.735-0.212,5.312,0.2,7.635,1.74C128.622,277.375,129.067,277.767,129.536,278.129z"/>
<path fill-rule="evenodd" clip-rule="evenodd" fill="#D7C656" d="M172.571,183.919c0-1.16,0-2.319,0-3.479
	c-0.005-18.87-0.008-37.741-0.016-56.61c-0.001-1.818,0.161-2.042,1.942-2.113c3.707-0.149,7.419-0.417,11.122-0.336
	c2.929,0.064,5.831,0.608,8.626,1.628c6.024,2.198,8.977,6.924,8.354,13.353c-0.423,4.37-1.79,8.441-3.659,12.372
	c-4.078,8.575-9.479,16.295-15.456,23.619c-2.979,3.65-6.181,7.118-9.297,10.656c-0.384,0.437-0.855,0.797-1.286,1.192
	C172.792,184.106,172.682,184.013,172.571,183.919z"/>
<path fill-rule="evenodd" clip-rule="evenodd" fill="#D7C656" d="M172.693,56.01c2.939,1.17,5.639,2.16,8.268,3.31
	c5.965,2.608,11.69,5.649,16.78,9.767c2.429,1.965,4.679,4.113,6.239,6.859c2.909,5.122,2.562,9.071-1.402,13.735
	c-1.929,2.27-4.362,3.933-6.905,5.433c-5.73,3.381-16.047,7.248-22.979,8.604C172.693,87.922,172.693,72.162,172.693,56.01z"/>
</svg>
