<?xml version="1.0" encoding="utf-8"?>
<!-- Generator: Adobe Illustrator 16.0.0, SVG Export Plug-In . SVG Version: 6.00 Build 0)  -->
<!DOCTYPE svg PUBLIC "-//W3C//DTD SVG 1.1//EN" "http://www.w3.org/Graphics/SVG/1.1/DTD/svg11.dtd">
<svg version="1.1" id="Layer_1" xmlns="http://www.w3.org/2000/svg" xmlns:xlink="http://www.w3.org/1999/xlink" x="0px" y="0px"
	 width="300px" height="300px" viewBox="0 0 300 300" enable-background="new 0 0 300 300" xml:space="preserve">
<path fill="#D7C656" d="M93.569,87.058c3.698,0,7.395,0,11.093,0c0.46,0.13,0.919,0.269,1.382,0.392
	c9.149,2.415,15.217,8,16.854,17.462c1.611,9.308-1.198,17.138-9.134,22.765c-0.408,0.29-0.762,0.656-1.474,1.277
	c9.82,0.273,18.797,2.025,26.859,7.114c8.169,5.157,13.646,12.432,16.818,21.992c2.384-6.632,5.654-12.091,10.299-16.709
	c4.568-4.544,9.943-7.799,15.945-10.116c-1.765-0.139-3.451-0.116-5.138-0.145c-1.724-0.029-3.445-0.109-5.33-0.172
	c-0.752-7.276-1.466-14.192-2.204-21.335c-0.231,0.647-0.403,1.089-0.549,1.54c-1.922,5.962-3.883,11.912-5.729,17.898
	c-0.451,1.462-1.146,2.16-2.708,2.09c-1.846-0.083-3.701-0.096-5.545,0.004c-1.592,0.086-2.314-0.665-2.705-2.099
	c-0.592-2.169-1.293-4.308-1.948-6.459c-1.182-3.88-2.363-7.76-3.545-11.64c-1.329,6.646-1.514,13.354-2.697,19.978
	c-5.239,0-10.175,0-15.067,0c-0.45-2.224,5.816-41.079,6.95-43.32c0.563-0.054,1.194-0.163,1.825-0.166
	c4.019-0.016,8.038-0.028,12.057,0.001c2.137,0.016,2.233,0.079,2.837,2.165c1.792,6.191,3.545,12.394,5.252,18.383
	c1.909-6.664,3.87-13.513,5.782-20.19c3.185-0.618,14.603-0.482,16.618,0.201c1.19,7.137,2.402,14.399,3.694,22.144
	c0.026-7.771-0.021-15.054,0.03-22.519c5.488,0,10.575,0,15.894,0c0.1,1.184,0.256,2.198,0.259,3.211
	c0.023,6.109,0.01,12.218,0.014,18.327c0.001,1.447-0.043,2.897,0.041,4.339c0.154,2.629,1.454,3.903,3.895,3.939
	c2.503,0.037,3.724-1.116,3.975-3.816c0.074-0.798,0.043-1.606,0.043-2.41c0.003-6.833-0.009-13.665,0.015-20.498
	c0.004-1.003,0.172-2.007,0.287-3.264c5.346,0.008,10.436-0.142,15.921,0.101c0,3.058,0,5.783,0,8.507
	c0.167,0.044,0.334,0.089,0.501,0.133c3.438-4.845,8.223-7.599,13.811-9.104c3.536,0,7.074,0,10.611,0
	c0.962,0.333,1.924,0.665,2.884,0.998c0,5.126,0,10.065,0,15.253c-1.629-0.673-2.982-1.36-4.412-1.797
	c-4.252-1.298-8.858,1.038-10.146,5.054c-1.412,4.407,0.983,8.833,5.505,10.29c2.46,0.793,4.752,0.278,7.023-0.667
	c0.619-0.258,1.235-0.522,2.051-0.867c0,5.197,0,10.061,0,15.125c-1.102,0.261-2.09,0.52-3.091,0.726
	c-1.09,0.224-1.718,0.803-1.712,1.967c0.004,0.723-0.023,1.446-0.023,2.169c-0.003,7.475,0.018,14.95-0.017,22.424
	c-0.009,1.812-0.194,3.625-0.307,5.579c6.009-10.66,11.85-21.136,17.623-32.351c-3.229,0-5.831,0-8.543,0
	c-0.098-1.057-0.219-1.761-0.219-2.466c-0.011-12.86-0.013-25.72,0.005-38.58c0.001-0.761,0.188-1.521,0.317-2.505
	c5.183,0.036,10.114-0.152,15.16,0.11c0.576,4.933-0.127,9.583,0.442,14.15c3.006,0,5.682,0,8.511,0
	c0.433-4.809-0.19-9.455,0.398-14.204c5.27-0.09,10.198-0.146,15.29,0.02c0.077,1.42,0.181,2.444,0.182,3.469
	c0.012,12.217-0.014,24.434,0.042,36.65c0.006,1.166,0.496,2.329,0.76,3.493c0.163,0.02,0.324,0.04,0.486,0.06
	c-8.323,12.963-16.646,25.926-24.977,38.903c0.625,0.996,1.11,1.823,1.646,2.616c7.777,11.523,15.558,23.045,23.35,34.558
	c0.762,1.127,1.606,2.199,2.412,3.297c0,0.482,0,0.964,0,1.446c-10.766,0.03-21.532,0.04-32.298,0.11
	c-1.517,0.01-2.319-0.716-3.01-1.937c-4.544-8.042-9.131-16.061-13.703-24.088c-1.171-2.057-2.34-4.114-3.555-6.249
	c0,5.521,0.03,10.809-0.009,16.096c-0.038,5.265,0.181,10.54-0.141,15.68c-3.025,0.776-26.846,0.619-28.623-0.084
	c-0.592-2.789-0.43-79.044,0.287-81.157c4.929,0,9.983,0,15.037,0c0.033-0.157,0.066-0.314,0.101-0.471
	c-4.532-1.835-7.822-5.137-10.674-9.375c-2.227,5.31-5.868,8.484-10.614,10.008c0.208,1.23,0.528,2.268,0.534,3.307
	c0.043,7.955,0.027,15.91,0.018,23.866c0,0.772-0.079,1.544-0.146,2.754c-1.167-0.667-1.981-1.118-2.782-1.594
	c-3.446-2.046-7.073-3.318-11.181-3.173c-6.369,0.227-12.149,4.438-14.181,10.543c-2.009,6.042,0.085,13.053,5.186,16.855
	c6.394,4.767,13.119,4.407,19.962,1.027c0.907-0.446,1.79-0.942,2.98-1.571c0,9.679,0,18.954,0,28.381
	c-0.914,0.279-1.727,0.598-2.569,0.772c-2.193,0.455-4.399,0.847-6.601,1.264c-4.983,0-9.967,0-14.951,0
	c-0.304-0.099-0.601-0.231-0.912-0.29c-15.051-2.876-25.569-11.347-31.496-25.494c-0.236-0.562-0.503-1.113-0.895-1.977
	c-0.421,0.856-0.72,1.394-0.956,1.957c-4.568,10.882-12.449,18.405-23.393,22.62c-3.642,1.403-7.539,2.141-11.319,3.184
	c-4.984,0-9.968,0-14.952,0c-2.037-0.435-4.103-0.764-6.105-1.318c-16.968-4.699-27.654-15.34-30.958-32.903
	c-0.214-1.137-0.347-2.288-0.542-3.608c-1.859,1.112-3.38,2.154-5.015,2.964c-1.657,0.822-3.428,1.417-5.162,2.116
	c1.47,1.56,2.929,2.752,3.944,4.246c5.645,8.311,11.188,16.69,16.749,25.057c0.416,0.625,0.704,1.335,1.236,2.363
	c-1.292,0.093-2.144,0.206-2.997,0.207c-9.486,0.013-18.972-0.043-28.456,0.049c-2.046,0.019-3.2-0.656-4.084-2.52
	c-3.273-6.895-6.689-13.722-10.062-20.57c-0.297-0.604-0.659-1.176-0.991-1.763c-0.096,0.034-0.192,0.068-0.289,0.104
	c0,0.799,0,1.597,0,2.396c0,6.432,0.01,12.862-0.006,19.293c-0.007,2.85-0.162,3.009-2.996,3.015
	c-7.878,0.015-15.756,0.01-23.634-0.003c-0.784-0.001-1.568-0.109-2.259-0.16c-0.853-2.271-0.874-79.038-0.048-81.383
	c1.565-0.142,3.197-0.289,5.058-0.457c0.005-9.522,0.029-18.794-0.015-28.291c-1.428,0-2.451-0.027-3.471,0.006
	c-1.681,0.056-3.361,0.15-5.042,0.229c0-4.823,0-9.646,0-14.47c0.318-0.042,0.635-0.121,0.953-0.122
	c10.036-0.011,20.072-0.02,30.108-0.008c0.618,0,1.235,0.162,2.207,0.298c0.062,2.484,0.123,4.891,0.192,7.63
	c1.133-1.083,1.922-1.867,2.742-2.619c3.292-3.021,7.335-4.515,11.547-5.662c3.698,0,7.396,0,11.093,0
	c0.454,0.147,0.902,0.319,1.363,0.439c7.091,1.84,12.379,5.865,15.381,12.671c0.119,0.27,0.329,0.5,0.625,0.938
	c0.388-0.72,0.694-1.254,0.968-1.804c2.678-5.364,6.914-8.948,12.524-10.954C90.982,87.892,92.28,87.487,93.569,87.058z
	 M112.553,156.04c-8.874-0.484-14.654,7.432-14.563,15.154c0.107,8.968,6.063,15.105,14.834,15.204
	c8.689,0.099,14.461-6.535,14.481-14.897C127.326,162.979,121.516,155.719,112.553,156.04z M95.104,131.845
	c-8.729-1.547-15.376-5.787-18.895-14.447c-0.335,0.479-0.546,0.707-0.672,0.973c-3.777,8.075-10.322,12.179-18.983,13.269
	c-0.711,0.089-1.406,0.301-2.484,0.539c8.962,3.868,15.347,9.633,18,19.447C77.512,141.863,85.21,135.648,95.104,131.845z
	 M24.886,130.161c6.05,0,11.813,0,18.074,0c-5.737-2.476-9.773-6.091-12.121-11.4c-2.32-5.245-2.405-10.695-1.016-16.077
	c-2.078-1.155-2.512-1.2-4.937-0.557C24.886,111.328,24.886,120.581,24.886,130.161z M60.716,109.596
	c0.157-5-2.934-8.106-7.675-8.309c-4.088-0.175-7.451,3.447-7.548,7.772c-0.104,4.653,3.07,8.114,7.544,8.225
	C57.549,117.396,60.661,114.281,60.716,109.596z M99.17,117.287c4.387,0.01,7.857-3.355,7.67-7.823
	c-0.212-5.064-3.062-8.118-7.947-8.139c-3.938-0.017-7.115,2.657-7.438,7.884C91.174,113.727,94.722,117.277,99.17,117.287z
	 M272.097,116.237c-0.652,2.868-0.53,12.152,0.12,13.862c2.666,0,5.343,0,7.964,0c0.629-2.792,0.504-12.048-0.183-13.862
	C277.429,116.237,274.81,116.237,272.097,116.237z M32.552,166.275c2.614,0.331,4.909,0.37,7.104-0.586
	c2.45-1.067,3.677-2.977,3.697-5.676c0.02-2.718-0.93-4.917-3.456-6.113c-2.339-1.107-4.791-0.712-7.345-0.427
	C32.552,157.835,32.552,161.899,32.552,166.275z M187.429,129.852c1.718-0.227,3.143-0.414,4.56-0.601
	c-1.896-1.612-3.702-3.146-5.686-4.832C186.699,126.331,187.046,128.003,187.429,129.852z"/>
<path fill-rule="evenodd" clip-rule="evenodd" fill="#D7C656" d="M253.387,104.625c-0.259-0.574-0.737-1.146-0.741-1.721
	c-0.032-4.646,0.022-9.292,0.063-13.937c0.001-0.136,0.147-0.27,0.388-0.684c0.39,0.293,0.892,0.494,1.078,0.856
	c0.203,0.393,0.142,0.938,0.144,1.417c0.007,4.088,0.013,8.176-0.006,12.264c-0.004,0.539-0.146,1.077-0.224,1.615
	C253.854,104.499,253.621,104.562,253.387,104.625z"/>
<path fill-rule="evenodd" clip-rule="evenodd" fill="#D7C656" d="M252.645,130.072c-0.117-4.792-0.056-9.488-0.021-14.182
	c0.003-0.454,0.184-0.938,0.4-1.345c0.124-0.233,0.486-0.339,0.951-0.636c0.141,0.7,0.329,1.204,0.332,1.709
	c0.024,4.098,0.028,8.195,0.003,12.292C254.305,128.805,254.513,129.918,252.645,130.072z"/>
<path fill-rule="evenodd" clip-rule="evenodd" fill="#D7C656" d="M216.541,162.715c-1.769-0.486-2.462-1.346-2.462-2.719
	c-0.002-8.922,0.006-17.843,0.03-26.764c0.001-0.377,0.205-0.753,0.323-1.162c1.508-0.273,2.164,0.394,2.243,1.775
	c0.027,0.481,0.028,0.964,0.028,1.446c0.002,8.279,0.005,16.557-0.006,24.836C216.697,160.913,216.605,161.698,216.541,162.715z"/>
<path fill-rule="evenodd" clip-rule="evenodd" fill="#D7C656" d="M216.486,180.116c0.08,0.709,0.208,1.318,0.209,1.928
	c0.013,8.496,0.02,16.99,0,25.486c-0.005,2.265-0.05,2.269-2.323,2.819c-0.108-0.769-0.302-1.51-0.304-2.251
	c-0.021-8.174-0.001-16.349-0.021-24.523C214.044,181.899,214.498,180.614,216.486,180.116z"/>
</svg>
