<?xml version="1.0" encoding="utf-8"?>
<!-- Generator: Adobe Illustrator 16.0.0, SVG Export Plug-In . SVG Version: 6.00 Build 0)  -->
<!DOCTYPE svg PUBLIC "-//W3C//DTD SVG 1.1//EN" "http://www.w3.org/Graphics/SVG/1.1/DTD/svg11.dtd">
<svg version="1.1" id="Layer_1" xmlns="http://www.w3.org/2000/svg" xmlns:xlink="http://www.w3.org/1999/xlink" x="0px" y="0px"
	 width="300px" height="300px" viewBox="0 0 300 300" enable-background="new 0 0 300 300" xml:space="preserve">
<path fill-rule="evenodd" clip-rule="evenodd" fill="#D7C656" d="M298.383,150.888c-0.374,18.534-3.426,36.537-10.412,53.614
	c-12.853,31.415-33.604,56.328-63.005,73.663c-5.446,3.212-11.03,6.409-16.928,8.595c-14.228,5.275-28.755,9.458-44.006,10.945
	c-12.79,1.246-25.472,0.837-38.088-1.12c-13.122-2.036-25.743-5.861-37.835-11.514c-20.259-9.472-37.621-22.65-52.055-39.7
	c-9.063-10.705-16.788-22.339-22.02-35.354C5.222,188.096,0.357,165.33,1.901,141.566c1.068-16.449,4.368-32.469,10.901-47.711
	c9.599-22.398,23.5-41.626,42.187-57.342c11.437-9.619,23.896-17.775,37.85-23.005c10.247-3.839,21.001-6.585,31.742-8.784
	c18.308-3.749,36.721-3.195,55.061,0.519c32.557,6.594,59.52,22.8,81.63,47.328c10.74,11.916,19.544,25.221,25.312,40.182
	c4.595,11.913,8.476,24.164,9.793,37.009C297.098,136.796,297.717,143.845,298.383,150.888z M283.403,151.173
	c-0.029-14.802-2.976-33.457-7.79-46.702c-3.585-9.863-8.274-19.232-14.273-27.871c-22.699-32.688-53.479-52.45-93.027-58.462
	c-21.998-3.344-43.303-0.118-64.127,6.513c-13.269,4.225-25.208,11.435-36.179,20.082C49.804,59.082,36.156,76.892,26.932,98.196
	c-5.468,12.628-8.656,25.744-10.022,39.382c-1.337,13.331-0.464,26.507,2.371,39.585c2.523,11.643,5.653,23.099,11.224,33.697
	c9.721,18.495,22.86,34.103,39.669,46.618c11.512,8.569,24.09,15.163,37.64,19.622c7.77,2.556,15.953,4.022,24.05,5.39
	c22.5,3.799,44.309-0.105,65.575-7.236c7.126-2.39,13.89-6.165,20.411-10.002c28.538-16.784,47.679-41.415,58.741-72.354
	C281.388,179.488,283.384,165.45,283.403,151.173z"/>
<path fill-rule="evenodd" clip-rule="evenodd" fill="#D7C656" d="M277.882,149.682c0.251,25.275-6.331,47.467-18.878,67.787
	c-13.571,21.979-32.171,38.507-55.633,49.543c-10.142,4.77-20.882,7.444-31.775,9.406c-20.558,3.702-40.974,2.55-60.838-3.967
	c-20.193-6.626-37.881-17.518-52.795-32.805c-12.933-13.255-23.14-28.373-28.911-45.921c-6.053-18.409-8.649-37.401-6.638-56.967
	c1.992-19.37,8.255-37.173,18.317-53.611c10.213-16.685,23.717-30.354,40.211-40.989c8.604-5.548,17.622-10.376,27.437-13.26
	c17.914-5.263,36.145-7.991,54.935-5.934c9.135,1,18.117,2.62,26.754,5.593c11.263,3.878,21.933,9.085,31.825,15.837
	c15.892,10.85,28.983,24.396,38.534,41.058c4.469,7.793,8.589,16.033,11.204,24.579C275.68,123.26,278.4,136.908,277.882,149.682z
	 M275.155,151.012c0.258-13.679-2.311-27.028-6.125-39.976c-4.146-14.069-11.554-26.688-20.732-38.203
	c-11.786-14.79-26.152-26.447-43.07-34.78c-12.579-6.196-25.843-10.221-39.896-11.979c-19.088-2.388-37.583,0.197-55.773,5.506
	c-10.07,2.939-19.336,7.938-28.105,13.751C62.086,58.171,47.283,75.044,37.109,95.916c-6,12.31-9.765,25.252-11.55,38.911
	c-2.531,19.364,0.17,38.133,5.754,56.507c4.084,13.441,11.313,25.427,20.054,36.45c11.799,14.879,26.244,26.549,43.245,34.901
	c12.51,6.146,25.698,10.099,39.645,11.912c19.361,2.52,38.091-0.3,56.511-5.669c9.796-2.855,18.775-7.837,27.327-13.489
	c25.71-16.998,42.796-40.483,52.061-69.683C273.721,174.516,274.995,162.805,275.155,151.012z"/>
<path fill-rule="evenodd" clip-rule="evenodd" fill="#D7C656" d="M221.385,178.843c-2.779,2.625-5.623,5.185-8.324,7.888
	c-4.984,4.991-9.811,10.143-14.875,15.053c-1.189,1.154-3.014,2.157-4.621,2.286c-4.412,0.354-6.567-2.949-5.057-7.369
	c1.82-5.324,3.766-10.604,5.568-15.934c1.08-3.195,1.99-6.447,2.412-10.021c-0.969,1.07-1.977,2.106-2.897,3.215
	c-7.359,8.879-14.707,17.767-22.048,26.661c-1.639,1.986-3.667,3.052-6.283,2.997c-2.327-0.051-4.656-0.011-7.393-0.011
	c4.998-16.104,9.924-31.971,14.863-47.891c-14.425-2.608-23.804,3.974-26.07,17.324c-1.533,9.036-1.142,18.39-1.788,27.589
	c-0.821,11.672-2.444,23.198-8.021,33.734c-1.199,2.266-2.668,4.461-4.368,6.374c-2.884,3.248-8.054,4.003-11.546,2.014
	c-4.029-2.295-5.987-6.648-4.909-10.919c1.058-4.188,4.997-7.107,9.624-7.133c6.475-0.035,11.208-3.927,12.877-10.269
	c3.3-12.527,2.199-25.106,0.462-37.659c-0.98-7.091-2.504-14.104-3.696-21.164c-0.647-3.84-0.623-3.869-4.538-3.91
	c-4.395-0.044-8.821,0.155-13.172-0.316c-5-0.542-6.053-2.757-4.227-7.448c2.137-5.487,4.252-10.982,5.899-16.904
	c-1.129,0.965-2.305,1.881-3.381,2.903c-5.255,4.996-10.509,9.995-15.702,15.054c-1.339,1.306-2.296,3.034-3.725,4.208
	c-1.433,1.178-3.166,2.509-4.891,2.708c-4.198,0.487-6.378-2.331-5.299-6.414c0.799-3.024,1.753-6.011,2.748-8.979
	c1.729-5.158,3.55-10.286,5.307-15.434c0.216-0.632,0.27-1.32-0.122-2.285c-2.677,3.164-5.379,6.308-8.028,9.495
	c-5.429,6.532-10.726,13.18-16.321,19.565c-1.303,1.487-3.488,2.619-5.447,3.01c-2.565,0.511-5.31,0.125-8.566,0.125
	c4.982-15.889,9.879-31.505,14.887-47.476c-7.11,0-13.804,0-21.291,0c2.131-3.719,3.913-6.945,5.853-10.072
	c0.251-0.406,1.32-0.416,2.011-0.418c8.168-0.031,16.337-0.089,24.505-0.006c4.978,0.05,6.381,2.229,4.872,6.936
	c-2.458,7.667-4.84,15.358-7.223,23.05c-0.198,0.637-0.152,1.348-0.3,2.843c3.005-3.335,5.509-6.077,7.973-8.855
	c3.799-4.284,7.609-8.56,11.34-12.902c2.216-2.579,4.956-3.998,8.307-4.378c4.607-0.524,7.316,2.898,5.804,7.274
	c-2.33,6.747-4.592,13.517-6.862,20.284c-0.157,0.467-0.146,0.99-0.306,2.182c4.329-3.813,8.205-7.179,12.022-10.608
	c2.792-2.509,5.524-5.084,8.252-7.664c2.214-2.094,4.903-2.587,7.741-2.124c3.538,0.577,5.658,3.98,4.46,7.473
	c-2.059,6.001-4.396,11.908-6.632,17.85c-1.253,3.329-2.538,6.646-3.931,10.294c1.006,0.139,1.756,0.323,2.508,0.333
	c2.962,0.037,5.953-0.242,8.88,0.073c5.884,0.633,9.681-2.417,12.793-6.769c2.987-4.177,4.546-8.907,4.827-14.028
	c0.561-10.303,0.772-20.634,1.695-30.903c0.971-10.769,3.425-21.222,9.751-30.326c3.738-5.381,9.857-6.849,14.428-3.593
	c3.437,2.45,4.984,6.819,3.774,10.661c-1.338,4.248-4.974,6.841-9.546,6.81c-6.074-0.042-10.065,2.724-12.153,8.432
	c-3.125,8.541-3.477,17.428-2.526,26.289c1.117,10.415,2.877,20.76,4.368,31.135c0.224,1.562,1.043,2.288,2.733,2.26
	c4.847-0.081,9.695-0.062,14.541-0.017c5.418,0.05,6.771,1.789,5.245,7.012c-2.232,7.643-4.62,15.238-6.931,22.856
	c-0.198,0.652-0.311,1.33,0.055,2.354c1.571-1.697,3.173-3.365,4.704-5.095c4.623-5.221,9.24-10.446,13.813-15.707
	c2.687-3.087,5.882-4.896,10.106-4.608c3.221,0.219,5.485,2.727,4.574,5.816c-1.64,5.559-3.677,10.998-5.521,16.497
	c-0.728,2.172-1.387,4.366-1.553,6.929c1.45-1.226,2.938-2.41,4.342-3.685c5.094-4.627,10.146-9.299,15.251-13.916
	c0.783-0.707,1.674-1.432,2.646-1.766c2.97-1.022,6.002-1.519,8.514,1.059c2.472,2.533,1.73,5.519,0.68,8.308
	c-2.865,7.613-5.901,15.162-8.84,22.747c-0.349,0.897-0.526,1.862-0.91,3.266c6.218,0,12.134,0,18.141,0
	c-0.992,3.926-4.027,6.24-8.875,6.412c-6.365,0.226-12.748,0.212-19.114,0.025c-4.312-0.127-5.9-2.632-4.439-6.743
	c1.826-5.139,3.871-10.2,5.819-15.296c0.28-0.73,0.545-1.467,0.816-2.203C221.736,179.14,221.559,178.991,221.385,178.843z"/>
</svg>
