<?xml version="1.0" encoding="utf-8"?>
<!-- Generator: Adobe Illustrator 16.0.0, SVG Export Plug-In . SVG Version: 6.00 Build 0)  -->
<!DOCTYPE svg PUBLIC "-//W3C//DTD SVG 1.1//EN" "http://www.w3.org/Graphics/SVG/1.1/DTD/svg11.dtd">
<svg version="1.1" id="Layer_1" xmlns="http://www.w3.org/2000/svg" xmlns:xlink="http://www.w3.org/1999/xlink" x="0px" y="0px"
	 width="300px" height="300px" viewBox="0 0 300 300" enable-background="new 0 0 300 300" xml:space="preserve">
<path fill="#D7C656" d="M299.891,299.209c-99.88,0-199.76,0-299.891,0c0-99.666,0-199.333,0-299
	c1.332-0.067,2.663-0.192,3.995-0.192c96.886-0.015,193.771-0.021,290.657-0.015c1.622,0,3.244,0.154,5.348,0.261
	c0,2.072,0,3.866,0,5.66c0.001,95.931,0.002,191.862-0.003,287.794C299.996,295.549,299.928,297.379,299.891,299.209z M291.39,8.556
	c-94.765,0-188.906,0-283.006,0c0,94.19,0,187.926,0,281.817c94.471,0,188.631,0,283.006,0
	C291.39,196.297,291.39,102.565,291.39,8.556z"/>
<path fill-rule="evenodd" clip-rule="evenodd" fill="#D7C656" d="M15.613,15.403c89.694,0,178.933,0,268.499,0
	c0,89.248,0,178.332,0,267.783c-89.488,0-178.812,0-268.499,0C15.613,193.957,15.613,104.896,15.613,15.403z M224.675,175.055
	c9.111,0,17.768,0.309,26.389-0.102c6.479-0.309,11.22-4.133,14.11-9.801c2.93-5.746,4.004-11.975,3.123-18.408
	c-1.378-10.072-6.619-16.5-16.589-17.971c-8.781-1.297-17.81-0.93-27.033-1.311C224.675,143.811,224.675,159.199,224.675,175.055z
	 M96.292,126.955c-15.619-0.18-24.952,9.182-24.72,24.795c0.18,12.105,5.116,19.85,14.873,22.799
	c5.795,1.752,11.742,2.266,17.776,1.012c8.674-1.801,14.479-6.943,16.597-15.391C124.673,144.791,120.277,126.812,96.292,126.955z
	 M204.502,175.041c4.442,0,8.565,0,12.847,0c0-15.816,0-31.365,0-46.926c-2.42,0-4.517,0-7.097,0c0,8.98,0,17.674,0,26.367
	c-0.292,0.094-0.584,0.189-0.877,0.283c-6.825-8.936-13.651-17.871-20.261-26.525c-4.504,0-8.576,0-12.695,0
	c0,15.855,0,31.271,0,46.773c2.367,0,4.457,0,7.06,0c0-8.785,0-17.312,0-26.031c0.804,0.318,1.198,0.35,1.359,0.559
	C191.359,157.971,197.859,166.418,204.502,175.041z M156.026,107.688c2.031,0,3.685,0.004,5.337,0
	c5.514-0.014,11.037,0.164,16.54-0.094c6.802-0.318,12.077-3.726,14.185-10.097c1.576-4.764,2.33-10.115,2.009-15.113
	c-0.531-8.273-5.418-13.836-13.563-15.102c-7.955-1.236-16.129-1.075-24.507-1.544C156.026,80.176,156.026,93.617,156.026,107.688z
	 M127.792,128.059c0,10.998-0.315,21.785,0.11,32.543c0.288,7.254,5.739,13.244,13.026,14.492c4.669,0.799,9.659,0.912,14.337,0.215
	c8.364-1.244,13.552-6.83,13.92-15.215c0.467-10.594,0.113-21.225,0.113-31.934c-2.437,0-4.648,0-7.135,0
	c0,5.479,0.036,10.617-0.01,15.756c-0.049,5.484,0.127,10.994-0.358,16.441c-0.456,5.125-4.063,7.885-9.202,7.895
	c-4.734,0.01-7.733-2.846-8.333-8.102c-0.226-1.975-0.233-3.98-0.238-5.973c-0.023-8.619-0.011-17.24-0.011-26.119
	C138.524,128.059,133.279,128.059,127.792,128.059z M97.549,108.668c9.553-0.223,15.905-3.527,19.109-11.101
	c3.636-8.593,3.407-17.195-2.129-25.102c-1.097-1.567-2.754-2.984-4.47-3.844c-7.289-3.651-14.917-4.469-22.752-1.857
	c-4.654,1.552-7.928,4.629-10.144,9.026c-2.605,5.168-2.519,10.588-1.925,16.069c0.834,7.723,5.902,13.653,13.436,15.537
	C91.559,108.117,94.586,108.262,97.549,108.668z M46.031,138.707c6.299-8.17,11.576-1.785,17.027-0.475
	c0.559-2.934,1.07-5.619,1.602-8.408c-7.222-3.051-14.06-3.74-21.031-1.766c-6.89,1.951-10.396,6.938-11.218,13.801
	c-0.747,6.244,2.545,10.449,7.669,13.416c2.155,1.248,4.519,2.131,6.745,3.266c1.745,0.891,3.423,1.912,4.888,2.738
	c0.505,5.809-2.464,8.35-7.957,6.715c-3.231-0.961-6.165-2.918-9.574-4.594c-0.685,2.957-1.349,5.826-1.988,8.584
	c7.06,4.189,16.828,5.4,23.899,3.111c6.427-2.08,10.615-7.748,11.269-15.047c0.611-6.801-2.321-11.545-8.32-14.502
	c-2.385-1.176-4.948-1.996-7.326-3.186C50.039,141.521,48.533,140.336,46.031,138.707z M261.917,89.079
	c-0.387,0.152-0.772,0.303-1.159,0.455c-5.904-7.762-11.809-15.521-17.489-22.988c-3.974,0-7.551,0-11.247,0
	c0,13.799,0,27.202,0,40.818c2.112,0,3.978,0,6.264,0c0-7.763,0-15.144,0-22.525c0.259-0.088,0.518-0.177,0.777-0.266
	c5.908,7.713,11.817,15.424,17.506,22.849c4.094,0,7.7,0,11.266,0c0-13.853,0-27.402,0-40.963c-2.104,0-3.86,0-5.917,0
	C261.917,74.186,261.917,81.632,261.917,89.079z M55.64,101.59c-5.043,0.339-7.531-0.982-8.157-5.506
	c-0.674-4.873-0.862-9.973-0.204-14.832c1.077-7.949,7.697-11.236,15.277-8.191c1.614,0.647,3.166,1.45,5.025,2.311
	c0-2.906,0-5.316,0-8.246c-4.014-0.541-7.771-1.364-11.552-1.5c-15.669-0.563-24.455,8.179-24.139,23.768
	c0.013,0.666,0.023,1.334,0.083,1.996c0.597,6.666,3.713,11.689,9.925,14.448c9.095,4.04,18.138,2.713,27.068-0.138
	c0-7.08,0-13.671,0-20.359c-4.509,0-8.706,0-13.327,0C55.64,91.081,55.64,96.356,55.64,101.59z M205.577,195.928
	c0,11.646,0,23.299,0,35.225c6.555,0,12.722,0.312,18.84-0.09c6.007-0.393,10.341-3.787,12.205-9.535
	c1.008-3.109,1.513-6.5,1.56-9.773c0.126-8.602-4.955-14.775-13.543-15.697C218.425,195.393,212.082,195.928,205.577,195.928z
	 M57.149,215.123c1.218-1.154,2.3-1.963,3.113-2.986c4.617-5.805,1.676-15.203-5.537-16.084c-6.658-0.814-13.495-0.174-20.275-0.174
	c0,11.803,0,23.354,0,34.996c4.064,0,7.785,0,11.88,0c0-4.201,0-8.055,0-11.908c0.236-0.033,0.474-0.064,0.71-0.096
	c1.283,4.045,2.566,8.09,3.821,12.049c4.467,0,8.529,0,13.131,0C61.625,225.457,59.464,220.467,57.149,215.123z M194.301,215.264
	c1.372-1.484,2.53-2.48,3.371-3.693c4.197-6.051,1.098-14.744-6.046-15.555c-6.548-0.744-13.247-0.158-20.001-0.158
	c0,11.812,0,23.377,0,34.998c4.062,0,7.784,0,12.033,0c0-3.994,0-7.615,0-11.236c0.232,0.004,0.464,0.006,0.695,0.01
	c1.191,3.762,2.384,7.523,3.571,11.275c4.34,0,8.412,0,13.13,0C198.687,225.42,196.533,220.434,194.301,215.264z M128.051,213.516
	c-0.083,11.908,6.661,18.35,19.3,18.432c11.297,0.076,18.293-6.994,18.314-18.504c0.022-12.328-6.394-18.377-19.662-18.539
	C134.634,194.766,128.135,201.502,128.051,213.516z M225.774,66.53c-8.698,0-17.092,0-25.622,0c0,13.818,0,27.221,0,40.816
	c8.716,0,17.121,0,25.607,0c0-2.107,0-3.865,0-5.864c-3.996-0.192-7.719-0.371-11.347-0.546c0-4.002,0-7.414,0-11.243
	c3.935,0,7.548,0,11.339,0c0-2.126,0-3.815,0-6.03c-3.973,0-7.559,0-11.067,0c0-4.066,0-7.592,0-11.463c3.949,0,7.407,0,11.09,0
	C225.774,70.102,225.774,68.368,225.774,66.53z M124.839,66.36c0,14.007,0,27.525,0,41.001c8.639,0,16.885,0,25.105,0
	c0-2.154,0-3.91,0-5.919c-3.875-0.182-7.417-0.348-11.405-0.535c0-11.832,0-23.07,0-34.547
	C133.775,66.36,129.502,66.36,124.839,66.36z M241.409,228.824c6.495,2.998,11.496,3.684,16.711,2.52
	c5.434-1.215,8.946-5.109,9.668-10.725c0.735-5.711-1.285-9.352-6.749-12.031c-1.495-0.732-3.118-1.215-4.58-2
	c-1.368-0.732-2.602-1.717-4.211-2.803c4.203-6.582,8.394-0.848,12.405-0.625c0.458-2.172,0.854-4.057,1.231-5.842
	c-5.529-2.365-11.207-2.938-15.521-1.723c-4.798,1.354-8.001,5.045-8.626,9.92c-0.63,4.924,1.601,8.352,5.735,10.693
	c1.732,0.982,3.648,1.643,5.394,2.604c1.383,0.762,2.635,1.762,3.831,2.578c-2.216,5.873-3.355,5.928-13.69,1.051
	C242.482,224.535,241.973,226.574,241.409,228.824z M89.453,195.928c-7.577,0-14.771,0-21.892,0c0,11.943,0,23.357,0,34.947
	c7.489,0,14.691,0,21.926,0c0-1.826,0-3.268,0-4.967c-3.408-0.246-6.618-0.477-9.696-0.699c0-3.48,0-6.359,0-9.773
	c3.469,0,6.551,0,10.116,0c-0.271-1.955-0.454-3.289-0.631-4.57c-3.504-0.174-6.443-0.32-9.474-0.471c0-3.383,0-6.268,0-9.34
	c3.445-0.188,6.546-0.354,9.994-0.541C89.659,198.676,89.554,197.27,89.453,195.928z M124.176,223.01
	c-1.864,0.904-3.012,1.531-4.213,2.031c-5.78,2.404-10.533,0.289-11.721-5.857c-0.737-3.822-0.843-7.998-0.134-11.811
	c1.103-5.936,5.735-8.01,11.405-5.82c1.436,0.555,2.803,1.289,4.435,2.049c0-2.727,0-4.814,0-6.756
	c-9.923-3.945-21.912-1.531-26.422,5.113c-4.482,6.6-3.916,19,1.117,24.438c5.364,5.797,18.024,7.203,25.534,2.822
	C124.176,227.424,124.176,225.617,124.176,223.01z"/>
<path fill-rule="evenodd" clip-rule="evenodd" fill="#D7C656" d="M240.954,167.701c0-10.703,0-21.279,0-32.24
	c3.852-0.828,6.729,0.898,8.094,4.029c3.281,7.521,4.255,15.379,0.871,23.184C248.351,166.291,245.483,168.305,240.954,167.701z"/>
<path fill-rule="evenodd" clip-rule="evenodd" fill="#D7C656" d="M87.882,152.061c0.629-4.539,0.854-8.207,1.694-11.73
	c1.099-4.615,3.376-6.443,7.049-6.475c3.852-0.033,6.419,2.033,7.649,6.555c1.831,6.721,1.23,13.508,0.122,20.262
	c-0.239,1.455-0.753,2.885-1.283,4.271c-1.062,2.779-3.173,4.244-6.137,4.25c-3.105,0.004-5.78-1.287-6.592-4.336
	C89.199,160.412,88.591,155.814,87.882,152.061z"/>
<path fill-rule="evenodd" clip-rule="evenodd" fill="#D7C656" d="M170.426,100.995c0-9.633,0-18.859,0-28.254
	c4.191-0.289,6.507,1.77,7.733,5.174c1.898,5.273,2.276,10.735,1.076,16.197C178.197,98.842,175.705,100.735,170.426,100.995z"/>
<path fill-rule="evenodd" clip-rule="evenodd" fill="#D7C656" d="M104.75,85.803c-0.666,4.246-1.063,8.05-1.91,11.75
	c-0.63,2.758-2.388,4.755-5.582,4.805c-3.241,0.049-5.325-1.46-6.307-4.569c-2.271-7.196-2.079-14.423-0.099-21.6
	c0.741-2.689,2.503-4.688,5.652-4.797c3.309-0.114,5.51,1.704,6.375,4.583C103.867,79.266,104.198,82.752,104.75,85.803z"/>
<path fill-rule="evenodd" clip-rule="evenodd" fill="#D7C656" d="M217.901,201.459c5.556,0.516,7.607,3.777,7.817,12.117
	c0.193,7.65-1.844,10.885-7.817,11.742C217.901,217.334,217.901,209.41,217.901,201.459z"/>
<path fill-rule="evenodd" clip-rule="evenodd" fill="#D7C656" d="M46.398,212.58c0-4.516,0-8.031,0-11.582
	c3.105-0.232,3.553,1.824,3.674,3.811C50.237,207.514,50.401,210.379,46.398,212.58z"/>
<path fill-rule="evenodd" clip-rule="evenodd" fill="#D7C656" d="M183.267,212.285c0-2.971-0.033-5.061,0.012-7.148
	c0.027-1.273,0.176-2.545,0.272-3.869c3.101-0.328,3.523,1.762,3.621,3.682C187.309,207.592,187.607,210.52,183.267,212.285z"/>
<path fill-rule="evenodd" clip-rule="evenodd" fill="#D7C656" d="M144.836,200.135c1.526,0.084,2.989,0.166,4.116,0.229
	c3.489,2.32,4.062,5.689,4.15,8.965c0.101,3.775-0.222,7.604-0.78,11.348c-0.729,4.881-2.839,6.145-7.955,5.361
	C138.864,220.246,138.899,206.398,144.836,200.135z"/>
</svg>
