<?xml version="1.0" encoding="utf-8"?>
<!-- Generator: Adobe Illustrator 16.0.0, SVG Export Plug-In . SVG Version: 6.00 Build 0)  -->
<!DOCTYPE svg PUBLIC "-//W3C//DTD SVG 1.1//EN" "http://www.w3.org/Graphics/SVG/1.1/DTD/svg11.dtd">
<svg version="1.1" id="Layer_1" xmlns="http://www.w3.org/2000/svg" xmlns:xlink="http://www.w3.org/1999/xlink" x="0px" y="0px"
	 width="300px" height="300px" viewBox="0 0 300 300" enable-background="new 0 0 300 300" xml:space="preserve">
<path fill-rule="evenodd" clip-rule="evenodd" fill="#D7C656" d="M153.438,93.788c1.326,0.185,2.659,0.332,3.978,0.562
	c6.891,1.205,13.032,4.047,18.397,8.54c5.558,4.654,9.538,10.44,12.212,17.151c0.119,0.298,0.193,0.614,0.287,0.922
	c-0.029,0.025-0.06,0.05-0.09,0.075c-0.592-1.178-1.14-2.381-1.783-3.53c-4.782-8.535-11.831-14.45-20.906-18.005
	c-2.534-0.993-5.134-1.813-7.831-2.147c-3.455-0.428-6.764,0.037-9.625,2.267c-0.292,0.228-0.604,0.431-0.906,0.645
	c0.043,0.101,0.087,0.201,0.13,0.302c0.275,0.119,0.541,0.28,0.828,0.349c0.701,0.167,1.411,0.303,2.12,0.431
	c0.55,0.099,0.945,0.367,1.238,0.86c0.17,0.286,0.446,0.541,0.732,0.715c0.349,0.213,0.627,0.033,0.68-0.378
	c0.025-0.196,0.001-0.398,0.025-0.594c0.079-0.617,0.15-0.7,0.728-0.933c-0.304-0.347-0.679-0.668-0.896-1.073
	c-0.1-0.186,0.109-0.538,0.17-0.781c0.482,0.053,0.87,0.114,1.259,0.133c0.663,0.032,1.183,0.363,1.666,0.766
	c0.572,0.477,1.152,0.707,1.847,0.068c1.408,0.906,2.803,1.804,4.196,2.702c-0.245,0.591-0.521,0.794-1.192,0.747
	c-0.544-0.038-1.08-0.169-1.621-0.248c-0.264-0.038-0.531-0.049-0.849-0.077c-0.467,1.375,0.943,1.304,1.408,1.962
	c-0.568,0.686-1.384,0.666-2.198,0.756c-0.176,0.731-0.532,1.316-1.277,1.618c-0.2,0.082-0.351,0.345-0.469,0.556
	c-0.219,0.391-0.433,0.791-0.583,1.21c-0.445,1.247-1.322,2.084-2.455,2.697c-0.176,0.095-0.346,0.199-0.513,0.308
	c-0.676,0.446-0.805,0.848-0.516,1.657c0.209,0.585,0.452,1.159,0.649,1.749c0.178,0.533,0.198,1.07-0.129,1.603
	c-0.606-0.084-0.9-0.521-1.105-1.001c-0.213-0.501-0.335-1.041-0.517-1.557c-0.251-0.716-0.523-0.877-1.244-0.634
	c-0.615,0.208-1.216,0.255-1.828,0.072c-0.618-0.185-1.164-0.041-1.724,0.235c-0.261,0.128-0.595,0.141-0.898,0.147
	c-0.545,0.011-1.098-0.08-1.637-0.022c-0.855,0.092-1.605,0.478-2.001,1.267c-0.41,0.816-0.739,1.678-1.04,2.541
	c-0.272,0.782-0.029,1.519,0.364,2.214c0.972,1.722,0.973,1.688,2.936,1.42c0.842-0.115,1.262-0.596,1.601-1.273
	c0.194-0.387,0.426-0.755,0.608-1.074c0.688,0.131,1.241,0.236,1.822,0.346c-0.368,1.042-0.726,2.057-1.102,3.12
	c-0.277,0.021-0.545,0.058-0.812,0.059c-2.217,0.004-4.435-0.003-6.652,0.006c-0.595,0.003-1.104-0.142-1.589-0.521
	c-0.512-0.4-1.104-0.699-1.709-0.932c-0.123-0.326-0.246-0.652-0.404-1.072c0.074-0.156,0.189-0.4,0.333-0.706
	c-1.139-2.087-2.497-4.135-2.741-6.656c-0.47,0.064-0.435,0.375-0.393,0.621c0.087,0.514,0.213,1.022,0.34,1.528
	c0.152,0.603,0.352,1.195,0.474,1.804c0.106,0.53,0.12,1.073-0.299,1.705c-0.183-0.336-0.326-0.549-0.419-0.781
	c-0.322-0.803-0.469-1.678-1.106-2.345c-0.135-0.141-0.129-0.477-0.094-0.709c0.203-1.349-0.058-2.63-0.561-3.866
	c-0.172-0.423-0.192-0.801-0.069-1.224c0.422-1.451,1.018-2.805,2.043-3.945c0.298-0.332,0.592-0.687,0.797-1.079
	c0.188-0.358,0.265-0.778,0.375-1.175c0.331-1.189,0.839-2.279,1.687-3.199c0.312-0.337,0.582-0.714,0.861-1.081
	c0.19-0.249,0.364-0.51,0.489-0.822c-11.549,3.905-19.98,11.279-24.944,22.519c-0.047-0.027-0.094-0.055-0.141-0.082
	c0.34-0.869,0.664-1.744,1.022-2.604c2.21-5.299,5.217-10.083,9.32-14.127c5.391-5.312,11.859-8.583,19.282-9.97
	c1.537-0.288,3.104-0.419,4.656-0.626c0.146-0.02,0.287-0.067,0.431-0.102C148.854,93.788,151.146,93.788,153.438,93.788z"/>
<path fill-rule="evenodd" clip-rule="evenodd" fill="#D7C656" d="M261.078,206.511c-0.328-0.111-0.656-0.224-0.985-0.332
	c-2.682-0.886-3.786-3.305-3.458-5.746c0.382-2.847,2.374-4.532,5.47-4.688c1.792-0.09,3.472,0.287,4.841,1.547
	c0.961,0.886,1.458,2.006,1.493,3.308c0.017,0.644,0.027,1.305-0.101,1.929c-0.358,1.743-1.438,2.91-3.081,3.562
	c-0.391,0.155-0.792,0.282-1.189,0.422C263.071,206.511,262.074,206.511,261.078,206.511z M265.103,201.139
	c0.014-2.236-0.91-3.159-2.97-2.997c-1.007,0.079-1.66,0.603-1.974,1.55c-0.322,0.975-0.307,1.961-0.004,2.934
	c0.256,0.821,0.823,1.343,1.666,1.549c1.81,0.442,3.182-0.578,3.279-2.438C265.111,201.537,265.103,201.338,265.103,201.139z"/>
<path fill-rule="evenodd" clip-rule="evenodd" fill="#D7C656" d="M165.697,206.511c-0.143-0.038-0.283-0.089-0.428-0.114
	c-2.277-0.396-3.278-1.546-3.316-3.872c-0.025-1.518-0.012-3.036-0.004-4.555c0.004-0.645,0.065-1.296-0.613-1.888
	c1.511,0,2.853,0,4.162,0c-0.736,2.177-0.247,4.432-0.339,6.652c-0.027,0.653,0.408,1.095,1.033,1.32
	c0.661,0.239,1.324,0.223,1.973-0.021c0.586-0.22,0.945-0.65,0.95-1.297c0.015-1.867,0.033-3.733-0.001-5.6
	c-0.007-0.335-0.262-0.665-0.43-1.062c1.354,0,2.698,0,4.043,0c0.016,0.049,0.057,0.117,0.041,0.135
	c-0.514,0.573-0.463,1.271-0.458,1.967c0.011,1.443,0.008,2.887,0.002,4.33c-0.011,2.284-0.905,3.384-3.129,3.866
	c-0.167,0.036-0.331,0.091-0.497,0.137C167.69,206.511,166.693,206.511,165.697,206.511z"/>
<path fill-rule="evenodd" clip-rule="evenodd" fill="#D7C656" d="M277.224,206.511c-0.266-0.059-0.531-0.117-0.797-0.177
	c-1.989-0.445-2.939-1.594-2.965-3.634c-0.021-1.545-0.004-3.09-0.008-4.635c-0.001-0.665,0.131-1.363-0.508-1.927
	c1.415-0.183,2.77-0.123,4.177-0.048c-0.632,0.653-0.48,1.419-0.482,2.151c-0.005,1.37-0.011,2.74,0.003,4.111
	c0.012,1.169,0.46,1.711,1.615,1.829c0.478,0.049,0.997-0.039,1.461-0.184c0.606-0.189,0.9-0.698,0.905-1.327
	c0.016-1.819,0.032-3.639-0.006-5.456c-0.008-0.362-0.259-0.719-0.423-1.141c1.354,0,2.7,0,4.168,0
	c-0.801,0.888-0.502,1.908-0.529,2.873c-0.034,1.146-0.004,2.292-0.01,3.438c-0.012,2.454-0.998,3.614-3.406,4.019
	c-0.121,0.021-0.237,0.07-0.354,0.105C279.117,206.511,278.171,206.511,277.224,206.511z"/>
<path fill-rule="evenodd" clip-rule="evenodd" fill="#D7C656" d="M0.649,196.046c1.388,0,2.776,0,4.314,0
	c-0.827,0.886-0.53,1.881-0.556,2.818c-0.032,1.169-0.017,2.34-0.003,3.51c0.014,1.146,0.43,1.665,1.561,1.796
	c0.499,0.058,1.043-0.033,1.531-0.179c0.576-0.173,0.877-0.665,0.884-1.262c0.021-1.867,0.033-3.734-0.005-5.601
	c-0.006-0.335-0.264-0.665-0.433-1.06c1.372,0,2.719,0,4.2,0c-0.759,0.798-0.54,1.715-0.551,2.587c-0.017,1.245,0,2.49-0.005,3.734
	c-0.012,2.45-1,3.609-3.407,4.015c-0.121,0.021-0.236,0.07-0.354,0.105c-0.947,0-1.894,0-2.841,0
	c-0.118-0.035-0.233-0.084-0.354-0.104c-2.427-0.405-3.404-1.541-3.413-3.988c-0.006-1.59-0.02-3.181,0.008-4.771
	c0.011-0.587-0.112-1.076-0.577-1.453C0.649,196.146,0.649,196.096,0.649,196.046z"/>
<path fill-rule="evenodd" clip-rule="evenodd" fill="#D7C656" d="M177.807,206.511c0-1.189,0-2.379,0-3.692
	c0.278,0.129,0.47,0.21,0.655,0.304c1.28,0.644,2.608,1.11,4.064,1.114c0.148,0.001,0.302,0.007,0.447-0.02
	c0.358-0.065,0.688-0.203,0.754-0.611c0.07-0.436-0.252-0.638-0.586-0.754c-0.681-0.236-1.389-0.397-2.062-0.65
	c-0.649-0.244-1.304-0.509-1.896-0.862c-1.115-0.665-1.573-1.696-1.412-2.982c0.148-1.187,0.943-1.825,1.981-2.205
	c1.601-0.587,3.221-0.542,4.842-0.068c0.356,0.104,0.713,0.207,1.082,0.314c0.261-0.199,0.512-0.391,0.77-0.588
	c0.235,0.518,0.282,2.362,0.077,3.339c-0.279-0.097-0.549-0.185-0.814-0.283c-1.197-0.445-2.412-0.799-3.709-0.729
	c-0.402,0.021-0.81,0.052-1.026,0.67c0.263,0.198,0.531,0.495,0.865,0.632c0.619,0.254,1.293,0.373,1.913,0.623
	c0.757,0.305,1.531,0.61,2.209,1.052c1.835,1.192,1.369,3.979-0.349,4.865c-0.396,0.204-0.817,0.356-1.227,0.533
	c-1.097,0-2.193,0-3.289,0c-0.8-0.227-1.6-0.453-2.44-0.691c-0.188,0.236-0.369,0.464-0.55,0.691
	C178.006,206.511,177.906,206.511,177.807,206.511z"/>
<path fill-rule="evenodd" clip-rule="evenodd" fill="#D7C656" d="M89.452,206.511c0.017-1.203,0.034-2.407,0.052-3.733
	c0.376,0.188,0.593,0.296,0.808,0.404c1.259,0.639,2.578,1.049,4.002,1.054c0.198,0,0.44,0.03,0.583-0.068
	c0.225-0.154,0.491-0.386,0.534-0.622c0.033-0.181-0.207-0.503-0.408-0.612c-0.365-0.198-0.795-0.273-1.19-0.422
	c-0.929-0.351-1.882-0.653-2.77-1.087c-1.135-0.555-1.674-1.559-1.613-2.808c0.062-1.27,0.864-2.032,1.994-2.452
	c1.388-0.515,2.815-0.583,4.257-0.226c0.578,0.143,1.153,0.297,1.749,0.451c0.227-0.18,0.456-0.362,0.786-0.625
	c0,1.165,0,2.228,0,3.379c-0.291-0.101-0.542-0.185-0.792-0.275c-1.102-0.404-2.216-0.753-3.408-0.737
	c-0.272,0.004-0.557,0.005-0.813,0.081c-0.514,0.153-0.612,0.653-0.164,0.942c0.39,0.252,0.846,0.411,1.288,0.569
	c0.795,0.284,1.612,0.509,2.398,0.816c0.386,0.151,0.748,0.398,1.077,0.658c1.832,1.445,0.994,4.058-0.421,4.736
	c-0.446,0.214-0.913,0.386-1.37,0.576c-1.046,0-2.093,0-3.14,0c-0.832-0.226-1.663-0.452-2.499-0.679
	c-0.233,0.246-0.437,0.463-0.64,0.679C89.651,206.511,89.552,206.511,89.452,206.511z"/>
<path fill-rule="evenodd" clip-rule="evenodd" fill="#D7C656" d="M230.431,206.511c-0.665-0.196-1.358-0.328-1.99-0.602
	c-2.076-0.9-3.067-2.649-2.975-5.122c0.077-2.053,1.376-3.794,3.364-4.5c1.672-0.594,3.364-0.591,5.069-0.16
	c0.312,0.078,0.621,0.172,0.956,0.267c0.252-0.191,0.504-0.382,0.761-0.576c0.246,0.515,0.286,2.5,0.057,3.398
	c-0.249-0.097-0.493-0.178-0.726-0.284c-1.1-0.506-2.236-0.821-3.463-0.767c-1.539,0.068-2.606,1.111-2.665,2.661
	c-0.015,0.396-0.026,0.808,0.065,1.188c0.374,1.559,1.542,2.259,3.115,2.178c0.32-0.017,0.637-0.103,1.044-0.171
	c0.06-0.94,0.295-1.892-0.58-2.878c1.346-0.035,2.507-0.071,3.809,0.044c0,0.591,0,1.128,0,1.666c0,0.598-0.031,1.197,0.009,1.792
	c0.035,0.541-0.199,0.86-0.684,1.009c-0.972,0.297-1.949,0.573-2.925,0.857C231.926,206.511,231.178,206.511,230.431,206.511z"/>
<path fill-rule="evenodd" clip-rule="evenodd" fill="#D7C656" d="M206.66,206.511c-0.73-0.232-1.498-0.387-2.185-0.712
	c-1.709-0.812-2.518-2.249-2.643-4.108c-0.13-1.945,0.439-3.592,2.068-4.762c0.931-0.668,1.999-0.996,3.139-1.067
	c1.324-0.082,2.634,0.004,3.903,0.462c0.239-0.164,0.458-0.314,0.771-0.528c0,1.127,0,2.169,0,3.324
	c-0.244-0.101-0.46-0.179-0.666-0.277c-1.054-0.5-2.153-0.746-3.325-0.673c-1.472,0.092-2.464,1.048-2.534,2.516
	c-0.023,0.492-0.029,1.008,0.089,1.48c0.337,1.356,1.734,2.195,3.25,2.026c0.947-0.105,1.861-0.313,2.697-0.799
	c0.123-0.071,0.267-0.109,0.496-0.201c0,0.819,0,1.566,0,2.381c-0.811,0.602-1.868,0.619-2.818,0.938
	C208.155,206.511,207.407,206.511,206.66,206.511z"/>
<path fill-rule="evenodd" clip-rule="evenodd" fill="#D7C656" d="M158.454,164.638c0.271,0.715-0.075,1.057-0.661,1.294
	c-0.267,0.107-0.498,0.304-0.777,0.479c0.099,0.272,0.18,0.493,0.26,0.714c-0.932,0.373-1.967-0.539-1.791-1.64
	c0.112-0.706,0.393-1.385,0.564-2.084c0.073-0.296,0.128-0.625,0.075-0.918c-0.106-0.583-0.015-1.085,0.374-1.532
	c1.065-1.228,1.546-2.708,1.833-4.269c0.098-0.529,0.157-1.028,0.577-1.473c0.25-0.264,0.27-0.781,0.319-1.193
	c0.079-0.665,0.091-1.338,0.147-2.007c0.017-0.194,0.069-0.394,0.144-0.575c0.498-1.219,0.146-2.259-0.946-3.076
	c-0.934-0.699-1.808-1.477-2.706-2.223c-0.07-0.059-0.119-0.145-0.245-0.302c7.637,0,15.183,0,22.749,0
	c0.056,0.404,0.173,0.817,0.146,1.221c-0.018,0.269-0.233,0.527-0.374,0.783c-0.309,0.562-0.624,1.12-0.938,1.678
	c-0.364,0.647-0.72,1.3-1.1,1.938c-0.222,0.374-0.569,0.51-1.014,0.493c-1.441-0.055-2.424,0.618-3.139,1.865
	c-1.331,2.323-3.141,4.163-5.664,5.209c-0.113,0.047-0.216,0.118-0.346,0.19c-0.021,0.141-0.066,0.286-0.062,0.43
	c0.019,0.597-0.287,0.938-0.842,1.062c-1.148,0.261-2.235,0.657-3.244,1.285c-0.297,0.185-0.704,0.191-1.109,0.293
	C160.249,163.299,159.599,164.186,158.454,164.638z"/>
<path fill-rule="evenodd" clip-rule="evenodd" fill="#D7C656" d="M188.168,150.038c-0.537,1.284-1.002,2.603-1.624,3.843
	c-3.6,7.181-8.745,12.984-15.585,17.231c-4.54,2.82-9.476,4.584-14.76,5.42c-3.048,0.482-6.111,0.583-9.162,0.359
	c-9.442-0.691-17.722-4.113-24.571-10.77c-4.15-4.033-7.273-8.758-9.552-14.058c-0.295-0.686-0.556-1.386-0.829-2.081
	c-0.025-0.064-0.021-0.14,0.048-0.257c0.083,0.149,0.179,0.293,0.249,0.449c4.062,8.938,10.611,15.43,19.408,19.699
	c3.837,1.862,7.888,3.066,12.1,3.67c3.932,0.563,7.875,0.593,11.831,0.081c5.504-0.713,10.675-2.4,15.485-5.149
	c6.878-3.932,12.213-9.371,15.838-16.446c0.351-0.686,0.684-1.381,1.024-2.073C188.102,149.983,188.135,150.01,188.168,150.038z"/>
<path fill-rule="evenodd" clip-rule="evenodd" fill="#D7C656" d="M175.684,141.902c-2.354,0-4.519,0-6.795,0
	c0.303-0.432,0.552-0.787,0.827-1.18c-0.929-1.377-1.844-2.735-2.764-4.099c-0.597,0-1.156,0-1.835,0c0,0.588,0,1.127,0,1.667
	c0,0.274,0.009,0.548-0.002,0.822c-0.035,0.975-0.11,1.958,0.835,2.642c-0.567,0.262-5.407,0.3-6.205,0.073
	c0.055-0.113,0.079-0.249,0.16-0.317c0.642-0.547,0.668-1.265,0.663-2.038c-0.023-3.437-0.024-6.874,0.001-10.31
	c0.006-0.75-0.036-1.434-0.642-1.967c-0.086-0.076-0.125-0.206-0.252-0.424c0.305-0.04,0.532-0.096,0.76-0.096
	c2.914-0.004,5.828-0.031,8.741,0.02c0.885,0.015,1.789,0.165,2.645,0.397c3.751,1.019,3.977,5.438,1.89,7.479
	c-0.439,0.43-0.988,0.748-1.489,1.113c-0.155,0.113-0.322,0.212-0.54,0.355C173.004,137.975,174.3,139.873,175.684,141.902z
	 M165.198,130.017c0,1.22,0,2.339,0,3.496c1.144,0,2.209,0.023,3.271-0.015c0.306-0.011,0.624-0.164,0.904-0.313
	c0.737-0.392,1.068-1.134,0.906-1.944c-0.129-0.651-0.711-1.177-1.516-1.211C167.603,129.98,166.438,130.017,165.198,130.017z"/>
<path fill-rule="evenodd" clip-rule="evenodd" fill="#D7C656" d="M97.744,135.227c0.021-0.191,0.043-0.304,0.043-0.417
	c0.002-2.117,0.016-4.234-0.014-6.351c-0.004-0.318-0.185-0.647-0.336-0.945c-0.118-0.231-0.316-0.422-0.446-0.737
	c1.741-0.124,3.456-0.115,5.318-0.09c-0.169,0.279-0.233,0.469-0.362,0.584c-0.455,0.402-0.53,0.902-0.527,1.48
	c0.018,4.06,0.011,8.119,0.006,12.178c0,0.314-0.045,0.627-0.076,1.021c-1.132,0-2.198,0.031-3.26-0.024
	c-0.242-0.013-0.502-0.293-0.697-0.503c-2.335-2.521-4.661-5.051-6.986-7.58c-0.166-0.18-0.316-0.372-0.474-0.558
	c-0.047,0.02-0.095,0.04-0.142,0.06c0,0.511,0,1.022,0,1.533c0,1.644,0.019,3.288-0.009,4.931c-0.011,0.628,0.065,1.181,0.58,1.606
	c0.105,0.088,0.157,0.24,0.236,0.367c-0.507,0.218-4.167,0.28-5.181,0.098c0.008-0.069-0.012-0.17,0.027-0.205
	c0.688-0.607,0.733-1.393,0.726-2.245c-0.029-3.487-0.025-6.974-0.001-10.46c0.004-0.703-0.047-1.335-0.626-1.82
	c-0.084-0.07-0.116-0.203-0.203-0.365c0.16-0.047,0.269-0.107,0.378-0.107c1.32-0.007,2.64,0.003,3.96-0.012
	c0.428-0.005,0.677,0.231,0.933,0.522c2.28,2.604,4.568,5.201,6.855,7.798C97.527,135.057,97.606,135.109,97.744,135.227z"/>
<path fill-rule="evenodd" clip-rule="evenodd" fill="#D7C656" d="M63.091,126.728c2.171,0,4.194,0,6.319,0
	c-0.122,0.229-0.169,0.397-0.278,0.505c-0.476,0.473-0.595,1.029-0.585,1.692c0.035,2.366,0.01,4.733,0.015,7.1
	c0.003,1.78,0.736,2.667,2.488,2.821c0.697,0.062,1.441-0.064,2.123-0.253c0.91-0.252,1.413-0.976,1.427-1.899
	c0.042-2.814,0.029-5.63,0.012-8.445c-0.002-0.246-0.173-0.504-0.309-0.73c-0.136-0.227-0.328-0.42-0.506-0.641
	c0.554-0.252,5.454-0.299,6.271-0.077c-0.03,0.09-0.033,0.209-0.093,0.258c-0.682,0.555-0.702,1.302-0.693,2.097
	c0.025,2.292,0.021,4.584,0.001,6.876c-0.005,0.645-0.047,1.298-0.16,1.932c-0.373,2.088-1.672,3.325-3.678,3.876
	c-1.904,0.523-3.844,0.501-5.784,0.337c-0.689-0.059-1.383-0.197-2.048-0.389c-2.302-0.662-3.579-2.325-3.608-4.726
	c-0.032-2.666-0.029-5.332-0.008-7.997c0.006-0.699-0.03-1.338-0.604-1.832C63.288,127.146,63.243,126.99,63.091,126.728z"/>
<path fill-rule="evenodd" clip-rule="evenodd" fill="#D7C656" d="M153.978,130.795c-0.17-0.018-0.205-0.01-0.218-0.024
	c-0.737-0.79-1.681-0.808-2.673-0.783c-1.692,0.042-3.387,0.01-5.081,0.013c-0.267,0.001-0.534,0.024-0.849,0.04
	c0,0.917,0,1.771,0,2.727c0.54,0,1.031,0,1.521,0c0.623,0,1.247-0.024,1.868,0.006c0.814,0.04,1.591,0.016,2.175-0.675
	c0.052-0.062,0.168-0.071,0.324-0.131c0,1.612,0,3.162,0,4.715c-0.088,0-0.161,0.021-0.18-0.003
	c-0.633-0.768-1.492-0.77-2.379-0.737c-0.846,0.031-1.693,0.003-2.54,0.009c-0.243,0.002-0.485,0.029-0.783,0.048
	c0,0.863,0,1.671,0,2.565c0.289,0.026,0.575,0.075,0.86,0.076c1.918,0.007,3.836-0.01,5.753,0.011
	c0.644,0.007,1.24-0.021,1.696-0.561c0.083-0.099,0.245-0.13,0.496-0.255c0.097,1.397,0.07,2.694,0.018,4.062
	c-4.769,0-9.458,0-14.277,0c0.138-0.228,0.208-0.437,0.352-0.564c0.437-0.388,0.494-0.87,0.492-1.417
	c-0.015-3.711-0.017-7.422,0.002-11.134c0.003-0.581-0.095-1.077-0.525-1.488c-0.12-0.115-0.196-0.276-0.295-0.421
	c0.512-0.25,13.269-0.309,14.228-0.054C154.074,128.109,154.044,129.429,153.978,130.795z"/>
<path fill-rule="evenodd" clip-rule="evenodd" fill="#D7C656" d="M182.208,141.107c-0.318,0.404-0.637,0.807-0.955,1.21
	c-0.043-0.022-0.086-0.045-0.13-0.067c0-1.769,0-3.538,0-5.434c0.289,0.141,0.522,0.247,0.748,0.367
	c2.004,1.071,4.109,1.776,6.411,1.732c0.363-0.007,0.756-0.07,1.079-0.224c0.731-0.348,0.784-1.296,0.062-1.666
	c-0.655-0.336-1.385-0.545-2.099-0.748c-1.586-0.45-3.152-0.935-4.517-1.901c-1.479-1.048-2.146-2.777-1.748-4.521
	c0.253-1.11,0.926-1.908,1.889-2.48c1.096-0.65,2.302-0.926,3.554-1.025c1.939-0.155,3.82,0.139,5.656,0.762
	c0.21,0.071,0.423,0.134,0.663,0.209c0.371-0.333,0.734-0.661,1.098-0.988c0.062,0.014,0.125,0.028,0.188,0.042
	c0.027,1.612,0.016,3.225,0.005,4.939c-0.286-0.07-0.477-0.089-0.644-0.161c-1.632-0.708-3.329-1.195-5.095-1.378
	c-0.647-0.067-1.347,0.009-1.975,0.188c-0.742,0.212-0.859,0.909-0.228,1.35c0.539,0.375,1.188,0.61,1.815,0.833
	c1.147,0.407,2.328,0.722,3.467,1.148c0.575,0.215,1.117,0.551,1.628,0.9c2.812,1.925,1.992,5.702-0.092,7.048
	c-1.283,0.829-2.72,1.082-4.197,1.14c-1.938,0.076-3.802-0.376-5.642-0.933c-0.237-0.072-0.473-0.149-0.709-0.224
	C182.364,141.188,182.286,141.147,182.208,141.107z"/>
<path fill-rule="evenodd" clip-rule="evenodd" fill="#D7C656" d="M198.682,141.896c0.188-0.441,0.317-0.784,0.477-1.114
	c1.845-3.837,3.697-7.67,5.538-11.509c0.369-0.769,1.021-1.523,0.005-2.478c0.448-0.065,0.653-0.12,0.858-0.122
	c1.271-0.008,2.541,0.014,3.812-0.013c0.496-0.01,0.759,0.184,0.974,0.624c2.27,4.655,4.559,9.3,6.84,13.95
	c0.094,0.192,0.153,0.402,0.258,0.679c-2.149,0-4.203,0-6.386,0c0.301-0.44,0.555-0.811,0.832-1.217
	c-0.21-0.456-0.417-0.903-0.638-1.382c-2.387,0-4.742,0-7.161,0c-0.218,0.447-0.444,0.911-0.681,1.395
	c0.268,0.371,0.523,0.725,0.857,1.186C202.365,141.896,200.597,141.896,198.682,141.896z M207.643,131.192
	c-0.813,1.778-1.559,3.408-2.338,5.113c1.64,0,3.129,0,4.715,0C209.22,134.585,208.462,132.956,207.643,131.192z"/>
<path fill-rule="evenodd" clip-rule="evenodd" fill="#D7C656" d="M118.443,126.73c2.216,0,4.262,0,6.477,0
	c-0.33,0.45-0.582,0.795-0.889,1.214c1.149,2.604,2.311,5.236,3.472,7.868c0.065,0.012,0.131,0.024,0.196,0.037
	c1.205-2.623,2.409-5.245,3.623-7.887c-0.282-0.386-0.541-0.74-0.806-1.103c0.516-0.226,4.333-0.283,5.403-0.068
	c-2.344,5.074-4.741,10.085-7.126,15.176c-0.558,0-1.075,0-1.592,0c-0.521,0-1.041,0-1.654,0
	C123.191,136.917,120.844,131.881,118.443,126.73z"/>
<path fill-rule="evenodd" clip-rule="evenodd" fill="#D7C656" d="M235.424,137.792c0,1.448,0,2.746,0,4.109
	c-4.589,0-9.13,0-13.812,0c0.174-0.261,0.27-0.483,0.432-0.634c0.362-0.337,0.438-0.739,0.437-1.212
	c-0.012-3.686-0.019-7.372,0.004-11.058c0.005-0.704-0.07-1.331-0.628-1.823c-0.086-0.076-0.127-0.203-0.19-0.31
	c0.526-0.244,5.354-0.287,6.138-0.062c-0.009,0.066,0.008,0.164-0.031,0.199c-0.755,0.668-0.764,1.539-0.753,2.458
	c0.032,2.714,0.012,5.429,0.012,8.144c0,0.294,0,0.589,0,0.959c0.354,0.031,0.642,0.077,0.928,0.078
	c1.793,0.007,3.587-0.014,5.379,0.013c0.628,0.009,1.185-0.067,1.617-0.57C235.029,137.995,235.158,137.954,235.424,137.792z"/>
<path fill-rule="evenodd" clip-rule="evenodd" fill="#D7C656" d="M142.922,196.048c1.137,0,2.273,0,3.481,0
	c1.06,1.983,2.123,3.974,3.25,6.083c1.03-2.099,2.008-4.094,2.981-6.077c1.255,0,2.438,0,3.795,0
	c-0.765,0.714-0.608,1.526-0.61,2.306c-0.004,1.941-0.003,3.883,0,5.824c0.001,0.689-0.128,1.408,0.493,1.947
	c-0.611,0.295-3.32,0.319-4.08,0.043c0.811-0.798,0.517-1.8,0.549-2.743c0.026-0.77,0.005-1.542,0.005-2.481
	c-0.173,0.311-0.284,0.485-0.373,0.671c-0.646,1.346-1.297,2.689-1.925,4.044c-0.19,0.41-0.382,0.713-0.916,0.711
	c-0.565-0.001-0.984-0.088-1.267-0.669c-0.599-1.229-1.267-2.426-1.908-3.635c-0.184-0.346-0.377-0.687-0.687-1.002
	c0,1.403-0.027,2.808,0.021,4.209c0.011,0.305,0.294,0.601,0.527,1.044c-1.167,0.075-2.253,0.045-3.485,0.005
	c0.805-1.161,0.471-2.346,0.504-3.482c0.045-1.542,0.015-3.087,0.01-4.63c-0.002-0.709,0.126-1.446-0.464-2.045
	C142.856,196.129,142.889,196.088,142.922,196.048z"/>
<path fill-rule="evenodd" clip-rule="evenodd" fill="#D7C656" d="M249.288,202.335c0.888,1.299,1.75,2.561,2.702,3.953
	c-1.616,0-3.058,0-4.604,0c0.174-0.311,0.311-0.556,0.485-0.868c-0.603-0.895-1.225-1.816-1.832-2.718c-0.413,0-0.754,0-1.192,0
	c0.087,1.19-0.401,2.393,0.475,3.443c-0.513,0.285-3.389,0.313-4.135,0.02c0.738-0.698,0.55-1.592,0.554-2.444
	c0.007-1.768,0.005-3.535,0.001-5.303c-0.002-0.781,0.157-1.6-0.635-2.314c0.354-0.045,0.559-0.093,0.763-0.093
	c1.968-0.005,3.935-0.012,5.901,0.01c0.468,0.005,0.948,0.065,1.4,0.186c1.164,0.31,1.995,0.988,2.262,2.227
	c0.266,1.233-0.103,2.265-1.017,3.101C250.109,201.815,249.733,202.023,249.288,202.335z M244.881,198.325c0,0.823,0,1.525,0,2.278
	c0.77,0,1.489,0.062,2.19-0.026c0.354-0.046,0.753-0.298,0.989-0.577c0.556-0.654,0.182-1.582-0.676-1.659
	C246.579,198.268,245.762,198.325,244.881,198.325z"/>
<path fill-rule="evenodd" clip-rule="evenodd" fill="#D7C656" d="M78.445,202.694c-0.433,0-0.753,0-1.176,0
	c0.074,1.205-0.424,2.422,0.608,3.616c-1.513,0.082-2.848,0.073-4.246-0.06c0.784-0.866,0.505-1.867,0.52-2.81
	c0.025-1.618,0.021-3.236,0.001-4.854c-0.011-0.845,0.251-1.751-0.685-2.495c0.416-0.044,0.605-0.082,0.795-0.082
	c1.992-0.002,3.984-0.011,5.976,0.012c0.468,0.006,0.948,0.075,1.398,0.199c1.166,0.322,1.977,1.027,2.222,2.265
	c0.245,1.234-0.141,2.263-1.069,3.084c-0.311,0.275-0.682,0.483-1.084,0.765c0.88,1.285,1.744,2.548,2.702,3.948
	c-1.609,0.149-3.052,0.062-4.66,0.07c0.218-0.367,0.36-0.606,0.547-0.923C79.692,204.539,79.069,203.617,78.445,202.694z
	 M77.276,200.624c0.76,0,1.429,0.029,2.092-0.015c0.283-0.019,0.645-0.115,0.812-0.312c0.253-0.296,0.503-0.712,0.499-1.073
	c-0.003-0.285-0.348-0.747-0.619-0.813c-0.908-0.223-1.845-0.13-2.785-0.066C77.276,199.147,77.276,199.834,77.276,200.624z"/>
<path fill-rule="evenodd" clip-rule="evenodd" fill="#D7C656" d="M25.575,201.521c0-1.44,0.029-2.883-0.021-4.322
	c-0.012-0.358-0.276-0.709-0.452-1.129c1.148,0,2.264,0,3.539,0c-0.845,0.867-0.579,1.842-0.589,2.761
	c-0.023,2.166-0.007,4.333-0.007,6.5c0,0.293,0,0.585,0,0.999c-0.804,0-1.519,0.039-2.223-0.023
	c-0.223-0.02-0.445-0.292-0.626-0.487c-1.423-1.533-2.837-3.073-4.25-4.615c-0.167-0.183-0.311-0.387-0.563-0.705
	c-0.072,0.297-0.119,0.402-0.12,0.507c-0.005,1.345-0.035,2.691,0.015,4.034c0.015,0.387,0.263,0.766,0.439,1.245
	c-1.118,0.143-2.249,0.095-3.569,0.012c0.901-0.959,0.616-2.005,0.634-2.994c0.029-1.568,0.012-3.139,0.006-4.707
	c-0.004-0.851,0.181-1.739-0.678-2.571c1.206,0,2.194-0.046,3.172,0.03c0.279,0.021,0.565,0.37,0.789,0.621
	c1.276,1.431,2.534,2.878,3.8,4.317c0.178,0.203,0.371,0.393,0.557,0.588C25.477,201.561,25.526,201.541,25.575,201.521z"/>
<path fill-rule="evenodd" clip-rule="evenodd" fill="#D7C656" d="M114.665,141.905c-2.171,0-4.216,0-6.345,0
	c0.09-0.188,0.114-0.325,0.196-0.393c0.624-0.523,0.65-1.211,0.645-1.958c-0.023-3.532-0.022-7.064,0-10.597
	c0.004-0.678-0.068-1.28-0.604-1.756c-0.099-0.088-0.142-0.239-0.266-0.458c2.154,0,4.213,0,6.332,0
	c-0.048,0.146-0.05,0.266-0.11,0.315c-0.678,0.555-0.695,1.3-0.69,2.094c0.021,3.507,0.021,7.015-0.001,10.522
	c-0.005,0.7,0.05,1.333,0.606,1.831C114.51,141.581,114.549,141.706,114.665,141.905z"/>
<path fill-rule="evenodd" clip-rule="evenodd" fill="#D7C656" d="M62.314,204.079c0.578,0,1.094,0,1.61,0
	c0.722,0,1.444,0.004,2.167-0.001c0.687-0.004,1.414,0.143,1.99-0.552c0.205,0.925,0.146,1.79,0.114,2.627
	c-0.626,0.254-8.795,0.3-9.643,0.057c0.784-0.783,0.512-1.754,0.526-2.668c0.025-1.718,0.01-3.437,0.006-5.154
	c-0.002-0.78,0.149-1.593-0.584-2.323c3.297,0,6.438,0,9.656,0c0,0.911,0,1.782,0,2.804c-0.817-0.772-1.733-0.554-2.605-0.567
	c-1.042-0.016-2.085-0.004-3.212-0.004c0,0.594,0,1.117,0,1.763c1.295-0.135,2.612,0.384,3.889-0.543c0,1.126,0,2.141,0,3.279
	c-1.255-0.96-2.58-0.428-3.913-0.583C62.314,202.861,62.314,203.396,62.314,204.079z"/>
<path fill-rule="evenodd" clip-rule="evenodd" fill="#D7C656" d="M110.676,196.069c1.655,3.354,3.312,6.713,5.062,10.26
	c-1.545,0.06-2.914,0.038-4.45,0.01c0.214-0.355,0.358-0.594,0.542-0.898c-0.118-0.268-0.255-0.579-0.406-0.921
	c-1.589,0-3.146,0-4.762,0c-0.143,0.297-0.291,0.604-0.435,0.902c0.169,0.285,0.314,0.531,0.517,0.873c-1.274,0-2.444,0-3.747,0
	c0.125-0.328,0.201-0.575,0.312-0.805c1.226-2.559,2.448-5.119,3.693-7.668c0.269-0.551,0.517-1.075,0.148-1.753
	C108.365,196.069,109.492,196.069,110.676,196.069z M109.113,199.315c-0.061-0.007-0.122-0.015-0.183-0.021
	c-0.455,1-0.909,2-1.43,3.146c1.084,0.062,2.009,0.098,3.05-0.031C110.028,201.283,109.571,200.299,109.113,199.315z"/>
<path fill-rule="evenodd" clip-rule="evenodd" fill="#D7C656" d="M293.123,203.392c0.032,1.054-0.268,1.997,0.658,2.896
	c-1.521,0.133-2.855,0.079-4.3,0.037c0.117-0.245,0.196-0.384,0.251-0.532c0.106-0.294,0.281-0.593,0.284-0.892
	c0.023-2.49,0.034-4.981-0.006-7.473c-0.007-0.432-0.268-0.859-0.43-1.345c0.155-0.022,0.339-0.072,0.521-0.072
	c1.794-0.003,3.591-0.062,5.379,0.033c0.873,0.047,1.773,0.286,2.585,0.623c1.098,0.455,1.697,1.348,1.627,2.599
	c-0.027,0.496,0.026,1.01-0.086,1.484c-0.309,1.3-1.241,2.031-2.477,2.327c-0.814,0.195-1.67,0.233-2.51,0.307
	C294.158,203.424,293.688,203.392,293.123,203.392z M293.152,201.296c0.89-0.081,1.683-0.104,2.456-0.24
	c0.617-0.108,0.875-0.557,0.9-1.284c0.027-0.784-0.164-1.181-0.781-1.347c-0.843-0.228-1.702-0.138-2.575-0.083
	C293.152,199.343,293.152,200.229,293.152,201.296z"/>
<path fill-rule="evenodd" clip-rule="evenodd" fill="#D7C656" d="M42.655,196.066c1.521,0,2.87,0,4.322,0
	c-0.186,0.316-0.318,0.543-0.497,0.848c0.756,1.713,1.535,3.474,2.366,5.356c0.856-1.873,1.652-3.61,2.455-5.367
	c-0.156-0.257-0.305-0.502-0.506-0.832c1.231,0,2.376,0,3.678,0c-1.63,3.468-3.222,6.853-4.817,10.245c-0.763,0-1.451,0-2.218,0
	C45.861,202.937,44.288,199.564,42.655,196.066z"/>
<path fill-rule="evenodd" clip-rule="evenodd" fill="#D7C656" d="M120.122,196.05c1.333,0,2.667,0,4.155,0
	c-0.781,0.788-0.563,1.681-0.573,2.527c-0.017,1.52-0.005,3.04-0.005,4.56c0,0.27,0,0.539,0,0.87
	c0.291,0.029,0.505,0.067,0.719,0.069c0.847,0.008,1.694,0.008,2.541,0.002c0.779-0.005,1.597,0.161,2.32-0.653
	c0.156,1.045,0.097,1.912,0.04,2.927c-3.123,0.02-6.168,0.018-9.35-0.002c0.932-1.306,0.485-2.67,0.545-3.971
	c0.066-1.417,0.018-2.84,0.014-4.26c-0.002-0.687,0.129-1.406-0.548-1.945C120.028,196.133,120.075,196.091,120.122,196.05z"/>
<path fill-rule="evenodd" clip-rule="evenodd" fill="#D7C656" d="M38.386,206.29c-1.341,0-2.682,0-4.18,0
	c0.773-0.962,0.508-1.976,0.523-2.943c0.028-1.793,0.003-3.586,0.011-5.38c0.003-0.646,0.063-1.297-0.615-1.887
	c1.53,0,2.892,0,4.401,0c-0.906,0.939-0.569,2.019-0.592,3.03c-0.039,1.692-0.005,3.387-0.013,5.08
	c-0.003,0.697-0.091,1.409,0.582,1.936C38.465,206.181,38.426,206.235,38.386,206.29z"/>
<path fill-rule="evenodd" clip-rule="evenodd" fill="#D7C656" d="M192.43,206.29c0.832-0.833,0.596-1.754,0.604-2.624
	c0.018-1.893-0.001-3.785,0.009-5.678c0.003-0.648,0.051-1.298-0.474-1.891c1.385-0.1,2.742-0.096,4.296-0.074
	c-0.916,0.979-0.6,2.031-0.622,3.02c-0.035,1.593-0.015,3.188-0.007,4.781c0.004,0.823-0.188,1.688,0.651,2.466
	C195.328,206.29,193.968,206.29,192.43,206.29z"/>
<path fill-rule="evenodd" clip-rule="evenodd" fill="#D7C656" d="M232.168,130.013c0.009-1.717,1.384-3.081,3.084-3.058
	c1.684,0.022,3.086,1.454,3.058,3.121c-0.03,1.687-1.442,3.072-3.12,3.058C233.486,133.12,232.16,131.75,232.168,130.013z
	 M235.233,132.669c1.511-0.006,2.646-1.141,2.641-2.639c-0.005-1.492-1.149-2.611-2.668-2.607c-1.508,0.004-2.652,1.146-2.645,2.635
	C232.568,131.545,233.725,132.675,235.233,132.669z"/>
<path fill-rule="evenodd" clip-rule="evenodd" fill="#D7C656" d="M150.946,119.15c0.113-0.104,0.218-0.286,0.342-0.3
	c0.663-0.077,1.36-0.16,1.864,0.412c0.306,0.346,0.618,0.533,1.093,0.503c0.229-0.014,0.524,0.052,0.694,0.195
	c0.598,0.505,1.276,0.745,2.14,0.725c-0.297,0.491-0.667,0.551-1.092,0.492c-0.412-0.057-0.824-0.111-1.19-0.232
	c-0.446-0.227-0.892-0.455-1.339-0.678c-0.089-0.044-0.193-0.059-0.276-0.11c-0.685-0.418-1.298-0.996-2.242-0.819
	C150.942,119.275,150.944,119.212,150.946,119.15z"/>
<path fill-rule="evenodd" clip-rule="evenodd" fill="#D7C656" d="M160.501,122.058c-0.815,0.175-1.595,0.343-2.482,0.534
	c-0.126-0.076-0.356-0.213-0.604-0.362c0.037-0.358,0.071-0.697,0.104-1.01C158.292,120.787,159.419,121.104,160.501,122.058z"/>
<path fill-rule="evenodd" clip-rule="evenodd" fill="#D7C656" d="M161.885,122.263c0.132,0.027,0.264,0.054,0.551,0.113
	c-0.215,0.159-0.327,0.242-0.438,0.325c-0.072-0.101-0.145-0.202-0.217-0.303C161.815,122.354,161.85,122.308,161.885,122.263z"/>
<path fill-rule="evenodd" clip-rule="evenodd" fill="#D7C656" d="M188.312,120.962c0.085,0.186,0.17,0.371,0.255,0.557
	c-0.047,0.021-0.094,0.041-0.141,0.061c-0.067-0.181-0.136-0.362-0.204-0.543C188.253,121.013,188.283,120.988,188.312,120.962z"/>
<path fill-rule="evenodd" clip-rule="evenodd" fill="#D7C656" d="M188.068,149.957c0.065-0.178,0.131-0.355,0.196-0.533
	c0.049,0.019,0.097,0.037,0.146,0.055c-0.081,0.187-0.161,0.373-0.242,0.56C188.135,150.01,188.102,149.983,188.068,149.957z"/>
<path fill-rule="evenodd" clip-rule="evenodd" fill="#D7C656" d="M236.438,129.231c-0.802-0.371-1.49-0.662-2.059,0.096
	c-0.293,0.389-0.284,1.089,0.017,1.477c0.588,0.76,1.267,0.442,1.942,0.106c-0.041,0.535-0.278,0.714-0.938,0.744
	c-0.891,0.041-1.544-0.482-1.688-1.351c-0.128-0.774,0.368-1.56,1.136-1.798C235.547,128.29,236.128,128.506,236.438,129.231z"/>
</svg>
