<?xml version="1.0" encoding="utf-8"?>
<!-- Generator: Adobe Illustrator 16.0.0, SVG Export Plug-In . SVG Version: 6.00 Build 0)  -->
<!DOCTYPE svg PUBLIC "-//W3C//DTD SVG 1.1//EN" "http://www.w3.org/Graphics/SVG/1.1/DTD/svg11.dtd">
<svg version="1.1" id="Layer_1" xmlns="http://www.w3.org/2000/svg" xmlns:xlink="http://www.w3.org/1999/xlink" x="0px" y="0px"
	 width="300px" height="300px" viewBox="0 0 300 300" enable-background="new 0 0 300 300" xml:space="preserve">
<path fill-rule="evenodd" clip-rule="evenodd" fill="#D7C656" d="M131.949,116.016c2.378-2.473,4.619-5.1,7.176-7.373
	c2.234-1.988,4.951-2.236,6.396-1.114c1.53,1.188,1.601,3.376,0.12,6.417c-1.182,2.422-2.507,4.776-3.616,7.23
	c-0.281,0.62,0.022,1.502,0.056,2.263c0.68-0.159,1.584-0.095,2.004-0.516c2.742-2.745,5.642-5.396,7.99-8.46
	c3.204-4.185,6.962-7.471,11.914-9.279c2.985-1.09,4.085-0.651,5.879,2.097c1.528-2.081,3.472-3.21,6.637-2.559
	c-3.19,5.313-6.25,10.409-9.31,15.504c0.183,0.272,0.365,0.544,0.548,0.816c1.127-0.334,2.434-0.412,3.348-1.051
	c2.885-2.016,5.815-4.036,8.38-6.429c6.578-6.138,11.448-13.581,15.783-21.248c-3.774-0.464-7.493-0.584-11.032-1.44
	c-5.042-1.22-9.016-3.926-10.091-9.561c-1.213-6.354,3.92-13.235,10.373-13.784c0.209-0.018,0.443,0.248,1.056,0.615
	c-0.78,0.472-1.312,0.868-1.9,1.138c-4.054,1.86-6.175,5.129-6.244,9.459c-0.065,4.062,2.116,7.007,5.687,8.92
	c4.12,2.209,8.565,2.371,13.039,1.858c0.903-0.103,1.868-1.121,2.494-1.952c3.858-5.127,7.4-10.509,11.502-15.429
	c3.075-3.691,6.581-7.135,10.365-10.089c2.858-2.232,6.457-3.516,9.727-5.222c0.559,0,1.117,0,1.675,0
	c3.054,2.097,3.917,4.147,2.44,7.576c-1.046,2.427-2.515,4.784-4.244,6.784c-6.965,8.058-15.265,14.356-25.326,18.1
	c-2.188,0.814-3.727,2.017-4.915,4.119c-2.734,4.837-5.783,9.5-8.703,14.233c-0.193,0.197-0.386,0.394-0.579,0.591l-0.112,0.08
	l0.081-0.114c0.193-0.196,0.387-0.391,0.581-0.587c0.911-0.616,1.762-1.366,2.747-1.819c2.073-0.953,4.155-2.041,6.354-2.514
	c1.593-0.343,3.438,0.24,4.156,2.104c0.737,1.909-0.051,3.575-1.556,4.68c-1.7,1.248-3.629,2.183-5.624,3.35
	c0.253,1.786,0.533,3.757,0.885,6.226c1.392-0.562,2.596-0.803,3.498-1.458c3.074-2.239,6.177-4.471,9.012-6.995
	c3.155-2.81,6.35-5.489,10.43-6.778c1.565-0.495,3.273-0.767,4.91-0.747c2.318,0.029,3.336,1.944,2.014,3.859
	c-0.867,1.254-2.134,2.356-3.448,3.153c-2.855,1.732-5.84,3.259-8.809,4.798c-1.292,0.669-2.17,1.449-1.682,3.038
	c0.486,1.577,1.891,1.608,2.977,1.282c2.195-0.661,4.56-1.29,6.367-2.603c4.276-3.107,8.277-6.591,12.361-9.958
	c0.889-0.732,1.357-1.566,0.937-2.919c-0.261-0.838,0.065-2.013,0.473-2.873c0.828-1.745,2.944-2.635,4.414-2.083
	c1.414,0.531,1.661,1.455,1.071,4.024c0.128,0.122,0.247,0.325,0.392,0.345c4.493,0.634,5.248,2.25,2.718,6.058
	c-1.182,1.779-2.552,3.432-3.783,5.179c-0.566,0.803-1.002,1.697-1.497,2.549c0.124,0.223,0.247,0.446,0.37,0.669
	c1.162-0.284,2.499-0.294,3.454-0.903c3.433-2.187,6.741-4.571,10.091-6.89c1.37-0.947,2.633-2.097,4.104-2.839
	c3.434-1.733,6.628-1.49,8.316,0.4c1.826,2.044,1.776,5.82-0.222,8.848c-2.528,3.831-6.037,6.5-10.156,8.46
	c-10.039,4.776-20.496,8.265-31.43,10.299c-8.583,1.596-17.136,3.367-25.754,4.734c-10.178,1.614-20.408,2.886-30.619,4.29
	c-23.846,3.28-47.577,7.092-70.6,14.439c-2.833,0.906-4.123,2.275-4.755,5.206c-2.489,11.543-5.468,22.975-10.386,33.765
	c-1.645,3.61-3.787,7.018-5.936,10.365c-0.873,1.361-2.244,2.513-3.612,3.424c-3.231,2.154-6.619,0.957-7.187-2.845
	c-0.44-2.947-0.294-6.135,0.326-9.061c1.772-8.361,5.906-15.802,9.842-23.287c1.978-3.761,4.087-7.452,6.487-11.81
	c-2.751,1.264-4.927,2.221-7.065,3.253c-9.848,4.754-19.037,10.565-27.279,17.75c-8.175,7.127-14.02,15.823-16.6,26.504
	c-1.542,6.386-0.884,12.534,2.05,18.422c2.54,5.098,6.631,8.138,12.225,9.161c1.158,0.212,2.548,0.038,2.636,1.8
	c-1.489,0-2.979,0-4.467,0c-0.716-0.176-1.424-0.389-2.148-0.522c-6.172-1.146-10.732-4.345-13.417-10.159
	c-2.907-6.289-3.193-12.728-1.342-19.296c3.465-12.292,11.157-21.759,20.645-29.832c12.003-10.212,24.864-19.205,39.09-26.135
	c0.935-0.456,1.712-1.359,2.391-2.195c2.38-2.933,2.788-6.626,3.731-10.105c0.602-2.219,1.115-4.46,1.667-6.693
	c-1.515,0.891-2.473,2.085-3.698,2.858c-1.384,0.874-3.009,1.883-4.525,1.874c-1.317-0.008-2.627-1.353-3.789-2.019
	c-1.831,2.207-3.68,4.656-5.785,6.86c-0.833,0.872-2.198,1.549-3.39,1.676c-1.07,0.114-2.235-0.647-3.375-1.028
	c-2.447,3.332-4.587,7.377-9.97,5.696c-1.009,1.476-1.842,2.943-2.915,4.206c-1.957,2.305-4.067,4.367-4.239,7.781
	c-0.049,0.984-1.857,2.048-3.067,2.67c-0.254,0.131-1.426-1.521-2.172-2.354c-0.177-0.198-0.346-0.405-0.434-0.511
	c-3.322,1.184-6.476,2.956-9.788,3.335c-5.187,0.595-6.981,3.006-7.559,8.068c-0.898,7.867-4.765,14.418-11.442,19.015
	c-6.263,4.312-13.061,3.158-17.47-2.891c0-1.675,0-3.351,0-5.025c2.298-3.568,4.748-4.648,7.536-3.326
	c3.287,1.559,4.114,5.27,1.835,8.12c-0.416,0.521-0.723,1.129-1.12,1.759c3.623,1.339,8.003-0.104,10.478-3.623
	c1.253-1.781,2.211-3.911,2.749-6.025c1.185-4.661,2.019-9.412,3.033-14.308c-1.809-0.133-3.367-0.184-4.907-0.372
	c-6.518-0.807-10.074-7.487-7.105-13.361c2.265-4.482,6.235-7.097,10.599-9.07c1.926-0.871,2.424-1.933,2.587-3.95
	c0.359-4.414,1.168-8.789,1.818-13.354c-2.116,2.007-4.114,4.025-6.251,5.881c-1.254,1.089-2.679,2.018-4.136,2.82
	c-0.497,0.274-1.325-0.055-2.002-0.108c0.287-0.583,0.431-1.336,0.885-1.722c2.124-1.799,4.469-3.354,6.481-5.264
	c3.523-3.34,6.516-7.025,8.042-11.846c1.169-3.698,2.925-7.226,4.611-10.737c0.738-1.538,1.717-3.336,3.938-2.802
	c1.367,0.329,1.627,2.332,0.411,4.981c-1.238,2.694-2.681,5.321-4.293,7.809c-1.957,3.02-3.562,6.125-3.613,9.787
	c-0.072,5.083-0.019,10.168-0.019,15.519c4.611,0.027,9.213-0.17,13.056,2.661c0-4.075,0.02-7.844-0.003-11.612
	c-0.083-13.532,0.777-26.951,4.95-39.95c1.688-5.258,3.88-10.298,7.732-14.376c1.386-1.469,3.001-2.818,4.737-3.839
	c3.97-2.335,7.913-1.019,10.056,3.122c2.107,4.072,0.939,11.992-2.289,15.236c-0.263,0.265-0.783,0.274-1.828,0.608
	c0.454-1.394,0.742-2.286,1.035-3.175c1.079-3.272,1.459-6.569-0.161-9.759c-1.677-3.299-4.784-4.14-7.596-1.717
	c-2.136,1.841-4.115,4.1-5.479,6.554c-3.336,6.002-4.811,12.603-5.475,19.44c-1.032,10.617-0.066,21.182,0.474,31.762
	c0.316,6.193,0.674,12.384,1.43,18.662c2.64-2.819,5.331-5.373,5.273-9.614c-0.096-7.162,3.079-12.91,8.301-17.582
	c2.185-1.954,3.417-1.861,6.035,0.004c0.678-2.488,1.95-4.377,5.203-4.701c-1.016,6.05-2.001,11.909-2.986,17.767
	c0.297,0.174,0.595,0.349,0.893,0.523c0.814-0.837,1.885-1.542,2.4-2.535c2.865-5.523,5.971-10.97,8.23-16.742
	c1.333-3.404,3.497-4.375,7-4.976c-0.41,1.414-0.7,2.534-1.057,3.633c-1.265,3.887-2.58,7.758-3.81,11.656
	c-0.288,0.914-0.32,1.908-0.49,3.003c2.175,0.288,2.922-1.182,3.798-2.242c3.118-3.774,5.253-8.07,6.728-12.74
	c0.609-1.93,1.431-3.847,2.486-5.567c1.14-1.86,4.084-2.955,4.311-2.115c0.366,1.36,0.386,3.201-0.268,4.384
	c-3.332,6.021-4.938,12.604-6.686,19.152c-0.212,0.8-0.261,1.645-0.386,2.469c-0.079,0.111-0.159,0.223-0.149,0.208
	c-0.007,0.013,0.054-0.112,0.115-0.239c3.924-6.368,7.853-12.734,11.771-19.107c1.454-2.365,3.076-4.651,4.263-7.144
	c1.23-2.582,3.215-2.927,5.874-2.873c-0.63,2.243-1.195,4.255-1.761,6.267c-0.064,0.132-0.126,0.263-0.191,0.395
	c0.052-0.143,0.104-0.286,0.155-0.428c1.865-1.927,3.616-3.988,5.635-5.738c1.365-1.183,3.011-2.194,4.704-2.81
	c2.484-0.902,3.963,0.423,3.73,3.079c-0.096,1.099-0.417,2.178-0.635,3.266l-0.091,0.07L131.949,116.016z M179.967,116.554
	l0.131-0.104c0,0-0.099,0.137-0.1,0.137c-0.19,0.193-0.383,0.386-0.574,0.579c-0.902,0.644-1.75,1.387-2.716,1.911
	c-3.154,1.711-6.286,3.492-9.558,4.953c-2.367,1.056-4.499,0.427-5.638-2.161c-1.244,0.774-2.266,1.713-3.464,2.083
	c-1.893,0.586-3.992,1.296-5.833,0.978c-1.216-0.209-2.135-2.132-3.29-3.4c-0.712,0.618-1.554,1.496-2.535,2.167
	c-1.752,1.197-3.464,2.603-5.415,3.321c-3.487,1.286-6.001-1.114-5.094-4.716c0.378-1.506,1.151-2.931,1.872-4.328
	c0.934-1.815,2.05-3.537,2.974-5.357c0.35-0.688,0.381-1.537,0.557-2.312c-0.203-0.078-0.405-0.156-0.607-0.234
	c-0.688,0.59-1.406,1.151-2.061,1.777c-4.547,4.346-8.083,9.437-10.989,14.985c-1.58,3.018-2.485,3.482-6.437,3.008
	c2.298-5.603,4.572-11.146,6.846-16.688c-0.25-0.151-0.501-0.304-0.751-0.455c-1.039,0.877-2.295,1.594-3.078,2.66
	c-3.337,4.552-6.696,9.105-9.725,13.863c-1.913,3.005-2.452,3.586-6.54,3.303c0.364-1.425,0.721-2.828,1.079-4.23
	c0.045-0.039,0.091-0.078,0.136-0.117c-0.034,0.052-0.067,0.104-0.101,0.155c-4.058,6.556-8.152,13.09-12.136,19.69
	c-0.546,0.906-0.544,2.145-0.881,3.592c1.042-0.416,1.554-0.619,2.065-0.825c19.389-7.865,39.384-13.569,60.223-15.688
	c15.348-1.56,30.79-2.174,46.157-3.553c11.652-1.046,23.298-2.35,34.865-4.083c7.189-1.078,14.131-3.534,19.88-8.237
	c1.846-1.509,3.153-3.8,4.316-5.946c0.441-0.812,0.169-2.645-0.484-3.238c-0.651-0.592-2.369-0.613-3.293-0.183
	c-2.081,0.973-3.928,2.437-5.93,3.599c-4.321,2.508-8.567,5.188-13.067,7.33c-2.561,1.22-4.867,0.354-5.818-1.16
	c-1.162-1.851-0.647-4.049,1.468-6.222c0.583-0.601,1.199-1.169,1.775-1.776c1.43-1.505,2.844-3.024,4.429-4.713
	c-2.809-0.629-3.013-0.5-4.384,0.757c-3.013,2.761-5.959,5.62-9.182,8.118c-4.049,3.137-8.339,6.107-13.525,6.916
	c-2.067,0.322-4.588,0.07-6.362-0.903c-1.191-0.654-1.437-3.034-2.149-4.751c-0.644,0.408-1.545,1.046-2.506,1.577
	c-2.435,1.347-4.793,2.917-7.373,3.896c-3.344,1.268-5.298-0.345-5.109-3.829c0.118-2.159,0.625-4.381-2.229-6.296
	c1.58-0.271,2.413-0.488,3.256-0.543c2.245-0.147,4.665-1.789,5.349-3.806c0.158-0.465,0.23-1.205-0.025-1.494
	c-0.248-0.281-1.084-0.36-1.461-0.156c-1.457,0.792-3.118,1.478-4.191,2.667c-3.229,3.577-6.343,7.277-9.262,11.112
	c-2.178,2.86-2.673,3.214-6.638,2.125c0.86-1.745,1.706-3.462,2.553-5.178C179.579,116.937,179.774,116.746,179.967,116.554z
	 M88.846,162.804c-2.178-0.112-2.885,1.224-3.52,2.564c-3.932,8.298-8.117,16.493-11.644,24.96
	c-1.939,4.657-2.906,9.749-3.974,14.718c-0.25,1.163,0.869,2.621,1.357,3.942c1.22-0.498,2.937-0.65,3.57-1.559
	c1.943-2.782,4.056-5.672,5.047-8.851c2.618-8.395,4.73-16.95,6.94-25.47C87.499,169.74,88.102,166.301,88.846,162.804z
	 M32.684,166.044c0.093,0.013,0.491,0.196,0.796,0.097c4.39-1.427,8.781-2.855,13.125-4.413c0.408-0.146,0.715-1.172,0.703-1.78
	c-0.045-2.319-0.07-4.662-0.447-6.938c-0.225-1.365-0.75-3.019-1.728-3.856c-3.057-2.617-6.837-3.192-10.735-2.631
	c-0.639,0.092-1.628,1.088-1.64,1.684C32.635,154.033,32.684,159.866,32.684,166.044z M203.921,87.136
	c0.374,0,0.549,0.04,0.698-0.007c0.44-0.14,0.884-0.289,1.306-0.478c8.247-3.697,14.987-9.277,20.269-16.565
	c1.399-1.931,2.445-4.159,3.368-6.37c0.359-0.86,0.308-2.516-0.244-2.963c-0.604-0.492-2.258-0.388-3.005,0.119
	c-2.445,1.657-5.101,3.278-6.925,5.523c-5.149,6.338-9.927,12.978-14.838,19.508C204.298,86.238,204.161,86.66,203.921,87.136z
	 M25.976,148.737c-3.245,1.452-6.036,3.303-8.148,6.083c-2.322,3.06-2.589,6.103-0.844,8.742c1.711,2.586,4.975,3.642,8.992,2.672
	C25.976,160.578,25.976,154.814,25.976,148.737z M167.152,109.285c-0.195-0.582-0.284-1.588-0.611-1.672
	c-0.701-0.18-1.678-0.125-2.274,0.255c-4.242,2.699-6.928,6.637-8.539,11.327c-0.206,0.602-0.102,1.828,0.232,1.989
	c0.639,0.306,1.72,0.344,2.313-0.012C162.808,118.462,165.182,114.104,167.152,109.285z M71.723,135.159
	c-0.651-1.473-1.109-2.509-1.567-3.546c-0.965,0.719-2.386,1.237-2.809,2.195c-1.178,2.677-2.102,5.497-2.81,8.338
	c-0.389,1.559-0.283,3.289-0.131,4.917c0.132,1.424,1.188,1.623,2.195,0.801c0.768-0.627,1.584-1.44,1.894-2.337
	C69.69,142.064,70.69,138.533,71.723,135.159z M224.417,106.289c-3.166,0.336-5.874,2.6-7.187,5.744
	C219.963,110.532,222.832,109.667,224.417,106.289z"/>
<path fill-rule="evenodd" clip-rule="evenodd" fill="#D7C656" d="M298.914,187.501c-3.115,6.006-9.045,7.513-16.846,4.236
	c-0.551,0.397-1.073,0.974-1.721,1.208c-1.665,0.599-2.65-0.109-2.715-1.925c-0.066-1.856-0.113-3.728,0.04-5.575
	c0.056-0.655,0.601-1.626,1.141-1.81c1.039-0.353,2.252-0.298,2.706,1.145c0.762,2.416,2.408,3.924,4.831,4.566
	c0.708,0.187,1.461,0.289,2.191,0.278c1.583-0.021,3.125-0.48,3.452-2.202c0.383-2.021-1.366-2.383-2.797-2.769
	c-2.148-0.578-4.368-0.921-6.474-1.62c-3.793-1.257-5.356-3.565-5.206-7.26c0.14-3.383,2.006-5.588,5.823-6.483
	c3.423-0.803,6.832-0.685,10.059,1.077c0.622-0.418,1.159-1.009,1.802-1.167c1.414-0.346,2.644-0.162,2.606,1.785
	c-0.033,1.674,0.125,3.363-0.069,5.015c-0.083,0.726-0.695,1.76-1.302,1.969c-0.99,0.34-2.141,0.313-2.7-1.154
	c-1.161-3.053-3.524-4.594-6.75-4.193c-1.047,0.13-1.963,1.312-2.939,2.014c0.751,0.803,1.359,1.942,2.284,2.336
	c1.601,0.678,3.386,0.944,5.111,1.294c3.495,0.708,6.195,2.382,7.472,5.885C298.914,185.268,298.914,186.385,298.914,187.501z"/>
<path fill-rule="evenodd" clip-rule="evenodd" fill="#D7C656" d="M113.278,182.732c-0.503,5.938-0.503,5.938,3.15,6.826
	c0,0.91,0,1.87,0,2.918c-4.54,0-8.949,0-13.501,0c0-1.076,0-1.959,0-2.797c3.23-1.064,3.236-1.064,3.247-4.42
	c0.009-2.789,0.003-5.577-0.001-8.366c-0.005-3.438-0.007-3.438-3.226-4.381c0-0.839,0-1.723,0-3.022
	c1.715,0,3.356-0.006,4.996,0.002c4.183,0.02,8.374-0.103,12.547,0.111c4.421,0.225,6.923,3.103,5.913,6.877
	c-0.408,1.525-1.82,2.782-2.883,4.32c3.039,1.517,1.4,5.36,3.213,8.21c0.206-0.599,0.286-1.291,0.649-1.771
	c0.413-0.547,1.078-0.904,1.634-1.344c0.383,0.531,1.072,1.046,1.099,1.595c0.168,3.413-1.544,5.421-4.711,5.733
	c-4.036,0.398-6.06-0.932-6.714-4.496c-0.166-0.905-0.148-1.848-0.164-2.773c-0.05-3.204-0.386-3.552-3.501-3.448
	C114.489,182.523,113.954,182.642,113.278,182.732z M113.243,178.876c2.323,0.003,4.694,0.856,6.033-1.392
	c0.483-0.811,0.339-2.595-0.26-3.33c-1.481-1.822-3.652-1.12-5.773-0.911C113.243,175.121,113.243,176.844,113.243,178.876z"/>
<path fill-rule="evenodd" clip-rule="evenodd" fill="#D7C656" d="M230.606,192.486c-4.446,0-8.775,0-13.258,0
	c-0.4-1.683-0.912-3.238,1.813-3.492c0.53-0.049,1.332-1.272,1.357-1.976c0.136-3.901-0.015-7.812,0.103-11.713
	c0.073-2.382-1.648-2.271-3.322-2.531c0-1.05,0-2.015,0-3.1c6.176,0,12.308-0.281,18.397,0.098c4.002,0.249,6.225,3.677,4.965,7.056
	c-0.56,1.503-2.072,2.649-3.201,4.018c3.873,1.212,1.556,5.489,2.769,8.297c0.253-0.023,0.504-0.046,0.758-0.068
	c0.226-0.629,0.356-1.316,0.707-1.866c0.332-0.524,0.893-0.902,1.354-1.345c0.423,0.585,1.156,1.138,1.221,1.758
	c0.319,3.137-1.458,5.289-4.437,5.6c-4.018,0.419-6.343-1.041-6.838-4.377c-0.149-1.004-0.098-2.041-0.114-3.062
	c-0.052-3.036-0.374-3.362-3.37-3.271c-0.539,0.017-1.075,0.141-1.975,0.263c0,1.518-0.157,2.998,0.067,4.421
	c0.111,0.702,0.852,1.758,1.439,1.854C231.383,189.435,230.897,190.831,230.606,192.486z M227.668,179.031
	c2.298-0.27,4.638,0.682,5.891-1.522c0.479-0.841,0.422-2.598-0.16-3.312c-1.473-1.81-3.621-1.227-5.73-0.9
	C227.668,175.18,227.668,176.901,227.668,179.031z"/>
<path fill-rule="evenodd" clip-rule="evenodd" fill="#D7C656" d="M247.923,192.91c0-1.452,0-2.346,0-3.435
	c3.068,0.035,3.26-1.921,3.169-4.26c-0.113-2.967-0.101-5.945,0.026-8.912c0.094-2.182-0.411-3.665-3.124-3.465
	c-0.079-1.072-0.145-1.961-0.22-2.999c0.563-0.133,0.986-0.322,1.407-0.322c4.365-0.007,8.737-0.129,13.094,0.062
	c8.938,0.392,13.976,8.912,10.17,17.01c-1.457,3.102-3.938,5.134-7.249,5.442C259.515,192.562,253.79,192.637,247.923,192.91z
	 M258.355,173.245c0,5.273,0,10.398,0,15.488c4.524,0.829,6.517-0.512,7.037-4.795c0.22-1.812,0.271-3.69,0.057-5.498
	C264.925,174.017,263.335,172.857,258.355,173.245z"/>
<path fill-rule="evenodd" clip-rule="evenodd" fill="#D7C656" d="M157.249,183.269c0,3.105,0,6.13,0,9.256
	c-7.694,0-15.193,0-22.823,0c-0.415-1.753-0.816-3.194,1.689-3.479c0.515-0.058,1.298-1.075,1.315-1.668
	c0.115-4.183,0.115-8.373,0.007-12.558c-0.016-0.6-0.776-1.639-1.269-1.686c-2.214-0.215-2.282-1.474-1.796-3.389
	c7.509,0,15.083,0,23.027,0c0,2.412,0.091,4.903-0.071,7.376c-0.034,0.532-0.933,1.344-1.512,1.417
	c-0.647,0.083-1.658-0.336-2.025-0.872c-0.842-1.229-1.058-3.28-2.138-3.86c-1.508-0.81-3.57-0.603-5.4-0.779
	c-0.435-0.042-0.889,0.117-1.53,0.213c0,1.895,0,3.695,0,5.573c1.881,0.446,2.754-0.371,2.991-2.023
	c0.188-1.313,1.002-1.875,2.124-1.456c0.552,0.206,1.148,1.135,1.175,1.76c0.124,2.868,0.056,5.743,0.056,8.856
	c-1.059,0.061-1.934,0.112-2.853,0.164c-0.747-1.618-0.449-4.231-3.488-3.284c0,2.029,0,4.028,0,6.192
	c2.011,0,3.86,0.121,5.687-0.033c1.971-0.165,3.023-1.625,3.094-3.4C153.605,183.08,154.733,182.527,157.249,183.269z"/>
<path fill-rule="evenodd" clip-rule="evenodd" fill="#D7C656" d="M201.823,193.293c-9.941,0.124-14.459-7.649-12.147-16.361
	c0.859-3.238,2.93-5.508,5.991-6.9c7.495-3.407,16.229-0.175,18.085,6.985C216.105,186.096,211.398,193.316,201.823,193.293z
	 M206.626,181.108c-0.325-1.945-0.479-3.802-0.973-5.562c-0.514-1.83-1.793-2.995-3.855-2.997c-2.024-0.002-3.359,1.05-3.96,2.888
	c-1.208,3.704-1.21,7.47-0.042,11.18c0.568,1.808,1.833,2.983,3.879,3.01c2.182,0.028,3.504-1.212,4.036-3.152
	C206.194,184.712,206.341,182.858,206.626,181.108z"/>
<path fill-rule="evenodd" clip-rule="evenodd" fill="#D7C656" d="M184.738,183.762c-0.282,6.229-3.204,9.233-8.978,9.456
	c-1.476,0.059-2.997,0.079-4.438-0.196c-6.953-1.34-10.599-7.863-8.732-15.458c1.575-6.405,7.971-10.09,14.482-8.313
	c1.07,0.291,2.099,0.739,3.385,1.201c0.259-0.232,0.596-0.638,1.021-0.898c1.962-1.204,3.445-0.444,3.515,1.827
	c0.057,1.856-0.013,3.718,0.005,5.576c0.013,1.242-0.478,1.887-1.807,1.893c-1.12,0.005-1.859-0.097-2.188-1.482
	c-0.839-3.529-2.501-4.896-5.42-4.836c-2.831,0.057-4.652,1.632-5.11,5.193c-0.325,2.525-0.251,5.188,0.171,7.701
	c0.488,2.913,2.343,4.185,5.061,4.214c2.688,0.028,4.646-1.269,5.201-4.067C181.422,182.98,182.893,183.452,184.738,183.762z"/>
</svg>
