<?xml version="1.0" encoding="utf-8"?>
<!-- Generator: Adobe Illustrator 16.0.0, SVG Export Plug-In . SVG Version: 6.00 Build 0)  -->
<!DOCTYPE svg PUBLIC "-//W3C//DTD SVG 1.1//EN" "http://www.w3.org/Graphics/SVG/1.1/DTD/svg11.dtd">
<svg version="1.1" id="Layer_1" xmlns="http://www.w3.org/2000/svg" xmlns:xlink="http://www.w3.org/1999/xlink" x="0px" y="0px"
	 width="300px" height="300px" viewBox="0 0 300 300" enable-background="new 0 0 300 300" xml:space="preserve">
<path fill-rule="evenodd" clip-rule="evenodd" fill="#D7C656" d="M1.655,109.466c3.317,0,6.634,0,10.134,0
	c4.796,7.024,9.55,13.985,14.774,21.635c0-5.755,0.407-10.655-0.194-15.428c-0.252-1.999-2.644-3.728-4.02-5.525
	c1.867-0.938,7.828-1.107,11.666-0.111c-0.088,0.322-0.1,0.869-0.276,0.929c-4.062,1.373-4.661,4.628-4.646,8.29
	c0.029,7.259,0.009,14.521,0.009,22.093c-1.251,0.116-2.287,0.211-3.415,0.315c-5.345-7.863-10.583-15.571-16.295-23.975
	c0,6.279-0.144,11.727,0.06,17.163c0.104,2.799,1.818,4.771,5.28,5.277c-2.666,1.543-6.595,1.778-13.075,1.158
	c0-0.246,0-0.493,0-0.74c2.515-1.162,5.031-2.442,5.072-5.681c0.091-7.002,0.029-14.006,0.029-21.618
	c-1.649-0.744-3.375-1.523-5.101-2.303C1.655,110.453,1.655,109.959,1.655,109.466z"/>
<path fill-rule="evenodd" clip-rule="evenodd" fill="#D7C656" d="M127.464,77.644c0.248,2.034,0.604,4.062,0.714,6.104
	c0.125,2.313,0.029,4.638,0.029,7.101c1.863-1.167,3.377-2.467,5.131-3.151c5.666-2.21,10.2,0.88,10.333,6.911
	c0.069,3.077-0.01,6.157,0.025,9.235c0.015,1.33,0.151,2.658,0.229,3.94c1.284,0.629,2.329,1.141,3.376,1.653
	c-0.033,0.249-0.064,0.499-0.097,0.748c-4.099,0.648-8.234,0.264-12.357,0.226c-0.263-0.371-0.526-0.742-0.788-1.113
	c1.021-0.545,2.044-1.089,2.92-1.557c0-5.893,0-11.521,0-16.987c-2.668-1.917-4.709-0.774-6.023,1.052
	c-1.241,1.725-2.21,3.914-2.482,6.004c-0.409,3.139-0.106,6.372-0.106,9.712c0.842,0.646,1.687,1.294,2.497,1.915
	c-0.164,1.31-7.923,1.617-13.268,0.445c1.492-0.802,2.56-1.376,3.985-2.142c0-8.729,0-17.649,0-26.601
	c-0.99-0.672-1.839-1.248-3.347-2.271c3.329-0.48,5.908-0.852,8.489-1.224C126.971,77.644,127.218,77.644,127.464,77.644z"/>
<path fill-rule="evenodd" clip-rule="evenodd" fill="#D7C656" d="M82.321,216.034c-0.993-0.453-1.997-0.886-2.979-1.362
	c-5.391-2.625-8.094-8.159-6.72-13.733c1.257-5.1,6.813-9.342,12.024-9.179c5.539,0.172,10.763,4.604,11.759,9.98
	c1.019,5.49-2.167,11.021-7.65,13.265c-0.901,0.37-1.822,0.688-2.734,1.029C84.789,216.034,83.554,216.034,82.321,216.034z
	 M89.887,204.143c-0.353-2.384-0.552-4.719-1.078-6.979c-0.491-2.108-1.891-3.349-4.235-3.404c-2.502-0.059-4.025,1.182-4.585,3.455
	c-1.106,4.491-1.136,9.03,0.085,13.514c0.585,2.144,2.123,3.265,4.376,3.271c2.29,0.004,3.778-1.25,4.325-3.342
	C89.331,208.531,89.532,206.315,89.887,204.143z"/>
<path fill-rule="evenodd" clip-rule="evenodd" fill="#D7C656" d="M297.678,135.368c-3.559,7.229-8.302,8.581-17.104,4.378
	c-0.283,0.677-0.666,1.593-1.048,2.509c-0.288-0.169-0.575-0.339-0.862-0.51c0-3.293,0-6.588,0-9.882
	c0.207-0.115,0.416-0.23,0.623-0.345c0.566,1.049,1.173,2.078,1.691,3.15c1.271,2.632,2.845,4.944,5.95,5.582
	c3.382,0.694,5.518-1.306,5.227-5.246c-1.104-0.568-2.357-1.303-3.684-1.868c-1.354-0.576-2.803-0.932-4.174-1.476
	c-3.67-1.455-5.414-3.866-5.025-6.842c0.414-3.173,3.273-6.22,6.689-6.45c2.369-0.161,4.79,0.441,7.186,1.332
	c0.717-0.343,1.433-0.687,2.437-1.168c0,2.966,0,5.6,0,8.234c-0.244,0.095-0.491,0.191-0.736,0.285
	c-0.435-0.847-0.911-1.677-1.297-2.546c-0.95-2.133-2.386-3.75-4.698-4.368c-2.619-0.701-4.219,0.303-5.292,3.758
	c2.119,0.875,4.268,1.927,6.52,2.657c3.27,1.059,6.122,2.529,7.598,5.854C297.678,133.395,297.678,134.38,297.678,135.368z"/>
<path fill-rule="evenodd" clip-rule="evenodd" fill="#D7C656" d="M188.148,216.034c-4.129-1.339-5.621-4.198-5.36-8.461
	c0.252-4.152,0.055-8.333,0.055-12.657c-1.506-0.408-2.839-0.77-4.814-1.305c2.522-1.322,4.934-1.932,6.277-3.472
	c1.429-1.636,1.848-4.154,2.824-6.575c0.232-0.022,0.81-0.075,1.81-0.167c0,2.918,0,5.685,0,8.675
	c2.456,0.229,4.544,0.424,6.63,0.619c0.018,0.378,0.035,0.757,0.052,1.137c-2.001,0.289-4.004,0.578-6.532,0.945
	c0.091,5.967-0.576,12.012,0.52,18.088c5.559,1.464,4.418-3.793,6.294-5.894c2.068,3.611,0.326,6.784-4.793,9.066
	C190.123,216.034,189.135,216.034,188.148,216.034z"/>
<path fill-rule="evenodd" clip-rule="evenodd" fill="#D7C656" d="M103.437,146.119c2.288,6.79,4.551,13.512,7.124,21.15
	c2.534-7.624,4.786-14.399,7.091-21.336c4.162-0.211,8.07-0.365,11.957,0.042c0.037,0.351,0.074,0.703,0.112,1.054
	c-1.431,0.477-2.864,0.954-4.968,1.654c-0.239,8.777-0.06,17.685-0.109,26.708c1.749,0.72,3.231,1.329,4.713,1.938
	c-0.042,0.216-0.084,0.432-0.127,0.648c-5.218,0-10.437,0-15.656,0c-0.078-0.223-0.155-0.445-0.231-0.666
	c1.349-0.54,2.7-1.077,4.295-1.713c0-7.11,0-14.216,0-21.32c-3.487,7.792-5.428,16.244-9.291,24.14
	c-2.986-3.756-3.604-8.293-5.141-12.43c-1.529-4.115-2.763-8.341-4.482-12.44c0,6.214-0.32,12.45,0.188,18.62
	c0.161,1.957,2.533,3.731,3.862,5.548c-1.65,0.903-7.869,1.035-11.956-0.751c0.483-0.123,0.971-0.227,1.447-0.374
	c2.623-0.815,3.774-2.927,3.827-5.352c0.161-7.368,0.058-14.742,0.058-22.437c-1.598-0.581-3.144-1.144-4.799-1.745
	C93.252,145.537,96.792,145.27,103.437,146.119z"/>
<path fill-rule="evenodd" clip-rule="evenodd" fill="#D7C656" d="M138.67,183.408c1.499,0,2.591,0,4.051,0
	c0.548,1.235,1.179,2.533,1.71,3.871c2.63,6.637,5.215,13.29,7.862,19.918c0.545,1.365,1.146,2.745,1.965,3.955
	c1.771,2.618,3.438,2.893,6.832,1.192c0-5.592,0-11.322,0-17.213c-1.062-0.52-2.117-1.036-3.216-1.575
	c1.706-1.448,3.573-1.68,9.339-1.203c0.197,0.622,0.406,1.283,0.647,2.044c0.349-0.215,0.676-0.36,0.934-0.584
	c1.865-1.626,4.041-2.819,6.381-1.646c1.349,0.676,2.614,2.222,3.1,3.655c0.288,0.855-0.736,2.577-1.651,3.321
	c-1.573,1.283-3.231,0.67-4.647-0.979c-0.137-0.934-0.293-2.012-0.449-3.092c-3.597,1.694-4.648,6.53-3.614,16.904
	c0.735,0.693,1.599,1.507,2.489,2.345c-2.498,1.327-23.612,1.435-26.856,0.079c1.077-0.738,2.027-1.391,3.396-2.328
	c-1.051-2.932-2.113-5.89-3.229-9.006c-3.435,0-6.709,0-10.549,0c-0.735,2.826-1.512,5.817-2.272,8.738
	c1.706,1.049,2.814,1.732,3.997,2.46c-2.339,1.309-8.472,1.479-11.954,0.418c0.01-0.23-0.038-0.645,0.039-0.671
	c3.952-1.299,5.475-4.633,6.831-8.104c2.417-6.19,4.817-12.386,7.236-18.577C137.529,186.081,138.07,184.85,138.67,183.408z
	 M142.658,200.782c-1.525-3.853-2.797-7.063-4.387-11.078c-1.538,4.198-2.742,7.485-4.056,11.078
	C137.099,200.782,139.5,200.782,142.658,200.782z"/>
<path fill-rule="evenodd" clip-rule="evenodd" fill="#D7C656" d="M229.232,139.557c2.607,0,4.93,0,7.52,0c0-6.456,0-12.303,0-18.235
	c-1.183-0.469-2.27-0.9-3.357-1.331c-0.002-0.292-0.005-0.583-0.008-0.875c3.067-0.62,6.216-0.614,9.883-0.716
	c0,6.741,0,13.312,0,19.676c1.226,1.111,2.069,1.875,3.461,3.136c-9.835,0-18.935,0-28.919,0c1.576-1.045,2.478-1.644,3.668-2.433
	c-1.726-2.862-3.41-5.658-5.241-8.695c-1.038,0.698-1.81,1.215-2.467,1.657c0,2.395,0,4.575,0,6.734
	c0.998,0.781,1.827,1.43,3.449,2.699c-4.716,0.566-8.606,0.288-13.29,0.236c1.383-1.301,2.198-2.068,3.188-3
	c0-8.571,0-17.278,0-26.101c-1.307-0.569-2.488-1.084-3.67-1.599c-0.003-0.26-0.006-0.521-0.01-0.782
	c3.001-1.038,6.282-0.227,9.781-1.129c0,6.762,0,13.21,0,19.659c0.293,0.157,0.585,0.314,0.874,0.471
	c2.562-1.947,5.202-3.812,6.92-7.217c-1.466-0.708-2.671-1.29-3.875-1.872c0.037-0.221,0.077-0.443,0.116-0.665
	c4.505,0,9.009,0,13.514,0c0.09,0.199,0.177,0.398,0.265,0.597c-1.758,0.722-3.629,1.256-5.242,2.22
	c-1.658,0.991-3.066,2.4-4.865,3.853C223.684,130.398,226.337,134.776,229.232,139.557z"/>
<path fill-rule="evenodd" clip-rule="evenodd" fill="#D7C656" d="M266.155,177.878c1.289-1.086,2.083-1.755,3.089-2.603
	c0.229-5.684,0.611-11.497-0.34-17.162c-4.286-0.61-6.553,0.523-7.275,4.272c-0.806,4.172-0.844,8.493-1.188,12.459
	c1.312,1.137,2.123,1.84,2.958,2.563c-2.368,1.214-8.079,1.338-11.811,0.198c0.859-0.803,1.609-1.502,2.706-2.526
	c0.066-5.418,0.625-11.135-0.376-16.686c-3.433-0.959-5.272-0.527-6.406,2.229c-1.048,2.546-1.438,5.407-1.808,8.172
	c-0.276,2.049-0.055,4.165-0.055,6.722c0.757,0.568,1.621,1.218,2.455,1.845c-0.435,1.372-9.367,1.47-12.768,0.079
	c1.204-0.64,2.224-1.183,3.532-1.878c0-5.73,0-11.567,0-17.511c-1.134-0.491-2.211-0.958-3.287-1.426
	c0.015-0.296,0.029-0.593,0.043-0.889c3.07-0.741,6.271-0.234,9.5-0.655c0.328,1.307,0.584,2.318,0.859,3.41
	c6.695-5.141,10.894-4.867,14.418,0.98c2.265-2.501,4.623-4.706,8.354-4.568c4.535,0.17,6.827,2.232,6.936,6.784
	c0.08,3.323-0.012,6.653,0.037,9.978c0.02,1.322,0.207,2.643,0.321,3.996c1.331,0.562,2.418,1.022,3.616,1.528
	C277.709,178.534,272.308,178.826,266.155,177.878z"/>
<path fill-rule="evenodd" clip-rule="evenodd" fill="#D7C656" d="M139.308,175.489c3.988,0.92,5.623,0.082,7.178-3.056
	c1.61-3.245,2.062-9.533,0.967-14.291c-1.057-0.477-2.229-1.004-3.399-1.531c0.012-0.279,0.025-0.558,0.036-0.836
	c3.078-0.807,6.302-0.285,10.063-0.713c0,6.938,0,13.615,0,20.126c1.754,0.929,2.968,1.57,4.18,2.213
	c-0.037,0.272-0.071,0.545-0.107,0.816c-3.194,0.156-6.389,0.311-9.842,0.478c-0.185-1.396-0.339-2.565-0.537-4.066
	c-0.861,0.789-1.567,1.522-2.358,2.148c-2.704,2.136-5.71,2.922-8.974,1.536c-3.205-1.357-3.861-4.233-3.892-7.326
	c-0.043-4.17-0.011-8.342-0.011-12.664c-1.53-0.6-2.844-1.115-4.239-1.661c1.831-1.507,3.761-1.714,10.591-1.128
	C139.077,162.118,139.192,168.78,139.308,175.489z"/>
<path fill-rule="evenodd" clip-rule="evenodd" fill="#D7C656" d="M99.919,107.687c0-9.231,0-18.075,0-27.136
	c-3.165-0.386-5.023,1.317-6.232,3.666c-1.091,2.121-1.74,4.468-2.975,6.676c-1.178-3.904-0.582-7.828-0.721-12.097
	c9.103,0,17.865,0,26.919,0c0,4.059,0,8.009,0,11.959c-0.243,0.155-0.486,0.311-0.729,0.466c-2.188-4.264-2.164-10.554-9.116-10.884
	c0,9.225,0,18.258,0,27.363c1.339,0.602,2.518,1.132,3.825,1.719c-2.28,1.332-10.909,1.542-15.107,0.305
	C97.36,108.948,98.563,108.355,99.919,107.687z"/>
<path fill-rule="evenodd" clip-rule="evenodd" fill="#D7C656" d="M142.218,138.72c1.483,0.745,2.524,1.268,3.566,1.791
	c-4.195,1.296-8.347,0.917-12.486,0.931c-0.25-0.347-0.501-0.694-0.752-1.041c0.993-0.573,1.985-1.146,2.96-1.707
	c0-5.756,0-11.386,0-16.896c-3.306-1.288-5.683-0.66-6.897,2.301c-1.003,2.447-1.392,5.191-1.739,7.846
	c-0.27,2.052-0.055,4.166-0.055,6.231c1.035,0.905,1.912,1.672,3.47,3.035c-4.908,0.502-9.045,0.261-13.176,0.227
	c-0.078-0.255-0.155-0.51-0.233-0.766c0.955-0.557,1.91-1.114,3.24-1.892c0-5.608,0-11.44,0-17.435
	c-1.165-0.443-2.262-0.862-3.436-1.31c1.758-1.417,5.454-1.887,9.824-1.281c0.155,1.006,0.318,2.069,0.528,3.438
	c0.916-0.781,1.674-1.509,2.511-2.127c2.799-2.064,5.858-2.512,9.072-1.159c3.134,1.319,3.617,4.076,3.607,7.059
	C142.208,130.258,142.218,134.549,142.218,138.72z"/>
<path fill-rule="evenodd" clip-rule="evenodd" fill="#D7C656" d="M169.067,109.735c1.531,0,2.72,0,4.122,0
	c0.745,1.745,1.493,3.408,2.171,5.101c2.236,5.594,4.473,11.187,6.655,16.802c1.373,3.532,2.456,7.234,6.674,8.879
	c-2.835,1.262-11.288,1.336-14.74,0.184c1.055-0.68,1.917-1.235,3.062-1.972c0.045-3.287-1.721-6.105-3.016-9.288
	c-3.281,0-6.447,0-10.264,0c-0.779,2.787-1.604,5.732-2.417,8.636c1.669,1.077,2.753,1.777,3.838,2.476
	c-0.032,0.261-0.066,0.52-0.1,0.78c-3.826,0.362-7.664,0.116-11.706-0.29c6.387-3.076,6.987-9.53,9.292-14.854
	C164.972,120.799,166.933,115.247,169.067,109.735z M169.109,117.015c-0.25,0.003-0.502,0.006-0.753,0.009
	c-1.166,3.265-2.334,6.529-3.587,10.034c2.998,0,5.427,0,8.33,0C171.693,123.52,170.401,120.267,169.109,117.015z"/>
<path fill-rule="evenodd" clip-rule="evenodd" fill="#D7C656" d="M273.615,138.791c1.388,0.685,2.347,1.158,3.402,1.68
	c-2.172,1.233-8.161,1.463-13.031-0.079c1.064-0.537,2.13-1.076,2.744-1.387c0-6.244,0-11.836,0-17.282
	c-3.474-1.161-5.622-0.455-6.998,2.48c-1.992,4.245-2.102,8.83-1.476,13.371c0.154,1.117,1.474,2.076,2.735,3.735
	c-4.429,0.33-8.493,0.276-12.751-0.682c0.983-0.556,1.966-1.114,3.196-1.812c0-5.773,0-11.607,0-17.466
	c-1.311-0.531-2.459-0.997-3.607-1.463c0.032-0.295,0.063-0.589,0.094-0.883c3.165-0.219,6.329-0.439,9.666-0.67
	c0.203,1.403,0.356,2.466,0.563,3.895c0.807-0.671,1.404-1.432,2.185-1.766c1.984-0.853,4.014-1.995,6.093-2.153
	c4.259-0.324,6.709,2.084,6.901,6.334c0.155,3.44,0.063,6.891,0.107,10.335C273.455,136.188,273.549,137.397,273.615,138.791z"/>
<path fill-rule="evenodd" clip-rule="evenodd" fill="#D7C656" d="M215.702,175.53c3.869,0.887,5.581,0.077,7.023-3.121
	c2.054-4.557,1.65-9.337,1.342-14.16c-1.466-0.597-2.668-1.085-3.954-1.609c1.848-1.458,3.557-1.667,10.331-1.242
	c0,6.627,0,13.318,0,19.934c1.708,0.803,2.885,1.356,4.062,1.908c-3.164,1.56-6.46,1.137-9.906,1.427
	c-0.173-1.437-0.316-2.618-0.489-4.038c-0.979,0.88-1.798,1.758-2.751,2.447c-2.676,1.935-5.622,2.576-8.717,1.187
	c-3.006-1.353-3.705-4.097-3.756-7.069c-0.057-3.081,0-6.163-0.027-9.245c-0.012-1.21-0.109-2.419-0.172-3.692
	c-1.483-0.608-2.789-1.143-4.094-1.677c0.017-0.264,0.034-0.529,0.051-0.795c2.973-0.738,6.044-0.472,9.562-0.526
	C214.719,162.201,215.218,168.979,215.702,175.53z"/>
<path fill-rule="evenodd" clip-rule="evenodd" fill="#D7C656" d="M101.466,212.44c0-5.874,0-11.634,0-17.571
	c-1.178-0.356-2.287-0.691-3.396-1.027c-0.044-0.288-0.086-0.575-0.13-0.863c1.138-0.328,2.277-0.655,3.624-1.043
	c0.253-1.08,0.455-2.286,0.822-3.438c1.44-4.535,6.798-7.363,11.286-5.784c1.307,0.46,2.714,1.441,3.409,2.587
	c0.562,0.93,0.601,2.823-0.004,3.629c-0.602,0.798-2.525,1.321-3.454,0.942c-0.896-0.364-1.397-1.985-1.799-3.149
	c-0.197-0.571,0.224-1.354,0.401-2.216c-0.64-0.108-1.118-0.302-1.558-0.234c-0.58,0.086-1.128,0.375-2.179,0.752
	c-0.153,2.173-0.313,4.431-0.491,6.949c1.3,0.164,2.238,0.269,3.17,0.403c0.907,0.13,1.81,0.287,2.716,0.435
	c0.031,0.318,0.062,0.636,0.094,0.953c-1.757,0.327-3.513,0.653-5.591,1.041c0,5.664,0,11.399,0,17.416
	c0.724,0.608,1.619,1.358,2.569,2.157c-2.409,1.127-8.391,1.333-13.596,0.312C99.054,213.763,100.073,213.205,101.466,212.44z"/>
<path fill-rule="evenodd" clip-rule="evenodd" fill="#D7C656" d="M117.11,130.194c0.011,6.283-5.732,11.967-12.147,12.024
	c-6.59,0.058-12.442-5.723-12.328-12.18c0.112-6.36,5.846-11.879,12.297-11.837C111.364,118.245,117.1,123.892,117.11,130.194z
	 M99.343,130.331c0.351,2.197,0.551,4.408,1.085,6.534c0.563,2.232,2.098,3.599,4.531,3.548c2.254-0.05,3.691-1.356,4.271-3.422
	c1.249-4.459,1.238-8.979,0.038-13.442c-0.593-2.208-2.086-3.611-4.538-3.554c-2.457,0.058-3.845,1.573-4.364,3.776
	C99.863,125.905,99.675,128.116,99.343,130.331z"/>
<path fill-rule="evenodd" clip-rule="evenodd" fill="#D7C656" d="M73.501,139.663c-0.27,0.673-0.641,1.6-1.012,2.526
	c-0.292-0.182-0.586-0.363-0.88-0.544c0-3.329,0-6.66,0-9.989c0.295-0.076,0.59-0.149,0.884-0.224
	c0.596,1.27,1.166,2.553,1.793,3.808c1.205,2.413,2.88,4.322,5.678,4.856c3.485,0.667,5.508-1.338,5-5.504
	c-1.874-0.776-3.97-1.729-6.127-2.518c-5.639-2.058-7.533-4.619-6.278-8.657c1.319-4.245,6.35-6.415,11.305-4.847
	c0.819,0.259,1.595,0.65,2.375,0.973c0.652-0.36,1.279-0.705,2.205-1.216c0.771,3.016,0.833,5.766-0.236,9.473
	c-2.25-3.935-3.334-8.298-8.359-7.872c-1.729,0.147-2.103,0.523-3.492,3.317c1.155,0.702,2.286,1.574,3.557,2.124
	c1.917,0.829,3.958,1.368,5.897,2.151c2.726,1.098,4.508,3.041,4.627,6.095c0.117,2.96-1.269,5.247-3.72,6.802
	c-2.739,1.739-5.713,2.249-8.834,1.104C76.625,141.058,75.41,140.479,73.501,139.663z"/>
<path fill-rule="evenodd" clip-rule="evenodd" fill="#D7C656" d="M162.849,176.865c-0.788,0.675-1.477,1.265-2.505,2.145
	c0-3.774,0-7.042,0-10.311c0.271-0.074,0.539-0.149,0.809-0.223c0.555,1.13,1.112,2.259,1.666,3.389
	c1.237,2.529,2.916,4.609,5.815,5.263c3.347,0.753,5.499-1.317,5.136-5.292c-1.089-0.563-2.338-1.31-3.664-1.869
	c-1.357-0.572-2.816-0.902-4.189-1.444c-3.478-1.367-5.221-3.694-4.983-6.54c0.268-3.194,3.024-6.358,6.434-6.685
	c2.36-0.226,4.792,0.317,7.191,0.517c0.01,0.261,0.02,0.521,0.029,0.785c0.828-0.337,1.656-0.675,2.743-1.116
	c0.412,3.011,0.797,5.71-0.453,8.997c-2.157-3.555-3.161-7.804-8.014-7.54c-1.718,0.095-3.094,0.749-3.729,3.283
	c1.118,0.687,2.319,1.617,3.668,2.208c2.025,0.89,4.23,1.378,6.225,2.322c4.715,2.235,5.646,7.573,1.996,11.329
	c-2.951,3.034-6.561,3.729-10.537,2.42C165.327,178.123,164.247,177.504,162.849,176.865z"/>
<path fill-rule="evenodd" clip-rule="evenodd" fill="#D7C656" d="M169.133,98.917c-4.944,0-9.684,0-14.327,0
	c-0.872,5.277,0.233,8.74,3.01,9.778c2.353,0.88,4.84,0.649,6.638-0.963c1.636-1.465,2.669-3.599,4.36-5.993
	c0.116,1.27,0.382,2.051,0.216,2.728c-0.688,2.816-2.414,4.866-5.145,5.852c-4.557,1.646-8.756,0.83-12.39-2.359
	c-3.663-3.216-4.921-8.239-3.196-12.804c1.701-4.5,4.889-7.375,9.779-7.922C164.758,86.486,169.313,91.04,169.133,98.917z
	 M154.822,96.579c2.758,0,5.259,0,7.7,0c0.786-4.826-0.333-7.415-3.115-7.63C156.405,88.716,154.952,91.054,154.822,96.579z"/>
<path fill-rule="evenodd" clip-rule="evenodd" fill="#D7C656" d="M203.774,166.604c-4.92,0-9.661,0-14.749,0
	c0.128,1.872,0.107,3.326,0.344,4.74c0.638,3.793,1.777,5.12,4.47,5.463c3.421,0.438,6.201-0.97,7.644-3.888
	c0.466-0.942,0.89-1.907,1.977-2.807c0.146,0.591,0.504,1.222,0.4,1.764c-0.575,3-2.36,5.123-5.141,6.31
	c-4.177,1.786-9.619,0.546-12.962-2.841c-3.478-3.527-4.374-8.714-2.304-13.328c2.028-4.516,6.372-7.24,11.167-7.005
	C200.592,155.308,204.327,159.725,203.774,166.604z M195.557,157.089c-4.875-0.271-6.306,1.642-5.636,7.396c2.458,0,4.93,0,7.442,0
	C197.917,161.582,197.962,159.128,195.557,157.089z"/>
<path fill-rule="evenodd" clip-rule="evenodd" fill="#D7C656" d="M54.497,129.688c-4.878,0-9.623,0-14.256,0
	c-1.03,4.735,0.062,8.762,2.603,9.962c2.453,1.159,5.049,0.846,6.982-0.793c1.667-1.415,2.697-3.581,4.301-5.823
	c0.175,0.969,0.487,1.625,0.362,2.184c-0.799,3.586-3.068,5.841-6.608,6.717c-5.957,1.471-12.269-1.994-14.248-7.741
	c-1.998-5.797,0.78-12.31,6.366-14.913C47.507,115.783,55.677,121.474,54.497,129.688z M48.015,127.775
	c0.403-2.931,0.796-5.55-1.672-7.108c-0.91-0.575-2.818-0.553-3.721,0.038c-2.411,1.579-2.626,4.173-2.272,7.07
	C42.912,127.775,45.311,127.775,48.015,127.775z"/>
<path fill-rule="evenodd" clip-rule="evenodd" fill="#D7C656" d="M65.811,138.261c1.322,1.086,2.124,1.743,3.562,2.922
	c-4.976,0-9.154,0-13.332,0c-0.074-0.158-0.149-0.317-0.223-0.475c1.058-0.62,2.115-1.238,3.454-2.023c0-8.675,0-17.506,0-26.506
	c-0.905-0.57-1.8-1.133-2.695-1.697c0.003-0.262,0.007-0.524,0.011-0.787c2.926-0.209,5.851-0.417,9.225-0.658
	C65.811,118.969,65.811,128.639,65.811,138.261z"/>
<path fill-rule="evenodd" clip-rule="evenodd" fill="#D7C656" d="M195.696,118.417c2.094,0.236,4.089,0.459,6.526,0.734
	c-1.9,2.618-4.302,0.894-6.422,2.014c0,5.783,0,11.825,0,18.059c5.503,1.472,4.577-3.572,6.246-5.813
	c1.748,2.822,0.648,6.311-2.354,7.935c-4.955,2.682-10.312-0.201-10.614-5.832c-0.184-3.444-0.056-6.904-0.064-10.357
	c-0.005-1.329-0.001-2.657-0.001-4.031c-1.545-0.329-2.685-0.571-4.71-1.003c1.327-0.763,1.912-1.312,2.582-1.448
	c3.391-0.686,4.947-2.954,5.567-6.127c0.238-1.221-0.141-2.925,2.622-2.77C195.275,112.552,195.479,115.391,195.696,118.417z"/>
<path fill-rule="evenodd" clip-rule="evenodd" fill="#D7C656" d="M156.241,127.204c0.087,0.766,0.21,1.352,0.211,1.938
	c0,0.714-0.102,1.427-0.179,2.382c-3.383,0-6.616,0-10.083,0c0-1.486,0-2.76,0-4.32
	C149.509,127.204,152.649,127.204,156.241,127.204z"/>
<path fill-rule="evenodd" clip-rule="evenodd" fill="#D7C656" d="M243.989,112.883c0.027,1.787-1.374,3.228-3.248,3.341
	c-1.968,0.12-3.737-1.403-3.76-3.235c-0.022-1.823,1.735-3.448,3.654-3.375C242.467,109.683,243.962,111.141,243.989,112.883z"/>
</svg>
