<?xml version="1.0" encoding="utf-8"?>
<!-- Generator: Adobe Illustrator 16.0.0, SVG Export Plug-In . SVG Version: 6.00 Build 0)  -->
<!DOCTYPE svg PUBLIC "-//W3C//DTD SVG 1.1//EN" "http://www.w3.org/Graphics/SVG/1.1/DTD/svg11.dtd">
<svg version="1.1" id="Layer_1" xmlns="http://www.w3.org/2000/svg" xmlns:xlink="http://www.w3.org/1999/xlink" x="0px" y="0px"
	 width="300px" height="300px" viewBox="0 0 300 300" enable-background="new 0 0 300 300" xml:space="preserve">
<path fill-rule="evenodd" clip-rule="evenodd" fill="#D7C656" d="M0.31,169.151c0.171-0.685,0.373-1.363,0.508-2.055
	c1.524-7.736,6.336-12.348,13.798-14.297c6.838-1.786,13.544-0.928,20.13,1.374c4.186,1.462,8.072,3.56,11.98,5.612
	c0.225,0.118,0.459,0.22,0.802,0.381c0.241-0.358,0.494-0.721,0.73-1.093c3.697-5.828,6.549-12.071,9.122-18.46
	c3.888-9.654,7.834-19.286,11.756-28.928c0.097-0.237,0.206-0.471,0.285-0.715c0.637-1.977,1.899-3.051,4.064-3.095
	c1.724-0.036,3.444-0.273,5.274-0.429c-0.126,0.428-0.19,0.722-0.299,0.999c-4.545,11.488-9.016,23.007-13.672,34.45
	c-3.001,7.377-6.709,14.416-11.034,21.135c0.089,0.137,0.142,0.307,0.255,0.376c4.662,2.811,9.268,5.722,14.014,8.381
	c4.367,2.447,9.049,4.1,14.061,4.772c5.818,0.781,11.017-0.666,15.594-4.243c1.814-1.417,3.503-3.034,5.058-4.734
	c4.333-4.743,8.562-9.581,12.843-14.373c1.604-1.794,2.515-3.966,3.497-6.119c3.499-7.666,8.454-14.187,15.363-19.104
	c2.389-1.7,4.917-3.178,7.854-3.783c3.043-0.627,6.029-0.476,8.908,0.733c4.275,1.797,6.341,5.866,5.393,10.414
	c-0.781,3.756-2.692,6.858-5.429,9.472c-3.68,3.515-7.96,6.133-12.58,8.221c-4.129,1.869-8.442,3.189-12.826,4.299
	c-0.547,0.139-1.095,0.281-1.626,0.467c-1.38,0.484-2.274,1.453-2.446,2.903c-0.289,2.442-0.522,4.894-0.671,7.348
	c-0.055,0.903,0.086,1.855,0.325,2.734c0.876,3.229,3.36,5.045,7.326,4.644c5.989-0.607,11.086-3.266,15.502-7.255
	c6.074-5.486,11.707-11.416,17.118-17.548c8.265-9.366,16.509-18.751,24.636-28.238c7.894-9.214,15.417-18.719,21.918-28.999
	c3.312-5.237,6.094-10.689,7.67-16.711c0.287-1.096,0.541-2.159,0.201-3.323c-0.843-2.891-4.045-4.257-6.637-2.729
	c-0.61,0.359-1.162,0.85-1.662,1.357c-2.15,2.179-3.815,4.671-4.998,7.517c-4.805,11.551-9.669,23.077-14.482,34.624
	c-0.546,1.308-1.259,2.428-2.316,3.388c-3.347,3.043-6.646,6.139-9.968,9.212c-0.26,0.241-0.537,0.464-1.082,0.566
	c0.168-0.483,0.312-0.976,0.509-1.448c3.992-9.612,7.984-19.226,11.992-28.832c3.04-7.288,6.093-14.57,9.158-21.847
	c1.284-3.048,2.835-5.937,5.322-8.207c2.283-2.085,4.901-3.539,7.97-4.099c6.24-1.138,12.314,3.234,13.281,9.482
	c0.666,4.305-0.182,8.373-1.758,12.337c-1.752,4.408-4.221,8.438-6.733,12.436c-5.261,8.368-11.275,16.19-17.565,23.793
	c-6.979,8.436-14.116,16.741-21.134,25.144c-1.042,1.249-2.004,2.638-2.671,4.112c-2.916,6.448-5.711,12.949-8.545,19.433
	c-0.18,0.411-0.315,0.841-0.472,1.262c0.213,0.134,0.333,0.272,0.464,0.282c7.811,0.574,14.873-1.35,20.935-6.426
	c4.66-3.903,8.913-8.243,12.921-12.799c7.604-8.646,15.105-17.383,22.662-26.072c0.772-0.889,1.54-1.825,2.47-2.529
	c2.145-1.626,4.913-0.729,5.731,1.742c0.331,1.002,0.12,1.943-0.324,2.829c-0.297,0.59-0.695,1.142-1.116,1.653
	c-1.215,1.476-1.896,3.176-2.089,5.049c-0.411,3.987-0.376,7.974-0.139,11.979c0.215,3.635,0.126,7.288,0.184,10.933
	c0.068,4.268-0.049,8.521-0.982,12.711c-0.221,0.989-0.451,1.978-0.748,3.274c3.683-1.703,6.807-3.782,9.685-6.199
	c2.9-2.437,5.661-5.039,8.536-7.615c-0.277,3.253-0.558,6.464-0.819,9.677c-0.071,0.862-0.371,1.576-1.043,2.146
	c-5.769,4.88-11.958,9.062-19.236,11.366c-6.388,2.021-12.854,2.591-19.403,0.731c-4.47-1.269-8.41-3.515-11.98-6.448
	c-0.992-0.814-1.93-1.696-2.916-2.521c-0.425-0.354-0.907-0.639-1.412-0.988c-0.658,0.305-1.273,0.55-1.854,0.863
	c-4.602,2.487-9.503,3.804-14.743,3.884c-3.324,0.052-3.589,0.494-3.183,3.732c0.845,6.722,1.607,13.456,2.353,20.189
	c0.252,2.291,0.494,4.601,0.494,6.901c-0.003,8.576-1.483,16.751-6.802,23.829c-3.21,4.272-7.312,7.12-12.713,7.55
	c-7.295,0.58-13.46-4.852-12.917-12.387c0.619-8.577,3.192-16.578,6.412-24.442c4.855-11.861,9.7-23.727,14.547-35.592
	c0.149-0.365,0.29-0.735,0.224-1.305c-0.395,0.336-0.786,0.677-1.185,1.008c-3.559,2.952-7.001,6.059-10.705,8.813
	c-4.332,3.224-9.215,5.411-14.625,6.12c-4.98,0.652-9.501-0.413-13.173-4.088c-1.724-1.726-2.659-3.875-3.264-6.189
	c-0.373-1.428-0.706-2.866-1.128-4.592c-0.63,0.664-1.096,1.178-1.586,1.666c-2.107,2.106-4.11,4.335-6.354,6.284
	c-10.027,8.709-21.316,10.329-33.622,5.698c-4.588-1.727-8.763-4.266-12.944-6.778c-2.991-1.798-5.971-3.615-9.061-5.486
	c-1.094,1.172-2.186,2.319-3.253,3.489c-3.738,4.095-7.88,7.678-12.952,10.038c-5.858,2.728-11.985,3.875-18.431,2.916
	c-7.26-1.081-12.701-6.48-13.917-13.749c-0.148-0.886-0.401-1.755-0.606-2.632C0.31,169.974,0.31,169.562,0.31,169.151z
	 M43.002,166.111c-2.518-1.271-4.809-2.525-7.181-3.603c-4.659-2.114-9.511-3.586-14.682-3.496
	c-4.151,0.074-7.812,1.477-10.76,4.534c-3.721,3.858-3.118,11.482,1.866,14.545c2.381,1.463,5.006,1.896,7.688,1.662
	C29.668,178.903,36.976,173.846,43.002,166.111z M192.146,170.587c4.639,4.569,9.983,7.378,16.412,7.75
	c2.835,0.165,5.26-0.929,6.76-3.484c0.642-1.094,1.184-2.28,1.561-3.49c1.154-3.696,1.561-7.525,1.533-11.376
	c-0.033-4.66-0.231-9.317-0.383-13.975c-0.035-1.088-0.17-2.173-0.282-3.536C209.104,151.965,200.651,161.248,192.146,170.587z
	 M157.774,185.557c-0.138,0.272-0.272,0.491-0.361,0.728c-4.191,11.127-8.399,22.248-12.558,33.388
	c-1.215,3.256-1.481,6.709-1.632,10.139c-0.114,2.58,1.543,4.059,4.113,4.149c3.438,0.121,6.01-1.48,8.125-3.982
	c1.67-1.976,2.877-4.225,3.782-6.655c1.732-4.646,1.707-9.465,1.407-14.293c-0.299-4.804-0.747-9.6-1.148-14.397
	c-0.223-2.656-0.49-5.31-0.719-7.966C158.733,186.085,158.786,185.479,157.774,185.557z M126.886,149.907
	c3.747-0.802,7.293-1.924,10.667-3.571c4.744-2.316,8.452-5.757,11.258-10.209c0.523-0.83,0.856-1.693,0.411-2.605
	c-0.46-0.94-1.354-1.107-2.353-1.107c-2.738,0.001-5.258,0.647-7.588,2.131C133.428,138.272,129.881,143.852,126.886,149.907z"/>
<path fill-rule="evenodd" clip-rule="evenodd" fill="#D7C656" d="M59.552,104.145c-9.244-0.271-17.679-0.833-25.667-4.12
	c-2.86-1.178-5.62-2.546-7.958-4.619c-2.972-2.633-4.481-5.931-4.457-9.923c0.009-1.414,0.459-2.557,1.842-3.077
	c1.466-0.551,2.963-0.559,4.193,0.541c0.454,0.405,0.836,1.115,0.883,1.715c0.263,3.336,2.125,5.446,4.974,6.887
	c4.014,2.029,8.235,3.415,12.667,4.182c5.337,0.923,10.7,1.113,16.092,0.64c3.728-0.327,7.455-0.704,11.191-0.91
	c1.741-0.097,2.739-0.952,3.424-2.4c1.272-2.688,2.506-5.396,3.822-8.062c2.803-5.679,5.928-11.158,10.219-15.882
	c4.191-4.613,9.206-7.811,15.385-9.079c2.831-0.58,5.602-0.618,8.313,0.476c3.752,1.515,5.92,4.316,6.503,8.299
	c0.683,4.665-0.846,8.812-3.222,12.7c-1.79,2.929-4.195,5.321-6.921,7.385c-7.862,5.953-16.712,9.771-26.254,12.066
	c-6.354,1.529-12.829,2.253-19.326,2.807C63.11,103.954,60.957,104.055,59.552,104.145z M84.833,93.027
	c0.511-0.094,0.814-0.109,1.09-0.206c2.566-0.894,5.164-1.712,7.684-2.724c5.418-2.173,10.484-4.958,14.775-9
	c1.812-1.706,3.372-3.599,4.381-5.894c0.644-1.463,1.158-2.966,1.07-4.603c-0.115-2.126-1.537-3.498-3.657-3.589
	c-2.428-0.105-4.668,0.579-6.832,1.578c-3.892,1.797-6.749,4.803-9.327,8.111c-3.112,3.992-5.385,8.48-7.598,13
	C85.912,90.737,85.424,91.785,84.833,93.027z"/>
<path fill-rule="evenodd" clip-rule="evenodd" fill="#D7C656" d="M244.871,168.599c0.721-11.606,4.563-21.954,12.072-30.876
	c2.992-3.556,6.369-6.709,10.087-9.492c2.651-1.983,5.632-3.252,8.945-3.377c3.003-0.114,5.945,0.372,8.521,2.127
	c3.123,2.128,4.501,5.983,3.504,9.925c-1.159,4.583-3.947,8.078-7.561,10.958c-4.963,3.955-10.632,6.598-16.608,8.587
	c-2.625,0.875-5.321,1.542-7.995,2.264c-1.234,0.332-2.178,0.876-2.361,2.285c-0.319,2.438-0.75,4.863-0.976,7.309
	c-0.103,1.1,0.041,2.269,0.306,3.349c0.801,3.27,3.7,5.123,7.279,4.783c4.783-0.454,9.077-2.239,12.864-5.103
	c2.532-1.914,4.939-4.036,7.178-6.29c4.055-4.083,7.934-8.342,11.907-12.507c0.453-0.475,0.991-0.91,1.569-1.215
	c1.361-0.722,2.911-0.471,4,0.548c1.148,1.072,1.476,2.575,0.752,4.035c-0.43,0.867-0.962,1.705-1.569,2.458
	c-5.607,6.941-11.683,13.414-18.984,18.627c-3.868,2.762-7.956,5.104-12.638,6.21c-3.655,0.863-7.32,1.073-10.934-0.166
	c-5.088-1.746-7.98-5.396-8.937-10.621C245.064,171.16,245.009,169.872,244.871,168.599z M258.138,149.983
	c0.448-0.042,0.705-0.017,0.93-0.093c2.858-0.962,5.779-1.781,8.553-2.948c4.554-1.915,8.48-4.758,11.532-8.709
	c0.829-1.073,1.428-2.229,1.398-3.648c-0.033-1.615-0.66-2.407-2.299-2.398c-1.157,0.006-2.354,0.188-3.462,0.521
	c-2.228,0.668-4.218,1.842-6.048,3.279C264.028,139.684,261.164,144.767,258.138,149.983z"/>
</svg>
