<?xml version="1.0" encoding="utf-8"?>
<!-- Generator: Adobe Illustrator 16.0.0, SVG Export Plug-In . SVG Version: 6.00 Build 0)  -->
<!DOCTYPE svg PUBLIC "-//W3C//DTD SVG 1.1//EN" "http://www.w3.org/Graphics/SVG/1.1/DTD/svg11.dtd">
<svg version="1.1" id="Layer_1" xmlns="http://www.w3.org/2000/svg" xmlns:xlink="http://www.w3.org/1999/xlink" x="0px" y="0px"
	 width="300px" height="300px" viewBox="0 0 300 300" enable-background="new 0 0 300 300" xml:space="preserve">
<path fill-rule="evenodd" clip-rule="evenodd" fill="#D7C656" d="M299.084,62.47c0,59.289,0,118.471,0,177.763
	c-99.377,0-198.651,0-298.022,0c0-59.287,0-118.472,0-177.763C100.396,62.47,199.639,62.47,299.084,62.47z M290.812,232.037
	c0-25.98,0-51.801,0-77.646c-93.896,0-187.662,0-281.469,0c0,25.949,0,51.768,0,77.646
	C103.21,232.037,196.949,232.037,290.812,232.037z M221.746,80.305c0,19.821,0,39.376,0,59.022c0.52,0.028,0.96,0.074,1.4,0.074
	c14.51,0.003,29.02-0.001,43.53,0.005c2.372,0.001,4.685-0.379,6.916-1.145c4.756-1.631,8.432-4.465,10.182-9.38
	c0.742-2.086,0.812-4.239,0.726-6.419c-0.237-6.03-3.727-10.916-9.357-13.08c-0.348-0.133-0.682-0.299-1.033-0.455
	c0.099-0.145,0.115-0.197,0.149-0.216c0.314-0.175,0.627-0.354,0.949-0.514c2.893-1.428,4.733-3.706,5.485-6.841
	c0.607-2.533,0.713-5.086,0.271-7.663c-1.393-8.122-9.139-13.517-15.372-13.443c-14.102,0.169-28.206,0.053-42.31,0.053
	C222.799,80.305,222.314,80.305,221.746,80.305z M20.396,122.219c-0.068,2.691,0.975,4.806,2.452,6.74
	c2.045,2.68,4.748,4.561,7.712,6.072c6.747,3.441,13.959,5.121,21.493,5.419c6.452,0.255,12.816-0.357,18.971-2.445
	c4.341-1.472,8.231-3.666,11.36-7.107c6.482-7.128,5.585-19.732-5.098-24.48c-0.701-0.312-1.407-0.615-2.125-0.885
	c-5.251-1.974-10.78-2.541-16.289-3.234c-3.892-0.49-7.782-1.021-11.65-1.667c-1.268-0.211-2.511-0.747-3.684-1.304
	c-1.412-0.671-2.404-1.74-2.412-3.462c-0.008-1.69,1.03-2.662,2.361-3.347c0.954-0.491,1.988-0.883,3.031-1.133
	c3.368-0.808,6.79-1.018,10.223-0.511c3.119,0.46,6.108,1.359,8.552,3.458c1.082,0.93,1.969,2.086,3.087,3.293
	c5.162-0.458,10.521-0.932,15.998-1.417c-1.516-5.432-4.435-9.509-9.016-12.365c-3.714-2.315-7.834-3.443-12.116-4.035
	c-5.076-0.702-10.171-0.773-15.276-0.306c-4.299,0.394-8.482,1.264-12.443,3.021c-3.138,1.391-5.917,3.274-8.079,6.001
	c-4.756,5.998-5.254,17.28,5.024,22.05c1.632,0.757,3.327,1.414,5.048,1.935c5.733,1.737,11.697,2.166,17.59,3.014
	c3.431,0.494,6.847,1.14,10.228,1.901c1.189,0.268,2.377,0.925,3.351,1.681c1.903,1.477,1.792,3.924-0.221,5.246
	c-1.036,0.681-2.24,1.25-3.445,1.498c-2.335,0.48-4.715,0.793-7.092,1.002c-3.942,0.346-7.859,0.074-11.682-1.01
	c-3.805-1.08-7.189-2.91-9.877-5.903C31.061,120.696,25.8,121.448,20.396,122.219z M165.483,80.388c0,0.718,0,1.297,0,1.876
	c-0.001,11.347,0.009,22.694-0.006,34.042c-0.007,4.847-2.103,7.878-6.735,9.31c-2.177,0.672-4.49,1.015-6.768,1.228
	c-4.303,0.403-8.481-0.215-12.362-2.237c-3.254-1.696-4.883-4.319-4.859-8.093c0.073-11.437,0.026-22.875,0.026-34.312
	c0-0.573,0-1.147,0-1.785c-5.654,0-11.133,0-16.658,0c-0.027,0.372-0.064,0.636-0.064,0.9c0,12.613-0.09,25.227,0.039,37.838
	c0.081,7.835,3.858,13.573,10.768,17.222c5.395,2.85,11.272,3.812,17.267,4.028c3.559,0.128,7.145,0.011,10.696-0.271
	c4.609-0.365,9.11-1.36,13.321-3.375c7.936-3.797,12.093-10.031,12.096-18.908c0.005-11.98,0.003-23.96-0.001-35.94
	c0-0.483-0.042-0.966-0.067-1.524C176.611,80.388,171.162,80.388,165.483,80.388z M112.263,110.085
	c-3.458-3.961-6.773-7.758-9.999-11.453c-3.885-0.342-9.912-0.168-10.899,0.37c0.268,0.401,0.49,0.824,0.793,1.174
	c2.515,2.9,5.046,5.786,7.568,8.68c0.346,0.397,0.663,0.821,1.033,1.281c-1.08,1.303-2.084,2.517-3.091,3.729
	c-1.009,1.216-2.041,2.415-3.026,3.65c-0.959,1.202-2.104,2.278-2.749,3.867c3.522,0.222,6.959,0.229,10.37,0.191
	C105.597,117.744,108.849,114.008,112.263,110.085z M201.004,110.058c-0.328,0.43-0.584,0.792-0.867,1.131
	c-2.429,2.918-4.867,5.829-7.287,8.754c-0.318,0.384-0.543,0.845-0.965,1.515c3.769,0,7.215,0,10.72,0
	c3.281-3.771,6.562-7.542,9.901-11.38c-3.455-3.95-6.779-7.752-10.086-11.533c-3.376,0-6.627-0.01-9.879,0.017
	c-0.3,0.002-0.599,0.236-1.147,0.468C194.688,102.811,197.819,106.404,201.004,110.058z"/>
<path fill-rule="evenodd" clip-rule="evenodd" fill="#D7C656" d="M148.771,224.406c-8.097-0.048-15.032-1.632-21.306-5.511
	c-8.289-5.125-13.146-12.473-13.921-22.305c-0.695-8.812,1.767-16.543,8.198-22.771c4.332-4.195,9.624-6.669,15.474-7.934
	c9.215-1.992,18.343-1.685,27.181,1.736c9.034,3.496,15.354,9.741,17.946,19.262c3.165,11.628-0.905,24.546-12.506,31.675
	c-5.253,3.228-10.99,4.979-17.104,5.555C151.161,224.262,149.583,224.347,148.771,224.406z M167.388,193.576
	c0.017-2.331-0.748-5.062-2.646-7.549c-4.586-6.012-10.919-8.314-18.219-7.846c-5.452,0.35-9.797,3.23-13.29,7.326
	c-2.493,2.923-3.861,6.312-3.431,10.236c0.65,5.927,3.856,10.169,9.037,12.834c8.044,4.138,15.695,2.742,22.779-2.351
	C165.566,203.389,167.391,199.279,167.388,193.576z"/>
<path fill-rule="evenodd" clip-rule="evenodd" fill="#D7C656" d="M39.561,200.751c0,7.456,0,14.673,0,21.831
	c-1.065,0.417-14.8,0.571-16.693,0.218c0-19.105,0-38.235,0-57.528c0.6-0.036,1.21-0.104,1.821-0.104
	c14.281-0.006,28.561-0.007,42.842-0.004c7.714,0.002,13.262,4.221,15.293,11.667c1.142,4.186,1.131,8.396-0.021,12.576
	c-1.93,7.003-7.149,11.114-14.425,11.311c-3.613,0.098-7.23,0.032-10.846,0.034c-5.378,0.003-10.755,0-16.133,0
	C40.867,200.751,40.335,200.751,39.561,200.751z M40.776,187.439c0.62,0.029,1.067,0.069,1.513,0.069
	c5.873,0.004,11.745,0.01,17.618-0.005c1.128-0.002,2.263-0.03,3.383-0.146c2.254-0.234,3.327-1.173,3.588-3.185
	c0.116-0.887,0.116-1.813,0.003-2.701c-0.227-1.792-1.216-2.832-3.036-3.168c-1.103-0.203-2.24-0.299-3.362-0.305
	c-6.098-0.028-12.197-0.016-18.295-0.012c-0.44,0-0.88,0.045-1.413,0.073C40.776,181.187,40.776,184.228,40.776,187.439z"/>
<path fill-rule="evenodd" clip-rule="evenodd" fill="#D7C656" d="M233.861,200.751c0,7.474,0,14.696,0,22.178
	c-5.568,0.039-11.042,0.057-16.613,0.024c0-19.312,0-38.445,0-57.791c0.701,0,1.317,0,1.934,0c14.191,0,28.384,0.089,42.574-0.032
	c8.747-0.075,14.035,5.617,15.587,12.213c1.017,4.319,0.933,8.602-0.381,12.837c-1.983,6.395-7.161,10.274-14.066,10.537
	c-2.076,0.079-4.157,0.032-6.236,0.033c-7.006,0.003-14.011,0.001-21.017,0.001C235.112,200.751,234.581,200.751,233.861,200.751z
	 M235.038,187.346c0.381,0.068,0.642,0.155,0.901,0.154c7.038-0.024,14.077-0.049,21.116-0.106c0.664-0.005,1.345-0.161,1.986-0.353
	c1.183-0.353,1.947-1.176,2.095-2.404c0.122-1.018,0.193-2.07,0.073-3.082c-0.231-1.964-1.132-2.903-3.049-3.259
	c-1.057-0.196-2.146-0.291-3.223-0.296c-6.182-0.028-12.364-0.017-18.546-0.012c-0.435,0-0.868,0.05-1.354,0.08
	C235.038,181.196,235.038,184.204,235.038,187.346z"/>
<path fill-rule="evenodd" clip-rule="evenodd" fill="#D7C656" d="M200.634,195.178c0.535,0.66,1.009,1.257,1.496,1.843
	c2.226,2.673,4.463,5.336,6.674,8.021c0.315,0.383,0.506,0.866,0.887,1.537c-0.786,0.163-1.285,0.351-1.787,0.356
	c-2.666,0.029-5.332,0.053-7.996-0.018c-0.562-0.015-1.283-0.279-1.646-0.684c-3.074-3.432-6.083-6.922-9.105-10.399
	c-0.145-0.166-0.235-0.377-0.415-0.672c0.211-0.313,0.398-0.664,0.652-0.957c2.871-3.311,5.762-6.604,8.623-9.923
	c0.541-0.627,1.126-0.947,1.979-0.936c2.801,0.038,5.603,0.013,8.403,0.017c0.591,0.001,1.204-0.025,1.563,0.913
	C207.075,187.955,203.716,191.405,200.634,195.178z"/>
<path fill-rule="evenodd" clip-rule="evenodd" fill="#D7C656" d="M107.991,206.485c-0.466,0.154-0.932,0.434-1.4,0.44
	c-2.801,0.042-5.603,0.044-8.403-0.003c-0.448-0.008-1.032-0.204-1.315-0.524c-3.175-3.584-6.305-7.209-9.44-10.828
	c-0.081-0.094-0.091-0.249-0.179-0.505c0.184-0.267,0.378-0.615,0.635-0.911c2.875-3.308,5.77-6.598,8.631-9.917
	c0.552-0.64,1.166-0.899,2.003-0.889c2.71,0.033,5.422,0.001,8.133,0.022c0.513,0.004,1.025,0.143,1.421,0.201
	c0.467,0.876-0.048,1.28-0.421,1.71c-2.4,2.763-4.811,5.516-7.216,8.274c-0.444,0.51-0.877,1.028-1.384,1.622
	c3.017,3.623,6.01,7.219,9.004,10.814C108.036,206.157,108.014,206.321,107.991,206.485z"/>
<path fill-rule="evenodd" clip-rule="evenodd" fill="#D7C656" d="M238.586,127.58c0-4.178,0-8.258,0-12.469
	c0.572-0.04,1.051-0.1,1.529-0.101c5.463-0.007,10.926-0.019,16.388,0.003c2.037,0.008,4.056,0.216,5.974,0.98
	c2.918,1.163,4.436,3.632,4.033,6.453c-0.254,1.779-1.307,2.925-2.799,3.749c-2.075,1.144-4.367,1.471-6.671,1.498
	c-5.868,0.067-11.737,0.025-17.606,0.021C239.214,127.713,238.993,127.646,238.586,127.58z"/>
<path fill-rule="evenodd" clip-rule="evenodd" fill="#D7C656" d="M238.604,101.923c0-3.202,0-6.425,0-9.742
	c0.377-0.062,0.72-0.167,1.062-0.165c6.413,0.046,12.827,0.055,19.237,0.203c1.315,0.031,2.701,0.406,3.91,0.944
	c2.973,1.325,3.304,4.983,0.705,6.948c-1.681,1.27-3.674,1.843-5.709,1.878c-6.231,0.107-12.467,0.061-18.7,0.068
	C238.981,102.057,238.853,101.991,238.604,101.923z"/>
</svg>
