<?xml version="1.0" encoding="utf-8"?>
<!-- Generator: Adobe Illustrator 16.0.0, SVG Export Plug-In . SVG Version: 6.00 Build 0)  -->
<!DOCTYPE svg PUBLIC "-//W3C//DTD SVG 1.1//EN" "http://www.w3.org/Graphics/SVG/1.1/DTD/svg11.dtd">
<svg version="1.1" id="Layer_1" xmlns="http://www.w3.org/2000/svg" xmlns:xlink="http://www.w3.org/1999/xlink" x="0px" y="0px"
	 width="300px" height="300px" viewBox="0 0 300 300" enable-background="new 0 0 300 300" xml:space="preserve">
<path fill-rule="evenodd" clip-rule="evenodd" fill="#D7C656" d="M273.305,234.088c-2.97,0.784-5.851,1.404-8.75,1.316
	c-5.742-4.44-11.306-8.854-17.007-13.08c-1.661-1.232-2.248-2.666-2.366-4.579c-0.138-2.283-0.43-4.556-0.669-6.974
	c-2.438-1.189-4.871-2.376-7.304-3.562c-0.873-0.426-1.724-0.914-2.631-1.259c-0.764-0.29-1.615-0.653-2.385-0.571
	c-4.484,0.48-8.956,1.082-13.674,1.673c0.19,2.371,0.365,4.545,0.563,7.015c-2.735,0.425-5.382,0.903-8.048,1.237
	c-3.865,0.484-7.744,0.86-11.618,1.29c-3.389,0.376-6.767,0.862-10.165,1.118c-4.226,0.318-7.873,1.551-11,4.677
	c-3.091,3.089-6.647,5.71-9.989,8.55c-0.367,0.311-0.655,0.711-1.001,1.094c0.292,6.038,0.583,12.059,0.894,18.484
	c-6.289-1.147-12.269-2.238-18.402-3.356c-4.413-8.16-8.802-16.276-13.182-24.373c-2.17-0.121-3.991,0.239-5.579,1.612
	c-2.685,2.323-5.423,4.581-8.144,6.86c-0.313,0.263-0.654,0.491-1.225,0.916c-4.177-4.311-7.651-9.175-11.896-13.812
	c-2.959-0.416-6.188-0.882-9.42-1.318c-3.725-0.503-7.452-0.994-11.181-1.463c-5.245-0.658-10.496-1.263-15.737-1.945
	c-2.757-0.36-5.494-0.868-8.247-1.258c-2.136-0.303-4.28-0.569-6.428-0.769c-1.264-0.116-2.198-0.624-3.018-1.607
	c-7.268-8.715-14.583-17.391-21.854-26.103c-2.631-3.152-5.199-6.358-7.752-9.575c-0.831-1.047-1.861-1.305-3.123-1.299
	c-6.692,0.035-13.385,0.028-20.078,0.021c-0.814-0.001-1.628-0.099-2.36-0.147c-0.582-1.688-0.734-53.024-0.208-55.814
	C4.621,113.6,9,110.052,13.377,106.501c2.433-1.974,4.827-3.996,7.305-5.911c1.189-0.92,1.723-2.037,1.993-3.494
	c0.938-5.059,1.999-10.095,3.036-15.136c0.064-0.314,0.322-0.589,0.518-0.933c1.14,0,2.241,0,3.342,0
	c30.186,0.013,60.372,0.022,90.559,0.042c15.058,0.01,30.116,0.057,45.174,0.035c1.535-0.002,2.626,0.455,3.594,1.656
	c1.608,1.994,3.363,3.869,5.103,5.846c1.775-0.603,2.977-1.859,4.188-3.067c1-0.997,2.115-1.459,3.542-1.455
	c10.598,0.029,21.193,0.009,31.79,0.014c0.47,0,0.938,0.098,1.989,0.213c-9.102,7.527-17.836,14.749-26.728,22.101
	c2.318,2.862,4.531,5.594,7.009,8.654c0.952-2.464-0.326-4.504-0.109-6.696c5.63-4.784,11.345-9.641,17.223-14.636
	c1.694,1.133,3.297,2.199,4.893,3.273c2.538,1.708,5.054,3.455,7.619,5.119c1.235,0.8,1.687,1.844,1.803,3.293
	c0.2,2.554,0.64,5.088,0.97,7.549c1.146,0.65,1.66-0.185,2.266-0.698c5.832-4.96,11.659-9.931,17.486-14.897
	c1.109-0.944,2.218-1.885,3.432-2.917c0.21-2.909,0.428-5.885,0.651-8.983c4.912-4.125,9.859-8.28,14.738-12.377
	c0.824-4.802,1.621-9.451,2.464-14.359c3.457-0.361,6.799-0.709,10.089-1.053c6.162,7.414,12.158,14.629,18.345,22.073
	c-4.453,4.15-9.241,7.69-14.122,11.726c0,4.336,0,8.843,0,13.272c-3.736,3.186-7.221,6.158-10.641,9.073c0,1.067,0,1.953,0,3.223
	c4.461,0.12,8.817,0.038,13.169,0.051c4.312,0.014,8.623,0.003,13.15,0.003c0,18.634,0,37.063,0,55.899
	c-13.843,4.682-27.952,9.455-42.443,14.354c1.078,1.398,1.939,2.616,2.901,3.75c4.457,5.257,8.969,10.465,13.376,15.762
	c0.563,0.677,0.882,1.77,0.876,2.667c-0.042,6.128-0.205,12.255-0.322,18.382c-0.027,1.323-0.014,2.647-0.061,3.971
	C273.515,232.57,273.397,233.247,273.305,234.088z M25.172,116.676c2.127,0.672,109.8,0.56,111.265-0.058
	c-8.186-9.684-16.354-19.347-24.596-29.097c-26.786,0-53.514,0-80.596,0C29.22,97.247,27.193,106.977,25.172,116.676z
	 M130.858,175.177c-9.621,8.102-18.949,15.956-28.543,24.035c6.519,8.279,13.24,15.913,19.963,23.938
	c1.566-1.3,2.916-2.467,4.317-3.568c1.248-0.98,2.437-2.398,3.856-2.72c3.087-0.7,6.304-0.825,9.609-1.201
	c4.631,8.575,9.223,17.074,13.934,25.798c2.199,0.328,4.484,0.67,7.095,1.06c0-1.105,0.025-1.851-0.004-2.594
	c-0.115-2.992-0.21-5.983-0.389-8.972c-0.086-1.431,0.283-2.519,1.445-3.465c4.586-3.735,9.119-7.536,13.658-11.329
	c1.04-0.869,2.025-1.802,3.333-2.972c-0.92-0.477-1.419-0.805-1.963-1.007c-6.004-2.226-12.019-4.419-18.022-6.647
	c-2.476-0.92-4.854-1.869-6.523-4.212c-1.895-2.656-4.131-5.07-6.258-7.557c-0.452-0.528-1.074-0.91-1.6-1.347
	c-3.281,2.786-6.33,5.375-9.513,8.079c-1.417-1.769-2.654-3.312-4.041-5.04c3.262-2.791,6.386-5.463,9.68-8.28
	C137.512,183.133,134.361,179.365,130.858,175.177z M181.849,170.726c-1.465-1.733-2.895-3.423-4.696-5.554
	c-8.952,7.771-18.091,15.111-27.132,22.904c2.357,2.846,4.566,5.423,6.667,8.085c1.113,1.41,2.388,2.426,4.104,3.054
	c9.28,3.404,18.552,6.829,27.777,10.376c2.699,1.038,5.307,1.577,8.436,0.411c1.754-4.587,3.604-9.431,5.547-14.508
	c-3.727-4.373-7.298-8.912-11.214-13.225c-2.926,2.437-5.574,4.646-8.466,7.055c-1.405-1.688-2.654-3.184-4.005-4.805
	c2.862-2.466,5.519-4.753,8.406-7.24c-1.815-1.877-2.474-4.52-5.532-4.566C181.777,172.025,181.807,171.482,181.849,170.726z
	 M266.445,228.543c0.142-0.104,0.285-0.211,0.428-0.315c0.159-5.63,0.361-11.26,0.437-16.89c0.01-0.818-0.41-1.79-0.94-2.44
	c-3.554-4.373-7.191-8.681-10.802-13.008c-4.817-5.771-9.63-11.546-14.459-17.307c-1.229-1.464-2.52-2.874-3.95-4.502
	c-8.925,7.173-17.573,14.124-26.382,21.203c1.411,1.711,2.562,3.282,3.917,4.652c0.502,0.507,1.52,0.82,2.249,0.74
	c4.636-0.508,9.259-1.123,13.881-1.762c1.745-0.241,3.37-0.406,5.041,0.57c1.791,1.048,3.789,1.732,5.676,2.622
	c2.89,1.361,5.762,2.763,8.785,4.217c0.348,2.716,0.837,5.454,1.008,8.212c0.123,2,0.904,3.37,2.501,4.527
	c3.551,2.575,7.017,5.268,10.519,7.912C265.048,227.5,265.746,228.021,266.445,228.543z M45.95,188.299
	c4.935,5.839,9.672,11.444,14.247,16.856c6.532,0.912,12.735,1.734,18.921,2.671c1.805,0.273,3.239-0.071,4.565-1.348
	c1.149-1.106,2.478-2.023,3.699-3.056c1.841-1.557,3.657-3.142,5.719-4.917c-7.152-8.591-14.16-17.009-21.186-25.45
	c-1.946,0-3.76,0.104-5.557-0.028c-1.757-0.129-3.065,0.574-4.315,1.671c-2.245,1.969-4.528,3.896-6.811,5.821
	C52.258,183.029,49.269,185.52,45.95,188.299z M190.059,117.151c-0.966-0.875-1.861-1.522-2.553-2.339
	c-5.443-6.428-10.851-12.886-16.259-19.342c-0.656-0.782-1.261-1.606-1.801-2.296c-3.832,2.313-24.921,20.32-25.842,22.021
	c4.189,5.257,8.444,10.538,13.14,15.422c5.285-1.495,10.252-1.846,15.001,1.73c4.053-2.926,7.683-6.313,11.613-9.516
	c-0.637-1.862-1.224-3.581-1.94-5.681C184.562,117.151,187.296,117.151,190.059,117.151z M274.766,65.177
	c-0.624,3.644-1.288,7.517-1.922,11.211c-5.004,4.217-9.834,8.288-14.896,12.554c0,2.843,0,5.741,0,8.364
	c-4.901,4.184-9.464,8.08-14.092,12.031c2.287,2.716,4.343,5.153,6.457,7.662c3.179,0,6.367,0,9.181,0
	c1.706-1.539,3.145-2.9,4.652-4.182c3.809-3.241,7.646-6.45,11.479-9.663c0.903-0.757,1.359-1.641,1.389-2.878
	c0.08-3.543,0.313-7.083,0.436-10.625c0.037-1.127,0.416-1.935,1.335-2.655c2.847-2.231,5.623-4.553,8.41-6.858
	c0.409-0.339,0.738-0.777,1.107-1.174c-0.183-0.371-0.261-0.649-0.43-0.853c-3.447-4.185-6.902-8.364-10.366-12.535
	C276.87,64.811,276.095,64.473,274.766,65.177z M164.858,87.753c-14.832,0-29.376,0-44.357,0
	c6.321,7.565,12.401,14.842,18.444,22.074C140.813,109.223,164.054,89.619,164.858,87.753z M80.398,173.49
	c5.985,7.067,11.794,13.928,17.681,20.877c8.569-7.145,16.953-14.135,25.406-21.183C121.673,172.515,83.024,172.75,80.398,173.49z
	 M145.883,183.122c9.199-7.711,18.066-15.144,27.204-22.802c-1.259-1.361-2.343-2.534-3.406-3.685
	c-5.448,2.333-10.384,1.87-15.172-1.183c-4.438,3.691-8.787,7.307-13.142,10.93c0.738,2.131,1.404,4.055,2.094,6.048
	c-2.118,0.612-4.134-0.223-6.094,0.779C140.254,176.571,142.954,179.712,145.883,183.122z M141.64,122.94
	c-0.336,0.553-0.512,0.768-0.611,1.015c-2.483,6.192-4.952,12.389-7.438,18.581c-0.602,1.5-0.576,2.933,0.057,4.445
	c1.234,2.947,2.346,5.945,3.528,8.915c0.532,1.336,1.111,2.653,1.792,4.272c3.889-3.305,7.56-6.424,11.291-9.595
	c-2.2-5.524-1.852-10.736,1.431-15.703C148.316,130.863,145.068,127.009,141.64,122.94z M184.497,164.104
	c0.315-0.552,0.638-0.985,0.832-1.47c2.048-5.094,4.062-10.199,6.113-15.291c0.713-1.766,0.746-3.445-0.025-5.241
	c-1.677-3.895-3.214-7.85-4.837-11.767c-0.165-0.397-0.528-0.712-0.88-1.169c-3.355,2.839-6.742,5.341-9.647,8.376
	c2.264,5.382,1.547,10.302-1.313,14.94C178.063,156.441,181.216,160.198,184.497,164.104z M23.82,163.293
	c0.621-2.352,0.522-34.261-0.066-35.93c-0.688,0-1.408,0-2.302,0c-1.191,7.725-2.363,15.319-3.534,22.913
	c-0.134,0.012-0.268,0.023-0.402,0.035c-1.164-7.643-2.328-15.284-3.499-22.972c-0.983,0-1.648,0-2.275,0
	c-0.604,1.995-0.513,34.367,0.087,35.897c0.694,0,1.411,0,2.432,0c0-4.223,0-8.287,0-12.352c0.131,0.001,0.262,0.002,0.393,0.002
	c0.646,4.095,1.293,8.189,1.969,12.47c0.762-0.06,1.332-0.103,2.145-0.165c0.631-4.09,1.24-8.038,1.849-11.986
	c0.147,0.006,0.293,0.012,0.44,0.018c0,3.994,0,7.988,0,12.07C22.153,163.293,22.953,163.293,23.82,163.293z M251.297,153.285
	c0.132-0.001,0.262-0.002,0.391-0.003c0.497,3.472,0.992,6.945,1.514,10.6c0.952-0.128,1.597-0.216,2.343-0.315
	c0.526-3.83,1.026-7.479,1.525-11.127c0.558,3.723,0.072,7.463,0.528,11.264c1.095,0,1.955,0,2.899,0c0-12.092,0-24.021,0-36.147
	c-0.864,0.042-1.518,0.076-2.419,0.121c-1.193,7.82-2.365,15.496-3.538,23.169c-1.716-7.715-2.424-15.516-4.003-23.318
	c-0.956,0.072-1.602,0.121-2.188,0.165c-0.587,3.126-0.42,34.527,0.216,36.171c0.805-0.067,1.661-0.139,2.732-0.229
	C251.297,160.045,251.297,156.665,251.297,153.285z M206.475,190.246c5.466-3.547,20.467-15.712,21.242-17.273
	c-1.022,0-1.971,0.007-2.919-0.001c-6.4-0.055-12.807,0.009-19.2-0.208c-4.337-0.147-6.373,2.992-9.212,5.441
	C199.859,182.351,203.138,186.264,206.475,190.246z M49.174,163.438c1.358,0,2.527-0.096,3.675,0.018
	c3.833,0.379,6.113-2.761,6.053-6.053c-0.137-7.512-0.031-15.027-0.05-22.542c-0.003-1.18-0.083-2.367-0.233-3.537
	c-0.269-2.098-1.571-3.551-3.537-3.907c-1.857-0.336-3.823-0.072-5.908-0.072C49.174,139.419,49.174,151.254,49.174,163.438z
	 M96.749,145.17c0,4.525-0.062,9.051,0.02,13.574c0.067,3.762,3.385,6.017,6.802,4.721c2.4-0.91,3.033-2.949,3.044-5.208
	c0.045-8.84,0.036-17.681,0.006-26.521c-0.005-1.591-0.559-3.007-1.933-3.974c-1.612-1.134-3.357-1.41-5.123-0.5
	c-1.801,0.928-2.805,2.464-2.811,4.542C96.742,136.26,96.751,140.715,96.749,145.17z M35.365,163.432
	c1.045,0,1.732,0.005,2.419-0.001c0.905-0.007,1.821,0.06,2.715-0.052c2.56-0.316,4.082-1.896,4.375-4.5
	c0.125-1.105,0.222-2.221,0.225-3.33c0.018-7.108,0.016-14.216-0.008-21.324c-0.003-1.04-0.113-2.086-0.263-3.117
	c-0.238-1.648-1.174-2.822-2.719-3.424c-2.211-0.862-4.448-0.511-6.744-0.266C35.365,139.481,35.365,151.279,35.365,163.432z
	 M219.929,127.672c0,5.213,0,10.121,0,15.101c-1.276,0-2.264,0-3.545,0c0-5.149,0-10.106,0-15.271
	c-1.169,0.095-2.017,0.165-2.854,0.233c0,12.118,0,23.985,0,35.93c1.048,0,1.902,0,3.015,0c0-5.848,0-11.51,0-17.396
	c1.265,0.061,2.256,0.109,3.571,0.172c0,5.902,0,11.563,0,17.404c1.201-0.059,2.054-0.102,2.996-0.148c0-12.131,0-23.998,0-36.025
	C222.064,127.672,221.209,127.672,219.929,127.672z M222.295,116.814c-0.177-1.072-0.352-2.027-0.483-2.988
	c-0.132-0.963-0.383-1.946-0.296-2.896c0.302-3.353-1.453-5.26-4.241-6.648c-1.335-0.666-2.522-1.63-3.887-2.533
	c-3.921,3.27-7.629,6.359-11.083,9.237c0.183,2.3,0.324,4.1,0.474,5.988C206.554,117.647,220.092,117.625,222.295,116.814z
	 M274.993,163.704c-1.29-12.161-2.546-24.019-3.818-36.023c-1.06,0-1.924,0-3.185,0c-1.27,11.966-2.534,23.88-3.822,35.999
	c1.148,0,2.065,0,3.122,0c0.375-2.201,0.729-4.3,1.116-6.574c0.845,0.077,1.573,0.145,2.473,0.227
	c0.333,2.17,0.646,4.203,0.979,6.372C272.832,163.704,273.686,163.704,274.993,163.704z M278.59,127.671
	c-0.603,3.037-0.439,34.442,0.157,36.024c0.809,0,1.663,0,2.847,0c0-5.127,0-10.097,0-15.074c0.653-0.107,0.987-0.191,1.323-0.211
	c3.512-0.209,5.258-2.053,5.264-5.592c0.004-3.412-0.04-6.824,0.01-10.235c0.02-1.431-0.466-2.571-1.482-3.531
	C284.299,126.779,281.448,127.553,278.59,127.671z M155.17,143.665c-0.092,4.406,3.385,8.048,7.79,8.162
	c4.341,0.112,8.173-3.621,8.163-8.047c-0.01-4.194-3.716-7.798-7.602-7.935C158.965,135.688,155.237,139.527,155.17,143.665z
	 M79.23,145.818c2.271,0,4.253,0,6.315,0c0-1.203,0-2.106,0-3.379c-2.246,0-4.276,0-6.268,0c0-4.155,0-7.936,0-12.059
	c2.237,0,4.274,0,6.505,0c-0.094-1.216-0.16-2.071-0.227-2.941c-3.312,0-6.383,0-9.54,0c-0.076,0.763-0.176,1.307-0.177,1.851
	c-0.018,10.51-0.032,21.021-0.016,31.529c0.001,0.801,0.23,1.602,0.362,2.454c3.218,0,6.237,0,9.355,0c0-1.077,0-1.982,0-3.124
	c-2.192,0-4.179,0-6.31,0C79.23,155.362,79.23,150.812,79.23,145.818z M230.295,130.742c2.275,0,4.26,0,6.482,0
	c-0.053-1.202-0.093-2.113-0.14-3.15c-3.333-0.113-6.404-0.185-9.537,0.029c0,12.187,0,24.004,0,36.033c3.228,0,6.36,0,9.535,0
	c0-1.06,0-1.923,0-3.138c-2.196,0-4.232,0-6.321,0c0-4.902,0-9.449,0-14.316c2.234,0,4.275,0,6.325,0c0-1.19,0-2.057,0-3.279
	c-2.2,0-4.236,0-6.345,0C230.295,138.764,230.295,134.97,230.295,130.742z M113.843,163.299c0-3.107-0.032-5.944,0.009-8.779
	c0.042-2.812-0.206-5.646,0.224-8.77c2.229,0,4.196,0,6.327,0c-0.077-1.221-0.131-2.078-0.195-3.08
	c-2.185-0.097-4.154-0.184-6.171-0.271c0-4.105,0-7.883,0-12.001c2.167,0,4.134,0,6.196,0c0-1.201,0-2.056,0-3.017
	c-3.246,0-6.318,0-9.475,0c0,12.061,0,23.923,0,35.919C111.763,163.299,112.562,163.299,113.843,163.299z M202.283,130.918
	c0,11.011,0,21.843,0,32.773c1.121,0,1.981,0,3.185,0c0-10.971,0-21.789,0-32.699c1.673-0.149,3.018-0.27,4.502-0.402
	c-0.054-1.096-0.093-1.958-0.146-3.084c-4.062,0.112-7.906-0.277-11.909,0.256c0.046,1.026,0.081,1.82,0.124,2.802
	C199.456,130.683,200.676,130.784,202.283,130.918z M63.005,127.355c0,12.099,0,23.968,0,35.924c3.128,0,6.084,0,9.216,0
	c0-1.049,0-1.947,0-3.101c-2.183,0-4.168,0-6.442,0c0-5.663,0-11.077,0-16.49c0-5.404,0-10.808,0-16.333
	C64.648,127.355,63.917,127.355,63.005,127.355z M55.444,173.158c-7.559,0-14.722,0-22.422,0c3.489,3.722,6.068,7.544,9.532,10.646
	C46.92,180.198,51.028,176.806,55.444,173.158z M30.855,163.303c0.701-2.022,0.691-34.024,0.015-35.914c-0.837,0-1.691,0-2.591,0
	c0,12.073,0,23.943,0,35.914C29.287,163.303,30.092,163.303,30.855,163.303z M178.438,94.141c2.058,2.461,4.03,4.818,6.152,7.355
	c4.539-3.457,8.604-6.966,12.502-10.828c-3.995-0.3-7.875-0.167-11.74-0.342C182.349,90.19,180.364,91.568,178.438,94.141z
	 M97.133,203.311c-2.023,2.4-4.542,3.508-6.335,6.1c4.299,0.492,8.082,0.925,11.864,1.359c0.083-0.186,0.166-0.37,0.248-0.555
	C101.076,208.021,99.24,205.828,97.133,203.311z M207.094,201.956c-1.163,2.325-2.141,4.694-2.621,7.605
	c2.711-0.379,5.008-0.7,7.236-1.014C211.974,206.219,209.714,203.035,207.094,201.956z M255.577,173.566
	c-4.737-0.741-9.479-1.065-14.239,0.003c1.09,0,2.181,0,3.342,0c1.32,1.388,2.583,2.714,3.959,4.158
	c0.921-1.421,1.467-3.116,2.613-3.792C252.375,173.272,254.11,173.646,255.577,173.566z M248.549,116.989
	c-0.029-0.138-0.061-0.276-0.093-0.414c-2.206,0-4.415,0-6.547,0c-1.057-1.114-1.995-2.105-3.029-3.197
	c-1.559,1.241-2.957,2.353-4.537,3.611C239.269,116.989,243.909,116.989,248.549,116.989z M271.562,116.902
	c0-0.038-0.002-0.076-0.004-0.114c-2.373,0-4.747,0-7.122,0c0.002,0.038,0.004,0.076,0.004,0.114
	C266.814,116.902,269.188,116.902,271.562,116.902z M228.873,116.902c-0.002-0.048-0.002-0.096-0.002-0.144
	c-1.564,0-3.127,0-4.689,0c0.002,0.048,0.002,0.096,0.002,0.144C225.746,116.902,227.311,116.902,228.873,116.902z M257.711,173.476
	c-0.082-0.048-0.165-0.097-0.247-0.145c-0.163,0.188-0.383,0.349-0.476,0.565c-0.121,0.291-0.145,0.623-0.212,0.937
	c0.398-0.153,0.534-0.426,0.66-0.701C257.534,173.916,257.621,173.694,257.711,173.476z"/>
<path fill-rule="evenodd" clip-rule="evenodd" fill="#D7C656" d="M52.396,159.971c0-9.676,0-19.377,0-29.284
	c0.792,0,1.572,0,2.654,0c0.193,0.826,0.558,1.667,0.562,2.512c0.042,8.14,0.04,16.28,0.013,24.421
	C55.619,159.786,54.922,160.283,52.396,159.971z"/>
<path fill-rule="evenodd" clip-rule="evenodd" fill="#D7C656" d="M103.36,145.217c-0.001,4.037,0.001,8.074-0.004,12.112
	c-0.001,0.556,0.018,1.12-0.072,1.664c-0.155,0.942-0.777,1.651-1.7,1.421c-0.589-0.148-1.094-0.885-1.487-1.461
	c-0.2-0.292-0.084-0.811-0.084-1.228c-0.001-8.214,0-16.427,0.008-24.64c0-0.556-0.132-1.226,0.125-1.639
	c0.355-0.57,1.024-1.306,1.555-1.304c0.529,0.002,1.216,0.742,1.53,1.323c0.268,0.495,0.125,1.224,0.127,1.849
	C103.365,137.282,103.362,141.25,103.36,145.217z"/>
<path fill-rule="evenodd" clip-rule="evenodd" fill="#D7C656" d="M41.155,160.1c-1.109,0-1.785,0-2.786,0
	c-0.26-9.75-0.245-19.445-0.05-29.407c0.967-0.061,1.806-0.114,2.963-0.188c0.207,1.093,0.525,2.006,0.531,2.921
	c0.051,8.011,0.065,16.023,0.027,24.034C41.836,158.297,41.417,159.131,41.155,160.1z"/>
<path fill-rule="evenodd" clip-rule="evenodd" fill="#D7C656" d="M270.529,153.697c-0.715,0-1.22,0-1.952,0
	c0.236-2.369,0.458-4.576,0.678-6.785c0.179-0.002,0.357-0.004,0.536-0.006C270.032,149.117,270.271,151.328,270.529,153.697z"/>
<path fill-rule="evenodd" clip-rule="evenodd" fill="#D7C656" d="M281.712,144.828c0-4.523,0-9.077,0-13.663
	c1.199-0.608,2.061-0.135,3.166,0.75c0,1.552,0.002,3.275,0,4.999c0,1.88,0.025,3.761-0.012,5.64
	C284.823,144.796,284.157,145.285,281.712,144.828z"/>
</svg>
