<?xml version="1.0" encoding="utf-8"?>
<!-- Generator: Adobe Illustrator 16.0.0, SVG Export Plug-In . SVG Version: 6.00 Build 0)  -->
<!DOCTYPE svg PUBLIC "-//W3C//DTD SVG 1.1//EN" "http://www.w3.org/Graphics/SVG/1.1/DTD/svg11.dtd">
<svg version="1.1" id="Layer_1" xmlns="http://www.w3.org/2000/svg" xmlns:xlink="http://www.w3.org/1999/xlink" x="0px" y="0px"
	 width="300px" height="300px" viewBox="0 0 300 300" enable-background="new 0 0 300 300" xml:space="preserve">
<path fill-rule="evenodd" clip-rule="evenodd" fill="#D7C656" d="M83.307,81.915c5.561,3.277,10.835,6.385,16.132,9.506
	c4.374-3.045,8.505-6.295,12.993-8.941c4.418-2.606,9.196-4.6,14.098-7c0-6.016,0-12.342,0-18.521
	c0.253-0.225,0.325-0.29,0.399-0.353c0.073-0.062,0.148-0.173,0.223-0.173c14.838-0.046,29.675-0.086,44.514-0.118
	c0.471,0,0.941,0.083,1.576,0.143c0.474,3.276,0.163,6.476,0.221,9.658c0.058,3.113,0.013,6.229,0.013,9.598
	c10.13,3.746,19.418,8.747,27.405,16.361c5.441-3.184,10.866-6.356,16.555-9.684c7.812,13.909,15.523,27.637,23.409,41.675
	c-5.516,3.272-10.915,6.475-16.564,9.825c2.259,10.498,2.212,20.998-0.094,31.615c5.26,3.766,10.949,6.521,16.159,10.043
	c-0.182,0.611-0.225,1.013-0.407,1.333c-7.466,13.126-14.941,26.244-22.432,39.354c-0.129,0.226-0.449,0.343-0.907,0.675
	c-5.186-3.081-10.436-6.199-15.981-9.493c-1.389,1.138-2.756,2.33-4.197,3.425c-6.865,5.213-14.202,9.575-22.729,12.198
	c-0.522,6.422,0.023,12.826-0.323,19.347c-15.611,0-30.992,0-46.697,0c-0.172-3.231-0.059-6.423-0.08-9.608
	c-0.021-3.113-0.005-6.228-0.005-9.608c-10.072-3.617-19.137-8.806-27.147-16.127c-5.322,3.086-10.672,6.188-16.263,9.43
	c-3.232-4.333-5.372-9.132-8.04-13.598c-2.747-4.599-5.242-9.348-7.845-14.031c-2.544-4.579-5.085-9.16-7.725-13.915
	c5.592-3.305,10.937-6.465,16.378-9.682c-1.821-10.568-2.145-21.085,0.23-31.917c-5.333-3.189-10.733-6.419-16.438-9.832
	C67.416,109.619,75.379,96.048,83.307,81.915z M129.449,150.027c-0.228,6.679,3.258,14.107,9.285,18.23
	c5.483,3.752,11.499,5.092,18.03,3.224c4.764-1.364,8.596-4.167,11.59-8.021c3.289-4.236,4.626-9.247,4.392-14.512
	c-0.2-4.522-1.749-8.723-4.543-12.405c-5.694-7.503-15.604-10.923-25.01-7.13C135.162,132.651,129.17,141.125,129.449,150.027z
	 M210.457,166.628c12.733-28.083-5.031-71.189-42.078-77.042c7.028,3.396,13.715,7.335,19.533,12.557
	c5.914,5.307,10.84,11.44,14.707,18.392c3.818,6.865,6.471,14.221,7.61,21.942C212.186,155.742,211.412,156.603,210.457,166.628z
	 M91.162,134.644c-6.838,18.47-4.017,35.923,6.479,52.118c9.569,14.767,25.262,23.126,36.528,23.789
	c-15.091-6.66-26.785-16.603-34.53-30.768C91.946,165.713,89.372,150.594,91.162,134.644z M163.969,102.685
	c1.993,1.143,3.534,2.064,5.108,2.921c3.955,2.153,7.556,4.821,10.822,7.881c5.896,5.524,10.51,11.984,13.459,19.557
	c2.486,6.38,4.251,12.913,4.139,19.842c-0.049,3.012-0.008,6.024-0.008,9.365C208.226,141.542,193.782,106.578,163.969,102.685z
	 M104.714,137.149c-11.429,25.527,6.82,57.449,32.94,60.112C113.479,184.458,102.72,164.533,104.714,137.149z M160.836,116.437
	c7.344,4.604,13.736,10.189,17.896,17.934c4.104,7.639,5.582,15.92,5.265,25.21C192.638,142.939,181.987,118.254,160.836,116.437z
	 M141.504,183.814c-3.124-2.271-6.234-4.143-8.881-6.528c-8.839-7.968-13.738-17.91-14.315-29.893
	c-0.084-1.747-0.428-3.481-0.694-5.556C109.105,158.182,121.673,182.623,141.504,183.814z"/>
<path fill-rule="evenodd" clip-rule="evenodd" fill="#D7C656" d="M74.507,239.683c-0.072,1.032-0.151,2.157-0.234,3.341
	c0.973-0.359,1.869-0.691,2.865-1.061c3.55,1.418,6.062,4.161,8.471,6.956c1.046,1.214,0.774,2.802-0.015,4.138
	c-0.641,1.085-1.434,2.087-2.224,3.073c-3.777,4.715-7.562,9.424-11.376,14.108c-1.029,1.265-2.168,2.439-3.32,3.726
	c-2.056-1.225-3.712-2.467-5.168-4.384c4.695-6.519,10.08-12.405,15.007-19.047c-1.146-0.912-2.18-1.734-3.48-2.77
	c-5.113,6.283-10.181,12.512-15.395,18.919c-1.9-1.606-3.573-3.019-5.39-4.555c5.163-6.463,10.123-12.672,15.186-19.009
	c-1.245-1.122-2.23-2.011-3.384-3.05c-5.167,6.398-10.166,12.589-15.377,19.042c-1.804-1.508-3.413-2.853-5.257-4.394
	c0.563-0.912,0.976-1.771,1.56-2.493c4.723-5.834,9.473-11.646,14.224-17.456c2.224-2.72,4.311-3.043,7.044-0.981
	C70.495,235.484,72.797,237.152,74.507,239.683z"/>
<path fill-rule="evenodd" clip-rule="evenodd" fill="#D7C656" d="M236.655,73.879c1.553-2.912,3.102-5.818,4.745-8.9
	c-0.729-0.776-1.432-1.525-2.263-2.409c-2.346,2.169-4.533,4.192-6.795,6.284c-1.975-1.53-3.625-2.946-4.705-5.289
	c7.254-6.916,14.474-13.796,22.056-20.652c1.679,1.768,3.156,3.279,4.583,4.837c1.711,1.869,3.465,3.711,5.035,5.695
	c1.061,1.34,1.836,2.906,2.813,4.491c-0.759,1.274-1.208,2.516-2.054,3.358c-2.833,2.819-5.82,5.48-8.721,8.232
	c-1.3,1.233-2.934,0.789-4.648,0.96c-1.628,2.86-3.289,5.777-5.022,8.824C239.399,77.845,238.21,75.833,236.655,73.879z
	 M249.763,52.465c-2.143,2.186-3.95,4.03-5.806,5.923c1.379,1.483,2.679,2.88,4.054,4.358c1.99-2.022,4.393-3.264,5.87-5.847
	C252.568,55.486,251.27,54.088,249.763,52.465z"/>
<path fill-rule="evenodd" clip-rule="evenodd" fill="#D7C656" d="M119.393,37.549c-1.778-10.067-3.994-19.878-5.452-30.087
	c1.972-0.452,3.632-0.898,5.317-1.205c3.342-0.607,6.68-1.347,10.053-1.643c3.621-0.319,4.673,0.605,5.465,4.188
	c0.818,3.699,1.678,7.409,2.111,11.161c0.172,1.487-0.755,3.102-1.35,5.271c0.851,2.453,3.213,4.966,4.112,8.525
	c-2.18,0.513-4.211,0.992-6.376,1.501c-2.354-2.658-3.239-6.095-5.576-8.906c-0.8,0.189-1.71,0.404-2.688,0.634
	c-0.581,3.261,1.766,6.138,0.783,9.397C123.827,37.057,121.819,37.572,119.393,37.549z M129.52,19.458
	c-0.55-3.031-1.011-5.575-1.496-8.245c-2.194,0.261-4.199,0.334-6.083,1.432c0.495,2.628,0.974,5.168,1.497,7.946
	C125.465,20.213,127.333,19.866,129.52,19.458z"/>
<path fill-rule="evenodd" clip-rule="evenodd" fill="#D7C656" d="M273.091,72.997c2.373,2.997,7.284,13.025,8.117,16.482
	c-0.229,0.713-0.493,1.541-0.858,2.679c-2.791,1.567-5.729,3.262-8.709,4.878c-3.675,1.993-7.368,3.956-11.088,5.864
	c-3.16,1.621-5.159,1.187-6.863-1.86c-2.509-4.489-4.752-9.126-7.244-13.962c4.437-2.767,8.931-5.006,13.363-7.329
	C264.227,77.432,268.458,74.703,273.091,72.997z M273.742,87.7c-0.703-2.224-1.481-4.041-2.94-5.682
	c-5.2,2.802-10.304,5.552-15.573,8.391c1.009,1.922,1.85,3.525,2.814,5.363C263.617,93.399,268.518,90.314,273.742,87.7z"/>
<path fill-rule="evenodd" clip-rule="evenodd" fill="#D7C656" d="M94.073,276.562c-1.277,2.991-2.487,5.826-3.828,8.966
	c-2.135-0.907-4.039-1.715-6.112-2.596c0.245-1.018,0.329-1.782,0.61-2.465c2.923-7.108,5.933-14.181,8.789-21.316
	c0.763-1.906,1.93-3.086,3.999-3.624c4.328,0.865,8.236,3.125,12.356,4.825c0.616,0.254,1.198,0.689,1.674,1.163
	c1.336,1.329,1.957,2.822,1.147,4.749c-1.658,3.948-3.208,7.942-4.826,11.908c-1.396,3.422-2.809,6.838-4.25,10.24
	c-0.327,0.772-0.804,1.482-1.279,2.343c-2.013-0.864-3.782-1.623-5.717-2.452c-0.071-3.35,2.243-5.836,2.839-9.041
	C98.042,277.911,95.979,277.617,94.073,276.562z M96.494,270.661c2.054,0.88,3.793,1.625,5.721,2.45
	c1.103-2.704,2.108-5.167,3.188-7.815c-2.07-0.841-3.817-1.551-5.724-2.325C98.589,265.603,97.634,267.909,96.494,270.661z"/>
<path fill-rule="evenodd" clip-rule="evenodd" fill="#D7C656" d="M221.543,55.465c-2.639,0.652-4.425,0.186-6.131-0.993
	c-2.562-1.769-5.262-3.341-7.779-5.168c-3.095-2.246-3.405-4.281-1.401-7.502c3.343-5.371,6.656-10.759,10.068-16.084
	c0.822-1.282,1.983-2.348,3.055-3.588c1.205,0.152,2.393,0.002,3.254,0.462c4.204,2.247,8.306,4.68,11.738,8.064
	c0.202,0.2,0.321,0.483,0.489,0.743c0.502,2.021-0.056,3.731-1.195,5.48c-3.188,4.889-6.191,9.897-9.321,14.823
	C223.443,53.08,222.381,54.338,221.543,55.465z M217.873,48.497c3.286-5.264,6.398-10.25,9.609-15.394
	c-1.81-1.198-3.387-2.242-5.158-3.414c-3.314,5.223-6.459,10.177-9.58,15.095c0.409,0.444,0.57,0.701,0.801,0.855
	C214.905,46.557,216.282,47.451,217.873,48.497z"/>
<path fill-rule="evenodd" clip-rule="evenodd" fill="#D7C656" d="M160.066,279.34c2.212-0.269,4.022-0.488,5.85-0.709
	c0.26-4.113-1.03-8.01-0.621-11.999c2.202-0.962,4.329-0.628,6.723-0.601c1.036,10.062,2.065,20.058,3.1,30.104
	c-2.27,0.896-4.417,1.163-6.945,0.789c-0.472-3.787-0.936-7.515-1.412-11.342c-1.95,0-3.832,0-6.014,0
	c0.324,4.169,0.628,8.083,0.938,12.064c-2.282,1.016-4.462,0.729-6.911,0.532c-1.019-10.025-2.026-19.95-3.067-30.198
	c2.308-0.311,4.456-0.601,6.939-0.936c0.281,2.312,0.533,4.306,0.765,6.302C159.631,275.265,159.831,277.184,160.066,279.34z"/>
<path fill-rule="evenodd" clip-rule="evenodd" fill="#D7C656" d="M38.282,58.142c1.458-1.7,2.824-3.294,4.42-5.156
	c3.083,2.773,5.947,5.348,9.029,8.12c1.426-1.536,2.768-2.981,4.067-4.379c-2.887-3.08-5.529-5.898-8.323-8.878
	c1.286-1.472,2.667-3.053,4.01-4.59c1.97,0.989,19.737,17.333,22.344,20.503c-1.091,1.859-2.371,3.602-4.4,5.133
	c-2.957-2.66-5.823-5.238-8.83-7.942c-1.409,1.485-2.741,2.889-4.27,4.501c2.955,2.776,5.836,5.484,8.906,8.368
	c-1.479,1.738-2.833,3.328-4.386,5.152c-1.149-0.82-2.149-1.382-2.966-2.141c-4.356-4.045-8.66-8.149-12.999-12.213
	c-1.635-1.532-3.335-2.994-4.967-4.528C39.371,59.576,38.941,58.936,38.282,58.142z"/>
<path fill-rule="evenodd" clip-rule="evenodd" fill="#D7C656" d="M229.586,274.597c-1.911,1.088-3.752,2.136-5.858,3.336
	c-4.258-7.052-7.81-14.271-11.934-21.411c-1.771,1.029-3.344,1.944-4.986,2.9c0.473,2.781,2.196,4.847,3.389,7.141
	c2.2,4.236,4.536,8.401,6.799,12.605c0.315,0.585,0.536,1.221,0.828,1.895c-1.622,1.614-3.57,2.412-5.498,3.18
	c-2.007-2.067-12.647-21.537-13.597-24.807c0.102-2.036,1.129-3.442,2.892-4.41c3.159-1.732,6.248-3.601,9.456-5.234
	c2.772-1.412,4.19-0.952,5.995,1.562c0.453,0.633,0.869,1.298,1.241,1.981c3.686,6.758,7.358,13.521,11.029,20.288
	C229.43,273.784,229.438,273.989,229.586,274.597z"/>
<path fill-rule="evenodd" clip-rule="evenodd" fill="#D7C656" d="M190.221,15.201c-1.895,5.712-3.797,11.28-5.325,17.146
	c1.967,0.716,3.668,1.336,5.537,2.017c0.74-1.855,1.44-3.611,2.192-5.498c2.25,0.721,4.246,1.36,6.581,2.108
	c-0.947,2.783-1.668,5.396-2.725,7.864c-1.034,2.415-2.689,3.089-5.227,2.334c-3.355-0.997-6.672-2.129-9.995-3.231
	c-0.549-0.182-1.063-0.487-1.572-0.773c-2.204-1.241-2.882-2.589-2.243-5.06c0.753-2.917,1.642-5.801,2.551-8.675
	c1.204-3.803,2.598-7.549,3.699-11.38c1.153-4.016,3.745-4.548,6.942-3.539c2.874,0.907,5.771,1.746,8.623,2.721
	c2.193,0.75,4.12,1.873,4.459,4.816c-0.709,2.681-1.315,5.716-2.926,8.65c-2.131-0.685-4.127-1.326-6.38-2.05
	c0.569-1.911,1.059-3.556,1.582-5.316C194.397,15.922,192.339,15.809,190.221,15.201z"/>
<path fill-rule="evenodd" clip-rule="evenodd" fill="#D7C656" d="M141.136,279.696c-2.459-0.318-4.536-0.586-6.436-0.831
	c-0.899-1.183-0.18-2.084-0.098-3.01c0.077-0.858,0.017-1.73,0.017-2.909c-1.775-0.298-3.543-0.595-5.63-0.945
	c-1.443,5.774-1.648,11.706-2.857,17.571c1.801,1.237,3.878,0.896,5.955,1.351c0.408-1.835,0.782-3.52,1.185-5.336
	c2.271-0.769,4.288,0.506,6.345,0.542c0.619,3.045-0.41,8.198-2.006,10.592c-1.857,1.011-3.775,1.116-5.894,0.636
	c-2.741-0.622-5.561-0.894-8.341-1.356c-0.663-0.111-1.326-0.323-1.943-0.594c-1.673-0.735-2.663-1.979-2.509-3.884
	c0.164-2.035,0.338-4.073,0.628-6.093c0.731-5.099,1.527-10.187,2.302-15.278c0.058-0.383,0.148-0.763,0.251-1.137
	c0.726-2.628,1.901-3.808,4.558-3.568c4.053,0.365,8.111,0.947,12.086,1.812c2.835,0.616,3.719,2.398,3.339,5.259
	C141.796,274.724,141.503,276.931,141.136,279.696z"/>
<path fill-rule="evenodd" clip-rule="evenodd" fill="#D7C656" d="M80.592,21.2c0.893,1.245,1.494,2.001,2.003,2.816
	c0.455,0.729,0.808,1.522,1.315,2.497c-3.141,2.154-6.17,4.232-9.416,6.458c0.956,1.616,1.874,3.168,2.925,4.946
	c3.147-2.028,6.197-3.994,9.483-6.112c1.137,1.784,2.104,3.302,3.201,5.023c-2.785,2.696-6.14,4.169-9.103,6.631
	c1.005,1.536,1.988,3.039,3.124,4.774c3.323-2.131,6.481-4.156,9.712-6.228c1.338,1.766,2.55,3.244,3.043,5.43
	c-4.948,3.304-9.867,6.588-14.769,9.861c-1.875-1.45-8.636-11.654-16.889-25.473c1.97-2.399,4.951-3.524,7.438-5.29
	C75.178,24.747,77.782,23.082,80.592,21.2z"/>
<path fill-rule="evenodd" clip-rule="evenodd" fill="#D7C656" d="M148.792,33.088c0.773-10.17,0.99-20.233,2.004-30.498
	c6.15,0.317,12.038,0.621,17.792,0.918c0.953,2.293,0.959,3.744,0.067,6.289c-3.637,0.658-7.394-1.085-11.335-0.056
	c0,1.75,0,3.447,0,5.419c3.44,0.291,6.887,0.583,10.263,0.868c0.828,2.383,0.776,3.533-0.356,6.282
	c-3.332-0.205-6.788-0.418-10.523-0.648c0,1.961,0,3.736,0,5.878c3.506,0.272,7.045,0.547,10.769,0.836c0,2.001,0,3.891,0,5.745
	C164.954,34.841,155.2,34.311,148.792,33.088z"/>
<path fill-rule="evenodd" clip-rule="evenodd" fill="#D7C656" d="M235.373,229.455c2.254,0.726,2.716,2.792,4.431,3.985
	c-2.871,2.864-5.541,5.527-8.324,8.304c1.273,1.473,2.468,2.853,3.755,4.339c2.798-2.57,5.438-4.992,8.335-7.652
	c1.38,1.455,2.678,2.825,4.148,4.376c-2.556,2.945-5.226,5.324-8.032,7.833c1.07,1.673,2.444,2.956,4.096,4.355
	c2.706-2.616,5.345-5.167,8.23-7.956c1.458,1.489,2.779,2.838,4.059,4.145c-2.377,3.715-9.963,10.533-13.038,11.794
	c-1.538-0.047-2.763-0.92-3.743-1.978c-4.633-5-9.243-10.021-13.748-15.137c-2.52-2.86-2.406-4.648,0.23-7.342
	c2.659-2.717,5.404-5.35,8.132-7.999C234.31,230.128,234.826,229.847,235.373,229.455z"/>
<path fill-rule="evenodd" clip-rule="evenodd" fill="#D7C656" d="M28.525,86.208c-1.14,1.965-2.16,3.722-3.24,5.583
	c-2.067-0.458-3.567-1.635-5.38-2.929c3.097-5.92,6.154-11.763,9.242-17.667c2.318,0.05,3.741,1.573,5.652,2.688
	c-0.995,1.929-1.921,3.723-2.955,5.728c6.828,4.238,14.128,7.657,21.13,11.915c-1.089,2.121-2.013,3.918-3.016,5.873
	c-0.768-0.2-1.458-0.244-2.008-0.543C41.537,93.369,35.144,89.844,28.525,86.208z"/>
<path fill-rule="evenodd" clip-rule="evenodd" fill="#D7C656" d="M188.206,261.355c3.236,9.557,6.005,19.143,9.061,28.959
	c-2.314,0.809-4.292,1.5-6.586,2.302c-3.326-9.8-6.035-19.497-9.232-29.256C183.569,262.305,185.409,261.079,188.206,261.355z"/>
<path fill-rule="evenodd" clip-rule="evenodd" fill="#D7C656" d="M155.897,150.185c-0.042,3.091-1.888,5.056-4.756,5.061
	c-2.789,0.004-5.294-2.488-5.2-5.171c0.104-2.928,2.364-5.239,5.156-5.271C153.954,144.771,155.94,146.997,155.897,150.185z"/>
</svg>
