<svg version="1.1" id="Layer_1" xmlns="http://www.w3.org/2000/svg" xmlns:xlink="http://www.w3.org/1999/xlink" x="0px" y="0px"
	 width="300px" height="300px" viewBox="0 0 300 300" enable-background="new 0 0 300 300" xml:space="preserve">
<path fill="#D7C656" d="M300.249,246.249c-99.983,0-199.968,0-299.976,0c0-63.641,0-127.281,0-191c99.976,0,199.976,0,299.976,0
	c0.011,0.499,0.031,0.998,0.031,1.498c0.001,62.668,0.001,125.336,0,188.005C300.28,245.251,300.26,245.75,300.249,246.249z
	 M290.658,200.336c-1.548-0.279-279.676-0.208-280.658,0.073c0,12.504,0,25.026,0,37.64c93.578,0,187.086,0,280.658,0
	C290.658,225.464,290.658,212.94,290.658,200.336z M182.472,173.594c0.075,0.028,0.16,0.042,0.225,0.085
	c0.311,0.209,0.616,0.426,0.923,0.641c9.646,6.731,20.282,9.043,31.804,6.805c9.312-1.81,17.113-6.424,23.197-13.71
	c7.973-9.547,10.954-20.562,9.182-32.866c-0.765-5.305-2.677-10.21-5.348-14.82c-2.347-4.051-5.852-6.652-10.384-7.828
	c-1.008-0.261-2.056-0.368-3.382-0.597c0.604-0.146,0.916-0.254,1.236-0.293c4.338-0.523,8.657-0.35,12.927,0.538
	c20.71,4.305,34.817,23.505,32.358,44.793c-0.984,8.515-4.39,16.011-10.123,22.396c-3.021,3.364-6.372,6.358-10.556,8.25
	c-3.57,1.616-7.256,2.908-11.071,3.82c-0.555,0.133-1.098,0.312-1.701,0.486c16.351,0,32.619,0,48.899,0c0-15.841,0-31.585,0-47.33
	c-3.075,11.512-8.759,21.484-17.245,29.84c0.214-0.525,0.539-0.985,0.857-1.448c6.705-9.728,9.003-20.437,6.591-31.969
	c-2.534-12.117-9.375-21.289-20.145-27.399c-8.302-4.71-17.256-6.133-26.662-4.64c-5.155,0.818-9.962,2.67-14.446,5.308
	c-4.53,2.665-7.259,6.631-8.142,11.835c-0.049,0.288-0.099,0.575-0.149,0.862c-0.047,0.272-0.095,0.544-0.193,1.101
	c-0.101-0.421-0.14-0.539-0.155-0.66c-0.96-7.261-0.067-14.287,2.753-21.045c6.953-16.656,24.262-27.433,43.597-24.696
	c8.04,1.138,15.121,4.492,21.176,9.915c3.338,2.99,6.354,6.288,8.203,10.434c1.1,2.463,1.964,5.033,2.888,7.571
	c0.397,1.091,0.678,2.224,1.046,3.455c0-16.206,0-32.267,0-48.355c-18.106,0-36.121,0-54.136,0
	c7.064,1.02,13.794,3.081,20.184,6.242c6.213,3.073,15.72,10.1,16.971,12.563c-0.424-0.299-0.797-0.562-1.169-0.825
	c-9.101-6.427-19.193-8.864-30.185-7.207c-9.196,1.386-17.094,5.499-23.423,12.328c-9.159,9.882-12.64,21.58-10.646,34.899
	c0.786,5.259,2.695,10.134,5.411,14.666c2.776,4.632,6.933,7.307,12.317,8.019c0.259,0.034,0.509,0.133,1.045,0.279
	c-0.439,0.128-0.582,0.192-0.73,0.21c-4.462,0.541-8.902,0.372-13.3-0.537c-21.111-4.363-35.17-24.505-32.033-45.905
	c1.434-9.776,5.924-17.935,13.235-24.543c1.946-1.759,3.992-3.409,6.392-4.545c6.022-2.853,12.35-4.675,18.943-5.612
	c-18.504,0-37.007,0-55.575,0c0,18.558,0,37.03,0,55.471c0.101-0.486,0.209-1.012,0.318-1.537c0.406-1.955,0.739-3.928,1.231-5.86
	c2.794-10.967,8.163-20.515,15.947-28.716c0.346-0.364,0.721-0.702,1.082-1.052c-0.162,0.601-0.473,1.041-0.78,1.482
	c-6.159,8.832-8.627,18.637-7.093,29.256c1.924,13.324,8.884,23.44,20.58,30.118c8.564,4.89,17.801,6.258,27.511,4.506
	c4.894-0.883,9.437-2.689,13.704-5.182c4.121-2.407,6.741-5.991,7.847-10.649c0.225-0.948,0.361-1.917,0.539-2.876
	c0.81,5.049,0.662,10.042-0.497,15.006c-4.771,20.429-24.135,33.93-44.862,31.25c-10.172-1.315-18.655-5.871-25.447-13.517
	c-1.566-1.763-3.055-3.684-4.148-5.758c-2.181-4.131-3.647-8.566-4.668-13.133c-0.466-2.081-0.854-4.179-1.24-6.096
	c0,18.029,0,36.222,0,54.491c16.781,0,33.471,0,50.16,0c-5.972-1.449-11.685-3.568-17.076-6.529
	C191.606,181.798,186.697,178.122,182.472,173.594z M10.007,64.092c0,42.082,0,84.089,0,126.097
	c0.066,0.027,0.132,0.055,0.199,0.083c23.941-42.026,47.883-84.052,71.882-126.18C57.954,64.092,34.02,64.092,10.007,64.092z
	 M77.684,145.871c17.051,0,33.9,0,50.712,0c0-27.328,0-54.553,0-81.816c-0.926,0-1.752,0-2.677,0
	C109.741,91.27,93.75,118.505,77.684,145.871z M51.09,191.173c1.293,0.326,76.411,0.284,77.323-0.012c0-3.231,0-6.461,0-9.756
	c-23.893,0-47.703,0-71.594,0C54.922,184.64,53.015,187.892,51.09,191.173z"/>
<path fill-rule="evenodd" clip-rule="evenodd" fill="#D7C656" d="M158.441,205.794c6.183,0,12.212,0,18.326,0
	c3.887,6.885,7.777,13.773,11.667,20.663c0.115-0.034,0.23-0.068,0.346-0.103c-0.207-6.798-0.413-13.596-0.622-20.5
	c3.658,0,7.206,0,10.831,0c0,8.945,0,17.839,0,26.836c-6.135,0-12.273,0-18.536,0c-3.771-6.775-7.585-13.626-11.399-20.477
	c-0.102,0.022-0.204,0.045-0.306,0.067c-0.071,3.365,0.125,6.729,0.239,10.094c0.116,3.406,0.196,6.813,0.295,10.32
	c-3.636,0-7.191,0-10.841,0C158.441,223.77,158.441,214.842,158.441,205.794z"/>
<path fill-rule="evenodd" clip-rule="evenodd" fill="#D7C656" d="M129.5,228.287c-0.662,1.491-1.318,2.968-1.978,4.454
	c-3.761,0-7.457,0-11.354,0c4.094-9.038,8.135-17.958,12.193-26.918c5.538,0,11.021,0,16.595,0
	c4.089,8.905,8.183,17.816,12.338,26.866c-3.765,0-7.394,0-11.142,0c-0.651-1.397-1.333-2.861-2.051-4.402
	C139.302,228.287,134.485,228.287,129.5,228.287z M141.808,222.738c-1.663-3.85-3.27-7.569-4.983-11.535
	c-1.675,3.96-3.251,7.688-4.879,11.535C135.288,222.738,138.466,222.738,141.808,222.738z"/>
<path fill-rule="evenodd" clip-rule="evenodd" fill="#D7C656" d="M14.686,232.741c4.114-9.078,8.146-17.974,12.197-26.914
	c5.533,0,11.016,0,16.597,0c4.084,8.894,8.177,17.805,12.382,26.961c-3.812,0.009-7.439,0.005-11.144,0.002
	c-0.695-1.495-1.377-2.961-2.096-4.505c-4.833,0-9.689,0-14.598,0c-0.662,1.486-1.318,2.962-1.984,4.456
	C22.284,232.741,18.589,232.741,14.686,232.741z M35.342,211.193c-1.687,3.998-3.257,7.721-4.845,11.485
	c2.047,0.293,8.832,0.196,9.747-0.139C38.646,218.842,37.05,215.146,35.342,211.193z"/>
<path fill-rule="evenodd" clip-rule="evenodd" fill="#D7C656" d="M286.291,215.461c-3.896,0-7.544,0-11.261,0
	c-0.025-0.296-0.048-0.535-0.065-0.774c-0.094-1.232-0.792-1.997-1.928-2.339c-0.631-0.19-1.307-0.333-1.961-0.325
	c-2.2,0.027-4.417-0.014-6.595,0.252c-1.924,0.233-2.676,1.182-2.738,3.127c-0.083,2.619-0.072,5.246,0.018,7.865
	c0.061,1.75,0.781,2.594,2.475,2.997c2.834,0.675,5.709,0.618,8.556,0.093c1.47-0.271,2.088-1.141,2.188-2.639
	c0.021-0.331,0.036-0.662,0.064-1.18c3.697-0.078,7.374-0.021,11.021-0.037c0.893,3.687-0.479,6.843-3.63,8.569
	c-1.783,0.978-3.719,1.504-5.714,1.667c-5.739,0.471-11.485,0.526-17.206-0.234c-1.348-0.179-2.7-0.545-3.971-1.034
	c-3.098-1.193-4.841-3.582-5.022-6.84c-0.195-3.486-0.191-7-0.01-10.488c0.173-3.343,2.071-5.627,5.165-6.886
	c2.461-1.001,5.062-1.427,7.686-1.492c4.203-0.105,8.413-0.126,12.614,0.015c1.804,0.061,3.634,0.466,5.376,0.977
	c2.801,0.821,4.287,2.88,4.668,5.74C286.146,213.432,286.195,214.379,286.291,215.461z"/>
<path fill-rule="evenodd" clip-rule="evenodd" fill="#D7C656" d="M233.061,205.844c0,2.046,0,4.064,0,6.256c-3.6,0-7.155,0-10.874,0
	c0,6.972,0,13.775,0,20.634c-3.694,0-7.222,0-10.892,0c0-6.813,0-13.617,0-20.587c-3.526,0-6.917,0-10.399,0
	c0-2.181,0-4.194,0-6.303C211.623,205.844,222.296,205.844,233.061,205.844z"/>
<path fill-rule="evenodd" clip-rule="evenodd" fill="#D7C656" d="M74.997,212.09c0,7.004,0,13.745,0,20.462
	c-0.955,0.292-8.495,0.389-10.943,0.143c-0.078-3.369-0.024-6.765-0.034-10.158c-0.01-3.411-0.002-6.823-0.002-10.381
	c-3.455,0-6.81,0-10.366,0c-0.033-2.156-0.031-4.171,0.003-6.161c0.949-0.292,30.591-0.371,32.213-0.094c0,1.994,0,4.008,0,6.189
	C82.262,212.09,78.704,212.09,74.997,212.09z"/>
<path fill-rule="evenodd" clip-rule="evenodd" fill="#D7C656" d="M98.826,226.462c5.703,0,11.264,0,16.914,0
	c0,2.137,0,4.149,0,6.247c-9.243,0-18.459,0-27.741,0c0-8.965,0-17.862,0-26.859c3.584,0,7.134,0,10.828,0
	C98.826,212.721,98.826,219.529,98.826,226.462z"/>
<path fill-rule="evenodd" clip-rule="evenodd" fill="#D7C656" d="M235.417,205.794c3.653,0,7.144,0,10.621,0
	c0.294,0.912,0.411,24.437,0.136,26.904c-3.546,0-7.104,0-10.757,0C235.417,223.769,235.417,214.841,235.417,205.794z"/>
<path fill-rule="evenodd" clip-rule="evenodd" fill="#D7C656" d="M227.918,142.322c-7.792-0.028-14.129-6.371-14.146-14.159
	c-0.018-7.875,6.424-14.252,14.349-14.205c7.771,0.046,14.129,6.463,14.093,14.221C242.177,136.019,235.776,142.35,227.918,142.322z
	"/>
<path fill-rule="evenodd" clip-rule="evenodd" fill="#D7C656" d="M283.325,75.054c-2.413-0.023-4.344-1.97-4.343-4.38
	c0.002-2.442,2.036-4.457,4.464-4.418c2.442,0.039,4.383,2.072,4.333,4.539C287.729,73.2,285.766,75.078,283.325,75.054z
	 M286.709,70.713c0.023-1.807-1.508-3.357-3.319-3.361c-1.82-0.004-3.345,1.529-3.329,3.348c0.016,1.781,1.47,3.247,3.253,3.279
	C285.14,74.012,286.686,72.524,286.709,70.713z"/>
<path fill-rule="evenodd" clip-rule="evenodd" fill="#D7C656" d="M281.529,73.072c0-1.646,0-3.125,0-4.764
	c0.91,0,1.769-0.044,2.62,0.011c1.022,0.066,1.426,0.395,1.573,1.117c0.156,0.771-0.118,1.215-1.115,1.741
	c0.278,0.578,0.557,1.159,0.882,1.833c-0.418,0-0.732,0-1.031,0c-0.412-0.599-0.786-1.187-1.216-1.729
	c-0.078-0.098-0.386-0.014-0.647-0.014c-0.039,0.565-0.076,1.094-0.118,1.705C282.192,73.002,281.925,73.03,281.529,73.072z
	 M284.71,69.295c-0.788-0.041-1.431-0.074-2.107-0.108c0,0.449,0,0.714,0,1.15c0.655-0.067,1.246-0.096,1.819-0.214
	C284.53,70.102,284.567,69.728,284.71,69.295z"/>
</svg>
