<?xml version="1.0" encoding="utf-8"?>
<!-- Generator: Adobe Illustrator 16.0.0, SVG Export Plug-In . SVG Version: 6.00 Build 0)  -->
<!DOCTYPE svg PUBLIC "-//W3C//DTD SVG 1.1//EN" "http://www.w3.org/Graphics/SVG/1.1/DTD/svg11.dtd">
<svg version="1.1" id="Layer_1" xmlns="http://www.w3.org/2000/svg" xmlns:xlink="http://www.w3.org/1999/xlink" x="0px" y="0px"
	 width="300px" height="300px" viewBox="0 0 300 300" enable-background="new 0 0 300 300" xml:space="preserve">
<path fill-rule="evenodd" clip-rule="evenodd" fill="#D7C656" d="M202.284,289.442c-16.662,6.104-33.946,9.426-51.92,9.528
	c-17.818,0.102-34.96-3.171-51.454-8.867c-7.266,4.835-9.327,3.97-10.122-4.133c-33.061-15.4-57.631-39.683-73.552-72.723
	c-3.086-0.838-7.06-0.249-7.759-5.362c0.869-1.292,1.982-2.946,3.393-5.044c-11.27-30.369-12.465-61.719-3.872-93.632
	c-0.892-0.798-1.96-1.509-2.688-2.478c-0.724-0.964-1.104-2.186-1.517-3.047c1.093-4.062,4.354-4.089,7.608-4.807
	C25.059,61.19,50.564,33.149,87.21,15.736c1.364-8.305,3.737-9.358,10.184-4.344c16.569-5.968,33.83-9.536,51.785-9.61
	c17.969-0.074,35.305,3.129,52.157,9.127c1.964-1.68,3.617-4.049,6.52-3.11c3.236,1.046,2.861,4.122,3.096,6.982
	c33.197,15.453,57.698,39.804,73.634,72.574c8.677,2.111,9.336,3.624,4.441,10.682c5.976,16.573,9.499,33.863,9.607,51.794
	c0.107,17.806-3.23,34.982-9.116,51.831c0.988,2.251,4.391,3.559,3.001,6.818c-1.251,2.932-4.04,2.516-6.903,2.741
	c-15.415,33.457-39.895,58.227-73.329,74.023c-0.653,2.552,0.379,5.67-2.794,7.074C206.243,293.757,204.729,290.779,202.284,289.442
	z M149.999,10.45C74.397,9.916,9.861,70.564,9.776,149.876c-0.084,78.122,60.866,140.655,140.06,140.702
	c80.335,0.048,140.141-64.705,140.25-140.065C290.196,74.393,227.907,9.677,149.999,10.45z"/>
<path fill-rule="evenodd" clip-rule="evenodd" fill="#D7C656" d="M13.812,150.306C12.805,76.553,74.48,13.731,150.387,14.007
	c73.595,0.268,136.091,60.166,135.953,136.735c-0.139,75.867-62.689,136.141-136.618,136.043
	C74.797,286.685,12.721,224.536,13.812,150.306z M133.853,177.266c1.85-0.459,3.493-0.976,5.174-1.267
	c14.638-2.526,27.294-9.269,38.871-18.275c1.602-1.245,3.09-2.719,4.339-4.314c1.546-1.977,1.284-4.295-0.646-5.875
	c-1.646-1.346-3.559-2.365-5.259-3.468c-12.176,12.942-31.754,20.421-39.627,18.931c0.417-3.966,1.658-7.175,4.523-11.7
	c10.444-16.494,35.02-22.252,52.872-12.396c6.933,3.829,12.545,8.984,15.727,16.35c1.6,3.705,4.274,5.251,8.1,5.227
	c1.833-0.01,3.665-0.104,5.398-0.157c1.019-6.535,0.721-27.233-0.391-30.462c-3.719-0.354-7.441-0.812-10.892,1.48
	c-1.931,1.285-3.938,0.556-5.851-0.286c-2.587-1.14-5.102-2.487-7.762-3.417c-13.043-4.556-26.319-5.478-39.901-2.639
	c-16.632,3.477-30.418,11.608-41.288,24.651c-2.283,2.739-4.363,5.647-6.627,8.596c-5.168-2.27-8.86-5.891-11.774-10.197
	c-12.284-18.153-14.415-38.272-8.57-58.697c7.901-27.617,40.382-35.043,60.944-20.715c5.397,3.762,9.841,8.296,12.635,14.336
	c1.069,2.313,2.257,4.677,5.229,4.857c2.621,0.16,5.26,0.034,8.278,0.034c0.302-10.537,0.416-20.482-0.128-30.443
	c-4.003-0.747-7.394-0.425-10.504,1.369c-2.167,1.25-4.156,0.985-6.285,0.014c-2.856-1.303-5.687-2.735-8.664-3.694
	c-17.185-5.536-34.379-5.543-51.296,0.924c-16.199,6.193-28.586,16.959-36.492,32.515c-6.675,13.135-7.761,27.032-4.84,41.324
	c1.467,7.172,4.295,13.808,8.583,19.762c7.989,11.094,18.859,18.315,31.459,23.167c1.568,0.604,3.129,1.226,4.674,1.831
	c0,1.393,0.14,2.353-0.023,3.26c-1.147,6.421-0.905,12.806,0.07,19.236c1.952,12.873,7.38,24.067,16.595,33.16
	c11.648,11.493,26.139,17.36,42.217,18.99c21.452,2.175,40.822-3.482,57.846-16.825c2.474-1.938,4.938-3.92,7.163-6.129
	c2.505-2.49,2.313-4.468-0.444-6.751c-1.407-1.165-3.03-2.07-4.442-3.017c-2.368,2.079-4.27,3.97-6.389,5.571
	c-9.701,7.33-20.414,12.172-32.593,13.883c-18.274,2.566-34.43-5.489-42.937-20.895c-5.958-10.789-7.111-22.663-7.698-34.646
	C133.176,179.436,133.624,178.376,133.853,177.266z"/>
</svg>
