<?xml version="1.0" encoding="utf-8"?>
<!-- Generator: Adobe Illustrator 16.0.0, SVG Export Plug-In . SVG Version: 6.00 Build 0)  -->
<!DOCTYPE svg PUBLIC "-//W3C//DTD SVG 1.1//EN" "http://www.w3.org/Graphics/SVG/1.1/DTD/svg11.dtd">
<svg version="1.1" id="Layer_1" xmlns="http://www.w3.org/2000/svg" xmlns:xlink="http://www.w3.org/1999/xlink" x="0px" y="0px"
	 width="300px" height="300px" viewBox="0 0 300 300" enable-background="new 0 0 300 300" xml:space="preserve">
<path fill-rule="evenodd" clip-rule="evenodd" fill="#D7C656" d="M99.515,127.163c0.154,0.054,0.305,0.139,0.463,0.159
	c3.66,0.455,6.952,1.845,9.852,4.081c4.397,3.389,6.997,7.863,7.72,13.389c0.741,5.663-0.637,10.785-4.12,15.292
	c-2.728,3.53-6.313,5.858-10.598,7.117c-2.284,0.67-4.616,1.05-6.99,0.949c-5.032-0.215-9.592-1.741-13.499-5.024
	c-4.046-3.398-6.391-7.773-6.973-12.957c-0.644-5.716,0.713-10.974,4.478-15.485c3.462-4.149,7.88-6.557,13.203-7.359
	c0.159-0.024,0.309-0.107,0.463-0.162C95.514,127.163,97.515,127.163,99.515,127.163z M106.31,147.658
	c0.151-2.797-0.759-5.241-2.554-7.282c-1.993-2.267-4.566-3.339-7.635-3.231c-3.689,0.128-6.366,1.836-8.187,4.995
	c-1.145,1.987-1.339,4.149-1.224,6.377c0.125,2.383,0.986,4.478,2.544,6.257c1.982,2.262,4.494,3.288,7.529,3.221
	c3.409-0.076,6.007-1.525,7.882-4.305C105.892,151.872,106.438,149.834,106.31,147.658z"/>
<path fill-rule="evenodd" clip-rule="evenodd" fill="#D7C656" d="M247.524,127.163c0.153,0.054,0.306,0.139,0.464,0.159
	c3.59,0.444,6.82,1.807,9.695,3.958c4.304,3.218,6.94,7.539,7.793,12.822c0.947,5.865-0.358,11.263-4.036,15.986
	c-2.742,3.52-6.316,5.855-10.601,7.114c-2.286,0.671-4.616,1.05-6.992,0.947c-5.03-0.217-9.593-1.736-13.496-5.026
	c-4.039-3.402-6.396-7.766-6.975-12.955c-0.637-5.718,0.719-10.972,4.48-15.485c3.464-4.153,7.883-6.553,13.204-7.358
	c0.158-0.024,0.309-0.107,0.462-0.162C243.524,127.163,245.524,127.163,247.524,127.163z M234.731,147.555
	c-0.124,1.325,0.122,2.686,0.63,4.013c1.762,4.59,5.768,7.115,10.96,6.309c3.613-0.562,6.037-2.793,7.362-6.176
	c0.918-2.343,0.896-4.782,0.284-7.168c-0.6-2.347-1.895-4.294-3.938-5.71c-2.175-1.506-4.589-1.931-7.136-1.604
	c-2.144,0.274-4.018,1.239-5.469,2.851C235.548,142.155,234.551,144.604,234.731,147.555z"/>
<path fill-rule="evenodd" clip-rule="evenodd" fill="#D7C656" d="M299.928,144.364c-0.317,1.045-0.571,2.114-0.965,3.13
	c-1.261,3.261-3.691,5.397-6.793,6.829c-2.137,0.984-4.393,1.555-6.745,1.663c-2.093,0.097-4.188,0.124-6.284,0.173
	c-1.21,0.027-1.386,0.184-1.389,1.4c-0.006,2.733,0.002,5.466-0.004,8.198c-0.002,1.229-0.358,1.597-1.615,1.604
	c-2.599,0.016-5.197,0.016-7.797,0.001c-1.287-0.008-1.639-0.384-1.639-1.691c-0.002-12.062-0.002-24.125,0-36.188
	c0-1.346,0.36-1.714,1.722-1.717c4.999-0.008,9.998-0.063,14.995,0.021c2.793,0.046,5.574,0.35,8.213,1.423
	c4.388,1.785,7.232,4.864,8.145,9.592c0.026,0.126,0.103,0.241,0.156,0.362C299.928,140.897,299.928,142.63,299.928,144.364z
	 M277.814,147.348c1.79,0,3.451-0.018,5.113,0.007c1.019,0.016,1.979-0.207,2.929-0.541c1.42-0.499,2.428-1.441,2.808-2.885
	c0.217-0.818,0.307-1.728,0.194-2.56c-0.205-1.519-0.955-2.773-2.432-3.429c-1.074-0.478-2.204-0.753-3.39-0.751
	c-1.434,0.002-2.864-0.003-4.299,0.004c-0.288,0.002-0.578,0.049-0.924,0.08C277.814,140.625,277.814,143.905,277.814,147.348z"/>
<path fill-rule="evenodd" clip-rule="evenodd" fill="#D7C656" d="M-0.093,151.364c2.429-1.867,4.857-3.733,7.285-5.599
	c1.548-1.191,3.096-2.382,4.791-3.474c-0.188,0.552-0.406,1.096-0.56,1.657c-1.096,4.003-0.667,7.772,2.069,11.008
	c2.066,2.443,4.844,3.303,8.003,2.902c2.711-0.344,4.872-1.671,6.604-3.754c0.572-0.689,1.092-0.776,1.831-0.256
	c2.125,1.492,4.228,3.018,6.342,4.529c0.37,0.263,0.65,0.572,0.618,1.178c-0.761,1.359-1.903,2.524-3.116,3.61
	c-2.59,2.316-5.605,3.821-9.018,4.483c-6.32,1.223-12.196,0.233-17.427-3.67c-3.567-2.663-5.854-6.227-7.096-10.48
	c-0.092-0.316-0.216-0.625-0.326-0.936C-0.093,152.164-0.093,151.764-0.093,151.364z"/>
<path fill-rule="evenodd" clip-rule="evenodd" fill="#D7C656" d="M77.913,192.367c0-2.216,0-4.43,0-6.736
	c0.595-0.032,1.078-0.059,1.639-0.089c0.553,0.838,1.096,1.658,1.716,2.598c0.571-0.884,1.087-1.682,1.626-2.515
	c0.54,0,1.054,0,1.641,0c0.062,0.294,0.16,0.543,0.162,0.794c0.014,1.694,0.017,3.389,0,5.082c-0.003,0.29-0.12,0.577-0.184,0.866
	c-0.467,0-0.934,0-1.4,0c-0.052-0.585-0.12-1.171-0.154-1.758c-0.035-0.602-0.037-1.203-0.053-1.805
	c-0.059-0.01-0.118-0.019-0.176-0.028c-0.465,0.659-0.93,1.319-1.496,2.121c-0.59-0.853-1.087-1.57-1.721-2.486
	c0,1.467,0,2.711,0,3.956C78.979,192.367,78.446,192.367,77.913,192.367z"/>
<path fill-rule="evenodd" clip-rule="evenodd" fill="#D7C656" d="M216.123,192.367c0-2.218,0-4.433,0-6.74
	c0.49-0.024,0.875-0.045,1.358-0.071c0.891,1.126,1.789,2.26,2.801,3.536c0.039-1.243,0.073-2.309,0.11-3.45
	c0.587,0,1.031,0,1.554,0c0.059,0.273,0.159,0.521,0.161,0.771c0.015,1.695,0.019,3.393,0.001,5.088
	c-0.003,0.29-0.121,0.577-0.187,0.866c-0.399,0-0.799,0-1.199,0c-0.936-1.216-1.872-2.432-2.808-3.648
	c-0.191,0.791-0.167,1.487-0.2,2.183c-0.024,0.49-0.126,0.977-0.194,1.466C217.057,192.367,216.59,192.367,216.123,192.367z"/>
<path fill-rule="evenodd" clip-rule="evenodd" fill="#D7C656" d="M165.519,192.367c0-2.215,0-4.427,0-6.73
	c1.389-0.114,2.689-0.26,3.939,0.041c1.678,0.403,2.216,2.396,1.09,3.732c-0.168,0.2-0.378,0.363-0.608,0.581
	c0.465,0.799,0.922,1.588,1.38,2.376c-0.601,0-1.2,0-1.801,0c-0.482-0.705-0.967-1.411-1.484-2.166
	c-0.292,0.033-0.564,0.065-0.915,0.105c0,0.747,0,1.403,0,2.061C166.585,192.367,166.053,192.367,165.519,192.367z M169.097,187.259
	c-0.649,0-1.256,0-1.964,0c0.03,0.542,0.057,0.979,0.082,1.392c1.576,0.201,1.779,0.132,2.237-0.745
	C169.346,187.711,169.223,187.488,169.097,187.259z"/>
<path fill-rule="evenodd" clip-rule="evenodd" fill="#D7C656" d="M207.522,192.367c-0.45-0.274-0.953-0.492-1.34-0.839
	c-1.435-1.28-1.561-3.44-0.324-4.833c1.293-1.457,3.6-1.671,5.036-0.468c1.484,1.247,1.745,3.448,0.49,4.907
	c-0.438,0.511-1.102,0.828-1.662,1.232C208.989,192.367,208.256,192.367,207.522,192.367z M208.639,186.998
	c-1.056-0.023-1.864,0.788-1.894,1.898c-0.03,1.087,0.755,1.919,1.83,1.941c1.009,0.02,1.823-0.775,1.86-1.818
	C210.472,187.963,209.634,187.019,208.639,186.998z"/>
<path fill-rule="evenodd" clip-rule="evenodd" fill="#D7C656" d="M156.519,192.367c-0.068-0.288-0.19-0.573-0.193-0.861
	c-0.017-1.762-0.009-3.521-0.002-5.283c0.001-0.16,0.056-0.319,0.101-0.576c1.648-0.175,3.283-0.094,5.015-0.046
	c0,0.481,0,0.887,0,1.37c-1.01,0.42-2.104,0.016-3.201,0.293c-0.027,0.231-0.056,0.47-0.102,0.867c1.004,0,1.914,0,2.907,0
	c0,0.521,0,0.896,0,1.426c-0.924,0-1.831,0-2.824,0c0,0.451,0,0.752,0,1.208c1.084,0,2.127,0,3.3,0c0,0.634,0,1.117,0,1.603
	C159.852,192.367,158.185,192.367,156.519,192.367z"/>
<path fill-rule="evenodd" clip-rule="evenodd" fill="#D7C656" d="M139.117,192.367c-1.411-0.742-1.851-1.981-1.81-3.486
	c0.029-1.052,0.005-2.107,0.005-3.24c0.624,0,1.098,0,1.667,0c0.048,0.398,0.12,0.748,0.127,1.099
	c0.018,0.964-0.011,1.928,0.017,2.893c0.023,0.796,0.277,1.062,0.967,1.132c0.86,0.088,1.251-0.118,1.45-0.854
	c0.102-0.378,0.125-0.784,0.132-1.179c0.018-0.991,0.006-1.982,0.006-3.08c0.545-0.034,0.988-0.062,1.507-0.097
	c0.058,0.336,0.133,0.587,0.138,0.837c0.016,0.832-0.012,1.662,0.011,2.493c0.042,1.504-0.403,2.743-1.816,3.483
	C140.717,192.367,139.917,192.367,139.117,192.367z"/>
<path fill-rule="evenodd" clip-rule="evenodd" fill="#D7C656" d="M90.513,192.367c-1.454-0.701-1.91-1.913-1.83-3.448
	c0.055-1.055,0.011-2.114,0.011-3.28c0.557-0.025,0.997-0.046,1.53-0.069c0.044,0.376,0.102,0.66,0.106,0.945
	c0.013,0.897,0.008,1.797,0.005,2.695c-0.002,0.557,0.115,1.058,0.681,1.485c0.394,0,0.879,0,1.316,0
	c0.493-0.329,0.572-0.78,0.574-1.261c0.002-0.897,0.002-1.796,0.002-2.695c0-0.325,0-0.651,0-1.101
	c0.581-0.028,1.052-0.051,1.562-0.075c0.095,0.305,0.225,0.519,0.218,0.729c-0.039,1.326-0.065,2.655-0.18,3.978
	c-0.096,1.086-0.929,1.625-1.796,2.097C91.98,192.367,91.247,192.367,90.513,192.367z"/>
<path fill-rule="evenodd" clip-rule="evenodd" fill="#D7C656" d="M147.317,192.367c0-2.195,0-4.392,0-6.635
	c0.283-0.068,0.498-0.164,0.715-0.168c0.799-0.019,1.601-0.033,2.398,0c1.229,0.054,2.119,0.852,2.282,1.988
	c0.173,1.22-0.448,2.253-1.664,2.612c-0.626,0.186-1.296,0.222-2.039,0.34c-0.031,0.617-0.061,1.239-0.092,1.862
	C148.384,192.367,147.851,192.367,147.317,192.367z M149.016,188.728c0.556,0,0.988,0.042,1.407-0.012
	c0.404-0.054,0.642-0.346,0.631-0.771c-0.009-0.424-0.258-0.703-0.667-0.739c-0.443-0.04-0.894,0.008-1.372,0.018
	C149.016,187.772,149.016,188.188,149.016,188.728z"/>
<path fill-rule="evenodd" clip-rule="evenodd" fill="#D7C656" d="M130.117,192.367c-0.604-0.316-1.369-0.379-1.782-1.209
	c0.227-0.276,0.489-0.593,0.759-0.922c0.943,0.191,1.771,1.153,2.76,0.381c0.014-0.589-0.381-0.676-0.713-0.8
	c-0.438-0.163-0.895-0.272-1.327-0.446c-0.999-0.398-1.454-1.162-1.289-2.104c0.18-1.022,0.876-1.654,1.907-1.731
	c1.495-0.109,2.053,0.049,2.927,0.89c-0.221,0.354-0.456,0.729-0.698,1.115c-0.863-0.274-1.642-0.956-2.677-0.079
	c0.458,0.263,0.765,0.483,1.104,0.624c0.398,0.164,0.829,0.248,1.238,0.386c0.808,0.272,1.291,0.854,1.354,1.688
	c0.062,0.828-0.34,1.473-1.044,1.917c-0.168,0.104-0.346,0.195-0.519,0.291C131.45,192.367,130.783,192.367,130.117,192.367z"/>
<path fill-rule="evenodd" clip-rule="evenodd" fill="#D7C656" d="M100.114,192.367c-0.607-0.311-1.356-0.388-1.827-1.154
	c0.246-0.318,0.516-0.667,0.782-1.011c0.962,0.276,1.785,1.148,2.779,0.431c0.005-0.613-0.39-0.695-0.723-0.818
	c-0.468-0.172-0.952-0.306-1.422-0.472c-0.774-0.274-1.177-0.815-1.214-1.649c-0.039-0.851,0.287-1.496,1.02-1.915
	c1.021-0.581,2.892-0.256,3.836,0.709c-0.216,0.328-0.444,0.675-0.673,1.024c-0.868-0.071-1.678-1.093-2.65,0.014
	c0.358,0.19,0.595,0.346,0.854,0.45c0.338,0.138,0.695,0.229,1.041,0.35c0.82,0.286,1.532,0.677,1.625,1.672
	c0.094,0.999-0.222,1.77-1.194,2.186c-0.088,0.039-0.156,0.121-0.233,0.185C101.447,192.367,100.781,192.367,100.114,192.367z"/>
<path fill-rule="evenodd" clip-rule="evenodd" fill="#D7C656" d="M191.92,192.367c-0.572-0.307-1.146-0.613-1.846-0.988
	c0.348-0.473,0.605-0.827,0.871-1.19c1.001,0.287,1.882,1.286,3.083,0.167c-0.432-0.237-0.716-0.428-1.025-0.554
	c-0.492-0.199-1.013-0.324-1.498-0.533c-0.785-0.337-1.199-0.976-1.14-1.815c0.062-0.864,0.56-1.552,1.389-1.775
	c1.217-0.325,2.434-0.297,3.526,0.735c-0.214,0.36-0.424,0.715-0.642,1.082c-0.798-0.075-1.44-0.754-2.231-0.4
	c-0.134,0.061-0.185,0.305-0.333,0.57c0.394,0.17,0.711,0.32,1.036,0.443c0.342,0.129,0.693,0.23,1.039,0.343
	c0.802,0.263,1.3,0.782,1.377,1.646c0.076,0.896-0.364,1.522-1.083,1.986c-0.166,0.107-0.349,0.19-0.523,0.283
	C193.253,192.367,192.588,192.367,191.92,192.367z"/>
<path fill-rule="evenodd" clip-rule="evenodd" fill="#D7C656" d="M115.516,192.367c-0.859-0.454-1.654-0.943-2.086-1.899
	c-0.718-1.59-0.25-3.465,1.167-4.432c1.306-0.891,3.725-0.828,4.685,0.579c-0.278,0.311-0.576,0.644-0.909,1.017
	c-0.346-0.163-0.633-0.311-0.931-0.436c-0.858-0.358-1.637-0.188-2.164,0.462c-0.435,0.535-0.518,1.79-0.157,2.361
	c0.436,0.691,1.22,0.976,2.099,0.712c0.375-0.112,0.718-0.325,1.236-0.567c0.268,0.27,0.579,0.581,0.874,0.877
	c-0.389,0.798-1.083,0.959-1.615,1.326C116.982,192.367,116.249,192.367,115.516,192.367z"/>
<path fill-rule="evenodd" clip-rule="evenodd" fill="#D7C656" d="M176.919,192.367c-0.866-2.186-1.734-4.369-2.666-6.718
	c0.644-0.04,1.146-0.07,1.738-0.105c0.543,1.393,1.065,2.734,1.671,4.288c0.603-1.541,1.117-2.857,1.644-4.203c0.54,0,1.02,0,1.5,0
	c-0.013,0.945-1.253,4.273-2.485,6.738C177.853,192.367,177.386,192.367,176.919,192.367z"/>
<path fill-rule="evenodd" clip-rule="evenodd" fill="#D7C656" d="M199.521,192.367c-0.063-0.255-0.18-0.51-0.183-0.766
	c-0.015-1.759-0.01-3.517-0.001-5.276c0.001-0.188,0.081-0.378,0.151-0.686c0.477-0.028,0.949-0.056,1.578-0.092
	c0.114,1.207,0.048,2.324,0.058,3.436c0.013,1.128-0.001,2.255-0.004,3.384C200.588,192.367,200.054,192.367,199.521,192.367z"/>
<path fill-rule="evenodd" clip-rule="evenodd" fill="#D7C656" d="M107.515,192.367c0-2.209,0-4.42,0-6.719c0.547,0,0.987,0,1.561,0
	c0.141,1.116,0.052,2.232,0.063,3.342c0.012,1.126-0.015,2.252-0.024,3.377C108.581,192.367,108.048,192.367,107.515,192.367z"/>
<path fill-rule="evenodd" clip-rule="evenodd" fill="#D7C656" d="M184.72,192.367c0-2.194,0-4.39,0-6.723
	c0.529-0.025,0.992-0.047,1.601-0.076c0,2.36,0,4.578,0,6.799C185.787,192.367,185.254,192.367,184.72,192.367z"/>
<path fill-rule="evenodd" clip-rule="evenodd" fill="#D7C656" d="M63.032,152.462c-4.534,0-8.913,0-13.404,0
	c-0.042,0.48-0.108,0.897-0.109,1.313c-0.007,3.834-0.004,7.667-0.004,11.5c0,0.267,0.007,0.533-0.003,0.8
	c-0.042,0.959-0.321,1.259-1.269,1.283c-0.966,0.024-1.934,0.007-2.9,0.007c-1.833,0-3.666,0-5.5,0c-0.501,0-1.009,0.02-1.458-0.506
	c0-12.828,0-25.741,0-38.583c0.427-0.515,0.931-0.515,1.435-0.515c2.7,0,5.4-0.004,8.1,0.002c1.325,0.002,1.591,0.263,1.593,1.572
	c0.005,3.933,0,7.866,0.004,11.799c0,0.393,0.037,0.786,0.062,1.274c0.377,0.051,0.694,0.13,1.01,0.13
	c3.833,0.008,7.667,0.007,11.5,0.001c0.26,0,0.521-0.05,0.899-0.088c0.046-0.441,0.123-0.856,0.124-1.271
	c0.009-3.899,0.001-7.799,0.011-11.699c0.001-0.454,0.075-0.908,0.126-1.477c0.49-0.092,0.898-0.232,1.308-0.235
	c2.766-0.02,5.533-0.018,8.299-0.006c1.179,0.005,1.466,0.297,1.466,1.495c0.004,12.2,0.004,24.399,0,36.599
	c0,1.242-0.271,1.501-1.551,1.504c-2.7,0.007-5.4,0.007-8.1,0c-1.315-0.003-1.551-0.247-1.552-1.6
	c-0.006-3.966,0-7.934-0.006-11.898C63.113,153.441,63.065,153.018,63.032,152.462z"/>
<path fill-rule="evenodd" clip-rule="evenodd" fill="#D7C656" d="M210.479,152.387c-0.153,0-0.483,0-0.812,0
	c-3.567,0-7.134,0-10.701,0c-0.199,0-0.399-0.002-0.6,0.012c-0.511,0.034-0.793,0.312-0.826,0.822
	c-0.019,0.266-0.014,0.533-0.014,0.8c-0.001,3.667-0.001,7.334-0.001,11.001c0,0.2,0.002,0.399-0.001,0.6
	c-0.019,1.355-0.381,1.736-1.717,1.742c-2.467,0.009-4.935,0.002-7.401,0.002c-0.2,0-0.4,0.006-0.601-0.002
	c-1.114-0.049-1.483-0.418-1.486-1.536c-0.008-2.534-0.002-5.066-0.002-7.601c0-9.5,0.021-19.001-0.021-28.501
	c-0.007-1.639,0.479-1.987,1.992-1.971c2.467,0.027,4.933,0.003,7.399,0.009c1.466,0.003,1.832,0.367,1.835,1.831
	c0.005,3.734,0.002,7.467,0.002,11.201c0,0.266-0.014,0.534,0.007,0.8c0.054,0.66,0.271,0.882,0.922,0.941
	c0.231,0.021,0.467,0.009,0.699,0.009c3.435,0,6.866,0,10.302,0c0.2,0,0.399,0.008,0.599-0.003c0.822-0.045,1.029-0.262,1.069-1.11
	c0.011-0.233,0.004-0.466,0.004-0.7c0-3.6,0-7.2,0-10.8c0-0.234-0.007-0.468,0.004-0.7c0.049-1.036,0.437-1.437,1.486-1.462
	c1.034-0.026,2.067-0.007,3.1-0.007c1.635,0,3.269-0.008,4.901,0.003c1.326,0.009,1.713,0.398,1.714,1.748
	c0.006,6.134,0.003,12.268,0.003,18.401c0,5.701,0,11.4,0,17.101c0,0.267,0.008,0.533-0.002,0.8
	c-0.039,1.115-0.417,1.503-1.509,1.549c-0.166,0.007-0.333,0.002-0.499,0.002c-2.4,0-4.802,0.001-7.201-0.001
	c-1.706-0.001-1.995-0.282-1.996-1.956c-0.003-3.866,0-7.732-0.003-11.6C211.125,153.314,211.204,152.783,210.479,152.387z"/>
<path fill-rule="evenodd" clip-rule="evenodd" fill="#D7C656" d="M129.686,166.783c-0.387,0.522-0.843,0.581-1.321,0.581
	c-2.767,0-5.534,0.012-8.301-0.005c-1.045-0.007-1.362-0.338-1.372-1.396c-0.017-1.633-0.005-3.267-0.005-4.901
	c0-10.434,0-20.867,0-31.301c0-1.763,0.237-1.998,2.029-1.999c4.8-0.002,9.602-0.051,14.401,0.019
	c2.966,0.042,5.904,0.372,8.706,1.5c4.668,1.878,7.917,6.032,8.14,11.226c0.062,1.4,0.022,2.78-0.188,4.163
	c-0.544,3.565-2.373,6.31-5.308,8.347c-2.644,1.833-5.626,2.725-8.796,2.947c-2.189,0.154-4.39,0.143-6.586,0.195
	c-1.162,0.027-1.337,0.181-1.341,1.34c-0.008,2.733,0,5.467-0.005,8.201C129.737,166.094,129.701,166.486,129.686,166.783z
	 M129.805,147.346c1.83,0,3.527,0.046,5.22-0.02c0.853-0.034,1.716-0.203,2.542-0.428c3.141-0.858,3.989-4.294,2.932-6.783
	c-0.723-1.7-2.126-2.417-3.803-2.72c-2.211-0.4-4.446-0.186-6.673-0.148c-0.054,0.001-0.107,0.068-0.219,0.142
	C129.805,140.632,129.805,143.912,129.805,147.346z"/>
<path fill-rule="evenodd" clip-rule="evenodd" fill="#D7C656" d="M154.468,147.213c3.144-2.439,6.025-4.676,8.919-6.923
	c2.577,1.82,5.617,1.993,8.436,2.843c1.91,0.577,3.817,1.168,5.686,1.866c2.068,0.773,3.775,2.104,5.161,3.82
	c1.124,1.39,1.673,3.043,1.835,4.786c0.19,2.035,0.017,4.057-0.696,6.005c-0.794,2.163-2.177,3.879-4.009,5.237
	c-2.362,1.753-5.077,2.595-7.963,2.942c-5.098,0.615-10.021-0.083-14.776-1.997c-1.989-0.802-3.818-1.895-5.537-3.167
	c-0.411-0.305-0.732-0.731-0.997-0.999c0.01-0.704,0.372-0.957,0.717-1.222c1.928-1.479,3.851-2.963,5.785-4.433
	c0.285-0.217,0.621-0.365,0.968-0.566c0.442,0.225,0.865,0.413,1.264,0.646c2.329,1.368,4.826,2.199,7.514,2.531
	c1.37,0.17,2.716,0.229,4.067-0.045c0.389-0.079,0.79-0.174,1.139-0.352c0.781-0.4,1.31-0.99,1.334-1.947
	c0.023-0.934-0.367-1.588-1.159-2.052c-1.193-0.701-2.51-1.063-3.831-1.407c-2.094-0.545-4.205-1.027-6.28-1.635
	c-2.44-0.714-4.769-1.693-6.74-3.369C155.103,147.609,154.866,147.48,154.468,147.213z"/>
<path fill-rule="evenodd" clip-rule="evenodd" fill="#D7C656" d="M29.16,128.879c2.693,0.888,6.708,4.264,7.527,6.44
	c-0.285,0.326-0.573,0.777-0.971,1.089c-1.908,1.503-3.844,2.971-5.773,4.445c-0.997,0.761-1.346,0.741-2.214-0.149
	c-1.39-1.426-2.93-2.602-4.899-3.13c-1.425-0.382-2.861-0.508-4.36-0.248C18.852,136.671,27.977,129.488,29.16,128.879z"/>
<path fill-rule="evenodd" clip-rule="evenodd" fill="#D7C656" d="M183.071,132.78c-2.429,2.054-5.026,3.98-7.636,5.903
	c-2.246-1.053-4.45-1.849-6.808-2.168c-0.02-0.081-0.038-0.163-0.057-0.244c3.06-2.372,6.118-4.743,9.116-7.067
	C179.714,129.606,182.735,131.575,183.071,132.78z"/>
</svg>
