<?xml version="1.0" encoding="utf-8"?>
<!-- Generator: Adobe Illustrator 16.0.0, SVG Export Plug-In . SVG Version: 6.00 Build 0)  -->
<!DOCTYPE svg PUBLIC "-//W3C//DTD SVG 1.1//EN" "http://www.w3.org/Graphics/SVG/1.1/DTD/svg11.dtd">
<svg version="1.1" id="Layer_1" xmlns="http://www.w3.org/2000/svg" xmlns:xlink="http://www.w3.org/1999/xlink" x="0px" y="0px"
	 width="300px" height="300px" viewBox="0 0 300 300" enable-background="new 0 0 300 300" xml:space="preserve">
<path fill="#D7C656" d="M215.2,285.895c-2.98,0-5.959,0-8.939,0c-0.851-0.156-1.696-0.363-2.554-0.463
	c-7.594-0.885-14.656-3.191-20.89-7.736c-1.181-0.861-2.308-1.797-3.246-2.531c-20.524,11.537-40.733,11.521-61.106-0.072
	c-5.34,5.012-11.889,7.965-19.095,9.533c-2.55,0.557-5.155,0.854-7.735,1.27c-2.98,0-5.959,0-8.939,0
	c-1.377-0.166-2.75-0.389-4.13-0.482c-4.175-0.279-8.353-0.51-12.831-0.779c-0.043-16.785,0.018-33.361-0.028-50.172
	c-6.039,0-11.618,0-17.475,0c0-27.289,0-54.332,0-81.201c-0.716-0.609-1.158-1.033-1.646-1.396
	c-14.144-10.478-28.29-20.954-42.446-31.417c-0.408-0.301-0.91-0.475-1.367-0.708c0-0.701,0-1.402,0-2.104
	c0.181-0.47,0.407-0.928,0.536-1.413c1.304-4.898,2.273-9.912,3.939-14.682c5.962-17.065,16.621-30.903,30.294-42.464
	c18.667-15.784,40.244-25.853,63.874-31.629c13.205-3.227,26.598-5.319,40.222-5.696c0.687-0.02,1.369-0.222,2.052-0.338
	c4.207,0,8.412,0,12.619,0c0.859,0.123,1.718,0.339,2.58,0.353c9.312,0.151,18.505,1.456,27.639,3.096
	c15.833,2.844,31.084,7.599,45.58,14.636c15.666,7.606,29.784,17.334,41.517,30.347c10.443,11.583,18.036,24.686,21.702,39.941
	c0.59,2.453,1.266,4.884,1.9,7.325c0,0.525,0,1.052,0,1.578c-0.587,0.371-1.202,0.706-1.759,1.119
	c-10.976,8.12-21.943,16.248-32.913,24.376c-4.21,3.12-8.419,6.241-12.736,9.442c0,26.91,0,53.76,0,80.945
	c-5.845,0-11.484,0-17.414,0c0,16.842,0,33.346,0,50.041c-1.576,0.105-2.865,0.184-4.154,0.281
	C223.899,285.223,219.551,285.559,215.2,285.895z M94.815,149.153c-1.356-0.176-2.752-0.207-4.064-0.552
	c-7.435-1.957-14.85-3.987-22.306-6.001c-0.395,0.368-0.743,0.625-0.998,0.956c-0.141,0.184-0.124,0.489-0.284,1.225
	c10.725,7.648,21.579,15.389,32.779,23.377c0.481-1.102,0.756-1.73,1.089-2.488c-7.625-5.871-15.551-10.9-22.757-16.99
	c0.967-0.139,1.798-0.012,2.605,0.202c6.169,1.634,12.339,3.268,18.498,4.944c1.266,0.346,2.402,0.639,3.097-1.354
	c-5.65-6.271-12.049-12.03-17.485-18.751c1.078,0.022,1.963,0.285,2.804,0.654c4.57,2,9.12,4.048,13.701,6.029
	c1.067,0.461,2.274,1.259,3.445-0.644c-2.52-5.615-5.138-11.446-7.757-17.278c0.184-0.159,0.367-0.318,0.551-0.476
	c0.731,0.367,1.488,0.692,2.189,1.11c3.386,2.016,6.737,4.093,10.148,6.065c0.823,0.476,1.826,0.637,3.336,1.139
	c-0.161-6.45-1.661-12.167-1.592-18.089c1.14,0.823,2.014,1.743,2.812,2.726c3.531,4.354,7.021,8.742,10.575,13.077
	c0.663,0.808,1.559,1.426,2.744,2.487c0.395-1.216,0.729-1.821,0.77-2.444c0.217-3.402,0.4-6.807,0.522-10.214
	c0.092-2.538,0.046-5.082,0.127-7.621c0.019-0.586,0.302-1.163,0.463-1.745c0.19-0.006,0.382-0.01,0.574-0.017
	c0.458,0.814,0.952,1.61,1.37,2.444c2.867,5.716,5.707,11.445,8.584,17.155c0.491,0.974,0.854,2.247,2.771,1.696
	c0.232-0.59,0.663-1.347,0.827-2.158c1.11-5.478,2.146-10.97,3.245-16.449c0.361-1.803,0.839-3.582,1.264-5.372
	c0.226-0.003,0.451-0.005,0.677-0.008c0.346,1.123,0.756,2.23,1.03,3.371c1.446,6.034,2.838,12.082,4.299,18.111
	c0.271,1.121,0.352,2.524,2.336,2.624c0.476-0.794,1.075-1.629,1.51-2.544c2.702-5.693,5.355-11.411,8.06-17.104
	c0.416-0.876,1.009-1.668,1.823-2.993c0.252,1.079,0.405,1.474,0.43,1.877c0.369,5.931,0.727,11.862,1.073,17.793
	c0.071,1.25,0.14,2.477,1.912,3.123c0.73-0.794,1.6-1.618,2.328-2.551c3.449-4.419,6.853-8.874,10.293-13.3
	c0.5-0.643,1.109-1.199,1.967-2.113c0.164,1.025,0.337,1.521,0.307,2.004c-0.251,3.836-0.508,7.672-0.834,11.502
	c-0.124,1.461-0.575,2.922,0.709,4.599c0.866-0.379,1.839-0.65,2.636-1.181c3.061-2.039,6.057-4.175,9.097-6.246
	c0.831-0.568,1.728-1.042,2.594-1.558c0.165,0.116,0.33,0.232,0.497,0.349c-0.233,0.877-0.405,1.776-0.709,2.626
	c-1.354,3.792-2.757,7.564-4.114,11.354c-0.405,1.133-0.989,2.332,0.568,3.43c5.138-1.298,10.026-3.867,15.456-4.888
	c-0.459,1.076-1.035,1.927-1.712,2.688c-3.553,3.991-7.145,7.949-10.688,11.947c-0.728,0.819-1.312,1.76-1.873,2.522
	c0.773,1.764,1.906,1.408,3.037,1.143c5.786-1.357,11.572-2.71,17.364-4.042c0.506-0.117,1.052-0.063,1.579-0.088
	c0.075,0.184,0.151,0.368,0.227,0.552c-7.304,5.586-15.123,10.495-22.578,16.292c0.738,0.781,1.179,1.246,1.655,1.75
	c0.695-0.381,1.257-0.621,1.745-0.967c9.31-6.555,18.614-13.115,27.899-19.707c0.659-0.467,1.15-1.171,1.691-1.737
	c-1.048-1.87-2.38-1.311-3.627-1.021c-6.555,1.524-13.106,3.07-19.666,4.584c-0.787,0.183-1.61,0.221-2.416,0.326
	c-0.117-0.203-0.236-0.406-0.354-0.609c5.233-5.911,10.467-11.823,15.557-17.572c-0.766-2.189-1.988-1.665-3.158-1.243
	c-4.772,1.72-9.535,3.468-14.317,5.162c-0.813,0.289-1.706,0.358-2.929,0.602c0.436-1.43,0.674-2.355,0.999-3.251
	c1.518-4.197,3.087-8.375,4.569-12.585c0.349-0.992,0.421-2.082,0.6-3.015c-1.672-0.988-2.577-0.097-3.475,0.515
	c-3.69,2.516-7.341,5.089-11.023,7.617c-0.741,0.508-1.559,0.907-2.763,1.6c0-1.682-0.067-2.8,0.013-3.908
	c0.35-4.792,0.719-9.583,1.14-14.368c0.102-1.157,0.093-2.112-1.56-2.474c-0.562,0.588-1.271,1.215-1.844,1.95
	c-3.77,4.836-7.5,9.701-11.268,14.538c-0.661,0.849-1.441,1.605-2.491,2.762c-1.34-8.633-0.777-16.863-2.123-24.77
	c-2.122-0.67-2.485,0.729-2.979,1.771c-3.113,6.565-6.182,13.153-9.28,19.725c-0.382,0.809-0.859,1.572-1.571,2.859
	c-0.404-1.103-0.616-1.543-0.728-2.008c-1.913-7.899-3.823-15.8-5.714-23.706c-0.248-1.037-0.391-2.098-1.69-2.357
	c-1.286,0.326-1.42,1.362-1.631,2.424c-1.533,7.716-3.094,15.427-4.667,23.135c-0.145,0.71-0.437,1.39-0.864,2.714
	c-0.794-1.421-1.281-2.22-1.7-3.052c-3.107-6.179-6.187-12.372-9.316-18.54c-0.483-0.953-1.17-1.801-1.71-2.616
	c-1.837,0.573-1.687,1.809-1.728,2.925c-0.188,5.069-0.321,10.141-0.558,15.207c-0.09,1.936-0.407,3.861-0.692,6.432
	c-1.231-1.428-2.04-2.315-2.793-3.247c-3.854-4.769-7.678-9.562-11.557-14.31c-0.67-0.82-1.559-1.46-2.207-2.055
	c-1.73,0.708-1.588,1.733-1.432,2.824c0.658,4.579,1.3,9.161,1.905,13.747c0.176,1.332,0.212,2.682,0.367,4.759
	c-5.997-3.583-11.425-6.825-16.927-10.113c-0.571,0.713-0.931,1.161-1.306,1.627c2.508,6.297,5.781,12.158,7.865,18.642
	c-1.018-0.061-1.803-0.328-2.562-0.66c-6.019-2.621-12.025-5.271-18.055-7.865c-0.906-0.389-1.917-0.531-2.751-0.753
	c-1.404,1.714-0.223,2.519,0.602,3.365c5.316,5.461,10.666,10.891,15.958,16.374c0.75,0.777,1.25,1.792,1.866,2.696L94.815,149.153z
	 M118.515,190.131c6.058,0.496,12.164,0.188,18.399,0.453c0,6.072,0,11.809,0,17.811c-1.097,0.127-2.107,0.338-3.12,0.348
	c-4.206,0.039-8.412,0.002-12.618,0.029c-0.921,0.006-1.84,0.166-2.802,0.26c-0.095,0.881-0.215,1.479-0.215,2.078
	c-0.009,9.113-0.01,18.227,0.014,27.34c0.001,0.777,0.156,1.559,0.29,2.33c1.074,6.205,4.5,10.973,9.353,14.73
	c9.601,7.434,20.423,8.795,31.824,5.553c13.295-3.785,20.606-13.816,20.607-27.557c0-7.186,0.006-14.371-0.009-21.557
	c-0.002-0.932-0.118-1.863-0.201-3.109c-6.296-0.061-12.366-0.119-18.494-0.176c0-6.279,0-12.088,0-18.184
	c3.27,0,6.319,0.041,9.367-0.014c2.993-0.055,6.013,0.252,9.533-0.268c-2.312-1.098-20.029-1.193-22.776-0.287
	c-0.164,9.631,0.056,19.383-0.12,29.193c-5.564,0-10.679,0-16.204,0c0-5.104,0.042-9.979-0.012-14.854
	c-0.054-4.865,0.239-9.744-0.171-14.52C138.035,189.035,120.359,189.17,118.515,190.131z M125.867,90.851
	c4.248-0.517,7.643-0.823,11.001-1.361c5.664-0.908,11.055-2.64,15.91-5.803c3.042-1.981,5.478-4.502,6.119-8.17
	c0.307-1.745,0.01-3.627-0.204-5.426c-0.69-5.81-1.415-11.617-2.23-17.41c-0.521-3.702-2.505-6.45-5.82-8.261
	c-4.348-2.373-9.11-3.151-13.919-3.222c-3.729-0.055-7.497,0.438-11.198,1.008c-5.481,0.842-10.733,2.477-15.477,5.483
	c-5.775,3.662-7.482,7.73-6.375,14.469c0.777,4.737,1.39,9.51,1.838,14.289c0.625,6.657,3.185,10.33,9.607,12.248
	C118.854,89.809,122.789,90.253,125.867,90.851z M81.532,71.322c-2.335-2.701-4.842-4.157-7.953-4.442
	c-3.802-0.349-7.527,0.027-11.06,1.579c-10.6,4.659-19.063,11.874-24.604,22.024c-4.183,7.665-4.096,13.636,2.301,20.688
	c2.473,2.725,4.917,5.478,7.305,8.277c3.83,4.489,8.742,5.513,14.265,4.519c7.327-1.32,13.276-5.274,18.711-10.096
	c3.878-3.441,7.388-7.221,9.987-11.772c3.836-6.719,4.312-13.396-0.166-20.029c-0.365-0.54-0.894-0.969-1.479-1.591
	c-6.423,5.465-12.665,10.776-19.02,16.183c1.358,1.596,2.518,2.898,3.608,4.257c1.453,1.814,1.398,3.28-0.342,4.808
	c-0.875,0.768-2.019,1.228-2.845,1.712c-2.732-1.483-15.641-16.208-16.523-18.672c0.078-0.263,0.148-0.607,0.281-0.927
	c1.448-3.506,4.321-4.013,6.88-1.233c0.566,0.615,1.181,1.187,1.884,1.89C69.093,82.706,75.209,77.108,81.532,71.322z
	 M86.303,190.607c6.53-0.385,12.744,0.191,18.915-0.746c-0.898-0.451-1.805-0.549-2.712-0.549
	c-8.934-0.012-17.868,0.004-26.802-0.023c-1.092-0.004-2.185-0.205-3.449-0.334c-0.229-3.104-0.609-5.91,0.318-8.973
	c4.8,0,9.426,0,14.054,0c4.693,0,9.387,0,14.079,0c0.043-0.152,0.086-0.305,0.128-0.457c-10.401-7.426-20.803-14.852-31.376-22.398
	c-0.691,8.07-0.357,54.299,0.517,56.578c5.387,0,10.936,0,16.792,0c0,3.762,0,7.135,0,10.377
	c8.425,3.029,12.843,9.275,12.985,18.008c0.162,9.973-3.902,16.258-13.048,19.846c0.061,0.775,0.127,1.645,0.203,2.607
	c5.793,0.348,10.964-0.617,15.582-3.648c1.08-0.709,2.019-1.967,2.49-3.178c0.52-1.34,0.577-2.916,0.581-4.393
	c0.038-14.627,0.027-29.256,0.012-43.883c0-0.834-0.162-1.67-0.279-2.785c-3.387,0-6.525,0.049-9.661-0.014
	c-3.097-0.064-6.233,0.316-9.327-0.307C86.303,200.941,86.303,195.902,86.303,190.607z M197.23,179.545
	c0.036,0.146,0.073,0.291,0.109,0.438c4.726,0,9.452-0.035,14.177,0.01c4.684,0.045,9.383-0.207,14.183,0.17
	c0,3.133,0,5.869,0,8.986c-1.763,0.057-3.308,0.146-4.851,0.148c-8.41,0.016-16.82-0.004-25.231,0.023
	c-0.833,0.004-1.854-0.34-2.899,1.207c6.734,0,12.959,0,19.346,0c0,5.482,0,10.506,0,15.771c-1.188,0.131-2.2,0.332-3.217,0.34
	c-4.292,0.037-8.585,0.006-12.879,0.027c-0.929,0.004-1.859,0.123-2.949,0.203c-0.081,1.006-0.196,1.77-0.196,2.531
	c-0.01,15.42,0.037,30.84-0.047,46.26c-0.016,2.887,1.424,4.588,3.685,5.844c3.987,2.213,8.311,3.158,12.853,3.117
	c0.578-0.006,1.154-0.203,1.939-0.352c-0.055-0.955-0.102-1.773-0.14-2.473c-6.456-2.422-9.86-5.717-11.644-11.496
	c-1.503-4.867-1.481-9.826,0.019-14.699c1.162-3.775,3.262-7.016,6.591-9.232c1.491-0.994,3.266-1.562,5.297-2.506
	c0-3.184,0-6.549,0-10.334c5.919,0,11.46,0,17.155,0c0-18.852,0-37.273,0-56.305C217.826,164.859,207.529,172.201,197.23,179.545z
	 M234.084,63.873c-11.142,11.883-21.951,23.414-32.948,35.144c11.94,11.191,23.598,22.119,35.428,33.209
	c2.623-2.806,4.975-5.322,7.398-7.915c-0.74-0.781-1.191-1.302-1.689-1.773c-4.716-4.447-9.429-8.897-14.166-13.319
	c-1.083-1.01-1.965-2.029-1.278-3.946c7.711-8.484,15.987-16.866,23.948-25.774C245.129,74.212,239.778,69.205,234.084,63.873z
	 M204.816,50.464c-7.682-2.132-14.718-4.606-22.104-6.436c-4.674,15.512-9.244,30.68-13.877,46.054
	c7.548,2.27,14.693,4.418,22.035,6.625C195.562,81.148,200.14,65.97,204.816,50.464z M148.225,175.756
	c1.708,0,3.092-0.061,4.466,0.014c2.988,0.154,5.084-1.246,6.32-3.814c0.786-1.637,1.461-3.416,1.715-5.197
	c0.966-6.781,1.104-13.637-0.031-20.375c-1.249-7.42-4.294-10.007-12.47-8.021C148.225,150.622,148.225,162.924,148.225,175.756z
	 M191.308,156.641c0-3.152,0.223-6.325-0.074-9.449c-0.218-2.295-0.765-4.701-1.784-6.749c-1.88-3.777-6.164-3.711-8.337-0.066
	c-1.376,2.311-1.912,4.879-1.935,7.529c-0.048,5.866-0.184,11.739,0.066,17.594c0.106,2.463,0.894,4.965,1.755,7.309
	c0.65,1.771,2.142,2.957,4.259,2.961c2.101,0.004,3.619-1.125,4.324-2.887c0.828-2.074,1.466-4.316,1.654-6.529
	C191.511,163.137,191.307,159.879,191.308,156.641z M135.004,166.74c-2.085-0.373-2.049-1.922-2.05-3.43
	c-0.006-7.443,0.002-14.886-0.012-22.33c0-0.934-0.104-1.869-0.169-2.97c-1.398,0-2.549,0-3.785,0
	c-0.123,0.705-0.288,1.207-0.288,1.71c-0.016,9.107-0.106,18.217,0.065,27.32c0.037,1.924,0.762,3.982,1.674,5.713
	c2.1,3.982,6.536,4.045,8.668,0.068c0.993-1.852,1.604-4.131,1.648-6.232c0.181-8.666,0.085-17.337,0.07-26.006
	c-0.001-0.838-0.145-1.676-0.248-2.776c-1.422,0.077-2.574,0.141-4.006,0.218c0,1.254,0,2.199,0,3.144
	c0,7.355,0.002,14.71-0.005,22.065C136.565,164.537,136.713,165.916,135.004,166.74z M112.352,137.947
	c-1.532,12.712-3.025,25.117-4.535,37.65c1.53,0,2.628,0,3.697,0c1.948-2.646-0.179-6.129,2.08-8.598c1.107,0,2.206,0,3.647,0
	c0.418,2.9,0.82,5.691,1.227,8.506c1.364,0,2.52,0,4.044,0c-1.497-12.281-2.951-24.277-4.447-36.269
	c-0.058-0.46-0.505-0.872-0.76-1.29C115.744,137.947,114.288,137.947,112.352,137.947z M172.051,175.557
	c0.692-4.404,0.427-35.761-0.362-37.767c-1.062,0.083-2.212,0.171-3.282,0.254c-0.682,4.388-0.417,35.709,0.287,37.512
	C169.758,175.557,170.849,175.557,172.051,175.557z"/>
<path fill-rule="evenodd" clip-rule="evenodd" fill="#D7C656" d="M149.714,255.682c-7.445,0.064-12.847-2.508-16.652-8.039
	c-3.58-5.201-3.098-12.604,1.121-17.293c4.657-5.176,10.502-7.174,17.449-6.342c5.743,0.689,10.3,3.211,13.49,8.014
	c3.657,5.504,2.964,12.871-1.606,17.646C159.562,253.797,154.751,255.936,149.714,255.682z"/>
<path fill-rule="evenodd" clip-rule="evenodd" fill="#D7C656" d="M136.033,74.158c0.055,3.193-0.837,4.481-3.02,4.774
	c-2.372,0.317-3.878-0.727-4.255-3.154c-0.587-3.786-1.063-7.589-1.583-11.385c-0.33-2.416-0.671-4.83-0.975-7.249
	c-0.231-1.846,0.414-3.248,1.873-3.976c1.432-0.715,2.971-0.784,4.164,0.321c0.708,0.657,1.294,1.72,1.432,2.674
	C134.553,62.282,135.295,68.42,136.033,74.158z"/>
<polygon fill-rule="evenodd" clip-rule="evenodd" fill="#D7C656" points="94.759,149.208 94.859,149.253 94.815,149.153 "/>
<path fill-rule="evenodd" clip-rule="evenodd" fill="#D7C656" d="M154.443,145.985c1.474,0.248,2.025,1.331,2.038,2.624
	c0.051,5.321,0.041,10.643-0.016,15.961c-0.007,0.645-0.42,1.285-0.683,2.031c-0.764,0.059-1.421,0.105-2.333,0.174
	c-0.189-1.051-0.486-1.955-0.494-2.863c-0.047-4.971-0.026-9.943-0.021-14.916C152.938,147.761,152.916,146.495,154.443,145.985z"/>
<path fill-rule="evenodd" clip-rule="evenodd" fill="#D7C656" d="M184.641,146.277c2.001,0.466,2.378,1.493,2.383,2.705
	c0.021,5.161,0.059,10.323-0.035,15.483c-0.018,0.906-0.635,1.801-0.926,2.574c-2.155-0.062-2.53-1.322-2.549-2.537
	c-0.078-5.16-0.088-10.322,0.019-15.481C183.551,148.109,184.245,147.211,184.641,146.277z"/>
<path fill-rule="evenodd" clip-rule="evenodd" fill="#D7C656" d="M115.261,153.99c0.658,1.107,1.123,1.57,1.212,2.1
	c0.274,1.619,0.491,3.258,0.568,4.896c0.103,2.197-0.714,2.738-3.358,2.129C113.501,160.215,112.866,157.225,115.261,153.99z"/>
</svg>
