<?xml version="1.0" encoding="utf-8"?>
<!-- Generator: Adobe Illustrator 16.0.0, SVG Export Plug-In . SVG Version: 6.00 Build 0)  -->
<!DOCTYPE svg PUBLIC "-//W3C//DTD SVG 1.1//EN" "http://www.w3.org/Graphics/SVG/1.1/DTD/svg11.dtd">
<svg version="1.1" id="Layer_1" xmlns="http://www.w3.org/2000/svg" xmlns:xlink="http://www.w3.org/1999/xlink" x="0px" y="0px"
	 width="300px" height="300px" viewBox="0 0 300 300" enable-background="new 0 0 300 300" xml:space="preserve">
<path fill-rule="evenodd" clip-rule="evenodd" fill="#D7C656" d="M221.169,75.875c-13.314,8.567-26.309,16.928-39.695,25.542
	c-15.402-13.601-33.381-18.571-53.602-14.05c-13.81,3.088-24.744,10.897-32.965,22.307c-17.491,24.274-14.903,55.913,6.141,75.235
	c21.46,19.705,53.698,19.145,72.556,5.112c-5.73,0-10.749,0-15.571,0c-1.204-3.529-1.486-31.858-0.496-37.743
	c27.42,0,54.897,0,82.73,0c0,31.188,0,62.339,0,93.787c-13.928,0-27.556,0-41.691,0c0-4.755,0-9.243,0-14.223
	c-31.681,18.577-64.227,21.457-97.674,8.106c-24.378-9.729-42.316-26.96-53.925-50.568C23.413,141.462,39.578,81.809,88.253,53.231
	C133.208,26.838,191.786,38.97,221.169,75.875z"/>
<path fill-rule="evenodd" clip-rule="evenodd" fill="#D7C656" d="M236.128,101.722c0-33.973,0-67.369,0-101.278
	c1.987-0.101,3.467-0.175,5.221-0.263c0.288,2.147,0.439,3.875,0.764,5.569c1.272,6.647,5.054,11.893,9.653,16.575
	c4.752,4.836,9.894,9.301,14.508,14.259c3.494,3.756,6.747,7.823,9.544,12.118c5.553,8.53,5.871,22.067-1.498,32.802
	c0.353-4.661,1.011-9.762,1.062-14.869c0.09-9.146-3.765-16.536-10.948-22.16c-6.082-4.762-12.937-8.185-19.985-11.243
	c-0.641-0.277-1.368-0.351-2.64-0.662c0,1.931,0.001,3.506,0,5.081c-0.001,24.926-0.128,49.854,0.064,74.778
	c0.066,8.63-3.142,15.519-9.475,21.004c-9.206,7.976-19.774,11.75-31.932,8.661c-7.548-1.917-12.847-6.515-14.094-14.678
	c-0.702-4.59,0.682-8.817,3.002-12.667c7.532-12.501,24.75-19.548,38.804-15.917C230.576,99.452,232.858,100.519,236.128,101.722z"
	/>
<path fill-rule="evenodd" clip-rule="evenodd" fill="#D7C656" d="M68.984,266.504c-1.966,1.301-3.879,2.567-5.98,3.956
	c-3.517-1.736-7.22-3.673-11.209-1.815c-2.048,0.955-4.101,2.419-5.482,4.179c-3.025,3.853-2.562,9.485,0.611,13.043
	c3.703,4.153,8.519,4.834,14.36,1.714c-0.972-0.456-1.659-0.779-2.562-1.203c-0.053-0.702-0.162-1.564-0.169-2.427
	c-0.005-0.728,0.108-1.454,0.205-2.611c4.484,0,8.935,0,13.792,0c0,5.064,0,10.111,0,15.646c-1.88,0.106-3.73,0.211-5.55,0.312
	c-0.625-0.752-1.159-1.396-1.545-1.862c-13.948,4.547-24.482,1.935-28.748-13.327c-2.103-7.522,2.531-16.039,9.911-19.871
	C54.199,258.303,62.937,259.852,68.984,266.504z"/>
<path fill-rule="evenodd" clip-rule="evenodd" fill="#D7C656" d="M106.2,271.184c2.677-1.854,2.771-1.866,8.046-1.001
	c0,8.792,0,17.653,0,26.862c-2.744-0.013-5.631,1.187-7.92-1.193c-1.822,0.714-3.399,1.615-5.087,1.944
	c-6.278,1.221-12.272-2.771-13.414-9.089c-0.486-2.689-0.696-5.598-0.221-8.26C89.358,270.61,97.203,266.812,106.2,271.184z
	 M107.243,283.431c-0.087-3.691-2.94-6.662-6.264-6.521c-3.438,0.146-6.015,3.178-5.861,6.895c0.161,3.899,2.874,6.763,6.207,6.551
	C104.73,290.139,107.33,287.096,107.243,283.431z"/>
<path fill-rule="evenodd" clip-rule="evenodd" fill="#D7C656" d="M206.126,298.206c-7.876-0.038-13.886-6.335-13.915-14.581
	c-0.029-8.374,6.276-14.824,14.334-14.668c7.557,0.148,13.732,6.665,13.712,14.474C220.234,292.088,214.347,298.245,206.126,298.206
	z M206.092,276.942c-4.444,1.439-6.084,3.417-5.98,7.053c0.087,3.042,1.923,5.458,4.666,6.14c2.521,0.626,4.961-0.376,6.42-2.633
	c1.994-3.089,1.554-5.804-1.667-9.583C208.448,277.612,207.194,277.256,206.092,276.942z"/>
<path fill-rule="evenodd" clip-rule="evenodd" fill="#D7C656" d="M246.335,285.765c1.608,5.979,4.875,6.299,11.422,1.498
	c1.594,1.02,3.296,2.108,5.313,3.399c-0.661,1.141-1.062,2.239-1.797,3.032c-4.046,4.366-9.143,5.265-14.569,3.592
	c-5.14-1.585-7.866-5.524-8.464-10.803c-0.398-3.525-0.328-7.028,1.43-10.327c2.552-4.786,7.604-7.7,12.665-7.118
	c5.75,0.663,9.47,4.119,10.761,10.064c0.279,1.288,0.451,2.605,0.577,3.921c0.067,0.696-0.068,1.414-0.151,2.741
	C257.736,285.765,252.112,285.765,246.335,285.765z M255.344,279.772c-1.127-2.807-2.669-3.763-4.729-3.517
	c-1.877,0.224-3.603,0.95-4.028,3.517C249.479,279.772,252.103,279.772,255.344,279.772z"/>
<path fill-rule="evenodd" clip-rule="evenodd" fill="#D7C656" d="M180.44,296.892c-0.799-6.332,0.956-12.881-1.015-18.932
	c-4.85-2.139-7.501-0.647-7.702,4.153c-0.141,3.383-0.029,6.776-0.03,10.165c-0.001,1.438-0.001,2.875-0.001,4.626
	c-2.712,0-4.974,0-7.606,0c0-8.893,0-17.654,0-26.836c2.048,0,4.171,0,6.829,0c0.181,0.214,0.727,0.861,1.37,1.623
	c0.595-0.366,1.225-0.711,1.81-1.121c5.862-4.121,14.37,0.541,13.923,7.959c-0.337,5.578-0.074,11.191-0.104,16.79
	c-0.003,0.415-0.215,0.83-0.419,1.572C185.278,296.892,183.018,296.892,180.44,296.892z"/>
<path fill-rule="evenodd" clip-rule="evenodd" fill="#D7C656" d="M139.496,292.385c2.298-1.284,3.943-2.201,5.608-3.132
	c2.147,0.982,4.188,3.368,6.531,0.43c-0.735-2.625-3.166-2.497-4.927-3.291c-3.424-1.544-6.033-3.558-6.063-7.806
	c-0.032-4.441,1.729-7.291,5.857-8.863c4.022-1.533,7.747-0.692,10.419,2.446c0.639,0.751,1.053,1.692,1.809,2.938
	c-1.874,0.95-3.521,1.788-4.869,2.473c-2.221-0.234-3.952-3.469-6.05-0.082c1.626,2.479,4.575,2.502,6.79,3.742
	c4.128,2.312,5.722,5.969,4.531,10.355c-1.918,7.07-12.778,7.963-16.622,4.231C141.587,294.931,140.807,293.892,139.496,292.385z"/>
<path fill-rule="evenodd" clip-rule="evenodd" fill="#D7C656" d="M125.624,277.974c2.842,1.277,5.192,2.414,7.603,3.397
	c4.364,1.781,6.751,8.282,2.265,13.516c-4.458,5.196-13.862,3.727-17.245-2.784c1.633-0.894,3.276-1.795,4.758-2.606
	c1.977,0.544,3.724,1.139,5.52,1.444c0.477,0.081,1.103-0.727,1.756-1.195c-1.173-2.554-3.593-2.644-5.528-3.482
	c-4.796-2.078-6.735-5.5-5.7-10.114c0.905-4.026,3.975-6.584,8.544-7.115c3.933-0.458,7.051,1.53,9.053,6.124
	c-1.567,0.842-3.18,1.709-4.578,2.46C129.909,277.206,128.16,274.301,125.624,277.974z"/>
<path fill-rule="evenodd" clip-rule="evenodd" fill="#D7C656" d="M232.003,278.396c0,6.16,0,12.146,0,18.48
	c-2.561,0-4.811,0-7.438,0c0-6.059,0-12.034,0-18.737c-0.772-0.457-1.771-1.05-2.698-1.6c0-1.999,0-3.743,0-6.246
	c0.606-0.332,1.625-0.891,2.208-1.21c0.226-2.338,0.393-4.064,0.588-6.079c2.462,0,4.703,0,7.177,0
	c0.183,2.054,0.347,3.916,0.533,6.015c1.169,0.38,2.365,0.768,3.769,1.223c0,2.146,0,4.296,0,6.548
	C234.802,277.309,233.513,277.811,232.003,278.396z"/>
<path fill-rule="evenodd" clip-rule="evenodd" fill="#D7C656" d="M82.79,296.93c-2.68,0-4.821,0-7.264,0c0-11.381,0-22.471,0-33.87
	c2.46,0,4.708,0,7.264,0C82.79,274.432,82.79,285.529,82.79,296.93z"/>
</svg>
