<?xml version="1.0" encoding="utf-8"?>
<!-- Generator: Adobe Illustrator 16.0.0, SVG Export Plug-In . SVG Version: 6.00 Build 0)  -->
<!DOCTYPE svg PUBLIC "-//W3C//DTD SVG 1.1//EN" "http://www.w3.org/Graphics/SVG/1.1/DTD/svg11.dtd">
<svg version="1.1" id="Layer_1" xmlns="http://www.w3.org/2000/svg" xmlns:xlink="http://www.w3.org/1999/xlink" x="0px" y="0px"
	 width="96px" height="96px" viewBox="0 0 96 96" enable-background="new 0 0 96 96" xml:space="preserve">
<g>
	<path fill-rule="evenodd" clip-rule="evenodd" fill="#D8C441" d="M21.298,86.527c2.538,0.864,3.169-0.562,3.452-2.196
		c0.218-1.264-0.026-2.62,0.289-3.845c0.185-0.717,1.012-1.674,1.645-1.752c0.616-0.077,1.667,0.685,1.968,1.338
		c0.527,1.14,0.658,2.474,0.895,3.736c0.163,0.868,0.225,1.752,0.334,2.654c2.167,0.974,3.051-0.165,3.394-1.863
		c0.252-1.251-0.05-2.634,0.296-3.842c0.235-0.821,1.165-1.446,1.785-2.159c0.666,0.658,1.815,1.257,1.905,1.983
		c0.249,2.033,0.313,4.163-0.014,6.177c-0.597,3.668-4.272,5.813-7.974,4.604c-1.7-0.554-3.051-0.571-4.767-0.016
		c-4.204,1.359-7.845-1.285-8.164-5.695c-0.112-1.542-0.041-3.101,0.009-4.65c0.042-1.281,0.563-2.516,1.971-2.306
		c0.723,0.107,1.61,1.191,1.854,2.006C20.729,82.533,20.927,84.475,21.298,86.527z"/>
	<path fill-rule="evenodd" clip-rule="evenodd" fill="#D8C441" d="M15.507,79.96c-2.232,4.01-6.035,1.427-8.664,2.815
		c-0.474,2.793,0.04,3.783,2.324,4.121c1.146,0.171,2.331,0.092,3.499,0.099c1.344,0.006,2.3,0.618,2.546,1.929
		c0.265,1.42-0.735,2.3-1.898,2.532C7.09,92.704,1.178,90.686,1.502,83.313c0.103-2.332,0.019-4.674,0.023-7.009
		c0.003-1.51,0.182-3,2.051-3.213c1.808-0.201,2.526,0.941,2.675,2.6c0.045,0.495,0.242,0.972,0.374,1.475
		c2.619,0.405,5.139,0.726,7.621,1.234C14.711,78.494,15.022,79.333,15.507,79.96z"/>
	<path fill-rule="evenodd" clip-rule="evenodd" fill="#D8C441" d="M62.536,85.054c0.714,2.232,2.185,1.827,3.387,1.941
		c1.469,0.136,2.532,0.709,2.529,2.321c-0.004,1.864-1.299,2.262-2.873,2.388c-4.708,0.375-7.19-1.464-7.964-6.32
		c-0.444-2.777-0.572-5.618-0.701-8.436c-0.039-0.849,0.207-1.829,0.646-2.554c1.083-1.793,2.924-1.705,3.939,0.132
		c0.364,0.664,0.543,1.44,0.739,2.182c0.163,0.613,0.226,1.25,0.358,2.034c1.375,0.369,2.812,0.538,4.022,1.161
		c0.771,0.396,1.694,1.487,1.651,2.213c-0.047,0.788-0.991,1.825-1.801,2.197C65.363,84.821,64.016,84.807,62.536,85.054z"/>
	<path fill-rule="evenodd" clip-rule="evenodd" fill="#D8C441" d="M74.843,86.27c1.092,1.825,2.432,1.411,3.812,1.163
		c1.169-0.208,2.38-0.183,4.277-0.308c-0.76,1.497-0.957,2.453-1.545,2.939c-2.575,2.124-5.408,2.071-8.384,0.788
		c-2.77-1.191-3.82-3.292-3.693-6.186c0.207-4.729,5.088-7.647,9.607-5.651c0.923,0.408,1.76,1.084,2.52,1.766
		c1.173,1.054,2.352,2.241,1.686,4.018c-0.646,1.717-2.259,1.445-3.664,1.465C77.921,86.288,76.38,86.27,74.843,86.27z
		 M77.152,82.891c0.002-0.108,0.002-0.214,0.002-0.322c-0.531,0-1.06,0-1.591,0c-0.002,0.108-0.002,0.214-0.002,0.322
		C76.092,82.891,76.621,82.891,77.152,82.891z"/>
	<path fill-rule="evenodd" clip-rule="evenodd" fill="#D8C441" d="M50.199,78.956c1.416,0.178,2.465,0.196,3.451,0.457
		c1.342,0.358,2.318,1.232,2.363,2.722c0.049,1.666-1.217,2.148-2.535,2.414c-0.975,0.196-1.98,0.244-3.061,0.368
		c0.547,2.017,2.047,1.954,3.436,2.119c1.561,0.185,2.321,1.109,2.148,2.647c-0.158,1.396-1.174,1.841-2.46,2
		c-4.217,0.525-7.894-2.065-8.274-6.247c-0.292-3.208-0.114-6.465-0.102-9.698c0.006-1.442,0.554-2.569,2.194-2.652
		c1.474-0.074,2.018,1.035,2.306,2.192C49.939,76.383,50.001,77.537,50.199,78.956z"/>
	<path fill-rule="evenodd" clip-rule="evenodd" fill="#D8C441" d="M84.101,86.365c0.029-5.463,3.384-8.611,8.484-7.858
		c0.837,0.124,1.758,0.535,2.376,1.102c1.263,1.157,0.821,2.797-0.786,3.339c-0.361,0.122-0.767,0.112-1.152,0.165
		c-3.854,0.507-3.854,0.507-4.253,4.24c-0.279,2.632-1.281,4.201-2.679,4.199c-1.424,0-1.96-1.186-1.99-4.408
		C84.099,86.885,84.101,86.626,84.101,86.365z"/>
	<path fill-rule="evenodd" clip-rule="evenodd" fill="#D8C441" d="M38.971,85.442c0-1.296-0.065-2.597,0.019-3.887
		c0.086-1.32,0.798-2.191,2.205-2.236c1.393-0.043,2.285,0.737,2.335,2.073c0.102,2.716,0.101,5.441-0.006,8.158
		c-0.053,1.347-0.973,2.102-2.357,2.045c-1.404-0.059-2.101-0.943-2.18-2.265C38.909,88.04,38.97,86.739,38.971,85.442z"/>
	<path fill-rule="evenodd" clip-rule="evenodd" fill="#D8C441" d="M43.556,75.942c-0.469,0.379-1.167,1.307-2.064,1.58
		c-1.31,0.404-2.472-0.755-2.473-2.151c0-1.34,0.688-2.143,2.023-2.305C42.428,72.899,43.516,73.889,43.556,75.942z"/>
	<path fill-rule="evenodd" clip-rule="evenodd" fill="#D8C441" d="M75.561,82.891"/>
	<path fill-rule="evenodd" clip-rule="evenodd" fill="#D8C441" d="M77.154,82.568"/>
</g>
<g>
	<path fill-rule="evenodd" clip-rule="evenodd" fill="#D8C441" d="M87.708,12.872c-1.09,1.344-2.1,2.761-3.289,4.009
		c-1.25,1.31-2.648,2.479-4.023,3.659c-0.447,0.386-0.701,0.734-0.682,1.357c0.217,6.287-0.959,12.333-3.244,18.175
		c-1.686,4.305-3.942,8.292-6.798,11.925c-3.65,4.648-8.031,8.463-13.207,11.35c-3.859,2.151-7.953,3.669-12.266,4.584
		c-5.02,1.072-10.09,1.27-15.196,0.769c-3.889-0.385-7.645-1.322-11.293-2.686c-2.76-1.033-5.392-2.349-7.891-3.916
		c-0.118-0.076-0.225-0.166-0.343-0.33c8.562,0.712,16.317-1.342,23.367-6.619c-7.362-0.72-12.238-4.413-14.756-11.208
		c2.268,0.241,4.479,0.229,6.694-0.352c-3.611-0.978-6.636-2.847-8.946-5.79c-2.318-2.955-3.469-6.312-3.458-10.241
		c2.264,1.119,4.496,1.876,7.091,1.967c-3.469-2.545-5.71-5.764-6.58-9.836c-0.865-4.047-0.277-7.899,1.819-11.594
		c8.708,10.226,19.653,15.871,33.085,16.812c-0.089-0.732-0.189-1.362-0.238-1.997c-0.522-6.732,2.037-12.035,7.817-15.456
		C61.32,3.93,67.33,4.391,73.064,8.221c0.687,0.459,1.28,1.067,1.886,1.641c0.273,0.259,0.512,0.325,0.887,0.24
		c3.219-0.72,6.268-1.875,9.145-3.492c0.109-0.061,0.223-0.11,0.338-0.158c0.035-0.012,0.08,0.006,0.211,0.02
		c-1.191,3.637-3.432,6.43-6.518,8.651c0.689-0.11,1.396-0.154,2.064-0.347c1.918-0.553,3.824-1.163,5.734-1.753
		c0.299-0.092,0.598-0.184,0.896-0.276C87.708,12.789,87.708,12.83,87.708,12.872z"/>
</g>
<rect fill-rule="evenodd" clip-rule="evenodd" fill="none" width="96" height="96"/>
</svg>
