<?xml version="1.0" encoding="utf-8"?>
<!-- Generator: Adobe Illustrator 16.0.0, SVG Export Plug-In . SVG Version: 6.00 Build 0)  -->
<!DOCTYPE svg PUBLIC "-//W3C//DTD SVG 1.1//EN" "http://www.w3.org/Graphics/SVG/1.1/DTD/svg11.dtd">
<svg version="1.1" id="Layer_1" xmlns="http://www.w3.org/2000/svg" xmlns:xlink="http://www.w3.org/1999/xlink" x="0px" y="0px"
	 width="100px" height="100px" viewBox="0 0 100 100" enable-background="new 0 0 100 100" xml:space="preserve">
<path fill-rule="evenodd" clip-rule="evenodd" fill="#D8C441" d="M25.056,96.333c-0.994-0.316-1.973-0.689-2.983-0.939
	c-3.73-0.923-6.86-2.485-7.656-6.743c-0.548-2.933-1.504-5.839-1.646-8.786c-0.267-5.544-0.267-11.119,0.001-16.663
	c0.143-2.948,1.167-5.843,1.635-8.788c0.587-3.691,3.228-5.435,6.329-6.344c2.69-0.786,5.583-1.19,8.391-1.213
	c14.446-0.115,28.896-0.115,43.342,0c2.809,0.022,5.655,0.541,8.404,1.177c4.47,1.032,6.374,4.49,7.004,8.633
	c0.568,3.733,0.991,7.527,0.992,11.296c0.001,5.676,0.567,11.374-0.796,17.032c-1.399,5.805-1.252,9.324-10.451,10.533
	c-0.391,0.052-0.724,0.527-1.084,0.806C59.377,96.333,42.217,96.333,25.056,96.333z M52.735,70.591
	c0,4.922,0.053,9.845-0.026,14.765c-0.032,1.921,0.867,2.697,2.584,2.39c2.035-0.365,3.925-0.292,5.912,0.395
	c1.883,0.65,3.356-0.125,4.149-2.041c0.466-1.127,0.641-2.438,0.668-3.671c0.082-3.809,0.037-7.62,0.028-11.431
	c-0.004-1.269,0.104-2.562-0.099-3.803c-0.622-3.8-2.887-5.043-6.504-3.675c-0.286,0.107-0.506,0.379-0.772,0.552
	c-0.784,0.511-1.144,0.139-1.158-0.646c-0.044-2.222-0.076-4.444-0.045-6.667c0.021-1.505-0.425-2.377-2.143-2.384
	c-1.717-0.007-2.66,0.441-2.622,2.403C52.794,61.382,52.735,65.986,52.735,70.591z M69.828,75.585c0.004,0,0.006,0,0.009,0
	c0,2.218-0.095,4.441,0.021,6.653c0.23,4.384,2.777,6.66,7.06,6.459c3.504-0.166,6.479-3.786,6.268-7.578
	c-0.059-1.071-0.395-1.763-1.589-1.927c-1.949-0.271-2.684,0.208-3.146,2.28c-0.103,0.46,0.052,1.118-0.212,1.371
	c-0.508,0.483-1.248,1.043-1.856,1.005c-0.585-0.035-1.534-0.724-1.61-1.234c-0.236-1.55-0.257-3.165-0.083-4.725
	c0.062-0.559,0.831-1.249,1.431-1.481c0.695-0.268,1.56-0.12,2.35-0.114c5.226,0.04,4.697,0.241,4.731-5.016
	c0.003-0.635,0.03-1.271-0.01-1.9c-0.273-4.392-2.308-6.427-6.436-6.467c-4.471-0.042-6.682,1.993-6.908,6.496
	C69.742,71.462,69.828,73.526,69.828,75.585z M24.994,72.98c0.002,0,0.005,0,0.009,0c0,4.129,0.044,8.26-0.021,12.388
	c-0.029,1.896,0.855,2.434,2.614,2.443c2.085,0.011,2.238-1.219,2.233-2.797c-0.022-7.307-0.025-14.613,0-21.919
	c0.011-3.445,0.033-3.596,3.45-3.887c2.048-0.174,2.231-1.241,2.209-2.837c-0.024-1.806-1.149-1.992-2.542-1.987
	c-3.653,0.017-7.307-0.042-10.959,0.022c-2.354,0.042-3.025,1.017-2.621,3.27c0.28,1.558,1.42,1.373,2.515,1.501
	c3.026,0.353,3.063,0.38,3.102,3.319C25.027,65.991,24.994,69.485,24.994,72.98z M47.979,75.7c0.005,0,0.011,0,0.016,0
	c0-3.327,0.008-6.654-0.003-9.981c-0.005-1.284,0.074-2.609-1.821-2.676c-2.176-0.076-2.107,1.399-2.107,2.87
	c0,3.961,0.001,7.921-0.004,11.882c-0.001,0.949,0.074,1.915-0.065,2.847c-0.255,1.707-1.97,3.443-3.045,3.063
	c-1.452-0.515-1.528-1.849-1.525-3.161c0.007-3.96,0.002-7.921-0.001-11.881c0-1.108-0.004-2.217-0.01-3.327
	c-0.006-1.189-0.183-2.203-1.726-2.294c-1.705-0.103-2.204,0.782-2.199,2.305c0.02,6.336-0.092,12.676,0.044,19.009
	c0.081,3.772,1.88,4.826,5.206,3.198c1.568-0.767,2.702-1.377,4.452,0.02c1.265,1.012,2.715-0.104,2.765-1.896
	C48.044,82.354,47.979,79.026,47.979,75.7z"/>
<path fill-rule="evenodd" clip-rule="evenodd" fill="#D8C441" d="M41.263,4.811c-2.158,6.901-4.656,13.722-6.333,20.739
	c-0.861,3.602-0.237,7.556-0.324,11.35c-0.069,3.046-0.372,3.233-3.212,3.22c-1.85-0.008-2.604-0.781-2.463-2.567
	c0.025-0.315-0.028-0.637,0.005-0.949c0.992-9.363-1.56-18.099-4.644-26.76c-0.572-1.61-0.771-3.352-1.144-5.033
	c1.907,0,3.813,0,5.72,0c0.877,3.941,1.74,7.885,2.659,11.817c0.078,0.333,0.536,0.578,0.818,0.864
	c0.101-0.29,0.227-0.572,0.299-0.87c0.97-3.937,1.933-7.875,2.897-11.812C37.45,4.811,39.357,4.811,41.263,4.811z"/>
<path fill-rule="evenodd" clip-rule="evenodd" fill="#D8C441" d="M41.205,27.451c0-2.531-0.093-5.068,0.023-7.595
	c0.152-3.319,3.172-6.09,6.57-6.204c3.248-0.109,6.698,2.752,6.795,5.975c0.15,5.06,0.149,10.131,0.003,15.19
	c-0.093,3.247-3.443,6.022-6.785,5.967c-4.554-0.075-6.525-2.051-6.611-6.686c-0.041-2.214-0.007-4.432-0.007-6.647
	C41.197,27.451,41.201,27.451,41.205,27.451z M46.026,26.727c0,2.197-0.007,4.394,0.002,6.59c0.006,1.304,0.616,2.248,1.965,1.938
	c0.696-0.16,1.724-1.046,1.744-1.635c0.149-4.231,0.148-8.473,0-12.704c-0.021-0.612-0.992-1.528-1.678-1.705
	c-1.311-0.337-2.016,0.527-2.025,1.866C46.021,22.962,46.031,24.844,46.026,26.727z"/>
<path fill-rule="evenodd" clip-rule="evenodd" fill="#D8C441" d="M72.74,27.048c0,3.323,0.043,6.647-0.014,9.97
	c-0.05,2.96-1.6,4.135-4.116,2.615c-1.304-0.787-1.964-0.857-3.143-0.263c-0.817,0.412-1.775,0.675-2.689,0.737
	c-2.258,0.149-3.356-0.663-3.394-2.917c-0.111-6.961-0.039-13.926-0.055-20.889c-0.003-1.761,1.099-1.995,2.513-2.007
	c1.598-0.014,2.271,0.678,2.258,2.283c-0.037,4.905-0.076,9.814,0.041,14.717c0.033,1.386-0.962,3.431,1.365,3.939
	c1.24,0.271,2.665-1.051,2.508-4.277c-0.229-4.736-0.011-9.493-0.073-14.241c-0.023-1.88,0.81-2.473,2.585-2.435
	c1.643,0.036,2.236,0.756,2.218,2.32c-0.044,3.481-0.015,6.964-0.015,10.446C72.733,27.048,72.737,27.048,72.74,27.048z"/>
<path fill-rule="evenodd" clip-rule="evenodd" fill="#D8C441" d="M61.229,76.064c0,2.214,0.099,4.434-0.062,6.633
	c-0.045,0.613-0.982,1.719-1.29,1.647c-0.823-0.191-1.6-0.821-2.245-1.436c-0.256-0.246-0.149-0.906-0.15-1.378
	c-0.011-3.795-0.009-7.589-0.009-11.383c0-0.159,0.005-0.317,0.009-0.476c0.027-1.375,0.396-2.728,2.002-2.631
	c1.572,0.097,1.79,1.523,1.803,2.857c0.006,0.791,0.008,1.581,0.009,2.372c0.002,1.264,0.001,2.529,0.001,3.793
	C61.272,76.064,61.252,76.064,61.229,76.064z"/>
<path fill-rule="evenodd" clip-rule="evenodd" fill="#D8C441" d="M74.571,70.608c0.073-2.572,1.057-3.951,2.19-3.587
	c1.683,0.543,1.686,1.998,1.67,3.443c-0.015,1.32-0.548,1.993-1.946,1.981C74.698,72.43,74.523,71.297,74.571,70.608z"/>
</svg>
